<?xml version="1.0" standalone="no"?><!DOCTYPE svg PUBLIC "-//W3C//DTD SVG 1.1//EN" "http://www.w3.org/Graphics/SVG/1.1/DTD/svg11.dtd"><svg xmlns:xlink="http://www.w3.org/1999/xlink" version="1.1" class="highcharts-root" style="font-family: &quot;Helvetica Neue&quot;, Helvetica, Arial, sans-serif; font-size: 12px;" xmlns="http://www.w3.org/2000/svg" width="750" height="520" viewBox="0 0 750 520"><desc>Created with Highcharts 10.1.0</desc><defs><linearGradient x1="0" y1="0" x2="500" y2="500" gradientUnits="userSpaceOnUse" id="highcharts-jfwbpxm-1934"><stop offset="0" stop-color="rgb(35, 35, 35)" stop-opacity="1"></stop></linearGradient><clipPath id="highcharts-jfwbpxm-1935-"><rect x="0" y="0" width="687" height="416" fill="none"></rect></clipPath><clipPath id="highcharts-jfwbpxm-2113-"><rect x="0" y="0" width="687" height="416" fill="none"></rect></clipPath><linearGradient x1="0" y1="0" x2="0" y2="1" id="highcharts-jfwbpxm-2114"><stop offset="0" stop-color="#2962FF" stop-opacity="1"></stop><stop offset="1" stop-color="rgb(41,98,255)" stop-opacity="0"></stop></linearGradient><linearGradient x1="0" y1="0" x2="0" y2="1" id="highcharts-jfwbpxm-2297"><stop offset="0" stop-color="#459a63" stop-opacity="1"></stop><stop offset="1" stop-color="rgb(69,154,99)" stop-opacity="0"></stop></linearGradient><clipPath id="highcharts-jfwbpxm-2298-"><rect x="0" y="40" width="687" height="416" fill="none"></rect></clipPath></defs><rect fill="url(#highcharts-jfwbpxm-1934)" class="highcharts-background" x="0" y="0" width="750" height="520" rx="0" ry="0"></rect><rect fill="none" class="highcharts-plot-background" x="0" y="40" width="687" height="416"></rect><g class="highcharts-grid highcharts-xaxis-grid" data-z-index="1"><path fill="none" stroke="#333333" stroke-width="1" stroke-dasharray="none" data-z-index="1" class="highcharts-grid-line" d="M 48.5 40 L 48.5 456" opacity="1"></path><path fill="none" stroke="#333333" stroke-width="1" stroke-dasharray="none" data-z-index="1" class="highcharts-grid-line" d="M 139.5 40 L 139.5 456" opacity="1"></path><path fill="none" stroke="#333333" stroke-width="1" stroke-dasharray="none" data-z-index="1" class="highcharts-grid-line" d="M 231.5 40 L 231.5 456" opacity="1"></path><path fill="none" stroke="#333333" stroke-width="1" stroke-dasharray="none" data-z-index="1" class="highcharts-grid-line" d="M 322.5 40 L 322.5 456" opacity="1"></path><path fill="none" stroke="#333333" stroke-width="1" stroke-dasharray="none" data-z-index="1" class="highcharts-grid-line" d="M 413.5 40 L 413.5 456" opacity="1"></path><path fill="none" stroke="#333333" stroke-width="1" stroke-dasharray="none" data-z-index="1" class="highcharts-grid-line" d="M 504.5 40 L 504.5 456" opacity="1"></path><path fill="none" stroke="#333333" stroke-width="1" stroke-dasharray="none" data-z-index="1" class="highcharts-grid-line" d="M 595.5 40 L 595.5 456" opacity="1"></path></g><g class="highcharts-grid highcharts-yaxis-grid" data-z-index="1"><path fill="none" stroke="#333333" stroke-width="1" stroke-dasharray="none" data-z-index="1" class="highcharts-grid-line" d="M 0 456.5 L 687 456.5" opacity="1"></path><path fill="none" stroke="#333333" stroke-width="1" stroke-dasharray="none" data-z-index="1" class="highcharts-grid-line" d="M 0 414.5 L 687 414.5" opacity="1"></path><path fill="none" stroke="#333333" stroke-width="1" stroke-dasharray="none" data-z-index="1" class="highcharts-grid-line" d="M 0 373.5 L 687 373.5" opacity="1"></path><path fill="none" stroke="#333333" stroke-width="1" stroke-dasharray="none" data-z-index="1" class="highcharts-grid-line" d="M 0 331.5 L 687 331.5" opacity="1"></path><path fill="none" stroke="#333333" stroke-width="1" stroke-dasharray="none" data-z-index="1" class="highcharts-grid-line" d="M 0 290.5 L 687 290.5" opacity="1"></path><path fill="none" stroke="#333333" stroke-width="1" stroke-dasharray="none" data-z-index="1" class="highcharts-grid-line" d="M 0 248.5 L 687 248.5" opacity="1"></path><path fill="none" stroke="#333333" stroke-width="1" stroke-dasharray="none" data-z-index="1" class="highcharts-grid-line" d="M 0 206.5 L 687 206.5" opacity="1"></path><path fill="none" stroke="#333333" stroke-width="1" stroke-dasharray="none" data-z-index="1" class="highcharts-grid-line" d="M 0 165.5 L 687 165.5" opacity="1"></path><path fill="none" stroke="#333333" stroke-width="1" stroke-dasharray="none" data-z-index="1" class="highcharts-grid-line" d="M 0 123.5 L 687 123.5" opacity="1"></path><path fill="none" stroke="#333333" stroke-width="1" stroke-dasharray="none" data-z-index="1" class="highcharts-grid-line" d="M 0 82.5 L 687 82.5" opacity="1"></path><path fill="none" stroke="#333333" stroke-width="1" stroke-dasharray="none" data-z-index="1" class="highcharts-grid-line" d="M 0 39.5 L 687 39.5" opacity="1"></path></g><g class="highcharts-grid highcharts-yaxis-grid" data-z-index="1"></g><g class="highcharts-grid highcharts-yaxis-grid" data-z-index="1"></g><rect fill="none" class="highcharts-plot-border" data-z-index="1" x="0" y="40" width="687" height="416"></rect><g class="highcharts-axis highcharts-xaxis" data-z-index="2"><path fill="none" class="highcharts-axis-line" stroke="#616161" stroke-width="1" data-z-index="7" d="M 0 456.5 L 687 456.5"></path></g><g class="highcharts-axis highcharts-yaxis" data-z-index="2"><path fill="none" class="highcharts-axis-line" data-z-index="7" d="M 720 40 L 720 456"></path></g><g class="highcharts-axis highcharts-yaxis" data-z-index="2"><path fill="none" class="highcharts-axis-line" stroke="#616161" stroke-width="1" data-z-index="7" d="M -1.5 40 L -1.5 456"></path></g><g class="highcharts-series-group" data-z-index="3"><g class="highcharts-series highcharts-series-0 highcharts-area-series" data-z-index="90" opacity="1" transform="translate(0,40) scale(1 1)" clip-path="url(#highcharts-jfwbpxm-2113-)"><path fill="url(#highcharts-jfwbpxm-2114)" d="M 0 353.32544 L 3.7955801104972 350.99584 L 7.5911602209944 364.624 L 11.386740331492 365.10656 L 15.182320441989 362.5856 L 18.977900552486 358.00128 L 22.773480662983 357.90976 L 26.569060773481 355.20576 L 30.364640883978 358.70016 L 34.160220994475 356.8448 L 37.955801104972 355.8464 L 41.75138121547 347.9424 L 45.546961325967 341.03679999999997 L 49.342541436464 336.7104 L 53.138121546961 337.91679999999997 L 56.933701657459 337.0016 L 60.729281767956 329.59680000000003 L 64.524861878453 332.6336 L 68.32044198895 333.7152 L 72.116022099447 335.9616 L 75.911602209945 337.6672 L 79.707182320442 336.17792 L 83.502762430939 334.96320000000003 L 87.298342541436 322.5664 L 91.093922651934 313.9552 L 94.889502762431 308.3392 L 98.685082872928 307.0496 L 102.48066298343 313.49760000000003 L 106.27624309392 313.8304 L 110.07182320442 315.3696 L 113.86740331492 315.0784 L 117.66298342541 315.2864 L 121.45856353591 313.7888 L 125.25414364641 313.49760000000003 L 129.04972375691 317.408 L 132.8453038674 323.1488 L 136.6408839779 322.608 L 140.4364640884 318.2816 L 144.2320441989 322.7328 L 148.02762430939 326.976 L 151.82320441989 332.176 L 155.61878453039 339.9136 L 159.41436464088 342.4512 L 163.20994475138 340.9952 L 167.00552486188 339.664 L 170.80110497238 341.536 L 174.59668508287 346.4448 L 178.39226519337 344.5312 L 182.18784530387 338 L 185.98342541436 336.79359999999997 L 189.77900552486 337.584 L 193.57458563536 340.5792 L 197.37016574586 343.616 L 201.16574585635 343.0336 L 204.96132596685 346.944 L 208.75690607735 351.8944 L 212.55248618785 350.64639999999997 L 216.34806629834 350.1472 L 220.14364640884 345.98720000000003 L 223.93922651934 345.6544 L 227.73480662983 343.408 L 231.53038674033 347.4848 L 235.32596685083 351.47839999999997 L 239.12154696133 353.9744 L 242.91712707182 354.9728 L 246.71270718232 354.5152 L 250.50828729282 356.8448 L 254.30386740331 358.6336 L 258.09944751381 358.384 L 261.89502762431 362.2112 L 265.69060773481 362.5024 L 269.4861878453 363.2096 L 273.2817679558 364.1664 L 277.0773480663 364.0416 L 280.8729281768 356.8864 L 284.66850828729 368.7424 L 288.46408839779 364.3744 L 292.25966850829 366.0384 L 296.05524861878 365.4144 L 299.85082872928 365.8304 L 303.64640883978 367.4112 L 307.44198895028 371.1968 L 311.23756906077 371.8624 L 315.03314917127 371.4464 L 318.82872928177 373.9008 L 322.62430939227 375.3984 L 326.41988950276 373.984 L 330.21546961326 373.4848 L 334.01104972376 373.776 L 337.80662983425 371.488 L 341.60220994475 368.6176 L 345.39779005525 365.1232 L 349.19337016575 358.8 L 352.98895027624 355.9296 L 356.78453038674 325.64480000000003 L 360.58011049724 343.2416 L 364.37569060773 342.4512 L 368.17127071823 346.944 L 371.96685082873 346.5696 L 375.76243093923 348.81600000000003 L 379.55801104972 346.4864 L 383.35359116022 354.8896 L 387.14917127072 348.608 L 390.94475138122 338.4576 L 394.74033149171 336.7104 L 398.53591160221 335.08799999999997 L 402.33149171271 332.8832 L 406.1270718232 335.4624 L 409.9226519337 332.1344 L 413.7182320442 329.1808 L 417.5138121547 328.5568 L 421.30939226519 335.7952 L 425.10497237569 333.2992 L 428.90055248619 324.35519999999997 L 432.69613259669 320.8192 L 436.49171270718 316.2432 L 440.28729281768 317.824 L 444.08287292818 321.2768 L 447.87845303867 328.47360000000003 L 451.67403314917 331.3856 L 455.46961325967 331.0944 L 459.26519337017 333.632 L 463.06077348066 336.0864 L 466.85635359116 338.832 L 470.65193370166 345.1136 L 474.44751381215 346.6112 L 478.24309392265 357.01120000000003 L 482.03867403315 358.0512 L 485.83425414365 361.296 L 489.62983425414 361.4624 L 493.42541436464 360.2976 L 497.22099447514 359.5488 L 501.01657458564 359.6736 L 504.81215469613 359.008 L 508.60773480663 359.9232 L 512.40331491713 359.5488 L 516.19889502762 373.36 L 519.99447513812 372.736 L 523.79005524862 372.6112 L 527.58563535912 372.7776 L 531.38121546961 374.5664 L 535.17679558011 367.2032 L 538.97237569061 367.5776 L 542.76795580111 362.8352 L 546.5635359116 349.024 L 550.3591160221 344.2816 L 554.1546961326 345.1968 L 557.95027624309 335.92 L 561.74585635359 338.3744 L 565.54143646409 317.0752 L 569.33701657459 309.0464 L 573.13259668508 291.408 L 576.92817679558 272.89599999999996 L 580.72375690608 234.624 L 584.51933701657 230.0896 L 588.31491712707 289.536 L 592.11049723757 274.89279999999997 L 595.90607734807 230.672 L 599.70165745856 187.616 L 603.49723756906 196.352 L 607.29281767956 144.51839999999999 L 611.08839779006 60.73599999999999 L 614.88397790055 94.88959999999997 L 618.67955801105 76.62720000000002 L 622.47513812155 62.39999999999998 L 626.27071823204 55.16160000000002 L 630.06629834254 119.5584 L 633.86187845304 85.69600000000003 L 637.65745856354 79.74720000000002 L 641.45303867403 198.016 L 645.24861878453 255.5488 L 649.04419889503 268.528 L 652.83977900552 258.1696 L 656.63535911602 301.18399999999997 L 660.43093922652 309.4624 L 664.22651933702 301.7664 L 668.02209944751 286.20799999999997 L 668.02209944751 416 L 664.22651933702 416 L 660.43093922652 416 L 656.63535911602 416 L 652.83977900552 416 L 649.04419889503 416 L 645.24861878453 416 L 641.45303867403 416 L 637.65745856354 416 L 633.86187845304 416 L 630.06629834254 416 L 626.27071823204 416 L 622.47513812155 416 L 618.67955801105 416 L 614.88397790055 416 L 611.08839779006 416 L 607.29281767956 416 L 603.49723756906 416 L 599.70165745856 416 L 595.90607734807 416 L 592.11049723757 416 L 588.31491712707 416 L 584.51933701657 416 L 580.72375690608 416 L 576.92817679558 416 L 573.13259668508 416 L 569.33701657459 416 L 565.54143646409 416 L 561.74585635359 416 L 557.95027624309 416 L 554.1546961326 416 L 550.3591160221 416 L 546.5635359116 416 L 542.76795580111 416 L 538.97237569061 416 L 535.17679558011 416 L 531.38121546961 416 L 527.58563535912 416 L 523.79005524862 416 L 519.99447513812 416 L 516.19889502762 416 L 512.40331491713 416 L 508.60773480663 416 L 504.81215469613 416 L 501.01657458564 416 L 497.22099447514 416 L 493.42541436464 416 L 489.62983425414 416 L 485.83425414365 416 L 482.03867403315 416 L 478.24309392265 416 L 474.44751381215 416 L 470.65193370166 416 L 466.85635359116 416 L 463.06077348066 416 L 459.26519337017 416 L 455.46961325967 416 L 451.67403314917 416 L 447.87845303867 416 L 444.08287292818 416 L 440.28729281768 416 L 436.49171270718 416 L 432.69613259669 416 L 428.90055248619 416 L 425.10497237569 416 L 421.30939226519 416 L 417.5138121547 416 L 413.7182320442 416 L 409.9226519337 416 L 406.1270718232 416 L 402.33149171271 416 L 398.53591160221 416 L 394.74033149171 416 L 390.94475138122 416 L 387.14917127072 416 L 383.35359116022 416 L 379.55801104972 416 L 375.76243093923 416 L 371.96685082873 416 L 368.17127071823 416 L 364.37569060773 416 L 360.58011049724 416 L 356.78453038674 416 L 352.98895027624 416 L 349.19337016575 416 L 345.39779005525 416 L 341.60220994475 416 L 337.80662983425 416 L 334.01104972376 416 L 330.21546961326 416 L 326.41988950276 416 L 322.62430939227 416 L 318.82872928177 416 L 315.03314917127 416 L 311.23756906077 416 L 307.44198895028 416 L 303.64640883978 416 L 299.85082872928 416 L 296.05524861878 416 L 292.25966850829 416 L 288.46408839779 416 L 284.66850828729 416 L 280.8729281768 416 L 277.0773480663 416 L 273.2817679558 416 L 269.4861878453 416 L 265.69060773481 416 L 261.89502762431 416 L 258.09944751381 416 L 254.30386740331 416 L 250.50828729282 416 L 246.71270718232 416 L 242.91712707182 416 L 239.12154696133 416 L 235.32596685083 416 L 231.53038674033 416 L 227.73480662983 416 L 223.93922651934 416 L 220.14364640884 416 L 216.34806629834 416 L 212.55248618785 416 L 208.75690607735 416 L 204.96132596685 416 L 201.16574585635 416 L 197.37016574586 416 L 193.57458563536 416 L 189.77900552486 416 L 185.98342541436 416 L 182.18784530387 416 L 178.39226519337 416 L 174.59668508287 416 L 170.80110497238 416 L 167.00552486188 416 L 163.20994475138 416 L 159.41436464088 416 L 155.61878453039 416 L 151.82320441989 416 L 148.02762430939 416 L 144.2320441989 416 L 140.4364640884 416 L 136.6408839779 416 L 132.8453038674 416 L 129.04972375691 416 L 125.25414364641 416 L 121.45856353591 416 L 117.66298342541 416 L 113.86740331492 416 L 110.07182320442 416 L 106.27624309392 416 L 102.48066298343 416 L 98.685082872928 416 L 94.889502762431 416 L 91.093922651934 416 L 87.298342541436 416 L 83.502762430939 416 L 79.707182320442 416 L 75.911602209945 416 L 72.116022099447 416 L 68.32044198895 416 L 64.524861878453 416 L 60.729281767956 416 L 56.933701657459 416 L 53.138121546961 416 L 49.342541436464 416 L 45.546961325967 416 L 41.75138121547 416 L 37.955801104972 416 L 34.160220994475 416 L 30.364640883978 416 L 26.569060773481 416 L 22.773480662983 416 L 18.977900552486 416 L 15.182320441989 416 L 11.386740331492 416 L 7.5911602209944 416 L 3.7955801104972 416 L 0 416 Z" class="highcharts-area" data-z-index="0"></path><path fill="none" d="M 0 353.32544 L 3.7955801104972 350.99584 L 7.5911602209944 364.624 L 11.386740331492 365.10656 L 15.182320441989 362.5856 L 18.977900552486 358.00128 L 22.773480662983 357.90976 L 26.569060773481 355.20576 L 30.364640883978 358.70016 L 34.160220994475 356.8448 L 37.955801104972 355.8464 L 41.75138121547 347.9424 L 45.546961325967 341.03679999999997 L 49.342541436464 336.7104 L 53.138121546961 337.91679999999997 L 56.933701657459 337.0016 L 60.729281767956 329.59680000000003 L 64.524861878453 332.6336 L 68.32044198895 333.7152 L 72.116022099447 335.9616 L 75.911602209945 337.6672 L 79.707182320442 336.17792 L 83.502762430939 334.96320000000003 L 87.298342541436 322.5664 L 91.093922651934 313.9552 L 94.889502762431 308.3392 L 98.685082872928 307.0496 L 102.48066298343 313.49760000000003 L 106.27624309392 313.8304 L 110.07182320442 315.3696 L 113.86740331492 315.0784 L 117.66298342541 315.2864 L 121.45856353591 313.7888 L 125.25414364641 313.49760000000003 L 129.04972375691 317.408 L 132.8453038674 323.1488 L 136.6408839779 322.608 L 140.4364640884 318.2816 L 144.2320441989 322.7328 L 148.02762430939 326.976 L 151.82320441989 332.176 L 155.61878453039 339.9136 L 159.41436464088 342.4512 L 163.20994475138 340.9952 L 167.00552486188 339.664 L 170.80110497238 341.536 L 174.59668508287 346.4448 L 178.39226519337 344.5312 L 182.18784530387 338 L 185.98342541436 336.79359999999997 L 189.77900552486 337.584 L 193.57458563536 340.5792 L 197.37016574586 343.616 L 201.16574585635 343.0336 L 204.96132596685 346.944 L 208.75690607735 351.8944 L 212.55248618785 350.64639999999997 L 216.34806629834 350.1472 L 220.14364640884 345.98720000000003 L 223.93922651934 345.6544 L 227.73480662983 343.408 L 231.53038674033 347.4848 L 235.32596685083 351.47839999999997 L 239.12154696133 353.9744 L 242.91712707182 354.9728 L 246.71270718232 354.5152 L 250.50828729282 356.8448 L 254.30386740331 358.6336 L 258.09944751381 358.384 L 261.89502762431 362.2112 L 265.69060773481 362.5024 L 269.4861878453 363.2096 L 273.2817679558 364.1664 L 277.0773480663 364.0416 L 280.8729281768 356.8864 L 284.66850828729 368.7424 L 288.46408839779 364.3744 L 292.25966850829 366.0384 L 296.05524861878 365.4144 L 299.85082872928 365.8304 L 303.64640883978 367.4112 L 307.44198895028 371.1968 L 311.23756906077 371.8624 L 315.03314917127 371.4464 L 318.82872928177 373.9008 L 322.62430939227 375.3984 L 326.41988950276 373.984 L 330.21546961326 373.4848 L 334.01104972376 373.776 L 337.80662983425 371.488 L 341.60220994475 368.6176 L 345.39779005525 365.1232 L 349.19337016575 358.8 L 352.98895027624 355.9296 L 356.78453038674 325.64480000000003 L 360.58011049724 343.2416 L 364.37569060773 342.4512 L 368.17127071823 346.944 L 371.96685082873 346.5696 L 375.76243093923 348.81600000000003 L 379.55801104972 346.4864 L 383.35359116022 354.8896 L 387.14917127072 348.608 L 390.94475138122 338.4576 L 394.74033149171 336.7104 L 398.53591160221 335.08799999999997 L 402.33149171271 332.8832 L 406.1270718232 335.4624 L 409.9226519337 332.1344 L 413.7182320442 329.1808 L 417.5138121547 328.5568 L 421.30939226519 335.7952 L 425.10497237569 333.2992 L 428.90055248619 324.35519999999997 L 432.69613259669 320.8192 L 436.49171270718 316.2432 L 440.28729281768 317.824 L 444.08287292818 321.2768 L 447.87845303867 328.47360000000003 L 451.67403314917 331.3856 L 455.46961325967 331.0944 L 459.26519337017 333.632 L 463.06077348066 336.0864 L 466.85635359116 338.832 L 470.65193370166 345.1136 L 474.44751381215 346.6112 L 478.24309392265 357.01120000000003 L 482.03867403315 358.0512 L 485.83425414365 361.296 L 489.62983425414 361.4624 L 493.42541436464 360.2976 L 497.22099447514 359.5488 L 501.01657458564 359.6736 L 504.81215469613 359.008 L 508.60773480663 359.9232 L 512.40331491713 359.5488 L 516.19889502762 373.36 L 519.99447513812 372.736 L 523.79005524862 372.6112 L 527.58563535912 372.7776 L 531.38121546961 374.5664 L 535.17679558011 367.2032 L 538.97237569061 367.5776 L 542.76795580111 362.8352 L 546.5635359116 349.024 L 550.3591160221 344.2816 L 554.1546961326 345.1968 L 557.95027624309 335.92 L 561.74585635359 338.3744 L 565.54143646409 317.0752 L 569.33701657459 309.0464 L 573.13259668508 291.408 L 576.92817679558 272.89599999999996 L 580.72375690608 234.624 L 584.51933701657 230.0896 L 588.31491712707 289.536 L 592.11049723757 274.89279999999997 L 595.90607734807 230.672 L 599.70165745856 187.616 L 603.49723756906 196.352 L 607.29281767956 144.51839999999999 L 611.08839779006 60.73599999999999 L 614.88397790055 94.88959999999997 L 618.67955801105 76.62720000000002 L 622.47513812155 62.39999999999998 L 626.27071823204 55.16160000000002 L 630.06629834254 119.5584 L 633.86187845304 85.69600000000003 L 637.65745856354 79.74720000000002 L 641.45303867403 198.016 L 645.24861878453 255.5488 L 649.04419889503 268.528 L 652.83977900552 258.1696 L 656.63535911602 301.18399999999997 L 660.43093922652 309.4624 L 664.22651933702 301.7664 L 668.02209944751 286.20799999999997" class="highcharts-graph" data-z-index="1" stroke="#2962FF" stroke-width="2" stroke-linejoin="round" stroke-linecap="round"></path></g><g class="highcharts-markers highcharts-series-0 highcharts-area-series" data-z-index="90" opacity="1" transform="translate(0,40) scale(1 1)" clip-path="none"></g></g><text x="740" text-anchor="end" class="highcharts-title" data-z-index="4" style="color: rgb(211, 211, 211); font-size: 15px; fill: rgb(211, 211, 211);" y="512"></text><text x="14" text-anchor="start" class="highcharts-subtitle" data-z-index="4" style="color: rgb(51, 51, 51); fill: rgb(51, 51, 51); font-size: 15px;" y="25"><tspan style="color: rgb(211, 211, 211); fill: rgb(211, 211, 211);">Coal</tspan></text><text x="0" text-anchor="start" class="highcharts-caption" data-z-index="4" style="color: rgb(102, 102, 102); fill: rgb(102, 102, 102);" y="527"></text><g class="highcharts-axis-labels highcharts-xaxis-labels" data-z-index="7"><text x="49.342541436464" text-anchor="middle" transform="translate(0,0)" style="color: rgb(227, 225, 225); cursor: default; font-size: 15px; font-weight: 400; fill: rgb(227, 225, 225);" y="476" opacity="1">2010</text><text x="140.31785220994" text-anchor="middle" transform="translate(0,0)" style="color: rgb(227, 225, 225); cursor: default; font-size: 15px; font-weight: 400; fill: rgb(227, 225, 225);" y="476" opacity="1">2012</text><text x="231.53038674033" text-anchor="middle" transform="translate(0,0)" style="color: rgb(227, 225, 225); cursor: default; font-size: 15px; font-weight: 400; fill: rgb(227, 225, 225);" y="476" opacity="1">2014</text><text x="322.62430939227" text-anchor="middle" transform="translate(0,0)" style="color: rgb(227, 225, 225); cursor: default; font-size: 15px; font-weight: 400; fill: rgb(227, 225, 225);" y="476" opacity="1">2016</text><text x="413.7182320442" text-anchor="middle" transform="translate(0,0)" style="color: rgb(227, 225, 225); cursor: default; font-size: 15px; font-weight: 400; fill: rgb(227, 225, 225);" y="476" opacity="1">2018</text><text x="504.57493093923" text-anchor="middle" transform="translate(0,0)" style="color: rgb(227, 225, 225); cursor: default; font-size: 15px; font-weight: 400; fill: rgb(227, 225, 225);" y="476" opacity="1">2020</text><text x="595.67604218985" text-anchor="middle" transform="translate(0,0)" style="color: rgb(227, 225, 225); cursor: default; font-size: 15px; font-weight: 400; fill: rgb(227, 225, 225);" y="476" opacity="1">2022</text></g><g class="highcharts-axis-labels highcharts-yaxis-labels" data-z-index="7"><text x="0" text-anchor="start" transform="translate(0,0)" style="color: rgb(227, 225, 225); cursor: default; font-size: 15px; fill: rgb(227, 225, 225);" visibility="hidden"><tspan>0</tspan></text><text x="695" text-anchor="start" transform="translate(0,0)" style="color: rgb(227, 225, 225); cursor: default; font-size: 15px; fill: rgb(227, 225, 225);" y="419" opacity="1">50</text><text x="695" text-anchor="start" transform="translate(0,0)" style="color: rgb(227, 225, 225); cursor: default; font-size: 15px; fill: rgb(227, 225, 225);" y="377" opacity="1">100</text><text x="695" text-anchor="start" transform="translate(0,0)" style="color: rgb(227, 225, 225); cursor: default; font-size: 15px; fill: rgb(227, 225, 225);" y="336" opacity="1">150</text><text x="695" text-anchor="start" transform="translate(0,0)" style="color: rgb(227, 225, 225); cursor: default; font-size: 15px; fill: rgb(227, 225, 225);" y="294" opacity="1">200</text><text x="695" text-anchor="start" transform="translate(0,0)" style="color: rgb(227, 225, 225); cursor: default; font-size: 15px; fill: rgb(227, 225, 225);" y="253" opacity="1">250</text><text x="695" text-anchor="start" transform="translate(0,0)" style="color: rgb(227, 225, 225); cursor: default; font-size: 15px; fill: rgb(227, 225, 225);" y="211" opacity="1">300</text><text x="695" text-anchor="start" transform="translate(0,0)" style="color: rgb(227, 225, 225); cursor: default; font-size: 15px; fill: rgb(227, 225, 225);" y="169" opacity="1">350</text><text x="695" text-anchor="start" transform="translate(0,0)" style="color: rgb(227, 225, 225); cursor: default; font-size: 15px; fill: rgb(227, 225, 225);" y="128" opacity="1">400</text><text x="695" text-anchor="start" transform="translate(0,0)" style="color: rgb(227, 225, 225); cursor: default; font-size: 15px; fill: rgb(227, 225, 225);" y="86" opacity="1">450</text><text x="0" text-anchor="start" transform="translate(0,0)" style="color: rgb(227, 225, 225); cursor: default; font-size: 15px; fill: rgb(227, 225, 225);" visibility="hidden">500</text></g><g class="highcharts-axis-labels highcharts-yaxis-labels" data-z-index="7"></g><g class="highcharts-axis-labels highcharts-yaxis-labels" data-z-index="7"></g><g class="highcharts-control-points" data-z-index="99" clip-path="url(#highcharts-jfwbpxm-2298-)"></g><g class="highcharts-axis highcharts-yaxis" data-z-index="9999"><path fill="none" class="highcharts-tick" stroke="#333333" stroke-width="1" d="M 688 456.5 L 693 456.5" opacity="1"></path><path fill="none" class="highcharts-tick" stroke="#333333" stroke-width="1" d="M 688 414.5 L 693 414.5" opacity="1"></path><path fill="none" class="highcharts-tick" stroke="#333333" stroke-width="1" d="M 688 373.5 L 693 373.5" opacity="1"></path><path fill="none" class="highcharts-tick" stroke="#333333" stroke-width="1" d="M 688 331.5 L 693 331.5" opacity="1"></path><path fill="none" class="highcharts-tick" stroke="#333333" stroke-width="1" d="M 688 290.5 L 693 290.5" opacity="1"></path><path fill="none" class="highcharts-tick" stroke="#333333" stroke-width="1" d="M 688 248.5 L 693 248.5" opacity="1"></path><path fill="none" class="highcharts-tick" stroke="#333333" stroke-width="1" d="M 688 206.5 L 693 206.5" opacity="1"></path><path fill="none" class="highcharts-tick" stroke="#333333" stroke-width="1" d="M 688 165.5 L 693 165.5" opacity="1"></path><path fill="none" class="highcharts-tick" stroke="#333333" stroke-width="1" d="M 688 123.5 L 693 123.5" opacity="1"></path><path fill="none" class="highcharts-tick" stroke="#333333" stroke-width="1" d="M 688 82.5 L 693 82.5" opacity="1"></path><path fill="none" class="highcharts-tick" stroke="#333333" stroke-width="1" d="M 688 39.5 L 693 39.5" opacity="1"></path><path fill="none" class="highcharts-axis-line" stroke="#616161" stroke-width="1" data-z-index="7" d="M 688.5 40 L 688.5 456"></path></g><path fill="none" d="M 0 0 L 1792 0" stroke="#757575" stroke-width="1" stroke-dasharray="8,3" data-z-index="6" visibility="hidden" class="crosshair-fix-horizontal"></path><path fill="none" d="M 0 40 L 0 1160" stroke="#757575" stroke-width="1" stroke-dasharray="8,3" data-z-index="6" visibility="hidden" class="crosshair-fix-vertical"></path></svg>