<?xml version="1.0" standalone="no"?><!DOCTYPE svg PUBLIC "-//W3C//DTD SVG 1.1//EN" "http://www.w3.org/Graphics/SVG/1.1/DTD/svg11.dtd"><svg xmlns:xlink="http://www.w3.org/1999/xlink" version="1.1" class="highcharts-root" style="font-family: &quot;Helvetica Neue&quot;, Helvetica, Arial, sans-serif; font-size: 12px;" xmlns="http://www.w3.org/2000/svg" width="750" height="520" viewBox="0 0 750 520"><desc>Created with Highcharts 10.1.0</desc><defs><linearGradient x1="0" y1="0" x2="500" y2="500" gradientUnits="userSpaceOnUse" id="highcharts-31mz8xd-1980"><stop offset="0" stop-color="rgb(35, 35, 35)" stop-opacity="1"></stop></linearGradient><clipPath id="highcharts-31mz8xd-1981-"><rect x="0" y="0" width="687" height="416" fill="none"></rect></clipPath><clipPath id="highcharts-31mz8xd-2203-"><rect x="0" y="0" width="687" height="416" fill="none"></rect></clipPath><linearGradient x1="0" y1="0" x2="0" y2="1" id="highcharts-31mz8xd-2204"><stop offset="0" stop-color="#2962FF" stop-opacity="1"></stop><stop offset="1" stop-color="rgb(41,98,255)" stop-opacity="0"></stop></linearGradient><linearGradient x1="0" y1="0" x2="0" y2="1" id="highcharts-31mz8xd-2431"><stop offset="0" stop-color="#459a63" stop-opacity="1"></stop><stop offset="1" stop-color="rgb(69,154,99)" stop-opacity="0"></stop></linearGradient><clipPath id="highcharts-31mz8xd-2432-"><rect x="0" y="40" width="687" height="416" fill="none"></rect></clipPath></defs><rect fill="url(#highcharts-31mz8xd-1980)" class="highcharts-background" x="0" y="0" width="750" height="520" rx="0" ry="0"></rect><rect fill="none" class="highcharts-plot-background" x="0" y="40" width="687" height="416"></rect><g class="highcharts-grid highcharts-xaxis-grid" data-z-index="1"><path fill="none" stroke="#333333" stroke-width="1" stroke-dasharray="none" data-z-index="1" class="highcharts-grid-line" d="M 26.5 40 L 26.5 456" opacity="1"></path><path fill="none" stroke="#333333" stroke-width="1" stroke-dasharray="none" data-z-index="1" class="highcharts-grid-line" d="M 173.5 40 L 173.5 456" opacity="1"></path><path fill="none" stroke="#333333" stroke-width="1" stroke-dasharray="none" data-z-index="1" class="highcharts-grid-line" d="M 320.5 40 L 320.5 456" opacity="1"></path><path fill="none" stroke="#333333" stroke-width="1" stroke-dasharray="none" data-z-index="1" class="highcharts-grid-line" d="M 466.5 40 L 466.5 456" opacity="1"></path><path fill="none" stroke="#333333" stroke-width="1" stroke-dasharray="none" data-z-index="1" class="highcharts-grid-line" d="M 613.5 40 L 613.5 456" opacity="1"></path></g><g class="highcharts-grid highcharts-yaxis-grid" data-z-index="1"><path fill="none" stroke="#333333" stroke-width="1" stroke-dasharray="none" data-z-index="1" class="highcharts-grid-line" d="M 0 456.5 L 687 456.5" opacity="1"></path><path fill="none" stroke="#333333" stroke-width="1" stroke-dasharray="none" data-z-index="1" class="highcharts-grid-line" d="M 0 397.5 L 687 397.5" opacity="1"></path><path fill="none" stroke="#333333" stroke-width="1" stroke-dasharray="none" data-z-index="1" class="highcharts-grid-line" d="M 0 337.5 L 687 337.5" opacity="1"></path><path fill="none" stroke="#333333" stroke-width="1" stroke-dasharray="none" data-z-index="1" class="highcharts-grid-line" d="M 0 278.5 L 687 278.5" opacity="1"></path><path fill="none" stroke="#333333" stroke-width="1" stroke-dasharray="none" data-z-index="1" class="highcharts-grid-line" d="M 0 218.5 L 687 218.5" opacity="1"></path><path fill="none" stroke="#333333" stroke-width="1" stroke-dasharray="none" data-z-index="1" class="highcharts-grid-line" d="M 0 159.5 L 687 159.5" opacity="1"></path><path fill="none" stroke="#333333" stroke-width="1" stroke-dasharray="none" data-z-index="1" class="highcharts-grid-line" d="M 0 99.5 L 687 99.5" opacity="1"></path><path fill="none" stroke="#333333" stroke-width="1" stroke-dasharray="none" data-z-index="1" class="highcharts-grid-line" d="M 0 39.5 L 687 39.5" opacity="1"></path></g><g class="highcharts-grid highcharts-yaxis-grid" data-z-index="1"></g><g class="highcharts-grid highcharts-yaxis-grid" data-z-index="1"></g><rect fill="none" class="highcharts-plot-border" data-z-index="1" x="0" y="40" width="687" height="416"></rect><g class="highcharts-axis highcharts-xaxis" data-z-index="2"><path fill="none" class="highcharts-axis-line" stroke="#616161" stroke-width="1" data-z-index="7" d="M 0 456.5 L 687 456.5"></path></g><g class="highcharts-axis highcharts-yaxis" data-z-index="2"><path fill="none" class="highcharts-axis-line" data-z-index="7" d="M 733 40 L 733 456"></path></g><g class="highcharts-axis highcharts-yaxis" data-z-index="2"><path fill="none" class="highcharts-axis-line" stroke="#616161" stroke-width="1" data-z-index="7" d="M -1.5 40 L -1.5 456"></path></g><g class="highcharts-series-group" data-z-index="3"><g class="highcharts-series highcharts-series-0 highcharts-area-series" data-z-index="90" opacity="1" transform="translate(0,40) scale(1 1)" clip-path="url(#highcharts-31mz8xd-2203-)"><path fill="url(#highcharts-31mz8xd-2204)" d="M 0 338.742857142857 L 3.0533333333333 332.8 L 6.1066666666667 300.70857142857 L 9.16 265.05142857143 L 12.213333333333 202.05714285714 L 15.266666666667 186.60571428571 L 18.32 211.56571428571 L 21.373333333333 248.41142857143 L 24.426666666667 227.01714285714 L 27.48 179.47428571429 L 30.533333333333 187.79428571429 L 33.586666666667 170.56 L 36.64 151.54285714286 L 39.693333333333 58.24000000000001 L 42.746666666667 71.31428571429001 L 45.8 171.27314285714 L 48.853333333333 145.00571428570998 L 51.906666666667 265.64571428571 L 54.96 235.93142857143 L 58.013333333333 202.05714285714 L 61.066666666667 179.11771428571 L 64.12 240.09142857143 L 67.173333333333 207.04914285714 L 70.226666666667 214.53714285714 L 73.28 218.45942857143 L 76.333333333333 215.13142857143 L 79.386666666667 243.65714285714 L 82.44 250.78857142857 L 85.493333333333 267.42857142856997 L 88.546666666667 286.60022857142997 L 91.6 281.06148571429003 L 94.653333333333 249.74262857143 L 97.706666666667 221.28822857143 L 100.76 203.22194285714 L 103.81333333333 208.55862857143 L 106.86666666667 183.872 L 109.92 172.91337142857 L 112.97333333333 176.8 L 116.02666666667 154.26468571429 L 119.08 167.10125714286 L 122.13333333333 207.48891428571 L 125.18666666667 213.80022857143 L 128.24 263.50628571429 L 131.29333333333 273.70422857143 L 134.34666666667 293.48205714286 L 137.4 285.1264 L 140.45333333333 289.2864 L 143.50666666667 291.00982857143003 L 146.56 289.32205714286 L 149.61333333333 273.40708571429 L 152.66666666667 265.38422857142996 L 155.72 273.0624 L 158.77333333333 283.8784 L 161.82666666667 274.27474285714004 L 164.88 237.32205714286 L 167.93333333333 222.65508571429 L 170.98666666667 236.02651428571 L 174.04 254.46125714286 L 177.09333333333 266.20434285714 L 180.14666666667 287.66994285714 L 183.2 292.29348571429 L 186.25333333333 279.31428571429 L 189.30666666667 287.82445714286 L 192.36 283.77142857142996 L 195.41333333333 253.73622857143 L 198.46666666667 219.74308571429 L 201.52 202.0928 L 204.57333333333 198.5984 L 207.62666666667 211.5776 L 210.68 200.32182857143 L 213.73333333333 186.32045714286 L 216.78666666667 178.1312 L 219.84 160.576 L 222.89333333333 167.27954285714 L 225.94666666667 155.37005714286 L 229 131.81257142856998 L 232.05333333333 136.21028571429002 L 235.10666666667 180.06857142857 L 238.16 155.92868571429 L 241.21333333333 133.34582857143 L 244.26666666667 213.58628571429 L 247.32 219.38651428571 L 250.37333333333 216.21302857143 L 253.42666666667 206.21714285714 L 256.48 215.78514285714 L 259.53333333333 223.392 L 262.58666666667 232.15177142857 L 265.64 175.39748571429 L 268.69333333333 167.62422857143 L 271.74666666667 196.82742857143 L 274.8 189.26811428571 L 277.85333333333 189.22057142857 L 280.90666666667 203.19817142857 L 283.96 201.46285714286 L 287.01333333333 191.96617142857 L 290.06666666667 203.60228571429 L 293.12 180.02102857143 L 296.17333333333 149.28457142857002 L 299.22666666667 183.872 L 302.28 185.4528 L 305.33333333333 192.14445714286 L 308.38666666667 186.40365714286 L 311.44 235.24205714286 L 314.49333333333 221.8112 L 317.54666666667 202.15222857143 L 320.6 233.792 L 323.65333333333 235.1232 L 326.70666666667 141.14285714286 L 329.76 155.70285714286 L 332.81333333333 203.44777142857 L 335.86666666667 216.91428571429 L 338.92 219.08937142857 L 341.97333333333 210.37714285714 L 345.02666666667 256.73142857143 L 348.08 276.93714285714 L 351.13333333333 198.5984 L 354.18666666667 244.67931428571 L 357.24 309.02857142857 L 360.29333333333 311.70285714286 L 363.34666666667 303.22834285714 L 366.4 287.03999999999996 L 369.45333333333 281.91725714285997 L 372.50666666667 295.50262857143 L 375.56 296.54857142856997 L 378.61333333333 301.39794285714 L 381.66666666667 294.76571428571003 L 384.72 289.72617142857 L 387.77333333333 296.54857142856997 L 390.82666666667 304.48822857143 L 393.88 317.051428571429 L 396.93333333333 310.28845714286 L 399.98666666667 312.59428571429 L 403.04 294.63497142857 L 406.09333333333 289.3696 L 409.14666666667 279.90857142857 L 412.2 294.46857142857 L 415.25333333333 305.37965714285997 L 418.30666666667 291.55657142857 L 421.36 282.28571428571 L 424.41333333333 282.05988571429 L 427.46666666667 267.51177142857 L 430.52 300.57782857143 L 433.57333333333 295.95428571429 L 436.62666666667 297.86788571428997 L 439.68 283.60502857143 L 442.73333333333 301.48114285714 L 445.78666666667 295.55017142857 L 448.84 294.528 L 451.89333333333 290.99794285714 L 454.94666666667 289.01302857143 L 458 306.04525714286 L 461.05333333333 308.43428571429 L 464.10666666667 321.330285714286 L 467.16 320.379428571429 L 470.21333333333 304.00091428571 L 473.26666666667 302.02788571429 L 476.32 301.48114285714 L 479.37333333333 301.89714285714 L 482.42666666667 307.56662857143 L 485.48 306.2592 L 488.53333333333 313.78285714286 L 491.58666666667 322.69714285714304 L 494.64 323.291428571429 L 497.69333333333 328.5568 L 500.74666666667 331.266742857143 L 503.8 325.1456 L 506.85333333333 317.051428571429 L 509.90666666667 315.56571428571 L 512.96 318.477714285714 L 516.01333333333 312.89142857142997 L 519.06666666667 296.54857142856997 L 522.12 297.73714285714 L 525.17333333333 316.15999999999997 L 528.22666666667 310.81142857143 L 531.28 289.41714285714 L 534.33333333333 300.70857142857 L 537.38666666667 307.24571428571 L 540.44 320.32 L 543.49333333333 317.348571428571 L 546.54666666667 347.657142857143 L 549.6 368.457142857143 L 552.65333333333 342.605714285714 L 555.70666666667 324.182857142857 L 558.76 311.10857142857003 L 561.81333333333 321.805714285714 L 564.86666666667 306.35428571429 L 567.92 298.92571428571 L 570.97333333333 302.78857142857 L 574.02666666667 316.801828571429 L 577.08 288.96548571429 L 580.13333333333 272.48 L 583.18666666667 258.21714285714 L 586.24 223.74857142857 L 589.29333333333 173.53142857143 L 592.34666666667 192.54857142857 L 595.4 211.56571428571 L 598.45333333333 208.29714285714 L 601.50666666667 188.68571428571 L 604.56 166.4 L 607.61333333333 70.72000000000003 L 610.66666666667 118.85714285713999 L 613.72 218.69714285714 L 616.77333333333 219.08937142857 L 619.82666666667 182.07725714286 L 622.88 162.14491428571 L 625.93333333333 147.89394285714002 L 628.98666666667 143.82902857143 L 632.04 175.97988571429 L 635.09333333333 172.73508571429 L 638.14666666667 185.07245714286 L 641.2 182.49325714286 L 644.25333333333 168.93165714286 L 647.30666666667 213.5744 L 650.36 215.06011428571 L 653.41333333333 217.12822857143 L 656.46666666667 208.832 L 659.52 187.5328 L 662.57333333333 185.69051428571 L 665.62666666667 177.44182857143 L 668.68 185.01302857143 L 671.73333333333 217.94834285714 L 671.73333333333 416 L 668.68 416 L 665.62666666667 416 L 662.57333333333 416 L 659.52 416 L 656.46666666667 416 L 653.41333333333 416 L 650.36 416 L 647.30666666667 416 L 644.25333333333 416 L 641.2 416 L 638.14666666667 416 L 635.09333333333 416 L 632.04 416 L 628.98666666667 416 L 625.93333333333 416 L 622.88 416 L 619.82666666667 416 L 616.77333333333 416 L 613.72 416 L 610.66666666667 416 L 607.61333333333 416 L 604.56 416 L 601.50666666667 416 L 598.45333333333 416 L 595.4 416 L 592.34666666667 416 L 589.29333333333 416 L 586.24 416 L 583.18666666667 416 L 580.13333333333 416 L 577.08 416 L 574.02666666667 416 L 570.97333333333 416 L 567.92 416 L 564.86666666667 416 L 561.81333333333 416 L 558.76 416 L 555.70666666667 416 L 552.65333333333 416 L 549.6 416 L 546.54666666667 416 L 543.49333333333 416 L 540.44 416 L 537.38666666667 416 L 534.33333333333 416 L 531.28 416 L 528.22666666667 416 L 525.17333333333 416 L 522.12 416 L 519.06666666667 416 L 516.01333333333 416 L 512.96 416 L 509.90666666667 416 L 506.85333333333 416 L 503.8 416 L 500.74666666667 416 L 497.69333333333 416 L 494.64 416 L 491.58666666667 416 L 488.53333333333 416 L 485.48 416 L 482.42666666667 416 L 479.37333333333 416 L 476.32 416 L 473.26666666667 416 L 470.21333333333 416 L 467.16 416 L 464.10666666667 416 L 461.05333333333 416 L 458 416 L 454.94666666667 416 L 451.89333333333 416 L 448.84 416 L 445.78666666667 416 L 442.73333333333 416 L 439.68 416 L 436.62666666667 416 L 433.57333333333 416 L 430.52 416 L 427.46666666667 416 L 424.41333333333 416 L 421.36 416 L 418.30666666667 416 L 415.25333333333 416 L 412.2 416 L 409.14666666667 416 L 406.09333333333 416 L 403.04 416 L 399.98666666667 416 L 396.93333333333 416 L 393.88 416 L 390.82666666667 416 L 387.77333333333 416 L 384.72 416 L 381.66666666667 416 L 378.61333333333 416 L 375.56 416 L 372.50666666667 416 L 369.45333333333 416 L 366.4 416 L 363.34666666667 416 L 360.29333333333 416 L 357.24 416 L 354.18666666667 416 L 351.13333333333 416 L 348.08 416 L 345.02666666667 416 L 341.97333333333 416 L 338.92 416 L 335.86666666667 416 L 332.81333333333 416 L 329.76 416 L 326.70666666667 416 L 323.65333333333 416 L 320.6 416 L 317.54666666667 416 L 314.49333333333 416 L 311.44 416 L 308.38666666667 416 L 305.33333333333 416 L 302.28 416 L 299.22666666667 416 L 296.17333333333 416 L 293.12 416 L 290.06666666667 416 L 287.01333333333 416 L 283.96 416 L 280.90666666667 416 L 277.85333333333 416 L 274.8 416 L 271.74666666667 416 L 268.69333333333 416 L 265.64 416 L 262.58666666667 416 L 259.53333333333 416 L 256.48 416 L 253.42666666667 416 L 250.37333333333 416 L 247.32 416 L 244.26666666667 416 L 241.21333333333 416 L 238.16 416 L 235.10666666667 416 L 232.05333333333 416 L 229 416 L 225.94666666667 416 L 222.89333333333 416 L 219.84 416 L 216.78666666667 416 L 213.73333333333 416 L 210.68 416 L 207.62666666667 416 L 204.57333333333 416 L 201.52 416 L 198.46666666667 416 L 195.41333333333 416 L 192.36 416 L 189.30666666667 416 L 186.25333333333 416 L 183.2 416 L 180.14666666667 416 L 177.09333333333 416 L 174.04 416 L 170.98666666667 416 L 167.93333333333 416 L 164.88 416 L 161.82666666667 416 L 158.77333333333 416 L 155.72 416 L 152.66666666667 416 L 149.61333333333 416 L 146.56 416 L 143.50666666667 416 L 140.45333333333 416 L 137.4 416 L 134.34666666667 416 L 131.29333333333 416 L 128.24 416 L 125.18666666667 416 L 122.13333333333 416 L 119.08 416 L 116.02666666667 416 L 112.97333333333 416 L 109.92 416 L 106.86666666667 416 L 103.81333333333 416 L 100.76 416 L 97.706666666667 416 L 94.653333333333 416 L 91.6 416 L 88.546666666667 416 L 85.493333333333 416 L 82.44 416 L 79.386666666667 416 L 76.333333333333 416 L 73.28 416 L 70.226666666667 416 L 67.173333333333 416 L 64.12 416 L 61.066666666667 416 L 58.013333333333 416 L 54.96 416 L 51.906666666667 416 L 48.853333333333 416 L 45.8 416 L 42.746666666667 416 L 39.693333333333 416 L 36.64 416 L 33.586666666667 416 L 30.533333333333 416 L 27.48 416 L 24.426666666667 416 L 21.373333333333 416 L 18.32 416 L 15.266666666667 416 L 12.213333333333 416 L 9.16 416 L 6.1066666666667 416 L 3.0533333333333 416 L 0 416 Z" class="highcharts-area" data-z-index="0"></path><path fill="none" d="M 0 338.742857142857 L 3.0533333333333 332.8 L 6.1066666666667 300.70857142857 L 9.16 265.05142857143 L 12.213333333333 202.05714285714 L 15.266666666667 186.60571428571 L 18.32 211.56571428571 L 21.373333333333 248.41142857143 L 24.426666666667 227.01714285714 L 27.48 179.47428571429 L 30.533333333333 187.79428571429 L 33.586666666667 170.56 L 36.64 151.54285714286 L 39.693333333333 58.24000000000001 L 42.746666666667 71.31428571429001 L 45.8 171.27314285714 L 48.853333333333 145.00571428570998 L 51.906666666667 265.64571428571 L 54.96 235.93142857143 L 58.013333333333 202.05714285714 L 61.066666666667 179.11771428571 L 64.12 240.09142857143 L 67.173333333333 207.04914285714 L 70.226666666667 214.53714285714 L 73.28 218.45942857143 L 76.333333333333 215.13142857143 L 79.386666666667 243.65714285714 L 82.44 250.78857142857 L 85.493333333333 267.42857142856997 L 88.546666666667 286.60022857142997 L 91.6 281.06148571429003 L 94.653333333333 249.74262857143 L 97.706666666667 221.28822857143 L 100.76 203.22194285714 L 103.81333333333 208.55862857143 L 106.86666666667 183.872 L 109.92 172.91337142857 L 112.97333333333 176.8 L 116.02666666667 154.26468571429 L 119.08 167.10125714286 L 122.13333333333 207.48891428571 L 125.18666666667 213.80022857143 L 128.24 263.50628571429 L 131.29333333333 273.70422857143 L 134.34666666667 293.48205714286 L 137.4 285.1264 L 140.45333333333 289.2864 L 143.50666666667 291.00982857143003 L 146.56 289.32205714286 L 149.61333333333 273.40708571429 L 152.66666666667 265.38422857142996 L 155.72 273.0624 L 158.77333333333 283.8784 L 161.82666666667 274.27474285714004 L 164.88 237.32205714286 L 167.93333333333 222.65508571429 L 170.98666666667 236.02651428571 L 174.04 254.46125714286 L 177.09333333333 266.20434285714 L 180.14666666667 287.66994285714 L 183.2 292.29348571429 L 186.25333333333 279.31428571429 L 189.30666666667 287.82445714286 L 192.36 283.77142857142996 L 195.41333333333 253.73622857143 L 198.46666666667 219.74308571429 L 201.52 202.0928 L 204.57333333333 198.5984 L 207.62666666667 211.5776 L 210.68 200.32182857143 L 213.73333333333 186.32045714286 L 216.78666666667 178.1312 L 219.84 160.576 L 222.89333333333 167.27954285714 L 225.94666666667 155.37005714286 L 229 131.81257142856998 L 232.05333333333 136.21028571429002 L 235.10666666667 180.06857142857 L 238.16 155.92868571429 L 241.21333333333 133.34582857143 L 244.26666666667 213.58628571429 L 247.32 219.38651428571 L 250.37333333333 216.21302857143 L 253.42666666667 206.21714285714 L 256.48 215.78514285714 L 259.53333333333 223.392 L 262.58666666667 232.15177142857 L 265.64 175.39748571429 L 268.69333333333 167.62422857143 L 271.74666666667 196.82742857143 L 274.8 189.26811428571 L 277.85333333333 189.22057142857 L 280.90666666667 203.19817142857 L 283.96 201.46285714286 L 287.01333333333 191.96617142857 L 290.06666666667 203.60228571429 L 293.12 180.02102857143 L 296.17333333333 149.28457142857002 L 299.22666666667 183.872 L 302.28 185.4528 L 305.33333333333 192.14445714286 L 308.38666666667 186.40365714286 L 311.44 235.24205714286 L 314.49333333333 221.8112 L 317.54666666667 202.15222857143 L 320.6 233.792 L 323.65333333333 235.1232 L 326.70666666667 141.14285714286 L 329.76 155.70285714286 L 332.81333333333 203.44777142857 L 335.86666666667 216.91428571429 L 338.92 219.08937142857 L 341.97333333333 210.37714285714 L 345.02666666667 256.73142857143 L 348.08 276.93714285714 L 351.13333333333 198.5984 L 354.18666666667 244.67931428571 L 357.24 309.02857142857 L 360.29333333333 311.70285714286 L 363.34666666667 303.22834285714 L 366.4 287.03999999999996 L 369.45333333333 281.91725714285997 L 372.50666666667 295.50262857143 L 375.56 296.54857142856997 L 378.61333333333 301.39794285714 L 381.66666666667 294.76571428571003 L 384.72 289.72617142857 L 387.77333333333 296.54857142856997 L 390.82666666667 304.48822857143 L 393.88 317.051428571429 L 396.93333333333 310.28845714286 L 399.98666666667 312.59428571429 L 403.04 294.63497142857 L 406.09333333333 289.3696 L 409.14666666667 279.90857142857 L 412.2 294.46857142857 L 415.25333333333 305.37965714285997 L 418.30666666667 291.55657142857 L 421.36 282.28571428571 L 424.41333333333 282.05988571429 L 427.46666666667 267.51177142857 L 430.52 300.57782857143 L 433.57333333333 295.95428571429 L 436.62666666667 297.86788571428997 L 439.68 283.60502857143 L 442.73333333333 301.48114285714 L 445.78666666667 295.55017142857 L 448.84 294.528 L 451.89333333333 290.99794285714 L 454.94666666667 289.01302857143 L 458 306.04525714286 L 461.05333333333 308.43428571429 L 464.10666666667 321.330285714286 L 467.16 320.379428571429 L 470.21333333333 304.00091428571 L 473.26666666667 302.02788571429 L 476.32 301.48114285714 L 479.37333333333 301.89714285714 L 482.42666666667 307.56662857143 L 485.48 306.2592 L 488.53333333333 313.78285714286 L 491.58666666667 322.69714285714304 L 494.64 323.291428571429 L 497.69333333333 328.5568 L 500.74666666667 331.266742857143 L 503.8 325.1456 L 506.85333333333 317.051428571429 L 509.90666666667 315.56571428571 L 512.96 318.477714285714 L 516.01333333333 312.89142857142997 L 519.06666666667 296.54857142856997 L 522.12 297.73714285714 L 525.17333333333 316.15999999999997 L 528.22666666667 310.81142857143 L 531.28 289.41714285714 L 534.33333333333 300.70857142857 L 537.38666666667 307.24571428571 L 540.44 320.32 L 543.49333333333 317.348571428571 L 546.54666666667 347.657142857143 L 549.6 368.457142857143 L 552.65333333333 342.605714285714 L 555.70666666667 324.182857142857 L 558.76 311.10857142857003 L 561.81333333333 321.805714285714 L 564.86666666667 306.35428571429 L 567.92 298.92571428571 L 570.97333333333 302.78857142857 L 574.02666666667 316.801828571429 L 577.08 288.96548571429 L 580.13333333333 272.48 L 583.18666666667 258.21714285714 L 586.24 223.74857142857 L 589.29333333333 173.53142857143 L 592.34666666667 192.54857142857 L 595.4 211.56571428571 L 598.45333333333 208.29714285714 L 601.50666666667 188.68571428571 L 604.56 166.4 L 607.61333333333 70.72000000000003 L 610.66666666667 118.85714285713999 L 613.72 218.69714285714 L 616.77333333333 219.08937142857 L 619.82666666667 182.07725714286 L 622.88 162.14491428571 L 625.93333333333 147.89394285714002 L 628.98666666667 143.82902857143 L 632.04 175.97988571429 L 635.09333333333 172.73508571429 L 638.14666666667 185.07245714286 L 641.2 182.49325714286 L 644.25333333333 168.93165714286 L 647.30666666667 213.5744 L 650.36 215.06011428571 L 653.41333333333 217.12822857143 L 656.46666666667 208.832 L 659.52 187.5328 L 662.57333333333 185.69051428571 L 665.62666666667 177.44182857143 L 668.68 185.01302857143 L 671.73333333333 217.94834285714" class="highcharts-graph" data-z-index="1" stroke="#2962FF" stroke-width="2" stroke-linejoin="round" stroke-linecap="round"></path></g><g class="highcharts-markers highcharts-series-0 highcharts-area-series" data-z-index="90" opacity="1" transform="translate(0,40) scale(1 1)" clip-path="none"></g></g><text x="740" text-anchor="end" class="highcharts-title" data-z-index="4" style="color: rgb(211, 211, 211); font-size: 15px; fill: rgb(211, 211, 211);" y="512"></text><text x="14" text-anchor="start" class="highcharts-subtitle" data-z-index="4" style="color: rgb(51, 51, 51); fill: rgb(51, 51, 51); font-size: 15px;" y="25"><tspan style="color: rgb(211, 211, 211); fill: rgb(211, 211, 211);">Ethanol</tspan></text><text x="0" text-anchor="start" class="highcharts-caption" data-z-index="4" style="color: rgb(102, 102, 102); fill: rgb(102, 102, 102);" y="527"></text><g class="highcharts-axis-labels highcharts-xaxis-labels" data-z-index="7"><text x="27.294949494949" text-anchor="middle" transform="translate(0,0)" style="color: rgb(227, 225, 225); cursor: default; font-size: 15px; font-weight: 400; fill: rgb(227, 225, 225);" y="476" opacity="1">2006</text><text x="174.04" text-anchor="middle" transform="translate(0,0)" style="color: rgb(227, 225, 225); cursor: default; font-size: 15px; font-weight: 400; fill: rgb(227, 225, 225);" y="476" opacity="1">2010</text><text x="320.6" text-anchor="middle" transform="translate(0,0)" style="color: rgb(227, 225, 225); cursor: default; font-size: 15px; font-weight: 400; fill: rgb(227, 225, 225);" y="476" opacity="1">2014</text><text x="467.16" text-anchor="middle" transform="translate(0,0)" style="color: rgb(227, 225, 225); cursor: default; font-size: 15px; font-weight: 400; fill: rgb(227, 225, 225);" y="476" opacity="1">2018</text><text x="613.53494949495" text-anchor="middle" transform="translate(0,0)" style="color: rgb(227, 225, 225); cursor: default; font-size: 15px; font-weight: 400; fill: rgb(227, 225, 225);" y="476" opacity="1">2022</text></g><g class="highcharts-axis-labels highcharts-yaxis-labels" data-z-index="7"><text x="0" text-anchor="start" transform="translate(0,0)" style="color: rgb(227, 225, 225); cursor: default; font-size: 15px; fill: rgb(227, 225, 225);" visibility="hidden">0.500</text><text x="695" text-anchor="start" transform="translate(0,0)" style="color: rgb(227, 225, 225); cursor: default; font-size: 15px; fill: rgb(227, 225, 225);" y="401" opacity="1">1</text><text x="695" text-anchor="start" transform="translate(0,0)" style="color: rgb(227, 225, 225); cursor: default; font-size: 15px; fill: rgb(227, 225, 225);" y="342" opacity="1">1.500</text><text x="695" text-anchor="start" transform="translate(0,0)" style="color: rgb(227, 225, 225); cursor: default; font-size: 15px; fill: rgb(227, 225, 225);" y="282" opacity="1">2</text><text x="695" text-anchor="start" transform="translate(0,0)" style="color: rgb(227, 225, 225); cursor: default; font-size: 15px; fill: rgb(227, 225, 225);" y="223" opacity="1">2.500</text><text x="695" text-anchor="start" transform="translate(0,0)" style="color: rgb(227, 225, 225); cursor: default; font-size: 15px; fill: rgb(227, 225, 225);" y="163" opacity="1">3</text><text x="695" text-anchor="start" transform="translate(0,0)" style="color: rgb(227, 225, 225); cursor: default; font-size: 15px; fill: rgb(227, 225, 225);" y="104" opacity="1">3.500</text><text x="0" text-anchor="start" transform="translate(0,0)" style="color: rgb(227, 225, 225); cursor: default; font-size: 15px; fill: rgb(227, 225, 225);" visibility="hidden">4</text></g><g class="highcharts-axis-labels highcharts-yaxis-labels" data-z-index="7"></g><g class="highcharts-axis-labels highcharts-yaxis-labels" data-z-index="7"></g><g class="highcharts-control-points" data-z-index="99" clip-path="url(#highcharts-31mz8xd-2432-)"></g><g class="highcharts-axis highcharts-yaxis" data-z-index="9999"><path fill="none" class="highcharts-tick" stroke="#333333" stroke-width="1" d="M 688 456.5 L 693 456.5" opacity="1"></path><path fill="none" class="highcharts-tick" stroke="#333333" stroke-width="1" d="M 688 397.5 L 693 397.5" opacity="1"></path><path fill="none" class="highcharts-tick" stroke="#333333" stroke-width="1" d="M 688 337.5 L 693 337.5" opacity="1"></path><path fill="none" class="highcharts-tick" stroke="#333333" stroke-width="1" d="M 688 278.5 L 693 278.5" opacity="1"></path><path fill="none" class="highcharts-tick" stroke="#333333" stroke-width="1" d="M 688 218.5 L 693 218.5" opacity="1"></path><path fill="none" class="highcharts-tick" stroke="#333333" stroke-width="1" d="M 688 159.5 L 693 159.5" opacity="1"></path><path fill="none" class="highcharts-tick" stroke="#333333" stroke-width="1" d="M 688 99.5 L 693 99.5" opacity="1"></path><path fill="none" class="highcharts-tick" stroke="#333333" stroke-width="1" d="M 688 39.5 L 693 39.5" opacity="1"></path><path fill="none" class="highcharts-axis-line" stroke="#616161" stroke-width="1" data-z-index="7" d="M 688.5 40 L 688.5 456"></path></g><path fill="none" d="M 0 0 L 1792 0" stroke="#757575" stroke-width="1" stroke-dasharray="8,3" data-z-index="6" visibility="hidden" class="crosshair-fix-horizontal"></path><path fill="none" d="M 0 40 L 0 1160" stroke="#757575" stroke-width="1" stroke-dasharray="8,3" data-z-index="6" visibility="hidden" class="crosshair-fix-vertical"></path></svg>