<?xml version="1.0" standalone="no"?><!DOCTYPE svg PUBLIC "-//W3C//DTD SVG 1.1//EN" "http://www.w3.org/Graphics/SVG/1.1/DTD/svg11.dtd"><svg xmlns:xlink="http://www.w3.org/1999/xlink" version="1.1" class="highcharts-root" style="font-family: &quot;Helvetica Neue&quot;, Helvetica, Arial, sans-serif; font-size: 12px;" xmlns="http://www.w3.org/2000/svg" width="750" height="520" viewBox="0 0 750 520"><desc>Created with Highcharts 10.1.0</desc><defs><linearGradient x1="0" y1="0" x2="500" y2="500" gradientUnits="userSpaceOnUse" id="highcharts-0d3bxd3-2016"><stop offset="0" stop-color="rgb(35, 35, 35)" stop-opacity="1"></stop></linearGradient><clipPath id="highcharts-0d3bxd3-2017-"><rect x="0" y="0" width="687" height="416" fill="none"></rect></clipPath><clipPath id="highcharts-0d3bxd3-2233-"><rect x="0" y="0" width="687" height="416" fill="none"></rect></clipPath><linearGradient x1="0" y1="0" x2="0" y2="1" id="highcharts-0d3bxd3-2234"><stop offset="0" stop-color="#2962FF" stop-opacity="1"></stop><stop offset="1" stop-color="rgb(41,98,255)" stop-opacity="0"></stop></linearGradient><linearGradient x1="0" y1="0" x2="0" y2="1" id="highcharts-0d3bxd3-2455"><stop offset="0" stop-color="#459a63" stop-opacity="1"></stop><stop offset="1" stop-color="rgb(69,154,99)" stop-opacity="0"></stop></linearGradient><clipPath id="highcharts-0d3bxd3-2456-"><rect x="0" y="40" width="687" height="416" fill="none"></rect></clipPath></defs><rect fill="url(#highcharts-0d3bxd3-2016)" class="highcharts-background" x="0" y="0" width="750" height="520" rx="0" ry="0"></rect><rect fill="none" class="highcharts-plot-background" x="0" y="40" width="687" height="416"></rect><g class="highcharts-grid highcharts-xaxis-grid" data-z-index="1"><path fill="none" stroke="#333333" stroke-width="1" stroke-dasharray="none" data-z-index="1" class="highcharts-grid-line" d="M 8.5 40 L 8.5 456" opacity="1"></path><path fill="none" stroke="#333333" stroke-width="1" stroke-dasharray="none" data-z-index="1" class="highcharts-grid-line" d="M 159.5 40 L 159.5 456" opacity="1"></path><path fill="none" stroke="#333333" stroke-width="1" stroke-dasharray="none" data-z-index="1" class="highcharts-grid-line" d="M 309.5 40 L 309.5 456" opacity="1"></path><path fill="none" stroke="#333333" stroke-width="1" stroke-dasharray="none" data-z-index="1" class="highcharts-grid-line" d="M 460.5 40 L 460.5 456" opacity="1"></path><path fill="none" stroke="#333333" stroke-width="1" stroke-dasharray="none" data-z-index="1" class="highcharts-grid-line" d="M 611.5 40 L 611.5 456" opacity="1"></path></g><g class="highcharts-grid highcharts-yaxis-grid" data-z-index="1"><path fill="none" stroke="#333333" stroke-width="1" stroke-dasharray="none" data-z-index="1" class="highcharts-grid-line" d="M 0 456.5 L 687 456.5" opacity="1"></path><path fill="none" stroke="#333333" stroke-width="1" stroke-dasharray="none" data-z-index="1" class="highcharts-grid-line" d="M 0 373.5 L 687 373.5" opacity="1"></path><path fill="none" stroke="#333333" stroke-width="1" stroke-dasharray="none" data-z-index="1" class="highcharts-grid-line" d="M 0 290.5 L 687 290.5" opacity="1"></path><path fill="none" stroke="#333333" stroke-width="1" stroke-dasharray="none" data-z-index="1" class="highcharts-grid-line" d="M 0 206.5 L 687 206.5" opacity="1"></path><path fill="none" stroke="#333333" stroke-width="1" stroke-dasharray="none" data-z-index="1" class="highcharts-grid-line" d="M 0 123.5 L 687 123.5" opacity="1"></path><path fill="none" stroke="#333333" stroke-width="1" stroke-dasharray="none" data-z-index="1" class="highcharts-grid-line" d="M 0 39.5 L 687 39.5" opacity="1"></path></g><g class="highcharts-grid highcharts-yaxis-grid" data-z-index="1"></g><g class="highcharts-grid highcharts-yaxis-grid" data-z-index="1"></g><rect fill="none" class="highcharts-plot-border" data-z-index="1" x="0" y="40" width="687" height="416"></rect><g class="highcharts-axis highcharts-xaxis" data-z-index="2"><path fill="none" class="highcharts-axis-line" stroke="#616161" stroke-width="1" data-z-index="7" d="M 0 456.5 L 687 456.5"></path></g><g class="highcharts-axis highcharts-yaxis" data-z-index="2"><path fill="none" class="highcharts-axis-line" data-z-index="7" d="M 703 40 L 703 456"></path></g><g class="highcharts-axis highcharts-yaxis" data-z-index="2"><path fill="none" class="highcharts-axis-line" stroke="#616161" stroke-width="1" data-z-index="7" d="M -1.5 40 L -1.5 456"></path></g><g class="highcharts-series-group" data-z-index="3"><g class="highcharts-series highcharts-series-0 highcharts-area-series" data-z-index="90" opacity="1" transform="translate(0,40) scale(1 1)" clip-path="url(#highcharts-0d3bxd3-2233-)"><path fill="url(#highcharts-0d3bxd3-2234)" d="M 0 284.45248000000004 L 3.1369863013699 288.94528 L 6.2739726027398 271.23199999999997 L 9.4109589041097 269.91744 L 12.54794520548 287.51424 L 15.684931506849 244.2336 L 18.821917808219 232.128 L 21.958904109589 225.69664 L 25.095890410959 216.89408 L 28.232876712329 220.51328 L 31.369863013699 264.51776 L 34.506849315069 285.94176 L 37.643835616438 295.64288 L 40.780821917808 274.36032 L 43.917808219178 282.70528 L 47.054794520548 291.12512 L 50.191780821918 262.27968 L 53.328767123288 240.3232 L 56.465753424657 212.9504 L 59.602739726027 228.70016 L 62.739726027397 225.12256 L 65.876712328767 237.88544 L 69.013698630137 245.28192 L 72.150684931507 243.91744 L 75.287671232877 221.312 L 78.424657534247 228.04288 L 81.561643835617 210.01344 L 84.698630136986 223.88288 L 87.835616438356 206.97664 L 90.972602739726 198.32384 L 94.109589041096 172.12416 L 97.246575342466 132.37952 L 100.38356164384 124.67520000000002 L 103.52054794521 162.4064 L 106.65753424658 165.57632 L 109.79452054795 209.27296 L 112.93150684932 296.08384 L 116.06849315068 320.63616 L 119.20547945205 332.11776 L 122.34246575342 310.42752 L 125.47945205479 309.44576 L 128.61643835616 299.52 L 131.75342465753 293.34656 L 134.8904109589 255.3408 L 138.02739726027 258.15296 L 141.16438356164 245.87264 L 144.30136986301 250.77312 L 147.43835616438 272.40512 L 150.57534246575 254.32576 L 153.71232876712 249.53344 L 156.84931506849 245.232 L 159.98630136986 257.66208 L 163.12328767123 243.04384 L 166.2602739726 223.808 L 169.39726027397 216.62784 L 172.53424657534 247.95264 L 175.67123287671 244.55808 L 178.80821917808 240.73088 L 181.94520547945 258.80192 L 185.08219178082 245.87264 L 188.21917808219 240.9056 L 191.35616438356 227.53536 L 194.49315068493 211.89376 L 197.6301369863 208.78208 L 200.76712328767 188.89728 L 203.90410958904 157.44768 L 207.04109589041 127.72863999999998 L 210.17808219178 153.88672000000003 L 213.31506849315 163.77088 L 216.45205479452 157.00671999999997 L 219.58904109589 163.7376 L 222.72602739726 197.5168 L 225.86301369863 196.11072 L 229 202.36736 L 232.13698630137 192.49984 L 235.27397260274 175.76832 L 238.41095890411 162.88064 L 241.54794520548 133.96032000000002 L 244.68493150685 151.05792000000002 L 247.82191780822 180.96 L 250.95890410959 189.09696 L 254.09589041096 173.50528 L 257.23287671233 157.61408 L 260.3698630137 137.9456 L 263.50684931507 186.21824 L 266.64383561644 186.25152 L 269.78082191781 182.0416 L 272.91780821918 164.25344 L 276.05479452055 173.50528 L 279.19178082192 157.63072 L 282.32876712329 182.96512 L 285.46575342466 184.77056 L 288.60273972603 187.0336 L 291.7397260274 162.72256 L 294.87671232877 164.87744 L 298.01369863014 196.79296 L 301.15068493151 196.87616 L 304.28767123288 192.68288 L 307.42465753425 184.22144 L 310.56164383562 197.41696 L 313.69863013699 183.88864 L 316.83561643836 173.8048 L 319.97260273973 165.75936 L 323.1095890411 166.6912 L 326.24657534247 159.99360000000001 L 329.38356164384 180.45248 L 332.52054794521 184.47936 L 335.65753424658 200.76992 L 338.79452054795 235.4976 L 341.93150684931 257.59551999999996 L 345.06849315069 296.58304 L 348.20547945205 298.25536 L 351.34246575342 268.93568 L 354.47945205479 267.904 L 357.61643835616 245.46496 L 360.75342465753 242.46144 L 363.8904109589 242.14528 L 367.02739726027 262.8288 L 370.16438356164 279.51872000000003 L 373.30136986301 300.40192 L 376.43835616438 299.104 L 379.57534246575 302.95616 L 382.71232876712 310.57728 L 385.84931506849 324.22208 L 388.98630136986 328.66496 L 392.12328767123 297.3152 L 395.2602739726 284.14464 L 398.39726027397 281.64032 L 401.53424657534 291.08352 L 404.67123287671 306.0928 L 407.80821917808 298.50496 L 410.94520547945 292.24832000000004 L 414.08219178082 295.40160000000003 L 417.21917808219 291.96544 L 420.35616438356 277.46368 L 423.49315068493 289.07008 L 426.6301369863 290.2016 L 429.76712328767 274.55168000000003 L 432.90410958904 287.20640000000003 L 436.04109589041 281.86496 L 439.17808219178 289.93536 L 442.31506849315 274.07744 L 445.45205479452 237.96032 L 448.58904109589 282.3392 L 451.72602739726 267.93728 L 454.86301369863 272.19712000000004 L 458 266.30656 L 461.13698630137 257.296 L 464.27397260274 269.75936 L 467.41095890411 248.11072 L 470.54794520548 238.85056 L 473.68493150685 236.26304 L 476.82191780822 234.69888 L 479.95890410959 238.85888 L 483.09589041096 241.18016 L 486.23287671233 241.18016 L 489.3698630137 268.9024 L 492.50684931507 296.08384 L 495.64383561644 305.86816 L 498.78082191781 302.62336 L 501.91780821918 280.44223999999997 L 505.05479452055 258.28607999999997 L 508.19178082192 239.34976 L 511.32876712329 266.0736 L 514.46575342466 254.384 L 517.60273972603 257.7536 L 520.7397260274 281.76512 L 523.87671232877 282.47231999999997 L 527.01369863014 280.28416000000004 L 530.15068493151 283.7952 L 533.28767123288 274.05248 L 536.42465753425 291.15008 L 539.56164383562 300.49344 L 542.69863013699 363.51744 L 545.83561643836 350.80448 L 548.97260273973 330.64512 L 552.1095890411 314.81216 L 555.24657534247 318.02368 L 558.38356164384 314.22144000000003 L 561.52054794521 315.63584000000003 L 564.65753424658 328.6816 L 567.79452054795 312.09152 L 570.93150684931 298.67968 L 574.06849315069 286.81536 L 577.20547945205 253.7184 L 580.34246575342 252.95296 L 583.47945205479 243.25184 L 586.61643835616 237.42784 L 589.75342465753 229.48224 L 592.8904109589 221.75296 L 596.02739726027 237.79392 L 599.16438356164 233.4592 L 602.30136986301 218.84096 L 605.43835616438 255.57376 L 608.57534246575 230.58048 L 611.71232876712 203.47392 L 614.84931506849 173.97952 L 617.98630136986 158.26304 L 621.12328767123 135.24991999999997 L 624.2602739726 104.37439999999998 L 627.39726027397 132.96192000000002 L 630.53424657534 177.61536 L 633.67123287671 217.32672 L 636.80821917808 226.39552 L 639.94520547945 211.41952 L 643.08219178082 217.776 L 646.21917808219 209.80544 L 649.35616438356 188.43136 L 652.49315068493 197.0176 L 655.6301369863 192.9408 L 658.76712328767 205.49568 L 661.90410958904 218.35008 L 665.04109589041 211.12 L 668.17808219178 197.6 L 671.31506849315 202.5504 L 671.31506849315 416 L 668.17808219178 416 L 665.04109589041 416 L 661.90410958904 416 L 658.76712328767 416 L 655.6301369863 416 L 652.49315068493 416 L 649.35616438356 416 L 646.21917808219 416 L 643.08219178082 416 L 639.94520547945 416 L 636.80821917808 416 L 633.67123287671 416 L 630.53424657534 416 L 627.39726027397 416 L 624.2602739726 416 L 621.12328767123 416 L 617.98630136986 416 L 614.84931506849 416 L 611.71232876712 416 L 608.57534246575 416 L 605.43835616438 416 L 602.30136986301 416 L 599.16438356164 416 L 596.02739726027 416 L 592.8904109589 416 L 589.75342465753 416 L 586.61643835616 416 L 583.47945205479 416 L 580.34246575342 416 L 577.20547945205 416 L 574.06849315069 416 L 570.93150684931 416 L 567.79452054795 416 L 564.65753424658 416 L 561.52054794521 416 L 558.38356164384 416 L 555.24657534247 416 L 552.1095890411 416 L 548.97260273973 416 L 545.83561643836 416 L 542.69863013699 416 L 539.56164383562 416 L 536.42465753425 416 L 533.28767123288 416 L 530.15068493151 416 L 527.01369863014 416 L 523.87671232877 416 L 520.7397260274 416 L 517.60273972603 416 L 514.46575342466 416 L 511.32876712329 416 L 508.19178082192 416 L 505.05479452055 416 L 501.91780821918 416 L 498.78082191781 416 L 495.64383561644 416 L 492.50684931507 416 L 489.3698630137 416 L 486.23287671233 416 L 483.09589041096 416 L 479.95890410959 416 L 476.82191780822 416 L 473.68493150685 416 L 470.54794520548 416 L 467.41095890411 416 L 464.27397260274 416 L 461.13698630137 416 L 458 416 L 454.86301369863 416 L 451.72602739726 416 L 448.58904109589 416 L 445.45205479452 416 L 442.31506849315 416 L 439.17808219178 416 L 436.04109589041 416 L 432.90410958904 416 L 429.76712328767 416 L 426.6301369863 416 L 423.49315068493 416 L 420.35616438356 416 L 417.21917808219 416 L 414.08219178082 416 L 410.94520547945 416 L 407.80821917808 416 L 404.67123287671 416 L 401.53424657534 416 L 398.39726027397 416 L 395.2602739726 416 L 392.12328767123 416 L 388.98630136986 416 L 385.84931506849 416 L 382.71232876712 416 L 379.57534246575 416 L 376.43835616438 416 L 373.30136986301 416 L 370.16438356164 416 L 367.02739726027 416 L 363.8904109589 416 L 360.75342465753 416 L 357.61643835616 416 L 354.47945205479 416 L 351.34246575342 416 L 348.20547945205 416 L 345.06849315069 416 L 341.93150684931 416 L 338.79452054795 416 L 335.65753424658 416 L 332.52054794521 416 L 329.38356164384 416 L 326.24657534247 416 L 323.1095890411 416 L 319.97260273973 416 L 316.83561643836 416 L 313.69863013699 416 L 310.56164383562 416 L 307.42465753425 416 L 304.28767123288 416 L 301.15068493151 416 L 298.01369863014 416 L 294.87671232877 416 L 291.7397260274 416 L 288.60273972603 416 L 285.46575342466 416 L 282.32876712329 416 L 279.19178082192 416 L 276.05479452055 416 L 272.91780821918 416 L 269.78082191781 416 L 266.64383561644 416 L 263.50684931507 416 L 260.3698630137 416 L 257.23287671233 416 L 254.09589041096 416 L 250.95890410959 416 L 247.82191780822 416 L 244.68493150685 416 L 241.54794520548 416 L 238.41095890411 416 L 235.27397260274 416 L 232.13698630137 416 L 229 416 L 225.86301369863 416 L 222.72602739726 416 L 219.58904109589 416 L 216.45205479452 416 L 213.31506849315 416 L 210.17808219178 416 L 207.04109589041 416 L 203.90410958904 416 L 200.76712328767 416 L 197.6301369863 416 L 194.49315068493 416 L 191.35616438356 416 L 188.21917808219 416 L 185.08219178082 416 L 181.94520547945 416 L 178.80821917808 416 L 175.67123287671 416 L 172.53424657534 416 L 169.39726027397 416 L 166.2602739726 416 L 163.12328767123 416 L 159.98630136986 416 L 156.84931506849 416 L 153.71232876712 416 L 150.57534246575 416 L 147.43835616438 416 L 144.30136986301 416 L 141.16438356164 416 L 138.02739726027 416 L 134.8904109589 416 L 131.75342465753 416 L 128.61643835616 416 L 125.47945205479 416 L 122.34246575342 416 L 119.20547945205 416 L 116.06849315068 416 L 112.93150684932 416 L 109.79452054795 416 L 106.65753424658 416 L 103.52054794521 416 L 100.38356164384 416 L 97.246575342466 416 L 94.109589041096 416 L 90.972602739726 416 L 87.835616438356 416 L 84.698630136986 416 L 81.561643835617 416 L 78.424657534247 416 L 75.287671232877 416 L 72.150684931507 416 L 69.013698630137 416 L 65.876712328767 416 L 62.739726027397 416 L 59.602739726027 416 L 56.465753424657 416 L 53.328767123288 416 L 50.191780821918 416 L 47.054794520548 416 L 43.917808219178 416 L 40.780821917808 416 L 37.643835616438 416 L 34.506849315069 416 L 31.369863013699 416 L 28.232876712329 416 L 25.095890410959 416 L 21.958904109589 416 L 18.821917808219 416 L 15.684931506849 416 L 12.54794520548 416 L 9.4109589041097 416 L 6.2739726027398 416 L 3.1369863013699 416 L 0 416 Z" class="highcharts-area" data-z-index="0"></path><path fill="none" d="M 0 284.45248000000004 L 3.1369863013699 288.94528 L 6.2739726027398 271.23199999999997 L 9.4109589041097 269.91744 L 12.54794520548 287.51424 L 15.684931506849 244.2336 L 18.821917808219 232.128 L 21.958904109589 225.69664 L 25.095890410959 216.89408 L 28.232876712329 220.51328 L 31.369863013699 264.51776 L 34.506849315069 285.94176 L 37.643835616438 295.64288 L 40.780821917808 274.36032 L 43.917808219178 282.70528 L 47.054794520548 291.12512 L 50.191780821918 262.27968 L 53.328767123288 240.3232 L 56.465753424657 212.9504 L 59.602739726027 228.70016 L 62.739726027397 225.12256 L 65.876712328767 237.88544 L 69.013698630137 245.28192 L 72.150684931507 243.91744 L 75.287671232877 221.312 L 78.424657534247 228.04288 L 81.561643835617 210.01344 L 84.698630136986 223.88288 L 87.835616438356 206.97664 L 90.972602739726 198.32384 L 94.109589041096 172.12416 L 97.246575342466 132.37952 L 100.38356164384 124.67520000000002 L 103.52054794521 162.4064 L 106.65753424658 165.57632 L 109.79452054795 209.27296 L 112.93150684932 296.08384 L 116.06849315068 320.63616 L 119.20547945205 332.11776 L 122.34246575342 310.42752 L 125.47945205479 309.44576 L 128.61643835616 299.52 L 131.75342465753 293.34656 L 134.8904109589 255.3408 L 138.02739726027 258.15296 L 141.16438356164 245.87264 L 144.30136986301 250.77312 L 147.43835616438 272.40512 L 150.57534246575 254.32576 L 153.71232876712 249.53344 L 156.84931506849 245.232 L 159.98630136986 257.66208 L 163.12328767123 243.04384 L 166.2602739726 223.808 L 169.39726027397 216.62784 L 172.53424657534 247.95264 L 175.67123287671 244.55808 L 178.80821917808 240.73088 L 181.94520547945 258.80192 L 185.08219178082 245.87264 L 188.21917808219 240.9056 L 191.35616438356 227.53536 L 194.49315068493 211.89376 L 197.6301369863 208.78208 L 200.76712328767 188.89728 L 203.90410958904 157.44768 L 207.04109589041 127.72863999999998 L 210.17808219178 153.88672000000003 L 213.31506849315 163.77088 L 216.45205479452 157.00671999999997 L 219.58904109589 163.7376 L 222.72602739726 197.5168 L 225.86301369863 196.11072 L 229 202.36736 L 232.13698630137 192.49984 L 235.27397260274 175.76832 L 238.41095890411 162.88064 L 241.54794520548 133.96032000000002 L 244.68493150685 151.05792000000002 L 247.82191780822 180.96 L 250.95890410959 189.09696 L 254.09589041096 173.50528 L 257.23287671233 157.61408 L 260.3698630137 137.9456 L 263.50684931507 186.21824 L 266.64383561644 186.25152 L 269.78082191781 182.0416 L 272.91780821918 164.25344 L 276.05479452055 173.50528 L 279.19178082192 157.63072 L 282.32876712329 182.96512 L 285.46575342466 184.77056 L 288.60273972603 187.0336 L 291.7397260274 162.72256 L 294.87671232877 164.87744 L 298.01369863014 196.79296 L 301.15068493151 196.87616 L 304.28767123288 192.68288 L 307.42465753425 184.22144 L 310.56164383562 197.41696 L 313.69863013699 183.88864 L 316.83561643836 173.8048 L 319.97260273973 165.75936 L 323.1095890411 166.6912 L 326.24657534247 159.99360000000001 L 329.38356164384 180.45248 L 332.52054794521 184.47936 L 335.65753424658 200.76992 L 338.79452054795 235.4976 L 341.93150684931 257.59551999999996 L 345.06849315069 296.58304 L 348.20547945205 298.25536 L 351.34246575342 268.93568 L 354.47945205479 267.904 L 357.61643835616 245.46496 L 360.75342465753 242.46144 L 363.8904109589 242.14528 L 367.02739726027 262.8288 L 370.16438356164 279.51872000000003 L 373.30136986301 300.40192 L 376.43835616438 299.104 L 379.57534246575 302.95616 L 382.71232876712 310.57728 L 385.84931506849 324.22208 L 388.98630136986 328.66496 L 392.12328767123 297.3152 L 395.2602739726 284.14464 L 398.39726027397 281.64032 L 401.53424657534 291.08352 L 404.67123287671 306.0928 L 407.80821917808 298.50496 L 410.94520547945 292.24832000000004 L 414.08219178082 295.40160000000003 L 417.21917808219 291.96544 L 420.35616438356 277.46368 L 423.49315068493 289.07008 L 426.6301369863 290.2016 L 429.76712328767 274.55168000000003 L 432.90410958904 287.20640000000003 L 436.04109589041 281.86496 L 439.17808219178 289.93536 L 442.31506849315 274.07744 L 445.45205479452 237.96032 L 448.58904109589 282.3392 L 451.72602739726 267.93728 L 454.86301369863 272.19712000000004 L 458 266.30656 L 461.13698630137 257.296 L 464.27397260274 269.75936 L 467.41095890411 248.11072 L 470.54794520548 238.85056 L 473.68493150685 236.26304 L 476.82191780822 234.69888 L 479.95890410959 238.85888 L 483.09589041096 241.18016 L 486.23287671233 241.18016 L 489.3698630137 268.9024 L 492.50684931507 296.08384 L 495.64383561644 305.86816 L 498.78082191781 302.62336 L 501.91780821918 280.44223999999997 L 505.05479452055 258.28607999999997 L 508.19178082192 239.34976 L 511.32876712329 266.0736 L 514.46575342466 254.384 L 517.60273972603 257.7536 L 520.7397260274 281.76512 L 523.87671232877 282.47231999999997 L 527.01369863014 280.28416000000004 L 530.15068493151 283.7952 L 533.28767123288 274.05248 L 536.42465753425 291.15008 L 539.56164383562 300.49344 L 542.69863013699 363.51744 L 545.83561643836 350.80448 L 548.97260273973 330.64512 L 552.1095890411 314.81216 L 555.24657534247 318.02368 L 558.38356164384 314.22144000000003 L 561.52054794521 315.63584000000003 L 564.65753424658 328.6816 L 567.79452054795 312.09152 L 570.93150684931 298.67968 L 574.06849315069 286.81536 L 577.20547945205 253.7184 L 580.34246575342 252.95296 L 583.47945205479 243.25184 L 586.61643835616 237.42784 L 589.75342465753 229.48224 L 592.8904109589 221.75296 L 596.02739726027 237.79392 L 599.16438356164 233.4592 L 602.30136986301 218.84096 L 605.43835616438 255.57376 L 608.57534246575 230.58048 L 611.71232876712 203.47392 L 614.84931506849 173.97952 L 617.98630136986 158.26304 L 621.12328767123 135.24991999999997 L 624.2602739726 104.37439999999998 L 627.39726027397 132.96192000000002 L 630.53424657534 177.61536 L 633.67123287671 217.32672 L 636.80821917808 226.39552 L 639.94520547945 211.41952 L 643.08219178082 217.776 L 646.21917808219 209.80544 L 649.35616438356 188.43136 L 652.49315068493 197.0176 L 655.6301369863 192.9408 L 658.76712328767 205.49568 L 661.90410958904 218.35008 L 665.04109589041 211.12 L 668.17808219178 197.6 L 671.31506849315 202.5504" class="highcharts-graph" data-z-index="1" stroke="#2962FF" stroke-width="2" stroke-linejoin="round" stroke-linecap="round"></path></g><g class="highcharts-markers highcharts-series-0 highcharts-area-series" data-z-index="90" opacity="1" transform="translate(0,40) scale(1 1)" clip-path="none"></g></g><text x="740" text-anchor="end" class="highcharts-title" data-z-index="4" style="color: rgb(211, 211, 211); font-size: 15px; fill: rgb(211, 211, 211);" y="512"></text><text x="14" text-anchor="start" class="highcharts-subtitle" data-z-index="4" style="color: rgb(51, 51, 51); fill: rgb(51, 51, 51); font-size: 15px;" y="25"><tspan style="color: rgb(211, 211, 211); fill: rgb(211, 211, 211);">Gasoline</tspan></text><text x="0" text-anchor="start" class="highcharts-caption" data-z-index="4" style="color: rgb(102, 102, 102); fill: rgb(102, 102, 102);" y="527"></text><g class="highcharts-axis-labels highcharts-xaxis-labels" data-z-index="7"><text x="16.683593750000004" text-anchor="middle" transform="translate(0,0)" style="color: rgb(227, 225, 225); cursor: default; font-size: 15px; font-weight: 400; fill: rgb(227, 225, 225);" y="476" opacity="1">2006</text><text x="159.70950846092" text-anchor="middle" transform="translate(0,0)" style="color: rgb(227, 225, 225); cursor: default; font-size: 15px; font-weight: 400; fill: rgb(227, 225, 225);" y="476" opacity="1">2010</text><text x="310.46045072912" text-anchor="middle" transform="translate(0,0)" style="color: rgb(227, 225, 225); cursor: default; font-size: 15px; font-weight: 400; fill: rgb(227, 225, 225);" y="476" opacity="1">2014</text><text x="461.13698630137" text-anchor="middle" transform="translate(0,0)" style="color: rgb(227, 225, 225); cursor: default; font-size: 15px; font-weight: 400; fill: rgb(227, 225, 225);" y="476" opacity="1">2018</text><text x="611.52220838522" text-anchor="middle" transform="translate(0,0)" style="color: rgb(227, 225, 225); cursor: default; font-size: 15px; font-weight: 400; fill: rgb(227, 225, 225);" y="476" opacity="1">2022</text></g><g class="highcharts-axis-labels highcharts-yaxis-labels" data-z-index="7"><text x="0" text-anchor="start" transform="translate(0,0)" style="color: rgb(227, 225, 225); cursor: default; font-size: 15px; fill: rgb(227, 225, 225);" visibility="hidden"><tspan>0</tspan></text><text x="695" text-anchor="start" transform="translate(0,0)" style="color: rgb(227, 225, 225); cursor: default; font-size: 15px; fill: rgb(227, 225, 225);" y="377" opacity="1">1</text><text x="695" text-anchor="start" transform="translate(0,0)" style="color: rgb(227, 225, 225); cursor: default; font-size: 15px; fill: rgb(227, 225, 225);" y="294" opacity="1">2</text><text x="695" text-anchor="start" transform="translate(0,0)" style="color: rgb(227, 225, 225); cursor: default; font-size: 15px; fill: rgb(227, 225, 225);" y="211" opacity="1">3</text><text x="695" text-anchor="start" transform="translate(0,0)" style="color: rgb(227, 225, 225); cursor: default; font-size: 15px; fill: rgb(227, 225, 225);" y="128" opacity="1">4</text><text x="0" text-anchor="start" transform="translate(0,0)" style="color: rgb(227, 225, 225); cursor: default; font-size: 15px; fill: rgb(227, 225, 225);" visibility="hidden">5</text></g><g class="highcharts-axis-labels highcharts-yaxis-labels" data-z-index="7"></g><g class="highcharts-axis-labels highcharts-yaxis-labels" data-z-index="7"></g><g class="highcharts-control-points" data-z-index="99" clip-path="url(#highcharts-0d3bxd3-2456-)"></g><g class="highcharts-axis highcharts-yaxis" data-z-index="9999"><path fill="none" class="highcharts-tick" stroke="#333333" stroke-width="1" d="M 688 456.5 L 693 456.5" opacity="1"></path><path fill="none" class="highcharts-tick" stroke="#333333" stroke-width="1" d="M 688 373.5 L 693 373.5" opacity="1"></path><path fill="none" class="highcharts-tick" stroke="#333333" stroke-width="1" d="M 688 290.5 L 693 290.5" opacity="1"></path><path fill="none" class="highcharts-tick" stroke="#333333" stroke-width="1" d="M 688 206.5 L 693 206.5" opacity="1"></path><path fill="none" class="highcharts-tick" stroke="#333333" stroke-width="1" d="M 688 123.5 L 693 123.5" opacity="1"></path><path fill="none" class="highcharts-tick" stroke="#333333" stroke-width="1" d="M 688 39.5 L 693 39.5" opacity="1"></path><path fill="none" class="highcharts-axis-line" stroke="#616161" stroke-width="1" data-z-index="7" d="M 688.5 40 L 688.5 456"></path></g><path fill="none" d="M 0 0 L 1792 0" stroke="#757575" stroke-width="1" stroke-dasharray="8,3" data-z-index="6" visibility="hidden" class="crosshair-fix-horizontal"></path><path fill="none" d="M 0 40 L 0 1160" stroke="#757575" stroke-width="1" stroke-dasharray="8,3" data-z-index="6" visibility="hidden" class="crosshair-fix-vertical"></path></svg>