<?xml version="1.0" standalone="no"?><!DOCTYPE svg PUBLIC "-//W3C//DTD SVG 1.1//EN" "http://www.w3.org/Graphics/SVG/1.1/DTD/svg11.dtd"><svg xmlns:xlink="http://www.w3.org/1999/xlink" version="1.1" class="highcharts-root" style="font-family: &quot;Helvetica Neue&quot;, Helvetica, Arial, sans-serif; font-size: 12px;" xmlns="http://www.w3.org/2000/svg" width="750" height="520" viewBox="0 0 750 520"><desc>Created with Highcharts 10.1.0</desc><defs><linearGradient x1="0" y1="0" x2="500" y2="500" gradientUnits="userSpaceOnUse" id="highcharts-pizmcyp-2628"><stop offset="0" stop-color="rgb(35, 35, 35)" stop-opacity="1"></stop></linearGradient><clipPath id="highcharts-pizmcyp-2629-"><rect x="0" y="0" width="687" height="416" fill="none"></rect></clipPath><clipPath id="highcharts-pizmcyp-3154-"><rect x="0" y="0" width="687" height="416" fill="none"></rect></clipPath><linearGradient x1="0" y1="0" x2="0" y2="1" id="highcharts-pizmcyp-3155"><stop offset="0" stop-color="#2962FF" stop-opacity="1"></stop><stop offset="1" stop-color="rgb(41,98,255)" stop-opacity="0"></stop></linearGradient><linearGradient x1="0" y1="0" x2="0" y2="1" id="highcharts-pizmcyp-3685"><stop offset="0" stop-color="#459a63" stop-opacity="1"></stop><stop offset="1" stop-color="rgb(69,154,99)" stop-opacity="0"></stop></linearGradient><clipPath id="highcharts-pizmcyp-3686-"><rect x="0" y="40" width="687" height="416" fill="none"></rect></clipPath></defs><rect fill="url(#highcharts-pizmcyp-2628)" class="highcharts-background" x="0" y="0" width="750" height="520" rx="0" ry="0"></rect><rect fill="none" class="highcharts-plot-background" x="0" y="40" width="687" height="416"></rect><g class="highcharts-grid highcharts-xaxis-grid" data-z-index="1"><path fill="none" stroke="#333333" stroke-width="1" stroke-dasharray="none" data-z-index="1" class="highcharts-grid-line" d="M 77.5 40 L 77.5 456" opacity="1"></path><path fill="none" stroke="#333333" stroke-width="1" stroke-dasharray="none" data-z-index="1" class="highcharts-grid-line" d="M 155.5 40 L 155.5 456" opacity="1"></path><path fill="none" stroke="#333333" stroke-width="1" stroke-dasharray="none" data-z-index="1" class="highcharts-grid-line" d="M 233.5 40 L 233.5 456" opacity="1"></path><path fill="none" stroke="#333333" stroke-width="1" stroke-dasharray="none" data-z-index="1" class="highcharts-grid-line" d="M 311.5 40 L 311.5 456" opacity="1"></path><path fill="none" stroke="#333333" stroke-width="1" stroke-dasharray="none" data-z-index="1" class="highcharts-grid-line" d="M 389.5 40 L 389.5 456" opacity="1"></path><path fill="none" stroke="#333333" stroke-width="1" stroke-dasharray="none" data-z-index="1" class="highcharts-grid-line" d="M 467.5 40 L 467.5 456" opacity="1"></path><path fill="none" stroke="#333333" stroke-width="1" stroke-dasharray="none" data-z-index="1" class="highcharts-grid-line" d="M 545.5 40 L 545.5 456" opacity="1"></path><path fill="none" stroke="#333333" stroke-width="1" stroke-dasharray="none" data-z-index="1" class="highcharts-grid-line" d="M 624.5 40 L 624.5 456" opacity="1"></path></g><g class="highcharts-grid highcharts-yaxis-grid" data-z-index="1"><path fill="none" stroke="#333333" stroke-width="1" stroke-dasharray="none" data-z-index="1" class="highcharts-grid-line" d="M 0 456.5 L 687 456.5" opacity="1"></path><path fill="none" stroke="#333333" stroke-width="1" stroke-dasharray="none" data-z-index="1" class="highcharts-grid-line" d="M 0 373.5 L 687 373.5" opacity="1"></path><path fill="none" stroke="#333333" stroke-width="1" stroke-dasharray="none" data-z-index="1" class="highcharts-grid-line" d="M 0 290.5 L 687 290.5" opacity="1"></path><path fill="none" stroke="#333333" stroke-width="1" stroke-dasharray="none" data-z-index="1" class="highcharts-grid-line" d="M 0 206.5 L 687 206.5" opacity="1"></path><path fill="none" stroke="#333333" stroke-width="1" stroke-dasharray="none" data-z-index="1" class="highcharts-grid-line" d="M 0 123.5 L 687 123.5" opacity="1"></path><path fill="none" stroke="#333333" stroke-width="1" stroke-dasharray="none" data-z-index="1" class="highcharts-grid-line" d="M 0 39.5 L 687 39.5" opacity="1"></path></g><g class="highcharts-grid highcharts-yaxis-grid" data-z-index="1"></g><g class="highcharts-grid highcharts-yaxis-grid" data-z-index="1"></g><rect fill="none" class="highcharts-plot-border" data-z-index="1" x="0" y="40" width="687" height="416"></rect><g class="highcharts-axis highcharts-xaxis" data-z-index="2"><path fill="none" class="highcharts-axis-line" stroke="#616161" stroke-width="1" data-z-index="7" d="M 0 456.5 L 687 456.5"></path></g><g class="highcharts-axis highcharts-yaxis" data-z-index="2"><path fill="none" class="highcharts-axis-line" data-z-index="7" d="M 703 40 L 703 456"></path></g><g class="highcharts-axis highcharts-yaxis" data-z-index="2"><path fill="none" class="highcharts-axis-line" stroke="#616161" stroke-width="1" data-z-index="7" d="M -1.5 40 L -1.5 456"></path></g><g class="highcharts-series-group" data-z-index="3"><g class="highcharts-series highcharts-series-0 highcharts-area-series" data-z-index="90" opacity="1" transform="translate(0,40) scale(1 1)" clip-path="url(#highcharts-pizmcyp-3154-)"><path fill="url(#highcharts-pizmcyp-3155)" d="M 0 350.896 L 1.3011363636364 355.264 L 2.6022727272727 353.18399999999997 L 3.9034090909091 351.2704 L 5.2045454545455 351.104 L 6.5056818181818 352.76800000000003 L 7.8068181818182 351.62816 L 9.1079545454545 353.6 L 10.409090909091 350.18048 L 11.710227272727 346.2368 L 13.011363636364 339.3728 L 14.3125 335.37919999999997 L 15.613636363636 330.4704 L 16.914772727273 333.4656 L 18.215909090909 337.71712 L 19.517045454545 338.624 L 20.818181818182 339.872 L 22.119318181818 340.12991999999997 L 23.420454545455 337.6672 L 24.721590909091 338.09152 L 26.022727272727 336.544 L 27.323863636364 333.1328 L 28.625 331.968 L 29.926136363636 335.2128 L 31.227272727273 341.3696 L 32.528409090909 342.91712 L 33.829545454545 347.776 L 35.130681818182 340.704 L 36.431818181818 337.79200000000003 L 37.732954545455 339.51424 L 39.034090909091 343.0336 L 40.335227272727 337.88352 L 41.636363636364 333.5488 L 42.9375 333.632 L 44.238636363636 342.784 L 45.539772727273 347.10208 L 46.840909090909 350.78784 L 48.142045454545 355.39712 L 49.443181818182 353.17568 L 50.744318181818 346.36992 L 52.045454545455 349.856 L 53.346590909091 348.59136 L 54.647727272727 346.75264 L 55.948863636364 345.95392 L 57.25 349.09888 L 58.551136363636 349.45664 L 59.852272727273 350.92928 L 61.153409090909 345.91232 L 62.454545454545 332.49216 L 63.755681818182 350.62144 L 65.056818181818 349.04895999999997 L 66.357954545455 346.91071999999997 L 67.659090909091 348.10048 L 68.960227272727 351.5616 L 70.261363636364 355.64672 L 71.5625 350.8128 L 72.863636363636 348.0672 L 74.164772727273 351.35360000000003 L 75.465909090909 353.10912 L 76.767045454545 355.7632 L 78.068181818182 354.848 L 79.369318181818 352.32704 L 80.670454545455 348.67456 L 81.971590909091 352.98432 L 83.272727272727 356.512 L 84.573863636364 359.04128000000003 L 85.875 357.85984 L 87.176136363636 351.52 L 88.477272727273 347.81759999999997 L 89.778409090909 343.24992 L 91.079545454545 343.57439999999997 L 92.380681818182 348.9824 L 93.681818181818 367.88544 L 94.982954545455 371.904 L 96.284090909091 380.40704 L 97.585227272727 378.70144 L 98.886363636364 382.61184000000003 L 100.1875 384.99136 L 101.48863636364 389.39264000000003 L 102.78977272727 379.99936 L 104.09090909091 381.65504 L 105.39204545455 382.27072 L 106.69318181818 381.03104 L 107.99431818182 375.3152 L 109.29545454545 372.55296 L 110.59659090909 379.88288 L 111.89772727273 374.6496 L 113.19886363636 374.79936 L 114.5 373.1936 L 115.80113636364 371.24672 L 117.10227272727 370.5312 L 118.40340909091 372.64448 L 119.70454545455 370.97216000000003 L 121.00568181818 368.19328 L 122.30681818182 369.47456 L 123.60795454545 373.20192 L 124.90909090909 376.05568 L 126.21022727273 376.76288 L 127.51136363636 375.9392 L 128.8125 372.91071999999997 L 130.11363636364 375.87264 L 131.41477272727 381.98784 L 132.71590909091 378.84288 L 134.01704545455 380.2656 L 135.31818181818 384.35072 L 136.61931818182 380.54016 L 137.92045454545 375.79776 L 139.22159090909 371.50464 L 140.52272727273 372.50304 L 141.82386363636 372.3616 L 143.125 368.66752 L 144.42613636364 372.5696 L 145.72727272727 375.47328 L 147.02840909091 374.9408 L 148.32954545455 375.50656 L 149.63068181818 371.22176 L 150.93181818182 366.54592 L 152.23295454545 367.21152 L 153.53409090909 363.82528 L 154.83522727273 331.24415999999997 L 156.13636363636 367.02016 L 157.4375 368.30976 L 158.73863636364 368.55935999999997 L 160.03977272727 368.96704 L 161.34090909091 374.34176 L 162.64204545455 375.50656 L 163.94318181818 368.48448 L 165.24431818182 352.85952 L 166.54545454545 328.65664 L 167.84659090909 341.50272 L 169.14772727273 344.55616 L 170.44886363636 348.35008 L 171.75 356.72 L 173.05113636364 361.62048 L 174.35227272727 368.66752 L 175.65340909091 371.42976 L 176.95454545455 369.00864 L 178.25568181818 369.9904 L 179.55681818182 365.9136 L 180.85795454545 362.65216 L 182.15909090909 363.01824 L 183.46022727273 358.94975999999997 L 184.76136363636 364.64896 L 186.0625 375.82272 L 187.36363636364 372.0288 L 188.66477272727 373.13536 L 189.96590909091 371.29664 L 191.26704545455 367.8688 L 192.56818181818 365.664 L 193.86931818182 366.00512 L 195.17045454545 365.63072 L 196.47159090909 365.68896 L 197.77272727273 363.4176 L 199.07386363636 367.06176 L 200.375 369.34976 L 201.67613636364 369.0752 L 202.97727272727 369.58272 L 204.27840909091 367.7856 L 205.57954545455 369.50784 L 206.88068181818 369.83232 L 208.18181818182 370.35648 L 209.48295454545 372.3616 L 210.78409090909 374.44992 L 212.08522727273 371.20512 L 213.38636363636 371.53792 L 214.6875 373.46816 L 215.98863636364 376.92096 L 217.28977272727 379.25888 L 218.59090909091 371.3216 L 219.89204545455 374.66624 L 221.19318181818 377.8944 L 222.49431818182 376.8544 L 223.79545454545 376.21376 L 225.09659090909 374.74944 L 226.39772727273 371.98720000000003 L 227.69886363636 374.90752 L 229 376.34688 L 230.30113636364 375.24864 L 231.60227272727 375.26528 L 232.90340909091 373.85088 L 234.20454545455 377.01248 L 235.50568181818 376.9792 L 236.80681818182 376.84608000000003 L 238.10795454545 373.40992 L 239.40909090909 375.67296 L 240.71022727273 377.12896 L 242.01136363636 375.83936 L 243.3125 374.2752 L 244.61363636364 375.5232 L 245.91477272727 374.0672 L 247.21590909091 373.05216 L 248.51704545455 367.21984 L 249.81818181818 371.47968000000003 L 251.11931818182 364.57408 L 252.42045454545 363.78368 L 253.72159090909 364.56576 L 255.02272727273 373.6928 L 256.32386363636 371.1136 L 257.625 368.50944 L 258.92613636364 363.73376 L 260.22727272727 356.50368000000003 L 261.52840909091 360.80512 L 262.82954545455 356.12095999999997 L 264.13068181818 355.39712 L 265.43181818182 358.8832 L 266.73295454545 370.43968 L 268.03409090909 368.80896 L 269.33522727273 367.68576 L 270.63636363636 369.00032 L 271.9375 371.3216 L 273.23863636364 369.73248 L 274.53977272727 372.8608 L 275.84090909091 367.80224 L 277.14204545455 367.93536 L 278.44318181818 371.8208 L 279.74431818182 375.16544 L 281.04545454545 376.41344 L 282.34659090909 380.3904 L 283.64772727273 380.20736 L 284.94886363636 380.432 L 286.25 383.4688 L 287.55113636364 384.2592 L 288.85227272727 386.59712 L 290.15340909091 386.63872 L 291.45454545455 380.96448 L 292.75568181818 383.70176 L 294.05681818182 389.94176 L 295.35795454545 387.712 L 296.65909090909 388.41088 L 297.96022727273 389.13472 L 299.26136363636 378.82624 L 300.5625 379.00096 L 301.86363636364 383.19424 L 303.16477272727 376.1888 L 304.46590909091 372.59456 L 305.76704545455 367.72736 L 307.06818181818 364.79872 L 308.36931818182 368.2432 L 309.67045454545 362.61056 L 310.97159090909 358.56704 L 312.27272727273 336.79359999999997 L 313.57386363636 347.39328 L 314.875 350.82944 L 316.17613636364 355.11424 L 317.47727272727 354.44864 L 318.77840909091 345.99552 L 320.07954545455 351.16224 L 321.38068181818 334.11456 L 322.68181818182 339.1232 L 323.98295454545 337.7088 L 325.28409090909 328.35712 L 326.58522727273 340.57088 L 327.88636363636 350.57984 L 329.1875 354.98112 L 330.48863636364 353.04256 L 331.78977272727 354.14912 L 333.09090909091 351.1456 L 334.39204545455 357.01120000000003 L 335.69318181818 357.98464 L 336.99431818182 352.24384 L 338.29545454545 360.7968 L 339.59659090909 366.25472 L 340.89772727273 371.71264 L 342.19886363636 370.18176 L 343.5 372.49472000000003 L 344.80113636364 369.17504 L 346.10227272727 360.34752000000003 L 347.40340909091 358.6752 L 348.70454545455 363.60896 L 350.00568181818 359.45727999999997 L 351.30681818182 359.72352 L 352.60795454545 353.74976 L 353.90909090909 349.29024 L 355.21022727273 354.11584 L 356.51136363636 353.00928 L 357.8125 343.9904 L 359.11363636364 336.22784 L 360.41477272727 311.50912 L 361.71590909091 350.07232 L 363.01704545455 352.65152 L 364.31818181818 353.25056 L 365.61931818182 351.03744 L 366.92045454545 349.99744 L 368.22159090909 347.88416 L 369.52272727273 351.28704 L 370.82386363636 350.62144 L 372.125 346.53632 L 373.42613636364 340.06336 L 374.72727272727 338.50752 L 376.02840909091 336.05312000000004 L 377.32954545455 342.25152 L 378.63068181818 336.66048 L 379.93181818182 332.86656 L 381.23295454545 332.3424 L 382.53409090909 319.75424 L 383.83522727273 323.59808 L 385.13636363636 300.21056 L 386.4375 295.67616 L 387.73863636364 300.12736 L 389.03977272727 313.68896 L 390.34090909091 305.27744 L 391.64204545455 291.91552 L 392.94318181818 278.08768 L 394.24431818182 296.54143999999997 L 395.54545454545 295.20192 L 396.84659090909 281.29088 L 398.14772727273 279.86816 L 399.44886363636 245.1904 L 400.75 244.00064 L 402.05113636364 268.75264000000004 L 403.35227272727 281.51552000000004 L 404.65340909091 272.23040000000003 L 405.95454545455 266.08191999999997 L 407.25568181818 273.5616 L 408.55681818182 261.09824000000003 L 409.85795454545 248.52672 L 411.15909090909 252.8864 L 412.46022727273 252.57856 L 413.76136363636 252.27072 L 415.0625 253.41056 L 416.36363636364 275.84128 L 417.66477272727 283.96992 L 418.96590909091 265.13344 L 420.26704545455 283.05472 L 421.56818181818 278.33727999999996 L 422.86931818182 267.87072 L 424.17045454545 259.63392 L 425.47159090909 256.79679999999996 L 426.77272727273 259.35936000000004 L 428.07386363636 246.94592 L 429.375 241.28 L 430.67613636364 246.08896 L 431.97727272727 229.80672 L 433.27840909091 207.35104 L 434.57954545455 205.53728 L 435.88068181818 195.98592 L 437.18181818182 205.1296 L 438.48295454545 179.73696 L 439.78409090909 162.30656 L 441.08522727273 151.67360000000002 L 442.38636363636 111.50464 L 443.6875 91.27872000000002 L 444.98863636364 129.90016000000003 L 446.28977272727 151.26592 L 447.59090909091 177.74848 L 448.89204545455 249.07584 L 450.19318181818 276.74816 L 451.49431818182 299.04576 L 452.79545454545 295.04384 L 454.09659090909 310.67712 L 455.39772727273 304.19584 L 456.69886363636 306.61696 L 458 279.39392 L 459.30113636364 273.0624 L 460.60227272727 266.75584000000003 L 461.90340909091 267.97056 L 463.20454545455 266.57280000000003 L 464.50568181818 251.17248 L 465.80681818182 248.09408 L 467.10795454545 239.71584 L 468.40909090909 257.67872 L 469.71022727273 247.52832 L 471.01136363636 235.90528 L 472.3125 225.5968 L 473.61363636364 251.24736 L 474.91477272727 251.12256 L 476.21590909091 246.04736 L 477.51704545455 250.06592 L 478.81818181818 229.2992 L 480.11931818182 231.28768 L 481.42045454545 223.23392 L 482.72159090909 204.36416 L 484.02272727273 187.46624 L 485.32386363636 172.57344 L 486.625 158.92863999999997 L 487.92613636364 145.11744 L 489.22727272727 161.71584 L 490.52840909091 171.99936 L 491.82954545455 158.39616 L 493.13068181818 159.89376 L 494.43181818182 183.47264 L 495.73295454545 162.83072 L 497.03409090909 164.61952 L 498.33522727273 171.808 L 499.63636363636 161.17504 L 500.9375 150.7584 L 502.23863636364 152.38912 L 503.53977272727 151.14112 L 504.84090909091 190.84416 L 506.14204545455 191.6928 L 507.44318181818 179.57056 L 508.74431818182 152.28928000000002 L 510.04545454545 152.30592000000001 L 511.34659090909 160.72576 L 512.64772727273 162.96384 L 513.94886363636 162.64768 L 515.25 155.60064 L 516.55113636364 168.73792 L 517.85227272727 173.45536 L 519.15340909091 176.93312 L 520.45454545455 183.68064 L 521.75568181818 176.40064 L 523.05681818182 162.81408 L 524.35795454545 154.78528 L 525.65909090909 168.8128 L 526.96022727273 169.07904 L 528.26136363636 162.42304 L 529.5625 159.97696000000002 L 530.86363636364 143.15392000000003 L 532.16477272727 158.97024 L 533.46590909091 172.0576 L 534.76704545455 171.81632 L 536.06818181818 176.00128 L 537.36931818182 168.82944 L 538.67045454545 175.83488 L 539.97159090909 178.30592 L 541.27272727273 195.75296 L 542.57386363636 206.7936 L 543.875 230.39744 L 545.17613636364 262.36288 L 546.47727272727 275.69984 L 547.77840909091 224.73152 L 549.07954545455 273.07072 L 550.38068181818 251.57184 L 551.68181818182 253.31904 L 552.98295454545 259.03488 L 554.28409090909 284.21119999999996 L 555.58522727273 276.75648 L 556.88636363636 290.15168 L 558.1875 291.24992 L 559.48863636364 304.76992 L 560.78977272727 324.42176 L 562.09090909091 328.21568 L 563.39204545455 326.4768 L 564.69318181818 317.42464 L 565.99431818182 301.35872 L 567.29545454545 291.408 L 568.59659090909 292.47296 L 569.89772727273 309.8368 L 571.19886363636 298.67136 L 572.5 288.87872 L 573.80113636364 291.57439999999997 L 575.10227272727 285.30111999999997 L 576.40340909091 274.20223999999996 L 577.70454545455 281.90656 L 579.00568181818 281.14944 L 580.30681818182 285.07648 L 581.60795454545 290.8672 L 582.90909090909 289.92704000000003 L 584.21022727273 293.2384 L 585.51136363636 278.56192 L 586.8125 269.776 L 588.11363636364 265.26656 L 589.41477272727 259.2096 L 590.71590909091 258.52736 L 592.01704545455 243.3184 L 593.31818181818 243.84256 L 594.61931818182 256.78848 L 595.92045454545 247.23712 L 597.22159090909 235.67232 L 598.52272727273 233.67552 L 599.82386363636 232.18624 L 601.125 238.62592 L 602.42613636364 229.9648 L 603.72727272727 220.33024 L 605.02840909091 227.81824 L 606.32954545455 262.45439999999996 L 607.63068181818 276.15744 L 608.93181818182 259.68384000000003 L 610.23295454545 247.6448 L 611.53409090909 251.81312 L 612.83522727273 242.84416 L 614.13636363636 262.76224 L 615.4375 254.20928 L 616.73863636364 253.344 L 618.03977272727 263.89376 L 619.34090909091 257.45408 L 620.64204545455 259.7504 L 621.94318181818 259.68384000000003 L 623.24431818182 247.66976 L 624.54545454545 280.12608 L 625.84659090909 292.66432 L 627.14772727273 332.28416 L 628.44886363636 345.26336000000003 L 629.75 335.73696 L 631.05113636364 316.784 L 632.35227272727 313.71392000000003 L 633.65340909091 314.15488 L 634.95454545455 320.41152 L 636.25568181818 326.03584 L 637.55681818182 303.18912 L 638.85795454545 292.5312 L 640.15909090909 283.01311999999996 L 641.46022727273 262.65408 L 642.76136363636 268.75264000000004 L 644.0625 256.05632 L 645.36363636364 245.2736 L 646.66477272727 238.92544 L 647.96590909091 233.32608 L 649.26704545455 238.76736 L 650.56818181818 221.4368 L 651.86931818182 209.77216 L 653.17045454545 245.20704 L 654.47159090909 223.94112 L 655.77272727273 190.05376 L 657.07386363636 179.16288 L 658.375 149.68511999999998 L 659.67613636364 108.368 L 660.97727272727 95.93792000000002 L 662.27840909091 102.76031999999998 L 663.57954545455 124.90816000000001 L 664.88068181818 115.7312 L 666.18181818182 155.8336 L 667.48295454545 124.7584 L 668.78409090909 141.91424 L 670.08522727273 151.49056000000002 L 671.38636363636 163.22176 L 672.6875 186.85056 L 673.98863636364 197.96608 L 675.28977272727 218.22528 L 676.59090909091 228.47552 L 677.89204545455 212.8256 L 679.19318181818 170.49344 L 680.49431818182 157.11488000000003 L 680.49431818182 416 L 679.19318181818 416 L 677.89204545455 416 L 676.59090909091 416 L 675.28977272727 416 L 673.98863636364 416 L 672.6875 416 L 671.38636363636 416 L 670.08522727273 416 L 668.78409090909 416 L 667.48295454545 416 L 666.18181818182 416 L 664.88068181818 416 L 663.57954545455 416 L 662.27840909091 416 L 660.97727272727 416 L 659.67613636364 416 L 658.375 416 L 657.07386363636 416 L 655.77272727273 416 L 654.47159090909 416 L 653.17045454545 416 L 651.86931818182 416 L 650.56818181818 416 L 649.26704545455 416 L 647.96590909091 416 L 646.66477272727 416 L 645.36363636364 416 L 644.0625 416 L 642.76136363636 416 L 641.46022727273 416 L 640.15909090909 416 L 638.85795454545 416 L 637.55681818182 416 L 636.25568181818 416 L 634.95454545455 416 L 633.65340909091 416 L 632.35227272727 416 L 631.05113636364 416 L 629.75 416 L 628.44886363636 416 L 627.14772727273 416 L 625.84659090909 416 L 624.54545454545 416 L 623.24431818182 416 L 621.94318181818 416 L 620.64204545455 416 L 619.34090909091 416 L 618.03977272727 416 L 616.73863636364 416 L 615.4375 416 L 614.13636363636 416 L 612.83522727273 416 L 611.53409090909 416 L 610.23295454545 416 L 608.93181818182 416 L 607.63068181818 416 L 606.32954545455 416 L 605.02840909091 416 L 603.72727272727 416 L 602.42613636364 416 L 601.125 416 L 599.82386363636 416 L 598.52272727273 416 L 597.22159090909 416 L 595.92045454545 416 L 594.61931818182 416 L 593.31818181818 416 L 592.01704545455 416 L 590.71590909091 416 L 589.41477272727 416 L 588.11363636364 416 L 586.8125 416 L 585.51136363636 416 L 584.21022727273 416 L 582.90909090909 416 L 581.60795454545 416 L 580.30681818182 416 L 579.00568181818 416 L 577.70454545455 416 L 576.40340909091 416 L 575.10227272727 416 L 573.80113636364 416 L 572.5 416 L 571.19886363636 416 L 569.89772727273 416 L 568.59659090909 416 L 567.29545454545 416 L 565.99431818182 416 L 564.69318181818 416 L 563.39204545455 416 L 562.09090909091 416 L 560.78977272727 416 L 559.48863636364 416 L 558.1875 416 L 556.88636363636 416 L 555.58522727273 416 L 554.28409090909 416 L 552.98295454545 416 L 551.68181818182 416 L 550.38068181818 416 L 549.07954545455 416 L 547.77840909091 416 L 546.47727272727 416 L 545.17613636364 416 L 543.875 416 L 542.57386363636 416 L 541.27272727273 416 L 539.97159090909 416 L 538.67045454545 416 L 537.36931818182 416 L 536.06818181818 416 L 534.76704545455 416 L 533.46590909091 416 L 532.16477272727 416 L 530.86363636364 416 L 529.5625 416 L 528.26136363636 416 L 526.96022727273 416 L 525.65909090909 416 L 524.35795454545 416 L 523.05681818182 416 L 521.75568181818 416 L 520.45454545455 416 L 519.15340909091 416 L 517.85227272727 416 L 516.55113636364 416 L 515.25 416 L 513.94886363636 416 L 512.64772727273 416 L 511.34659090909 416 L 510.04545454545 416 L 508.74431818182 416 L 507.44318181818 416 L 506.14204545455 416 L 504.84090909091 416 L 503.53977272727 416 L 502.23863636364 416 L 500.9375 416 L 499.63636363636 416 L 498.33522727273 416 L 497.03409090909 416 L 495.73295454545 416 L 494.43181818182 416 L 493.13068181818 416 L 491.82954545455 416 L 490.52840909091 416 L 489.22727272727 416 L 487.92613636364 416 L 486.625 416 L 485.32386363636 416 L 484.02272727273 416 L 482.72159090909 416 L 481.42045454545 416 L 480.11931818182 416 L 478.81818181818 416 L 477.51704545455 416 L 476.21590909091 416 L 474.91477272727 416 L 473.61363636364 416 L 472.3125 416 L 471.01136363636 416 L 469.71022727273 416 L 468.40909090909 416 L 467.10795454545 416 L 465.80681818182 416 L 464.50568181818 416 L 463.20454545455 416 L 461.90340909091 416 L 460.60227272727 416 L 459.30113636364 416 L 458 416 L 456.69886363636 416 L 455.39772727273 416 L 454.09659090909 416 L 452.79545454545 416 L 451.49431818182 416 L 450.19318181818 416 L 448.89204545455 416 L 447.59090909091 416 L 446.28977272727 416 L 444.98863636364 416 L 443.6875 416 L 442.38636363636 416 L 441.08522727273 416 L 439.78409090909 416 L 438.48295454545 416 L 437.18181818182 416 L 435.88068181818 416 L 434.57954545455 416 L 433.27840909091 416 L 431.97727272727 416 L 430.67613636364 416 L 429.375 416 L 428.07386363636 416 L 426.77272727273 416 L 425.47159090909 416 L 424.17045454545 416 L 422.86931818182 416 L 421.56818181818 416 L 420.26704545455 416 L 418.96590909091 416 L 417.66477272727 416 L 416.36363636364 416 L 415.0625 416 L 413.76136363636 416 L 412.46022727273 416 L 411.15909090909 416 L 409.85795454545 416 L 408.55681818182 416 L 407.25568181818 416 L 405.95454545455 416 L 404.65340909091 416 L 403.35227272727 416 L 402.05113636364 416 L 400.75 416 L 399.44886363636 416 L 398.14772727273 416 L 396.84659090909 416 L 395.54545454545 416 L 394.24431818182 416 L 392.94318181818 416 L 391.64204545455 416 L 390.34090909091 416 L 389.03977272727 416 L 387.73863636364 416 L 386.4375 416 L 385.13636363636 416 L 383.83522727273 416 L 382.53409090909 416 L 381.23295454545 416 L 379.93181818182 416 L 378.63068181818 416 L 377.32954545455 416 L 376.02840909091 416 L 374.72727272727 416 L 373.42613636364 416 L 372.125 416 L 370.82386363636 416 L 369.52272727273 416 L 368.22159090909 416 L 366.92045454545 416 L 365.61931818182 416 L 364.31818181818 416 L 363.01704545455 416 L 361.71590909091 416 L 360.41477272727 416 L 359.11363636364 416 L 357.8125 416 L 356.51136363636 416 L 355.21022727273 416 L 353.90909090909 416 L 352.60795454545 416 L 351.30681818182 416 L 350.00568181818 416 L 348.70454545455 416 L 347.40340909091 416 L 346.10227272727 416 L 344.80113636364 416 L 343.5 416 L 342.19886363636 416 L 340.89772727273 416 L 339.59659090909 416 L 338.29545454545 416 L 336.99431818182 416 L 335.69318181818 416 L 334.39204545455 416 L 333.09090909091 416 L 331.78977272727 416 L 330.48863636364 416 L 329.1875 416 L 327.88636363636 416 L 326.58522727273 416 L 325.28409090909 416 L 323.98295454545 416 L 322.68181818182 416 L 321.38068181818 416 L 320.07954545455 416 L 318.77840909091 416 L 317.47727272727 416 L 316.17613636364 416 L 314.875 416 L 313.57386363636 416 L 312.27272727273 416 L 310.97159090909 416 L 309.67045454545 416 L 308.36931818182 416 L 307.06818181818 416 L 305.76704545455 416 L 304.46590909091 416 L 303.16477272727 416 L 301.86363636364 416 L 300.5625 416 L 299.26136363636 416 L 297.96022727273 416 L 296.65909090909 416 L 295.35795454545 416 L 294.05681818182 416 L 292.75568181818 416 L 291.45454545455 416 L 290.15340909091 416 L 288.85227272727 416 L 287.55113636364 416 L 286.25 416 L 284.94886363636 416 L 283.64772727273 416 L 282.34659090909 416 L 281.04545454545 416 L 279.74431818182 416 L 278.44318181818 416 L 277.14204545455 416 L 275.84090909091 416 L 274.53977272727 416 L 273.23863636364 416 L 271.9375 416 L 270.63636363636 416 L 269.33522727273 416 L 268.03409090909 416 L 266.73295454545 416 L 265.43181818182 416 L 264.13068181818 416 L 262.82954545455 416 L 261.52840909091 416 L 260.22727272727 416 L 258.92613636364 416 L 257.625 416 L 256.32386363636 416 L 255.02272727273 416 L 253.72159090909 416 L 252.42045454545 416 L 251.11931818182 416 L 249.81818181818 416 L 248.51704545455 416 L 247.21590909091 416 L 245.91477272727 416 L 244.61363636364 416 L 243.3125 416 L 242.01136363636 416 L 240.71022727273 416 L 239.40909090909 416 L 238.10795454545 416 L 236.80681818182 416 L 235.50568181818 416 L 234.20454545455 416 L 232.90340909091 416 L 231.60227272727 416 L 230.30113636364 416 L 229 416 L 227.69886363636 416 L 226.39772727273 416 L 225.09659090909 416 L 223.79545454545 416 L 222.49431818182 416 L 221.19318181818 416 L 219.89204545455 416 L 218.59090909091 416 L 217.28977272727 416 L 215.98863636364 416 L 214.6875 416 L 213.38636363636 416 L 212.08522727273 416 L 210.78409090909 416 L 209.48295454545 416 L 208.18181818182 416 L 206.88068181818 416 L 205.57954545455 416 L 204.27840909091 416 L 202.97727272727 416 L 201.67613636364 416 L 200.375 416 L 199.07386363636 416 L 197.77272727273 416 L 196.47159090909 416 L 195.17045454545 416 L 193.86931818182 416 L 192.56818181818 416 L 191.26704545455 416 L 189.96590909091 416 L 188.66477272727 416 L 187.36363636364 416 L 186.0625 416 L 184.76136363636 416 L 183.46022727273 416 L 182.15909090909 416 L 180.85795454545 416 L 179.55681818182 416 L 178.25568181818 416 L 176.95454545455 416 L 175.65340909091 416 L 174.35227272727 416 L 173.05113636364 416 L 171.75 416 L 170.44886363636 416 L 169.14772727273 416 L 167.84659090909 416 L 166.54545454545 416 L 165.24431818182 416 L 163.94318181818 416 L 162.64204545455 416 L 161.34090909091 416 L 160.03977272727 416 L 158.73863636364 416 L 157.4375 416 L 156.13636363636 416 L 154.83522727273 416 L 153.53409090909 416 L 152.23295454545 416 L 150.93181818182 416 L 149.63068181818 416 L 148.32954545455 416 L 147.02840909091 416 L 145.72727272727 416 L 144.42613636364 416 L 143.125 416 L 141.82386363636 416 L 140.52272727273 416 L 139.22159090909 416 L 137.92045454545 416 L 136.61931818182 416 L 135.31818181818 416 L 134.01704545455 416 L 132.71590909091 416 L 131.41477272727 416 L 130.11363636364 416 L 128.8125 416 L 127.51136363636 416 L 126.21022727273 416 L 124.90909090909 416 L 123.60795454545 416 L 122.30681818182 416 L 121.00568181818 416 L 119.70454545455 416 L 118.40340909091 416 L 117.10227272727 416 L 115.80113636364 416 L 114.5 416 L 113.19886363636 416 L 111.89772727273 416 L 110.59659090909 416 L 109.29545454545 416 L 107.99431818182 416 L 106.69318181818 416 L 105.39204545455 416 L 104.09090909091 416 L 102.78977272727 416 L 101.48863636364 416 L 100.1875 416 L 98.886363636364 416 L 97.585227272727 416 L 96.284090909091 416 L 94.982954545455 416 L 93.681818181818 416 L 92.380681818182 416 L 91.079545454545 416 L 89.778409090909 416 L 88.477272727273 416 L 87.176136363636 416 L 85.875 416 L 84.573863636364 416 L 83.272727272727 416 L 81.971590909091 416 L 80.670454545455 416 L 79.369318181818 416 L 78.068181818182 416 L 76.767045454545 416 L 75.465909090909 416 L 74.164772727273 416 L 72.863636363636 416 L 71.5625 416 L 70.261363636364 416 L 68.960227272727 416 L 67.659090909091 416 L 66.357954545455 416 L 65.056818181818 416 L 63.755681818182 416 L 62.454545454545 416 L 61.153409090909 416 L 59.852272727273 416 L 58.551136363636 416 L 57.25 416 L 55.948863636364 416 L 54.647727272727 416 L 53.346590909091 416 L 52.045454545455 416 L 50.744318181818 416 L 49.443181818182 416 L 48.142045454545 416 L 46.840909090909 416 L 45.539772727273 416 L 44.238636363636 416 L 42.9375 416 L 41.636363636364 416 L 40.335227272727 416 L 39.034090909091 416 L 37.732954545455 416 L 36.431818181818 416 L 35.130681818182 416 L 33.829545454545 416 L 32.528409090909 416 L 31.227272727273 416 L 29.926136363636 416 L 28.625 416 L 27.323863636364 416 L 26.022727272727 416 L 24.721590909091 416 L 23.420454545455 416 L 22.119318181818 416 L 20.818181818182 416 L 19.517045454545 416 L 18.215909090909 416 L 16.914772727273 416 L 15.613636363636 416 L 14.3125 416 L 13.011363636364 416 L 11.710227272727 416 L 10.409090909091 416 L 9.1079545454545 416 L 7.8068181818182 416 L 6.5056818181818 416 L 5.2045454545455 416 L 3.9034090909091 416 L 2.6022727272727 416 L 1.3011363636364 416 L 0 416 Z" class="highcharts-area" data-z-index="0"></path><path fill="none" d="M 0 350.896 L 1.3011363636364 355.264 L 2.6022727272727 353.18399999999997 L 3.9034090909091 351.2704 L 5.2045454545455 351.104 L 6.5056818181818 352.76800000000003 L 7.8068181818182 351.62816 L 9.1079545454545 353.6 L 10.409090909091 350.18048 L 11.710227272727 346.2368 L 13.011363636364 339.3728 L 14.3125 335.37919999999997 L 15.613636363636 330.4704 L 16.914772727273 333.4656 L 18.215909090909 337.71712 L 19.517045454545 338.624 L 20.818181818182 339.872 L 22.119318181818 340.12991999999997 L 23.420454545455 337.6672 L 24.721590909091 338.09152 L 26.022727272727 336.544 L 27.323863636364 333.1328 L 28.625 331.968 L 29.926136363636 335.2128 L 31.227272727273 341.3696 L 32.528409090909 342.91712 L 33.829545454545 347.776 L 35.130681818182 340.704 L 36.431818181818 337.79200000000003 L 37.732954545455 339.51424 L 39.034090909091 343.0336 L 40.335227272727 337.88352 L 41.636363636364 333.5488 L 42.9375 333.632 L 44.238636363636 342.784 L 45.539772727273 347.10208 L 46.840909090909 350.78784 L 48.142045454545 355.39712 L 49.443181818182 353.17568 L 50.744318181818 346.36992 L 52.045454545455 349.856 L 53.346590909091 348.59136 L 54.647727272727 346.75264 L 55.948863636364 345.95392 L 57.25 349.09888 L 58.551136363636 349.45664 L 59.852272727273 350.92928 L 61.153409090909 345.91232 L 62.454545454545 332.49216 L 63.755681818182 350.62144 L 65.056818181818 349.04895999999997 L 66.357954545455 346.91071999999997 L 67.659090909091 348.10048 L 68.960227272727 351.5616 L 70.261363636364 355.64672 L 71.5625 350.8128 L 72.863636363636 348.0672 L 74.164772727273 351.35360000000003 L 75.465909090909 353.10912 L 76.767045454545 355.7632 L 78.068181818182 354.848 L 79.369318181818 352.32704 L 80.670454545455 348.67456 L 81.971590909091 352.98432 L 83.272727272727 356.512 L 84.573863636364 359.04128000000003 L 85.875 357.85984 L 87.176136363636 351.52 L 88.477272727273 347.81759999999997 L 89.778409090909 343.24992 L 91.079545454545 343.57439999999997 L 92.380681818182 348.9824 L 93.681818181818 367.88544 L 94.982954545455 371.904 L 96.284090909091 380.40704 L 97.585227272727 378.70144 L 98.886363636364 382.61184000000003 L 100.1875 384.99136 L 101.48863636364 389.39264000000003 L 102.78977272727 379.99936 L 104.09090909091 381.65504 L 105.39204545455 382.27072 L 106.69318181818 381.03104 L 107.99431818182 375.3152 L 109.29545454545 372.55296 L 110.59659090909 379.88288 L 111.89772727273 374.6496 L 113.19886363636 374.79936 L 114.5 373.1936 L 115.80113636364 371.24672 L 117.10227272727 370.5312 L 118.40340909091 372.64448 L 119.70454545455 370.97216000000003 L 121.00568181818 368.19328 L 122.30681818182 369.47456 L 123.60795454545 373.20192 L 124.90909090909 376.05568 L 126.21022727273 376.76288 L 127.51136363636 375.9392 L 128.8125 372.91071999999997 L 130.11363636364 375.87264 L 131.41477272727 381.98784 L 132.71590909091 378.84288 L 134.01704545455 380.2656 L 135.31818181818 384.35072 L 136.61931818182 380.54016 L 137.92045454545 375.79776 L 139.22159090909 371.50464 L 140.52272727273 372.50304 L 141.82386363636 372.3616 L 143.125 368.66752 L 144.42613636364 372.5696 L 145.72727272727 375.47328 L 147.02840909091 374.9408 L 148.32954545455 375.50656 L 149.63068181818 371.22176 L 150.93181818182 366.54592 L 152.23295454545 367.21152 L 153.53409090909 363.82528 L 154.83522727273 331.24415999999997 L 156.13636363636 367.02016 L 157.4375 368.30976 L 158.73863636364 368.55935999999997 L 160.03977272727 368.96704 L 161.34090909091 374.34176 L 162.64204545455 375.50656 L 163.94318181818 368.48448 L 165.24431818182 352.85952 L 166.54545454545 328.65664 L 167.84659090909 341.50272 L 169.14772727273 344.55616 L 170.44886363636 348.35008 L 171.75 356.72 L 173.05113636364 361.62048 L 174.35227272727 368.66752 L 175.65340909091 371.42976 L 176.95454545455 369.00864 L 178.25568181818 369.9904 L 179.55681818182 365.9136 L 180.85795454545 362.65216 L 182.15909090909 363.01824 L 183.46022727273 358.94975999999997 L 184.76136363636 364.64896 L 186.0625 375.82272 L 187.36363636364 372.0288 L 188.66477272727 373.13536 L 189.96590909091 371.29664 L 191.26704545455 367.8688 L 192.56818181818 365.664 L 193.86931818182 366.00512 L 195.17045454545 365.63072 L 196.47159090909 365.68896 L 197.77272727273 363.4176 L 199.07386363636 367.06176 L 200.375 369.34976 L 201.67613636364 369.0752 L 202.97727272727 369.58272 L 204.27840909091 367.7856 L 205.57954545455 369.50784 L 206.88068181818 369.83232 L 208.18181818182 370.35648 L 209.48295454545 372.3616 L 210.78409090909 374.44992 L 212.08522727273 371.20512 L 213.38636363636 371.53792 L 214.6875 373.46816 L 215.98863636364 376.92096 L 217.28977272727 379.25888 L 218.59090909091 371.3216 L 219.89204545455 374.66624 L 221.19318181818 377.8944 L 222.49431818182 376.8544 L 223.79545454545 376.21376 L 225.09659090909 374.74944 L 226.39772727273 371.98720000000003 L 227.69886363636 374.90752 L 229 376.34688 L 230.30113636364 375.24864 L 231.60227272727 375.26528 L 232.90340909091 373.85088 L 234.20454545455 377.01248 L 235.50568181818 376.9792 L 236.80681818182 376.84608000000003 L 238.10795454545 373.40992 L 239.40909090909 375.67296 L 240.71022727273 377.12896 L 242.01136363636 375.83936 L 243.3125 374.2752 L 244.61363636364 375.5232 L 245.91477272727 374.0672 L 247.21590909091 373.05216 L 248.51704545455 367.21984 L 249.81818181818 371.47968000000003 L 251.11931818182 364.57408 L 252.42045454545 363.78368 L 253.72159090909 364.56576 L 255.02272727273 373.6928 L 256.32386363636 371.1136 L 257.625 368.50944 L 258.92613636364 363.73376 L 260.22727272727 356.50368000000003 L 261.52840909091 360.80512 L 262.82954545455 356.12095999999997 L 264.13068181818 355.39712 L 265.43181818182 358.8832 L 266.73295454545 370.43968 L 268.03409090909 368.80896 L 269.33522727273 367.68576 L 270.63636363636 369.00032 L 271.9375 371.3216 L 273.23863636364 369.73248 L 274.53977272727 372.8608 L 275.84090909091 367.80224 L 277.14204545455 367.93536 L 278.44318181818 371.8208 L 279.74431818182 375.16544 L 281.04545454545 376.41344 L 282.34659090909 380.3904 L 283.64772727273 380.20736 L 284.94886363636 380.432 L 286.25 383.4688 L 287.55113636364 384.2592 L 288.85227272727 386.59712 L 290.15340909091 386.63872 L 291.45454545455 380.96448 L 292.75568181818 383.70176 L 294.05681818182 389.94176 L 295.35795454545 387.712 L 296.65909090909 388.41088 L 297.96022727273 389.13472 L 299.26136363636 378.82624 L 300.5625 379.00096 L 301.86363636364 383.19424 L 303.16477272727 376.1888 L 304.46590909091 372.59456 L 305.76704545455 367.72736 L 307.06818181818 364.79872 L 308.36931818182 368.2432 L 309.67045454545 362.61056 L 310.97159090909 358.56704 L 312.27272727273 336.79359999999997 L 313.57386363636 347.39328 L 314.875 350.82944 L 316.17613636364 355.11424 L 317.47727272727 354.44864 L 318.77840909091 345.99552 L 320.07954545455 351.16224 L 321.38068181818 334.11456 L 322.68181818182 339.1232 L 323.98295454545 337.7088 L 325.28409090909 328.35712 L 326.58522727273 340.57088 L 327.88636363636 350.57984 L 329.1875 354.98112 L 330.48863636364 353.04256 L 331.78977272727 354.14912 L 333.09090909091 351.1456 L 334.39204545455 357.01120000000003 L 335.69318181818 357.98464 L 336.99431818182 352.24384 L 338.29545454545 360.7968 L 339.59659090909 366.25472 L 340.89772727273 371.71264 L 342.19886363636 370.18176 L 343.5 372.49472000000003 L 344.80113636364 369.17504 L 346.10227272727 360.34752000000003 L 347.40340909091 358.6752 L 348.70454545455 363.60896 L 350.00568181818 359.45727999999997 L 351.30681818182 359.72352 L 352.60795454545 353.74976 L 353.90909090909 349.29024 L 355.21022727273 354.11584 L 356.51136363636 353.00928 L 357.8125 343.9904 L 359.11363636364 336.22784 L 360.41477272727 311.50912 L 361.71590909091 350.07232 L 363.01704545455 352.65152 L 364.31818181818 353.25056 L 365.61931818182 351.03744 L 366.92045454545 349.99744 L 368.22159090909 347.88416 L 369.52272727273 351.28704 L 370.82386363636 350.62144 L 372.125 346.53632 L 373.42613636364 340.06336 L 374.72727272727 338.50752 L 376.02840909091 336.05312000000004 L 377.32954545455 342.25152 L 378.63068181818 336.66048 L 379.93181818182 332.86656 L 381.23295454545 332.3424 L 382.53409090909 319.75424 L 383.83522727273 323.59808 L 385.13636363636 300.21056 L 386.4375 295.67616 L 387.73863636364 300.12736 L 389.03977272727 313.68896 L 390.34090909091 305.27744 L 391.64204545455 291.91552 L 392.94318181818 278.08768 L 394.24431818182 296.54143999999997 L 395.54545454545 295.20192 L 396.84659090909 281.29088 L 398.14772727273 279.86816 L 399.44886363636 245.1904 L 400.75 244.00064 L 402.05113636364 268.75264000000004 L 403.35227272727 281.51552000000004 L 404.65340909091 272.23040000000003 L 405.95454545455 266.08191999999997 L 407.25568181818 273.5616 L 408.55681818182 261.09824000000003 L 409.85795454545 248.52672 L 411.15909090909 252.8864 L 412.46022727273 252.57856 L 413.76136363636 252.27072 L 415.0625 253.41056 L 416.36363636364 275.84128 L 417.66477272727 283.96992 L 418.96590909091 265.13344 L 420.26704545455 283.05472 L 421.56818181818 278.33727999999996 L 422.86931818182 267.87072 L 424.17045454545 259.63392 L 425.47159090909 256.79679999999996 L 426.77272727273 259.35936000000004 L 428.07386363636 246.94592 L 429.375 241.28 L 430.67613636364 246.08896 L 431.97727272727 229.80672 L 433.27840909091 207.35104 L 434.57954545455 205.53728 L 435.88068181818 195.98592 L 437.18181818182 205.1296 L 438.48295454545 179.73696 L 439.78409090909 162.30656 L 441.08522727273 151.67360000000002 L 442.38636363636 111.50464 L 443.6875 91.27872000000002 L 444.98863636364 129.90016000000003 L 446.28977272727 151.26592 L 447.59090909091 177.74848 L 448.89204545455 249.07584 L 450.19318181818 276.74816 L 451.49431818182 299.04576 L 452.79545454545 295.04384 L 454.09659090909 310.67712 L 455.39772727273 304.19584 L 456.69886363636 306.61696 L 458 279.39392 L 459.30113636364 273.0624 L 460.60227272727 266.75584000000003 L 461.90340909091 267.97056 L 463.20454545455 266.57280000000003 L 464.50568181818 251.17248 L 465.80681818182 248.09408 L 467.10795454545 239.71584 L 468.40909090909 257.67872 L 469.71022727273 247.52832 L 471.01136363636 235.90528 L 472.3125 225.5968 L 473.61363636364 251.24736 L 474.91477272727 251.12256 L 476.21590909091 246.04736 L 477.51704545455 250.06592 L 478.81818181818 229.2992 L 480.11931818182 231.28768 L 481.42045454545 223.23392 L 482.72159090909 204.36416 L 484.02272727273 187.46624 L 485.32386363636 172.57344 L 486.625 158.92863999999997 L 487.92613636364 145.11744 L 489.22727272727 161.71584 L 490.52840909091 171.99936 L 491.82954545455 158.39616 L 493.13068181818 159.89376 L 494.43181818182 183.47264 L 495.73295454545 162.83072 L 497.03409090909 164.61952 L 498.33522727273 171.808 L 499.63636363636 161.17504 L 500.9375 150.7584 L 502.23863636364 152.38912 L 503.53977272727 151.14112 L 504.84090909091 190.84416 L 506.14204545455 191.6928 L 507.44318181818 179.57056 L 508.74431818182 152.28928000000002 L 510.04545454545 152.30592000000001 L 511.34659090909 160.72576 L 512.64772727273 162.96384 L 513.94886363636 162.64768 L 515.25 155.60064 L 516.55113636364 168.73792 L 517.85227272727 173.45536 L 519.15340909091 176.93312 L 520.45454545455 183.68064 L 521.75568181818 176.40064 L 523.05681818182 162.81408 L 524.35795454545 154.78528 L 525.65909090909 168.8128 L 526.96022727273 169.07904 L 528.26136363636 162.42304 L 529.5625 159.97696000000002 L 530.86363636364 143.15392000000003 L 532.16477272727 158.97024 L 533.46590909091 172.0576 L 534.76704545455 171.81632 L 536.06818181818 176.00128 L 537.36931818182 168.82944 L 538.67045454545 175.83488 L 539.97159090909 178.30592 L 541.27272727273 195.75296 L 542.57386363636 206.7936 L 543.875 230.39744 L 545.17613636364 262.36288 L 546.47727272727 275.69984 L 547.77840909091 224.73152 L 549.07954545455 273.07072 L 550.38068181818 251.57184 L 551.68181818182 253.31904 L 552.98295454545 259.03488 L 554.28409090909 284.21119999999996 L 555.58522727273 276.75648 L 556.88636363636 290.15168 L 558.1875 291.24992 L 559.48863636364 304.76992 L 560.78977272727 324.42176 L 562.09090909091 328.21568 L 563.39204545455 326.4768 L 564.69318181818 317.42464 L 565.99431818182 301.35872 L 567.29545454545 291.408 L 568.59659090909 292.47296 L 569.89772727273 309.8368 L 571.19886363636 298.67136 L 572.5 288.87872 L 573.80113636364 291.57439999999997 L 575.10227272727 285.30111999999997 L 576.40340909091 274.20223999999996 L 577.70454545455 281.90656 L 579.00568181818 281.14944 L 580.30681818182 285.07648 L 581.60795454545 290.8672 L 582.90909090909 289.92704000000003 L 584.21022727273 293.2384 L 585.51136363636 278.56192 L 586.8125 269.776 L 588.11363636364 265.26656 L 589.41477272727 259.2096 L 590.71590909091 258.52736 L 592.01704545455 243.3184 L 593.31818181818 243.84256 L 594.61931818182 256.78848 L 595.92045454545 247.23712 L 597.22159090909 235.67232 L 598.52272727273 233.67552 L 599.82386363636 232.18624 L 601.125 238.62592 L 602.42613636364 229.9648 L 603.72727272727 220.33024 L 605.02840909091 227.81824 L 606.32954545455 262.45439999999996 L 607.63068181818 276.15744 L 608.93181818182 259.68384000000003 L 610.23295454545 247.6448 L 611.53409090909 251.81312 L 612.83522727273 242.84416 L 614.13636363636 262.76224 L 615.4375 254.20928 L 616.73863636364 253.344 L 618.03977272727 263.89376 L 619.34090909091 257.45408 L 620.64204545455 259.7504 L 621.94318181818 259.68384000000003 L 623.24431818182 247.66976 L 624.54545454545 280.12608 L 625.84659090909 292.66432 L 627.14772727273 332.28416 L 628.44886363636 345.26336000000003 L 629.75 335.73696 L 631.05113636364 316.784 L 632.35227272727 313.71392000000003 L 633.65340909091 314.15488 L 634.95454545455 320.41152 L 636.25568181818 326.03584 L 637.55681818182 303.18912 L 638.85795454545 292.5312 L 640.15909090909 283.01311999999996 L 641.46022727273 262.65408 L 642.76136363636 268.75264000000004 L 644.0625 256.05632 L 645.36363636364 245.2736 L 646.66477272727 238.92544 L 647.96590909091 233.32608 L 649.26704545455 238.76736 L 650.56818181818 221.4368 L 651.86931818182 209.77216 L 653.17045454545 245.20704 L 654.47159090909 223.94112 L 655.77272727273 190.05376 L 657.07386363636 179.16288 L 658.375 149.68511999999998 L 659.67613636364 108.368 L 660.97727272727 95.93792000000002 L 662.27840909091 102.76031999999998 L 663.57954545455 124.90816000000001 L 664.88068181818 115.7312 L 666.18181818182 155.8336 L 667.48295454545 124.7584 L 668.78409090909 141.91424 L 670.08522727273 151.49056000000002 L 671.38636363636 163.22176 L 672.6875 186.85056 L 673.98863636364 197.96608 L 675.28977272727 218.22528 L 676.59090909091 228.47552 L 677.89204545455 212.8256 L 679.19318181818 170.49344 L 680.49431818182 157.11488000000003" class="highcharts-graph" data-z-index="1" stroke="#2962FF" stroke-width="2" stroke-linejoin="round" stroke-linecap="round"></path></g><g class="highcharts-markers highcharts-series-0 highcharts-area-series" data-z-index="90" opacity="1" transform="translate(0,40) scale(1 1)" clip-path="none"></g></g><text x="740" text-anchor="end" class="highcharts-title" data-z-index="4" style="color: rgb(211, 211, 211); font-size: 15px; fill: rgb(211, 211, 211);" y="512"></text><text x="14" text-anchor="start" class="highcharts-subtitle" data-z-index="4" style="color: rgb(51, 51, 51); fill: rgb(51, 51, 51); font-size: 15px;" y="25"><tspan style="color: rgb(211, 211, 211); fill: rgb(211, 211, 211);">Heating Oil</tspan></text><text x="0" text-anchor="start" class="highcharts-caption" data-z-index="4" style="color: rgb(102, 102, 102); fill: rgb(102, 102, 102);" y="527"></text><g class="highcharts-axis-labels highcharts-xaxis-labels" data-z-index="7"><text x="78.006222943723" text-anchor="middle" transform="translate(0,0)" style="color: rgb(227, 225, 225); cursor: default; font-size: 15px; font-weight: 400; fill: rgb(227, 225, 225);" y="476" opacity="1">1985</text><text x="156.095703125" text-anchor="middle" transform="translate(0,0)" style="color: rgb(227, 225, 225); cursor: default; font-size: 15px; font-weight: 400; fill: rgb(227, 225, 225);" y="476" opacity="1">1990</text><text x="234.12568870523" text-anchor="middle" transform="translate(0,0)" style="color: rgb(227, 225, 225); cursor: default; font-size: 15px; font-weight: 400; fill: rgb(227, 225, 225);" y="476" opacity="1">1995</text><text x="312.15792112299" text-anchor="middle" transform="translate(0,0)" style="color: rgb(227, 225, 225); cursor: default; font-size: 15px; font-weight: 400; fill: rgb(227, 225, 225);" y="476" opacity="1">2000</text><text x="390.2620523416" text-anchor="middle" transform="translate(0,0)" style="color: rgb(227, 225, 225); cursor: default; font-size: 15px; font-weight: 400; fill: rgb(227, 225, 225);" y="476" opacity="1">2005</text><text x="468.29428475936" text-anchor="middle" transform="translate(0,0)" style="color: rgb(227, 225, 225); cursor: default; font-size: 15px; font-weight: 400; fill: rgb(227, 225, 225);" y="476" opacity="1">2010</text><text x="546.43661221591" text-anchor="middle" transform="translate(0,0)" style="color: rgb(227, 225, 225); cursor: default; font-size: 15px; font-weight: 400; fill: rgb(227, 225, 225);" y="476" opacity="1">2015</text><text x="624.54545454545" text-anchor="middle" transform="translate(0,0)" style="color: rgb(227, 225, 225); cursor: default; font-size: 15px; font-weight: 400; fill: rgb(227, 225, 225);" y="476" opacity="1">2020</text></g><g class="highcharts-axis-labels highcharts-yaxis-labels" data-z-index="7"><text x="0" text-anchor="start" transform="translate(0,0)" style="color: rgb(227, 225, 225); cursor: default; font-size: 15px; fill: rgb(227, 225, 225);" visibility="hidden"><tspan>0</tspan></text><text x="695" text-anchor="start" transform="translate(0,0)" style="color: rgb(227, 225, 225); cursor: default; font-size: 15px; fill: rgb(227, 225, 225);" y="377" opacity="1">1</text><text x="695" text-anchor="start" transform="translate(0,0)" style="color: rgb(227, 225, 225); cursor: default; font-size: 15px; fill: rgb(227, 225, 225);" y="294" opacity="1">2</text><text x="695" text-anchor="start" transform="translate(0,0)" style="color: rgb(227, 225, 225); cursor: default; font-size: 15px; fill: rgb(227, 225, 225);" y="211" opacity="1">3</text><text x="695" text-anchor="start" transform="translate(0,0)" style="color: rgb(227, 225, 225); cursor: default; font-size: 15px; fill: rgb(227, 225, 225);" y="128" opacity="1">4</text><text x="0" text-anchor="start" transform="translate(0,0)" style="color: rgb(227, 225, 225); cursor: default; font-size: 15px; fill: rgb(227, 225, 225);" visibility="hidden">5</text></g><g class="highcharts-axis-labels highcharts-yaxis-labels" data-z-index="7"></g><g class="highcharts-axis-labels highcharts-yaxis-labels" data-z-index="7"></g><g class="highcharts-control-points" data-z-index="99" clip-path="url(#highcharts-pizmcyp-3686-)"></g><g class="highcharts-axis highcharts-yaxis" data-z-index="9999"><path fill="none" class="highcharts-tick" stroke="#333333" stroke-width="1" d="M 688 456.5 L 693 456.5" opacity="1"></path><path fill="none" class="highcharts-tick" stroke="#333333" stroke-width="1" d="M 688 373.5 L 693 373.5" opacity="1"></path><path fill="none" class="highcharts-tick" stroke="#333333" stroke-width="1" d="M 688 290.5 L 693 290.5" opacity="1"></path><path fill="none" class="highcharts-tick" stroke="#333333" stroke-width="1" d="M 688 206.5 L 693 206.5" opacity="1"></path><path fill="none" class="highcharts-tick" stroke="#333333" stroke-width="1" d="M 688 123.5 L 693 123.5" opacity="1"></path><path fill="none" class="highcharts-tick" stroke="#333333" stroke-width="1" d="M 688 39.5 L 693 39.5" opacity="1"></path><path fill="none" class="highcharts-axis-line" stroke="#616161" stroke-width="1" data-z-index="7" d="M 688.5 40 L 688.5 456"></path></g><path fill="none" d="M 0 0 L 1792 0" stroke="#757575" stroke-width="1" stroke-dasharray="8,3" data-z-index="6" visibility="hidden" class="crosshair-fix-horizontal"></path><path fill="none" d="M 0 40 L 0 1160" stroke="#757575" stroke-width="1" stroke-dasharray="8,3" data-z-index="6" visibility="hidden" class="crosshair-fix-vertical"></path></svg>