<?xml version="1.0" standalone="no"?><!DOCTYPE svg PUBLIC "-//W3C//DTD SVG 1.1//EN" "http://www.w3.org/Graphics/SVG/1.1/DTD/svg11.dtd"><svg xmlns:xlink="http://www.w3.org/1999/xlink" version="1.1" class="highcharts-root" style="font-family: &quot;Helvetica Neue&quot;, Helvetica, Arial, sans-serif; font-size: 12px;" xmlns="http://www.w3.org/2000/svg" width="750" height="520" viewBox="0 0 750 520"><desc>Created with Highcharts 10.1.0</desc><defs><linearGradient x1="0" y1="0" x2="500" y2="500" gradientUnits="userSpaceOnUse" id="highcharts-zurxaij-1964"><stop offset="0" stop-color="rgb(35, 35, 35)" stop-opacity="1"></stop></linearGradient><clipPath id="highcharts-zurxaij-1965-"><rect x="0" y="0" width="687" height="416" fill="none"></rect></clipPath><clipPath id="highcharts-zurxaij-2182-"><rect x="0" y="0" width="687" height="416" fill="none"></rect></clipPath><linearGradient x1="0" y1="0" x2="0" y2="1" id="highcharts-zurxaij-2183"><stop offset="0" stop-color="#2962FF" stop-opacity="1"></stop><stop offset="1" stop-color="rgb(41,98,255)" stop-opacity="0"></stop></linearGradient><linearGradient x1="0" y1="0" x2="0" y2="1" id="highcharts-zurxaij-2405"><stop offset="0" stop-color="#459a63" stop-opacity="1"></stop><stop offset="1" stop-color="rgb(69,154,99)" stop-opacity="0"></stop></linearGradient><clipPath id="highcharts-zurxaij-2406-"><rect x="0" y="40" width="687" height="416" fill="none"></rect></clipPath></defs><rect fill="url(#highcharts-zurxaij-1964)" class="highcharts-background" x="0" y="0" width="750" height="520" rx="0" ry="0"></rect><rect fill="none" class="highcharts-plot-background" x="0" y="40" width="687" height="416"></rect><g class="highcharts-grid highcharts-xaxis-grid" data-z-index="1"><path fill="none" stroke="#333333" stroke-width="1" stroke-dasharray="none" data-z-index="1" class="highcharts-grid-line" d="M 111.5 40 L 111.5 456" opacity="1"></path><path fill="none" stroke="#333333" stroke-width="1" stroke-dasharray="none" data-z-index="1" class="highcharts-grid-line" d="M 224.5 40 L 224.5 456" opacity="1"></path><path fill="none" stroke="#333333" stroke-width="1" stroke-dasharray="none" data-z-index="1" class="highcharts-grid-line" d="M 336.5 40 L 336.5 456" opacity="1"></path><path fill="none" stroke="#333333" stroke-width="1" stroke-dasharray="none" data-z-index="1" class="highcharts-grid-line" d="M 449.5 40 L 449.5 456" opacity="1"></path><path fill="none" stroke="#333333" stroke-width="1" stroke-dasharray="none" data-z-index="1" class="highcharts-grid-line" d="M 561.5 40 L 561.5 456" opacity="1"></path><path fill="none" stroke="#333333" stroke-width="1" stroke-dasharray="none" data-z-index="1" class="highcharts-grid-line" d="M 674.5 40 L 674.5 456" opacity="1"></path></g><g class="highcharts-grid highcharts-yaxis-grid" data-z-index="1"><path fill="none" stroke="#333333" stroke-width="1" stroke-dasharray="none" data-z-index="1" class="highcharts-grid-line" d="M 0 456.5 L 687 456.5" opacity="1"></path><path fill="none" stroke="#333333" stroke-width="1" stroke-dasharray="none" data-z-index="1" class="highcharts-grid-line" d="M 0 410.5 L 687 410.5" opacity="1"></path><path fill="none" stroke="#333333" stroke-width="1" stroke-dasharray="none" data-z-index="1" class="highcharts-grid-line" d="M 0 364.5 L 687 364.5" opacity="1"></path><path fill="none" stroke="#333333" stroke-width="1" stroke-dasharray="none" data-z-index="1" class="highcharts-grid-line" d="M 0 317.5 L 687 317.5" opacity="1"></path><path fill="none" stroke="#333333" stroke-width="1" stroke-dasharray="none" data-z-index="1" class="highcharts-grid-line" d="M 0 271.5 L 687 271.5" opacity="1"></path><path fill="none" stroke="#333333" stroke-width="1" stroke-dasharray="none" data-z-index="1" class="highcharts-grid-line" d="M 0 225.5 L 687 225.5" opacity="1"></path><path fill="none" stroke="#333333" stroke-width="1" stroke-dasharray="none" data-z-index="1" class="highcharts-grid-line" d="M 0 179.5 L 687 179.5" opacity="1"></path><path fill="none" stroke="#333333" stroke-width="1" stroke-dasharray="none" data-z-index="1" class="highcharts-grid-line" d="M 0 132.5 L 687 132.5" opacity="1"></path><path fill="none" stroke="#333333" stroke-width="1" stroke-dasharray="none" data-z-index="1" class="highcharts-grid-line" d="M 0 86.5 L 687 86.5" opacity="1"></path><path fill="none" stroke="#333333" stroke-width="1" stroke-dasharray="none" data-z-index="1" class="highcharts-grid-line" d="M 0 39.5 L 687 39.5" opacity="1"></path></g><g class="highcharts-grid highcharts-yaxis-grid" data-z-index="1"></g><g class="highcharts-grid highcharts-yaxis-grid" data-z-index="1"></g><rect fill="none" class="highcharts-plot-border" data-z-index="1" x="0" y="40" width="687" height="416"></rect><g class="highcharts-axis highcharts-xaxis" data-z-index="2"><path fill="none" class="highcharts-axis-line" stroke="#616161" stroke-width="1" data-z-index="7" d="M 0 456.5 L 687 456.5"></path></g><g class="highcharts-axis highcharts-yaxis" data-z-index="2"><path fill="none" class="highcharts-axis-line" data-z-index="7" d="M 728 40 L 728 456"></path></g><g class="highcharts-axis highcharts-yaxis" data-z-index="2"><path fill="none" class="highcharts-axis-line" stroke="#616161" stroke-width="1" data-z-index="7" d="M -1.5 40 L -1.5 456"></path></g><g class="highcharts-series-group" data-z-index="3"><g class="highcharts-series highcharts-series-0 highcharts-area-series" data-z-index="90" opacity="1" transform="translate(0,40) scale(1 1)" clip-path="url(#highcharts-zurxaij-2182-)"><path fill="url(#highcharts-zurxaij-2183)" d="M 0 340.972088888889 L 3.1227272727273 348.714311111111 L 6.2454545454547 364.429866666667 L 9.3681818181817 359.865422222222 L 12.490909090909 344.438755555556 L 15.613636363636 353.821866666667 L 18.736363636364 353.0384 L 21.859090909091 187.04515555556 L 24.981818181818 184.55146666667 L 28.104545454545 181.44533333333 L 31.227272727273 174.7824 L 34.35 180.24586666667 L 37.472727272727 202.49955555556 L 40.595454545455 206.06097777778 L 43.718181818182 204.77137777778 L 46.840909090909 197.31342222222 L 49.963636363636 206.18577777778 L 53.086363636364 196.50222222222 L 56.209090909091 183.85582222222 L 59.331818181818 171.94897777778 L 62.454545454545 164.94631111111 L 65.577272727273 169.31893333333 L 68.7 165.38773333333 L 71.822727272727 174.35253333333 L 74.945454545455 162.98417777778 L 78.068181818182 151.19288888889002 L 81.190909090909 132.4336 L 84.313636363636 129.53777777777998 L 87.436363636364 132.20017777778003 L 90.559090909091 131.08391111111 L 93.681818181818 123.80622222222001 L 96.804545454545 114.70506666667 L 99.927272727273 95.39342222222001 L 103.05 71.11288888888998 L 106.17272727273 73.76604444444001 L 109.29545454545 102.73351111110998 L 112.41818181818 127.66346666666999 L 115.54090909091 200.88177777778 L 118.66363636364 252.60906666667 L 121.78636363636 263.8896 L 124.90909090909 242.32462222222 L 128.03181818182 231.4832 L 131.15454545455 231.30062222222 L 134.27727272727 225.25013333333 L 137.4 213.38026666667 L 140.52272727273 191.96551111111 L 143.64545454545 194.99306666667 L 146.76818181818 175.25386666667 L 149.89090909091 185.72551111111 L 153.01363636364 178.75982222222 L 156.13636363636 167.45848888889 L 159.25909090909 165.89848888889 L 162.38181818182 158.22328888889 L 165.50454545455 166.49013333333 L 168.62727272727 154.51857777778002 L 171.75 153.26595555556003 L 174.87272727273 165.25831111111 L 177.99545454545 171.19324444444 L 181.11818181818 178.42933333333 L 184.24090909091 170.19484444444 L 187.36363636364 166.38151111111 L 190.48636363636 149.02044444444 L 193.60909090909 142.97688888889002 L 196.73181818182 128.88604444444002 L 199.85454545455 126.02257777777999 L 202.97727272727 119.79875555555998 L 206.1 96.73155555556002 L 209.22272727273 79.77262222221998 L 212.34545454545 95.58524444443998 L 215.46818181818 107.85493333333 L 218.59090909091 97.07128888889002 L 221.71363636364 106.10079999999999 L 224.83636363636 106.14240000000001 L 227.95909090909 119.63466666667 L 231.08181818182 123.73457777777998 L 234.20454545455 120.90808888889 L 237.32727272727 103.85902222222 L 240.45 86.23217777778001 L 243.57272727273 76.72888888889003 L 246.69545454545 85.62435555555999 L 249.81818181818 120.84476444443999 L 252.94090909091 154.96300444444 L 256.06363636364 132.79644444444 L 259.18636363636 107.42460444443998 L 262.30909090909 100.27194666666998 L 265.43181818182 102.93989333333002 L 268.55454545455 108.39365333333001 L 271.67727272727 106.66378666666998 L 274.8 107.93928888889002 L 277.92272727273 94.32499555556001 L 281.04545454545 113.17788444444 L 284.16818181818 135.03776 L 287.29090909091 130.78392888889 L 290.41363636364 128.59022222222 L 293.53636363636 120.91895111111 L 296.65909090909 112.34750222221999 L 299.78181818182 108.66613333332998 L 302.90454545455 115.12337777777998 L 306.02727272727 108.77637333333001 L 309.15 102.43422222222 L 312.27272727273 111.26151111111 L 315.39545454545 112.40088888889 L 318.51818181818 112.91973333332999 L 321.64090909091 109.63333333332997 L 324.76363636364 106.81077333333002 L 327.88636363636 103.43331555556 L 331.00909090909 107.34856888888999 L 334.13181818182 123.45655111111 L 337.25454545455 129.10698666667002 L 340.37727272727 159.11491555556 L 343.5 178.20099555556 L 346.62272727273 209.85443555556 L 349.74545454545 231.8264 L 352.86818181818 207.50888888889 L 355.99090909091 206.87587555556 L 359.11363636364 202.08055111111 L 362.23636363636 196.24684444444 L 365.35909090909 199.20206222222 L 368.48181818182 214.3856 L 371.60454545455 219.83774222222 L 374.72727272727 228.41658666667 L 377.85 224.11745777778 L 380.97272727273 226.67863111111 L 384.09545454545 234.02195555556 L 387.21818181818 250.10266666667 L 390.34090909091 255.90609777778 L 393.46363636364 242.51806222222 L 396.58636363636 235.90112 L 399.70909090909 230.54766222222 L 402.83181818182 227.13761777778 L 405.95454545455 235.69751111111 L 409.07727272727 238.27555555556 L 412.2 232.04202666667 L 415.32272727273 221.45112888889 L 418.44545454545 227.41864888889 L 421.56818181818 216.51344 L 424.69090909091 208.14583111111 L 427.81363636364 208.40144 L 430.93636363636 217.38010666667 L 434.05909090909 215.40849777778 L 437.18181818182 223.11027555556 L 440.30454545455 230.95349333333 L 443.42727272727 225.37724444444 L 446.55 217.43880888889 L 449.67272727273 207.08387555556 L 452.79545454545 203.58 L 455.91818181818 191.42309333333 L 459.04090909091 190.30775111111 L 462.16363636364 186.68531555556 L 465.28636363636 195.25422222222 L 468.40909090909 191.48942222222 L 471.53181818182 183.22488888889 L 474.65454545455 169.44581333333 L 477.77727272727 177.36668444444 L 480.9 175.01420444444 L 484.02272727273 175.50531555556 L 487.14545454545 167.29555555556 L 490.26818181818 170.60275555556 L 493.39090909091 206.70785777778 L 496.51363636364 216.58161777778 L 499.63636363636 217.43880888889 L 502.75909090909 208.04044444444 L 505.88181818182 200.33751111111 L 509.00454545455 193.40232888889 L 512.12727272727 197.69914666667 L 515.25 214.25432888889 L 518.37272727273 207.20104888889 L 521.49545454545 220.28193777778 L 524.61818181818 212.74609777778 L 527.74090909091 210.08 L 530.86363636364 201.06944 L 533.98636363636 198.68044444444 L 537.10909090909 201.70753777778 L 540.23181818182 215.99344 L 543.35454545455 266.53928888889004 L 546.47727272727 291.56677333333 L 549.6 270.65237333333 L 552.72272727273 244.46309333333 L 555.84545454545 235.53735111111 L 558.96818181818 233.78830222222 L 562.09090909091 238.79809777778 L 565.21363636364 236.87317333333 L 568.33636363636 237.87388444444 L 571.45909090909 223.55331555556 L 574.58181818182 208.00254222222 L 577.70454545455 195.21077333333 L 580.82727272727 191.14136888889 L 583.95 194.60988444444 L 587.07272727273 186.51891555556 L 590.19545454545 177.12032 L 593.31818181818 167.92856888889 L 596.44090909091 174.05694222222 L 599.56363636364 166.67571555556 L 602.68636363636 147.20668444444 L 605.80909090909 154.13539555556002 L 608.93181818182 162.22890666667 L 612.05454545455 144.42988444444 L 615.17727272727 124.44755555555997 L 618.3 93.36126222221998 L 621.42272727273 114.58234666666999 L 624.54545454545 118.23806222221998 L 627.66818181818 137.99066666667 L 630.79090909091 146.30974222222 L 633.91363636364 172.29587555556 L 637.03636363636 178.82222222222 L 640.15909090909 168.78275555556 L 643.28181818182 169.24428444444 L 646.40454545455 186.74355555556 L 649.52727272727 163.58807111111 L 652.65 157.84888888888997 L 655.77272727273 167.60339555556 L 658.89545454545 167.24748444444 L 662.01818181818 187.93377777778 L 665.14090909091 196.08737777778 L 668.26363636364 190.59248 L 671.38636363636 175.17598222222 L 671.38636363636 416 L 668.26363636364 416 L 665.14090909091 416 L 662.01818181818 416 L 658.89545454545 416 L 655.77272727273 416 L 652.65 416 L 649.52727272727 416 L 646.40454545455 416 L 643.28181818182 416 L 640.15909090909 416 L 637.03636363636 416 L 633.91363636364 416 L 630.79090909091 416 L 627.66818181818 416 L 624.54545454545 416 L 621.42272727273 416 L 618.3 416 L 615.17727272727 416 L 612.05454545455 416 L 608.93181818182 416 L 605.80909090909 416 L 602.68636363636 416 L 599.56363636364 416 L 596.44090909091 416 L 593.31818181818 416 L 590.19545454545 416 L 587.07272727273 416 L 583.95 416 L 580.82727272727 416 L 577.70454545455 416 L 574.58181818182 416 L 571.45909090909 416 L 568.33636363636 416 L 565.21363636364 416 L 562.09090909091 416 L 558.96818181818 416 L 555.84545454545 416 L 552.72272727273 416 L 549.6 416 L 546.47727272727 416 L 543.35454545455 416 L 540.23181818182 416 L 537.10909090909 416 L 533.98636363636 416 L 530.86363636364 416 L 527.74090909091 416 L 524.61818181818 416 L 521.49545454545 416 L 518.37272727273 416 L 515.25 416 L 512.12727272727 416 L 509.00454545455 416 L 505.88181818182 416 L 502.75909090909 416 L 499.63636363636 416 L 496.51363636364 416 L 493.39090909091 416 L 490.26818181818 416 L 487.14545454545 416 L 484.02272727273 416 L 480.9 416 L 477.77727272727 416 L 474.65454545455 416 L 471.53181818182 416 L 468.40909090909 416 L 465.28636363636 416 L 462.16363636364 416 L 459.04090909091 416 L 455.91818181818 416 L 452.79545454545 416 L 449.67272727273 416 L 446.55 416 L 443.42727272727 416 L 440.30454545455 416 L 437.18181818182 416 L 434.05909090909 416 L 430.93636363636 416 L 427.81363636364 416 L 424.69090909091 416 L 421.56818181818 416 L 418.44545454545 416 L 415.32272727273 416 L 412.2 416 L 409.07727272727 416 L 405.95454545455 416 L 402.83181818182 416 L 399.70909090909 416 L 396.58636363636 416 L 393.46363636364 416 L 390.34090909091 416 L 387.21818181818 416 L 384.09545454545 416 L 380.97272727273 416 L 377.85 416 L 374.72727272727 416 L 371.60454545455 416 L 368.48181818182 416 L 365.35909090909 416 L 362.23636363636 416 L 359.11363636364 416 L 355.99090909091 416 L 352.86818181818 416 L 349.74545454545 416 L 346.62272727273 416 L 343.5 416 L 340.37727272727 416 L 337.25454545455 416 L 334.13181818182 416 L 331.00909090909 416 L 327.88636363636 416 L 324.76363636364 416 L 321.64090909091 416 L 318.51818181818 416 L 315.39545454545 416 L 312.27272727273 416 L 309.15 416 L 306.02727272727 416 L 302.90454545455 416 L 299.78181818182 416 L 296.65909090909 416 L 293.53636363636 416 L 290.41363636364 416 L 287.29090909091 416 L 284.16818181818 416 L 281.04545454545 416 L 277.92272727273 416 L 274.8 416 L 271.67727272727 416 L 268.55454545455 416 L 265.43181818182 416 L 262.30909090909 416 L 259.18636363636 416 L 256.06363636364 416 L 252.94090909091 416 L 249.81818181818 416 L 246.69545454545 416 L 243.57272727273 416 L 240.45 416 L 237.32727272727 416 L 234.20454545455 416 L 231.08181818182 416 L 227.95909090909 416 L 224.83636363636 416 L 221.71363636364 416 L 218.59090909091 416 L 215.46818181818 416 L 212.34545454545 416 L 209.22272727273 416 L 206.1 416 L 202.97727272727 416 L 199.85454545455 416 L 196.73181818182 416 L 193.60909090909 416 L 190.48636363636 416 L 187.36363636364 416 L 184.24090909091 416 L 181.11818181818 416 L 177.99545454545 416 L 174.87272727273 416 L 171.75 416 L 168.62727272727 416 L 165.50454545455 416 L 162.38181818182 416 L 159.25909090909 416 L 156.13636363636 416 L 153.01363636364 416 L 149.89090909091 416 L 146.76818181818 416 L 143.64545454545 416 L 140.52272727273 416 L 137.4 416 L 134.27727272727 416 L 131.15454545455 416 L 128.03181818182 416 L 124.90909090909 416 L 121.78636363636 416 L 118.66363636364 416 L 115.54090909091 416 L 112.41818181818 416 L 109.29545454545 416 L 106.17272727273 416 L 103.05 416 L 99.927272727273 416 L 96.804545454545 416 L 93.681818181818 416 L 90.559090909091 416 L 87.436363636364 416 L 84.313636363636 416 L 81.190909090909 416 L 78.068181818182 416 L 74.945454545455 416 L 71.822727272727 416 L 68.7 416 L 65.577272727273 416 L 62.454545454545 416 L 59.331818181818 416 L 56.209090909091 416 L 53.086363636364 416 L 49.963636363636 416 L 46.840909090909 416 L 43.718181818182 416 L 40.595454545455 416 L 37.472727272727 416 L 34.35 416 L 31.227272727273 416 L 28.104545454545 416 L 24.981818181818 416 L 21.859090909091 416 L 18.736363636364 416 L 15.613636363636 416 L 12.490909090909 416 L 9.3681818181817 416 L 6.2454545454547 416 L 3.1227272727273 416 L 0 416 Z" class="highcharts-area" data-z-index="0"></path><path fill="none" d="M 0 340.972088888889 L 3.1227272727273 348.714311111111 L 6.2454545454547 364.429866666667 L 9.3681818181817 359.865422222222 L 12.490909090909 344.438755555556 L 15.613636363636 353.821866666667 L 18.736363636364 353.0384 L 21.859090909091 187.04515555556 L 24.981818181818 184.55146666667 L 28.104545454545 181.44533333333 L 31.227272727273 174.7824 L 34.35 180.24586666667 L 37.472727272727 202.49955555556 L 40.595454545455 206.06097777778 L 43.718181818182 204.77137777778 L 46.840909090909 197.31342222222 L 49.963636363636 206.18577777778 L 53.086363636364 196.50222222222 L 56.209090909091 183.85582222222 L 59.331818181818 171.94897777778 L 62.454545454545 164.94631111111 L 65.577272727273 169.31893333333 L 68.7 165.38773333333 L 71.822727272727 174.35253333333 L 74.945454545455 162.98417777778 L 78.068181818182 151.19288888889002 L 81.190909090909 132.4336 L 84.313636363636 129.53777777777998 L 87.436363636364 132.20017777778003 L 90.559090909091 131.08391111111 L 93.681818181818 123.80622222222001 L 96.804545454545 114.70506666667 L 99.927272727273 95.39342222222001 L 103.05 71.11288888888998 L 106.17272727273 73.76604444444001 L 109.29545454545 102.73351111110998 L 112.41818181818 127.66346666666999 L 115.54090909091 200.88177777778 L 118.66363636364 252.60906666667 L 121.78636363636 263.8896 L 124.90909090909 242.32462222222 L 128.03181818182 231.4832 L 131.15454545455 231.30062222222 L 134.27727272727 225.25013333333 L 137.4 213.38026666667 L 140.52272727273 191.96551111111 L 143.64545454545 194.99306666667 L 146.76818181818 175.25386666667 L 149.89090909091 185.72551111111 L 153.01363636364 178.75982222222 L 156.13636363636 167.45848888889 L 159.25909090909 165.89848888889 L 162.38181818182 158.22328888889 L 165.50454545455 166.49013333333 L 168.62727272727 154.51857777778002 L 171.75 153.26595555556003 L 174.87272727273 165.25831111111 L 177.99545454545 171.19324444444 L 181.11818181818 178.42933333333 L 184.24090909091 170.19484444444 L 187.36363636364 166.38151111111 L 190.48636363636 149.02044444444 L 193.60909090909 142.97688888889002 L 196.73181818182 128.88604444444002 L 199.85454545455 126.02257777777999 L 202.97727272727 119.79875555555998 L 206.1 96.73155555556002 L 209.22272727273 79.77262222221998 L 212.34545454545 95.58524444443998 L 215.46818181818 107.85493333333 L 218.59090909091 97.07128888889002 L 221.71363636364 106.10079999999999 L 224.83636363636 106.14240000000001 L 227.95909090909 119.63466666667 L 231.08181818182 123.73457777777998 L 234.20454545455 120.90808888889 L 237.32727272727 103.85902222222 L 240.45 86.23217777778001 L 243.57272727273 76.72888888889003 L 246.69545454545 85.62435555555999 L 249.81818181818 120.84476444443999 L 252.94090909091 154.96300444444 L 256.06363636364 132.79644444444 L 259.18636363636 107.42460444443998 L 262.30909090909 100.27194666666998 L 265.43181818182 102.93989333333002 L 268.55454545455 108.39365333333001 L 271.67727272727 106.66378666666998 L 274.8 107.93928888889002 L 277.92272727273 94.32499555556001 L 281.04545454545 113.17788444444 L 284.16818181818 135.03776 L 287.29090909091 130.78392888889 L 290.41363636364 128.59022222222 L 293.53636363636 120.91895111111 L 296.65909090909 112.34750222221999 L 299.78181818182 108.66613333332998 L 302.90454545455 115.12337777777998 L 306.02727272727 108.77637333333001 L 309.15 102.43422222222 L 312.27272727273 111.26151111111 L 315.39545454545 112.40088888889 L 318.51818181818 112.91973333332999 L 321.64090909091 109.63333333332997 L 324.76363636364 106.81077333333002 L 327.88636363636 103.43331555556 L 331.00909090909 107.34856888888999 L 334.13181818182 123.45655111111 L 337.25454545455 129.10698666667002 L 340.37727272727 159.11491555556 L 343.5 178.20099555556 L 346.62272727273 209.85443555556 L 349.74545454545 231.8264 L 352.86818181818 207.50888888889 L 355.99090909091 206.87587555556 L 359.11363636364 202.08055111111 L 362.23636363636 196.24684444444 L 365.35909090909 199.20206222222 L 368.48181818182 214.3856 L 371.60454545455 219.83774222222 L 374.72727272727 228.41658666667 L 377.85 224.11745777778 L 380.97272727273 226.67863111111 L 384.09545454545 234.02195555556 L 387.21818181818 250.10266666667 L 390.34090909091 255.90609777778 L 393.46363636364 242.51806222222 L 396.58636363636 235.90112 L 399.70909090909 230.54766222222 L 402.83181818182 227.13761777778 L 405.95454545455 235.69751111111 L 409.07727272727 238.27555555556 L 412.2 232.04202666667 L 415.32272727273 221.45112888889 L 418.44545454545 227.41864888889 L 421.56818181818 216.51344 L 424.69090909091 208.14583111111 L 427.81363636364 208.40144 L 430.93636363636 217.38010666667 L 434.05909090909 215.40849777778 L 437.18181818182 223.11027555556 L 440.30454545455 230.95349333333 L 443.42727272727 225.37724444444 L 446.55 217.43880888889 L 449.67272727273 207.08387555556 L 452.79545454545 203.58 L 455.91818181818 191.42309333333 L 459.04090909091 190.30775111111 L 462.16363636364 186.68531555556 L 465.28636363636 195.25422222222 L 468.40909090909 191.48942222222 L 471.53181818182 183.22488888889 L 474.65454545455 169.44581333333 L 477.77727272727 177.36668444444 L 480.9 175.01420444444 L 484.02272727273 175.50531555556 L 487.14545454545 167.29555555556 L 490.26818181818 170.60275555556 L 493.39090909091 206.70785777778 L 496.51363636364 216.58161777778 L 499.63636363636 217.43880888889 L 502.75909090909 208.04044444444 L 505.88181818182 200.33751111111 L 509.00454545455 193.40232888889 L 512.12727272727 197.69914666667 L 515.25 214.25432888889 L 518.37272727273 207.20104888889 L 521.49545454545 220.28193777778 L 524.61818181818 212.74609777778 L 527.74090909091 210.08 L 530.86363636364 201.06944 L 533.98636363636 198.68044444444 L 537.10909090909 201.70753777778 L 540.23181818182 215.99344 L 543.35454545455 266.53928888889004 L 546.47727272727 291.56677333333 L 549.6 270.65237333333 L 552.72272727273 244.46309333333 L 555.84545454545 235.53735111111 L 558.96818181818 233.78830222222 L 562.09090909091 238.79809777778 L 565.21363636364 236.87317333333 L 568.33636363636 237.87388444444 L 571.45909090909 223.55331555556 L 574.58181818182 208.00254222222 L 577.70454545455 195.21077333333 L 580.82727272727 191.14136888889 L 583.95 194.60988444444 L 587.07272727273 186.51891555556 L 590.19545454545 177.12032 L 593.31818181818 167.92856888889 L 596.44090909091 174.05694222222 L 599.56363636364 166.67571555556 L 602.68636363636 147.20668444444 L 605.80909090909 154.13539555556002 L 608.93181818182 162.22890666667 L 612.05454545455 144.42988444444 L 615.17727272727 124.44755555555997 L 618.3 93.36126222221998 L 621.42272727273 114.58234666666999 L 624.54545454545 118.23806222221998 L 627.66818181818 137.99066666667 L 630.79090909091 146.30974222222 L 633.91363636364 172.29587555556 L 637.03636363636 178.82222222222 L 640.15909090909 168.78275555556 L 643.28181818182 169.24428444444 L 646.40454545455 186.74355555556 L 649.52727272727 163.58807111111 L 652.65 157.84888888888997 L 655.77272727273 167.60339555556 L 658.89545454545 167.24748444444 L 662.01818181818 187.93377777778 L 665.14090909091 196.08737777778 L 668.26363636364 190.59248 L 671.38636363636 175.17598222222" class="highcharts-graph" data-z-index="1" stroke="#2962FF" stroke-width="2" stroke-linejoin="round" stroke-linecap="round"></path></g><g class="highcharts-markers highcharts-series-0 highcharts-area-series" data-z-index="90" opacity="1" transform="translate(0,40) scale(1 1)" clip-path="none"></g></g><text x="740" text-anchor="end" class="highcharts-title" data-z-index="4" style="color: rgb(211, 211, 211); font-size: 15px; fill: rgb(211, 211, 211);" y="512"></text><text x="14" text-anchor="start" class="highcharts-subtitle" data-z-index="4" style="color: rgb(51, 51, 51); fill: rgb(51, 51, 51); font-size: 15px;" y="25"><tspan style="color: rgb(211, 211, 211); fill: rgb(211, 211, 211);">Naphtha</tspan></text><text x="0" text-anchor="start" class="highcharts-caption" data-z-index="4" style="color: rgb(102, 102, 102); fill: rgb(102, 102, 102);" y="527"></text><g class="highcharts-axis-labels highcharts-xaxis-labels" data-z-index="7"><text x="112.32059659091" text-anchor="middle" transform="translate(0,0)" style="color: rgb(227, 225, 225); cursor: default; font-size: 15px; font-weight: 400; fill: rgb(227, 225, 225);" y="476" opacity="1">2008</text><text x="224.83636363636" text-anchor="middle" transform="translate(0,0)" style="color: rgb(227, 225, 225); cursor: default; font-size: 15px; font-weight: 400; fill: rgb(227, 225, 225);" y="476" opacity="1">2011</text><text x="337.15696022727" text-anchor="middle" transform="translate(0,0)" style="color: rgb(227, 225, 225); cursor: default; font-size: 15px; font-weight: 400; fill: rgb(227, 225, 225);" y="476" opacity="1">2014</text><text x="449.67272727273" text-anchor="middle" transform="translate(0,0)" style="color: rgb(227, 225, 225); cursor: default; font-size: 15px; font-weight: 400; fill: rgb(227, 225, 225);" y="476" opacity="1">2017</text><text x="562.09090909091" text-anchor="middle" transform="translate(0,0)" style="color: rgb(227, 225, 225); cursor: default; font-size: 15px; font-weight: 400; fill: rgb(227, 225, 225);" y="476" opacity="1">2020</text><text x="674.61318181818" text-anchor="middle" transform="translate(0,0)" style="color: rgb(227, 225, 225); cursor: default; font-size: 15px; font-weight: 400; fill: rgb(227, 225, 225);" y="476" opacity="1">2023</text></g><g class="highcharts-axis-labels highcharts-yaxis-labels" data-z-index="7"><text x="0" text-anchor="start" transform="translate(0,0)" style="color: rgb(227, 225, 225); cursor: default; font-size: 15px; fill: rgb(227, 225, 225);" visibility="hidden"><tspan>-400</tspan></text><text x="695" text-anchor="start" transform="translate(0,0)" style="color: rgb(227, 225, 225); cursor: default; font-size: 15px; fill: rgb(227, 225, 225);" y="414" opacity="1"><tspan>-200</tspan></text><text x="695" text-anchor="start" transform="translate(0,0)" style="color: rgb(227, 225, 225); cursor: default; font-size: 15px; fill: rgb(227, 225, 225);" y="368" opacity="1"><tspan>0</tspan></text><text x="695" text-anchor="start" transform="translate(0,0)" style="color: rgb(227, 225, 225); cursor: default; font-size: 15px; fill: rgb(227, 225, 225);" y="322" opacity="1">200</text><text x="695" text-anchor="start" transform="translate(0,0)" style="color: rgb(227, 225, 225); cursor: default; font-size: 15px; fill: rgb(227, 225, 225);" y="276" opacity="1">400</text><text x="695" text-anchor="start" transform="translate(0,0)" style="color: rgb(227, 225, 225); cursor: default; font-size: 15px; fill: rgb(227, 225, 225);" y="229" opacity="1">600</text><text x="695" text-anchor="start" transform="translate(0,0)" style="color: rgb(227, 225, 225); cursor: default; font-size: 15px; fill: rgb(227, 225, 225);" y="183" opacity="1">800</text><text x="695" text-anchor="start" transform="translate(0,0)" style="color: rgb(227, 225, 225); cursor: default; font-size: 15px; fill: rgb(227, 225, 225);" y="137" opacity="1">1000</text><text x="695" text-anchor="start" transform="translate(0,0)" style="color: rgb(227, 225, 225); cursor: default; font-size: 15px; fill: rgb(227, 225, 225);" y="91" opacity="1">1200</text><text x="0" text-anchor="start" transform="translate(0,0)" style="color: rgb(227, 225, 225); cursor: default; font-size: 15px; fill: rgb(227, 225, 225);" visibility="hidden">1400</text></g><g class="highcharts-axis-labels highcharts-yaxis-labels" data-z-index="7"></g><g class="highcharts-axis-labels highcharts-yaxis-labels" data-z-index="7"></g><g class="highcharts-control-points" data-z-index="99" clip-path="url(#highcharts-zurxaij-2406-)"></g><g class="highcharts-axis highcharts-yaxis" data-z-index="9999"><path fill="none" class="highcharts-tick" stroke="#333333" stroke-width="1" d="M 688 456.5 L 693 456.5" opacity="1"></path><path fill="none" class="highcharts-tick" stroke="#333333" stroke-width="1" d="M 688 410.5 L 693 410.5" opacity="1"></path><path fill="none" class="highcharts-tick" stroke="#333333" stroke-width="1" d="M 688 364.5 L 693 364.5" opacity="1"></path><path fill="none" class="highcharts-tick" stroke="#333333" stroke-width="1" d="M 688 317.5 L 693 317.5" opacity="1"></path><path fill="none" class="highcharts-tick" stroke="#333333" stroke-width="1" d="M 688 271.5 L 693 271.5" opacity="1"></path><path fill="none" class="highcharts-tick" stroke="#333333" stroke-width="1" d="M 688 225.5 L 693 225.5" opacity="1"></path><path fill="none" class="highcharts-tick" stroke="#333333" stroke-width="1" d="M 688 179.5 L 693 179.5" opacity="1"></path><path fill="none" class="highcharts-tick" stroke="#333333" stroke-width="1" d="M 688 132.5 L 693 132.5" opacity="1"></path><path fill="none" class="highcharts-tick" stroke="#333333" stroke-width="1" d="M 688 86.5 L 693 86.5" opacity="1"></path><path fill="none" class="highcharts-tick" stroke="#333333" stroke-width="1" d="M 688 39.5 L 693 39.5" opacity="1"></path><path fill="none" class="highcharts-axis-line" stroke="#616161" stroke-width="1" data-z-index="7" d="M 688.5 40 L 688.5 456"></path></g><path fill="none" d="M 0 0 L 1792 0" stroke="#757575" stroke-width="1" stroke-dasharray="8,3" data-z-index="6" visibility="hidden" class="crosshair-fix-horizontal"></path><path fill="none" d="M 0 40 L 0 1160" stroke="#757575" stroke-width="1" stroke-dasharray="8,3" data-z-index="6" visibility="hidden" class="crosshair-fix-vertical"></path></svg>