<?xml version="1.0" standalone="no"?><!DOCTYPE svg PUBLIC "-//W3C//DTD SVG 1.1//EN" "http://www.w3.org/Graphics/SVG/1.1/DTD/svg11.dtd"><svg xmlns:xlink="http://www.w3.org/1999/xlink" version="1.1" class="highcharts-root" style="font-family: &quot;Helvetica Neue&quot;, Helvetica, Arial, sans-serif; font-size: 12px;" xmlns="http://www.w3.org/2000/svg" width="750" height="520" viewBox="0 0 750 520"><desc>Created with Highcharts 10.1.0</desc><defs><linearGradient x1="0" y1="0" x2="500" y2="500" gradientUnits="userSpaceOnUse" id="highcharts-m5utbmz-1910"><stop offset="0" stop-color="rgb(35, 35, 35)" stop-opacity="1"></stop></linearGradient><clipPath id="highcharts-m5utbmz-1911-"><rect x="0" y="0" width="687" height="416" fill="none"></rect></clipPath><clipPath id="highcharts-m5utbmz-2074-"><rect x="0" y="0" width="687" height="416" fill="none"></rect></clipPath><linearGradient x1="0" y1="0" x2="0" y2="1" id="highcharts-m5utbmz-2075"><stop offset="0" stop-color="#2962FF" stop-opacity="1"></stop><stop offset="1" stop-color="rgb(41,98,255)" stop-opacity="0"></stop></linearGradient><linearGradient x1="0" y1="0" x2="0" y2="1" id="highcharts-m5utbmz-2243"><stop offset="0" stop-color="#459a63" stop-opacity="1"></stop><stop offset="1" stop-color="rgb(69,154,99)" stop-opacity="0"></stop></linearGradient><clipPath id="highcharts-m5utbmz-2244-"><rect x="0" y="40" width="687" height="416" fill="none"></rect></clipPath></defs><rect fill="url(#highcharts-m5utbmz-1910)" class="highcharts-background" x="0" y="0" width="750" height="520" rx="0" ry="0"></rect><rect fill="none" class="highcharts-plot-background" x="0" y="40" width="687" height="416"></rect><g class="highcharts-grid highcharts-xaxis-grid" data-z-index="1"><path fill="none" stroke="#333333" stroke-width="1" stroke-dasharray="none" data-z-index="1" class="highcharts-grid-line" d="M 90.5 40 L 90.5 456" opacity="1"></path><path fill="none" stroke="#333333" stroke-width="1" stroke-dasharray="none" data-z-index="1" class="highcharts-grid-line" d="M 189.5 40 L 189.5 456" opacity="1"></path><path fill="none" stroke="#333333" stroke-width="1" stroke-dasharray="none" data-z-index="1" class="highcharts-grid-line" d="M 288.5 40 L 288.5 456" opacity="1"></path><path fill="none" stroke="#333333" stroke-width="1" stroke-dasharray="none" data-z-index="1" class="highcharts-grid-line" d="M 388.5 40 L 388.5 456" opacity="1"></path><path fill="none" stroke="#333333" stroke-width="1" stroke-dasharray="none" data-z-index="1" class="highcharts-grid-line" d="M 487.5 40 L 487.5 456" opacity="1"></path><path fill="none" stroke="#333333" stroke-width="1" stroke-dasharray="none" data-z-index="1" class="highcharts-grid-line" d="M 586.5 40 L 586.5 456" opacity="1"></path></g><g class="highcharts-grid highcharts-yaxis-grid" data-z-index="1"><path fill="none" stroke="#333333" stroke-width="1" stroke-dasharray="none" data-z-index="1" class="highcharts-grid-line" d="M 0 456.5 L 687 456.5" opacity="1"></path><path fill="none" stroke="#333333" stroke-width="1" stroke-dasharray="none" data-z-index="1" class="highcharts-grid-line" d="M 0 387.5 L 687 387.5" opacity="1"></path><path fill="none" stroke="#333333" stroke-width="1" stroke-dasharray="none" data-z-index="1" class="highcharts-grid-line" d="M 0 317.5 L 687 317.5" opacity="1"></path><path fill="none" stroke="#333333" stroke-width="1" stroke-dasharray="none" data-z-index="1" class="highcharts-grid-line" d="M 0 248.5 L 687 248.5" opacity="1"></path><path fill="none" stroke="#333333" stroke-width="1" stroke-dasharray="none" data-z-index="1" class="highcharts-grid-line" d="M 0 179.5 L 687 179.5" opacity="1"></path><path fill="none" stroke="#333333" stroke-width="1" stroke-dasharray="none" data-z-index="1" class="highcharts-grid-line" d="M 0 109.5 L 687 109.5" opacity="1"></path><path fill="none" stroke="#333333" stroke-width="1" stroke-dasharray="none" data-z-index="1" class="highcharts-grid-line" d="M 0 39.5 L 687 39.5" opacity="1"></path></g><g class="highcharts-grid highcharts-yaxis-grid" data-z-index="1"></g><g class="highcharts-grid highcharts-yaxis-grid" data-z-index="1"></g><rect fill="none" class="highcharts-plot-border" data-z-index="1" x="0" y="40" width="687" height="416"></rect><g class="highcharts-axis highcharts-xaxis" data-z-index="2"><path fill="none" class="highcharts-axis-line" stroke="#616161" stroke-width="1" data-z-index="7" d="M 0 456.5 L 687 456.5"></path></g><g class="highcharts-axis highcharts-yaxis" data-z-index="2"><path fill="none" class="highcharts-axis-line" data-z-index="7" d="M 720 40 L 720 456"></path></g><g class="highcharts-axis highcharts-yaxis" data-z-index="2"><path fill="none" class="highcharts-axis-line" stroke="#616161" stroke-width="1" data-z-index="7" d="M -1.5 40 L -1.5 456"></path></g><g class="highcharts-series-group" data-z-index="3"><g class="highcharts-series highcharts-series-0 highcharts-area-series" data-z-index="90" opacity="1" transform="translate(0,40) scale(1 1)" clip-path="url(#highcharts-m5utbmz-2074-)"><path fill="url(#highcharts-m5utbmz-2075)" d="M 0 399.720533333333 L 4.1385542168674 396.448 L 8.2771084337348 393.355733333333 L 12.415662650603 387.8368 L 16.55421686747 390.2912 L 20.692771084337 390.485333333333 L 24.831325301205 389.2928 L 28.969879518072 389.847466666667 L 33.10843373494 385.645866666667 L 37.246987951807 382.650666666667 L 41.385542168675 386.69973333333303 L 45.524096385542 385.3408 L 49.66265060241 381.472 L 53.801204819277 383.968 L 57.939759036145 383.1776 L 62.078313253012 385.063466666667 L 66.216867469879 385.10506666666697 L 70.355421686747 378.546133333333 L 74.493975903614 378.962133333333 L 78.632530120482 381.943466666667 L 82.771084337349 383.025066666667 L 86.909638554217 385.424 L 91.048192771084 382.830933333333 L 95.186746987952 382.304 L 99.325301204819 381.5552 L 103.46385542169 381.33333333333303 L 107.60240963855 383.413333333333 L 111.74096385542 382.858666666667 L 115.87951807229 382.512 L 120.01807228916 380.44586666666703 L 124.15662650602 380.612266666667 L 128.29518072289 378.144 L 132.43373493976 377.728 L 136.57228915663 379.419733333333 L 140.71084337349 380.293333333333 L 144.84939759036 380.016 L 148.98795180723 378.074666666667 L 153.1265060241 379.392 L 157.26506024096 379.502933333333 L 161.40361445783 379.697066666667 L 165.5421686747 379.808 L 169.68072289157 379.704 L 173.81927710843 378.4768 L 177.9578313253 379.29632 L 182.09638554217 376.786453333333 L 186.23493975904 378.159253333333 L 190.3734939759 381.25984 L 194.51204819277 383.97632 L 198.65060240964 386.64704 L 202.78915662651 388.856 L 206.92771084337 389.622826666667 L 211.06626506024 392.1216 L 215.20481927711 390.879146666667 L 219.34337349398 385.451733333333 L 223.48192771084 382.627093333333 L 227.62048192771 384.311893333333 L 231.75903614458 382.43296 L 235.89759036145 386.469546666667 L 240.03614457831 387.8992 L 244.17469879518 384.029013333333 L 248.31325301205 386.09376 L 252.45180722892 387.60384 L 256.59036144578 387.92832 L 260.72891566265 387.63712 L 264.86746987952 387.559466666667 L 269.00602409639 389.306666666667 L 273.14457831325 390.115093333333 L 277.28313253012 391.055253333333 L 281.42168674699 391.005333333333 L 285.56024096386 395.496746666667 L 289.69879518072 397.451946666667 L 293.83734939759 399.092373333333 L 297.97590361446 399.44736 L 302.11445783133 398.279786666667 L 306.25301204819 396.711466666667 L 310.39156626506 396.066666666667 L 314.53012048193 395.951573333333 L 318.6686746988 399.99232 L 322.80722891566 394.714666666667 L 326.94578313253 391.329813333333 L 331.0843373494 390.74464 L 335.22289156627 388.903146666667 L 339.36144578313 387.228053333333 L 343.5 392.57088 L 347.63855421687 394.08928 L 351.77710843373 393.56096 L 355.9156626506 394.790933333333 L 360.05421686747 395.42186666666703 L 364.19277108434 395.247146666667 L 368.3313253012 393.187946666667 L 372.46987951807 391.89696 L 376.60843373494 390.747413333333 L 380.74698795181 387.84512 L 384.88554216867 388.786666666667 L 389.02409638554 391.109333333333 L 393.16265060241 391.941333333333 L 397.30120481928 390.754346666667 L 401.43975903614 387.922773333333 L 405.57831325301 384.661333333333 L 409.71686746988 385.6736 L 413.85542168675 385.33664 L 417.99397590361 380.172693333333 L 422.13253012048 378.103786666667 L 426.27108433735 382.25824 L 430.40963855422 381.761813333333 L 434.54819277108 385.518293333333 L 438.68674698795 388.471893333333 L 442.82530120482 391.29792 L 446.96385542169 396.291306666667 L 451.10240963855 396.047253333333 L 455.24096385542 400.4624 L 459.37951807229 401.971093333333 L 463.51807228916 400.74944 L 467.65662650602 398.254826666667 L 471.79518072289 393.26976 L 475.93373493976 393.628906666667 L 480.07228915663 393.355733333333 L 484.21084337349 399.28928 L 488.34939759036 402.473066666667 L 492.48795180723 403.69472 L 496.6265060241 406.4292266666667 L 500.76506024096 407.3735466666667 L 504.90361445783 409.9194666666667 L 509.0421686747 407.4539733333333 L 513.18072289157 407.6481066666667 L 517.31927710843 400.415253333333 L 521.4578313253 397.576746666667 L 525.59638554217 396.50208 L 529.73493975904 395.00864 L 533.8734939759 389.482773333333 L 538.01204819277 388.517653333333 L 542.15060240964 394.237653333333 L 546.28915662651 389.661653333333 L 550.42771084337 383.711466666667 L 554.56626506024 381.162773333333 L 558.70481927711 367.990826666667 L 562.84337349398 359.485013333333 L 566.98192771084 346.197973333333 L 571.12048192771 280.42005333333 L 575.25903614458 326.055253333333 L 579.39759036145 287.71530666667 L 583.53614457831 318.457706666667 L 587.67469879518 298.58816 L 591.81325301205 279.2816 L 595.95180722892 241.41034666667 L 600.09036144578 278.096 L 604.22891566265 285.64778666666996 L 608.36746987952 215.60725333333 L 612.50602409639 151.26453333333 L 616.64457831325 83.32896 L 620.78313253012 154.19733333333 L 624.92168674699 244.95189333333 L 629.06024096386 212.99616 L 633.19879518072 310.17653333333 L 637.33734939759 336.471893333333 L 641.47590361446 351.2912 L 645.61445783133 349.65770666666697 L 649.75301204819 362.56064 L 653.89156626506 378.765226666667 L 658.03012048193 364.550506666667 L 662.1686746988 376.665813333333 L 666.30722891566 367.42645333333303 L 666.30722891566 416 L 662.1686746988 416 L 658.03012048193 416 L 653.89156626506 416 L 649.75301204819 416 L 645.61445783133 416 L 641.47590361446 416 L 637.33734939759 416 L 633.19879518072 416 L 629.06024096386 416 L 624.92168674699 416 L 620.78313253012 416 L 616.64457831325 416 L 612.50602409639 416 L 608.36746987952 416 L 604.22891566265 416 L 600.09036144578 416 L 595.95180722892 416 L 591.81325301205 416 L 587.67469879518 416 L 583.53614457831 416 L 579.39759036145 416 L 575.25903614458 416 L 571.12048192771 416 L 566.98192771084 416 L 562.84337349398 416 L 558.70481927711 416 L 554.56626506024 416 L 550.42771084337 416 L 546.28915662651 416 L 542.15060240964 416 L 538.01204819277 416 L 533.8734939759 416 L 529.73493975904 416 L 525.59638554217 416 L 521.4578313253 416 L 517.31927710843 416 L 513.18072289157 416 L 509.0421686747 416 L 504.90361445783 416 L 500.76506024096 416 L 496.6265060241 416 L 492.48795180723 416 L 488.34939759036 416 L 484.21084337349 416 L 480.07228915663 416 L 475.93373493976 416 L 471.79518072289 416 L 467.65662650602 416 L 463.51807228916 416 L 459.37951807229 416 L 455.24096385542 416 L 451.10240963855 416 L 446.96385542169 416 L 442.82530120482 416 L 438.68674698795 416 L 434.54819277108 416 L 430.40963855422 416 L 426.27108433735 416 L 422.13253012048 416 L 417.99397590361 416 L 413.85542168675 416 L 409.71686746988 416 L 405.57831325301 416 L 401.43975903614 416 L 397.30120481928 416 L 393.16265060241 416 L 389.02409638554 416 L 384.88554216867 416 L 380.74698795181 416 L 376.60843373494 416 L 372.46987951807 416 L 368.3313253012 416 L 364.19277108434 416 L 360.05421686747 416 L 355.9156626506 416 L 351.77710843373 416 L 347.63855421687 416 L 343.5 416 L 339.36144578313 416 L 335.22289156627 416 L 331.0843373494 416 L 326.94578313253 416 L 322.80722891566 416 L 318.6686746988 416 L 314.53012048193 416 L 310.39156626506 416 L 306.25301204819 416 L 302.11445783133 416 L 297.97590361446 416 L 293.83734939759 416 L 289.69879518072 416 L 285.56024096386 416 L 281.42168674699 416 L 277.28313253012 416 L 273.14457831325 416 L 269.00602409639 416 L 264.86746987952 416 L 260.72891566265 416 L 256.59036144578 416 L 252.45180722892 416 L 248.31325301205 416 L 244.17469879518 416 L 240.03614457831 416 L 235.89759036145 416 L 231.75903614458 416 L 227.62048192771 416 L 223.48192771084 416 L 219.34337349398 416 L 215.20481927711 416 L 211.06626506024 416 L 206.92771084337 416 L 202.78915662651 416 L 198.65060240964 416 L 194.51204819277 416 L 190.3734939759 416 L 186.23493975904 416 L 182.09638554217 416 L 177.9578313253 416 L 173.81927710843 416 L 169.68072289157 416 L 165.5421686747 416 L 161.40361445783 416 L 157.26506024096 416 L 153.1265060241 416 L 148.98795180723 416 L 144.84939759036 416 L 140.71084337349 416 L 136.57228915663 416 L 132.43373493976 416 L 128.29518072289 416 L 124.15662650602 416 L 120.01807228916 416 L 115.87951807229 416 L 111.74096385542 416 L 107.60240963855 416 L 103.46385542169 416 L 99.325301204819 416 L 95.186746987952 416 L 91.048192771084 416 L 86.909638554217 416 L 82.771084337349 416 L 78.632530120482 416 L 74.493975903614 416 L 70.355421686747 416 L 66.216867469879 416 L 62.078313253012 416 L 57.939759036145 416 L 53.801204819277 416 L 49.66265060241 416 L 45.524096385542 416 L 41.385542168675 416 L 37.246987951807 416 L 33.10843373494 416 L 28.969879518072 416 L 24.831325301205 416 L 20.692771084337 416 L 16.55421686747 416 L 12.415662650603 416 L 8.2771084337348 416 L 4.1385542168674 416 L 0 416 Z" class="highcharts-area" data-z-index="0"></path><path fill="none" d="M 0 399.720533333333 L 4.1385542168674 396.448 L 8.2771084337348 393.355733333333 L 12.415662650603 387.8368 L 16.55421686747 390.2912 L 20.692771084337 390.485333333333 L 24.831325301205 389.2928 L 28.969879518072 389.847466666667 L 33.10843373494 385.645866666667 L 37.246987951807 382.650666666667 L 41.385542168675 386.69973333333303 L 45.524096385542 385.3408 L 49.66265060241 381.472 L 53.801204819277 383.968 L 57.939759036145 383.1776 L 62.078313253012 385.063466666667 L 66.216867469879 385.10506666666697 L 70.355421686747 378.546133333333 L 74.493975903614 378.962133333333 L 78.632530120482 381.943466666667 L 82.771084337349 383.025066666667 L 86.909638554217 385.424 L 91.048192771084 382.830933333333 L 95.186746987952 382.304 L 99.325301204819 381.5552 L 103.46385542169 381.33333333333303 L 107.60240963855 383.413333333333 L 111.74096385542 382.858666666667 L 115.87951807229 382.512 L 120.01807228916 380.44586666666703 L 124.15662650602 380.612266666667 L 128.29518072289 378.144 L 132.43373493976 377.728 L 136.57228915663 379.419733333333 L 140.71084337349 380.293333333333 L 144.84939759036 380.016 L 148.98795180723 378.074666666667 L 153.1265060241 379.392 L 157.26506024096 379.502933333333 L 161.40361445783 379.697066666667 L 165.5421686747 379.808 L 169.68072289157 379.704 L 173.81927710843 378.4768 L 177.9578313253 379.29632 L 182.09638554217 376.786453333333 L 186.23493975904 378.159253333333 L 190.3734939759 381.25984 L 194.51204819277 383.97632 L 198.65060240964 386.64704 L 202.78915662651 388.856 L 206.92771084337 389.622826666667 L 211.06626506024 392.1216 L 215.20481927711 390.879146666667 L 219.34337349398 385.451733333333 L 223.48192771084 382.627093333333 L 227.62048192771 384.311893333333 L 231.75903614458 382.43296 L 235.89759036145 386.469546666667 L 240.03614457831 387.8992 L 244.17469879518 384.029013333333 L 248.31325301205 386.09376 L 252.45180722892 387.60384 L 256.59036144578 387.92832 L 260.72891566265 387.63712 L 264.86746987952 387.559466666667 L 269.00602409639 389.306666666667 L 273.14457831325 390.115093333333 L 277.28313253012 391.055253333333 L 281.42168674699 391.005333333333 L 285.56024096386 395.496746666667 L 289.69879518072 397.451946666667 L 293.83734939759 399.092373333333 L 297.97590361446 399.44736 L 302.11445783133 398.279786666667 L 306.25301204819 396.711466666667 L 310.39156626506 396.066666666667 L 314.53012048193 395.951573333333 L 318.6686746988 399.99232 L 322.80722891566 394.714666666667 L 326.94578313253 391.329813333333 L 331.0843373494 390.74464 L 335.22289156627 388.903146666667 L 339.36144578313 387.228053333333 L 343.5 392.57088 L 347.63855421687 394.08928 L 351.77710843373 393.56096 L 355.9156626506 394.790933333333 L 360.05421686747 395.42186666666703 L 364.19277108434 395.247146666667 L 368.3313253012 393.187946666667 L 372.46987951807 391.89696 L 376.60843373494 390.747413333333 L 380.74698795181 387.84512 L 384.88554216867 388.786666666667 L 389.02409638554 391.109333333333 L 393.16265060241 391.941333333333 L 397.30120481928 390.754346666667 L 401.43975903614 387.922773333333 L 405.57831325301 384.661333333333 L 409.71686746988 385.6736 L 413.85542168675 385.33664 L 417.99397590361 380.172693333333 L 422.13253012048 378.103786666667 L 426.27108433735 382.25824 L 430.40963855422 381.761813333333 L 434.54819277108 385.518293333333 L 438.68674698795 388.471893333333 L 442.82530120482 391.29792 L 446.96385542169 396.291306666667 L 451.10240963855 396.047253333333 L 455.24096385542 400.4624 L 459.37951807229 401.971093333333 L 463.51807228916 400.74944 L 467.65662650602 398.254826666667 L 471.79518072289 393.26976 L 475.93373493976 393.628906666667 L 480.07228915663 393.355733333333 L 484.21084337349 399.28928 L 488.34939759036 402.473066666667 L 492.48795180723 403.69472 L 496.6265060241 406.4292266666667 L 500.76506024096 407.3735466666667 L 504.90361445783 409.9194666666667 L 509.0421686747 407.4539733333333 L 513.18072289157 407.6481066666667 L 517.31927710843 400.415253333333 L 521.4578313253 397.576746666667 L 525.59638554217 396.50208 L 529.73493975904 395.00864 L 533.8734939759 389.482773333333 L 538.01204819277 388.517653333333 L 542.15060240964 394.237653333333 L 546.28915662651 389.661653333333 L 550.42771084337 383.711466666667 L 554.56626506024 381.162773333333 L 558.70481927711 367.990826666667 L 562.84337349398 359.485013333333 L 566.98192771084 346.197973333333 L 571.12048192771 280.42005333333 L 575.25903614458 326.055253333333 L 579.39759036145 287.71530666667 L 583.53614457831 318.457706666667 L 587.67469879518 298.58816 L 591.81325301205 279.2816 L 595.95180722892 241.41034666667 L 600.09036144578 278.096 L 604.22891566265 285.64778666666996 L 608.36746987952 215.60725333333 L 612.50602409639 151.26453333333 L 616.64457831325 83.32896 L 620.78313253012 154.19733333333 L 624.92168674699 244.95189333333 L 629.06024096386 212.99616 L 633.19879518072 310.17653333333 L 637.33734939759 336.471893333333 L 641.47590361446 351.2912 L 645.61445783133 349.65770666666697 L 649.75301204819 362.56064 L 653.89156626506 378.765226666667 L 658.03012048193 364.550506666667 L 662.1686746988 376.665813333333 L 666.30722891566 367.42645333333303" class="highcharts-graph" data-z-index="1" stroke="#2962FF" stroke-width="2" stroke-linejoin="round" stroke-linecap="round"></path></g><g class="highcharts-markers highcharts-series-0 highcharts-area-series" data-z-index="90" opacity="1" transform="translate(0,40) scale(1 1)" clip-path="none"></g></g><text x="740" text-anchor="end" class="highcharts-title" data-z-index="4" style="color: rgb(211, 211, 211); font-size: 15px; fill: rgb(211, 211, 211);" y="512"></text><text x="14" text-anchor="start" class="highcharts-subtitle" data-z-index="4" style="color: rgb(51, 51, 51); fill: rgb(51, 51, 51); font-size: 15px;" y="25"><tspan style="color: rgb(211, 211, 211); fill: rgb(211, 211, 211);">Natural Gas EU Dutch TTF</tspan></text><text x="0" text-anchor="start" class="highcharts-caption" data-z-index="4" style="color: rgb(102, 102, 102); fill: rgb(102, 102, 102);" y="527"></text><g class="highcharts-axis-labels highcharts-xaxis-labels" data-z-index="7"><text x="90.671960569551" text-anchor="middle" transform="translate(0,0)" style="color: rgb(227, 225, 225); cursor: default; font-size: 15px; font-weight: 400; fill: rgb(227, 225, 225);" y="476" opacity="1">2012</text><text x="190.23999222697" text-anchor="middle" transform="translate(0,0)" style="color: rgb(227, 225, 225); cursor: default; font-size: 15px; font-weight: 400; fill: rgb(227, 225, 225);" y="476" opacity="1">2014</text><text x="289.33362863218" text-anchor="middle" transform="translate(0,0)" style="color: rgb(227, 225, 225); cursor: default; font-size: 15px; font-weight: 400; fill: rgb(227, 225, 225);" y="476" opacity="1">2016</text><text x="388.89476656627" text-anchor="middle" transform="translate(0,0)" style="color: rgb(227, 225, 225); cursor: default; font-size: 15px; font-weight: 400; fill: rgb(227, 225, 225);" y="476" opacity="1">2018</text><text x="488.21589584143" text-anchor="middle" transform="translate(0,0)" style="color: rgb(227, 225, 225); cursor: default; font-size: 15px; font-weight: 400; fill: rgb(227, 225, 225);" y="476" opacity="1">2020</text><text x="587.42387732749" text-anchor="middle" transform="translate(0,0)" style="color: rgb(227, 225, 225); cursor: default; font-size: 15px; font-weight: 400; fill: rgb(227, 225, 225);" y="476" opacity="1">2022</text></g><g class="highcharts-axis-labels highcharts-yaxis-labels" data-z-index="7"><text x="0" text-anchor="start" transform="translate(0,0)" style="color: rgb(227, 225, 225); cursor: default; font-size: 15px; fill: rgb(227, 225, 225);" visibility="hidden"><tspan>0</tspan></text><text x="695" text-anchor="start" transform="translate(0,0)" style="color: rgb(227, 225, 225); cursor: default; font-size: 15px; fill: rgb(227, 225, 225);" y="391" opacity="1">50</text><text x="695" text-anchor="start" transform="translate(0,0)" style="color: rgb(227, 225, 225); cursor: default; font-size: 15px; fill: rgb(227, 225, 225);" y="322" opacity="1">100</text><text x="695" text-anchor="start" transform="translate(0,0)" style="color: rgb(227, 225, 225); cursor: default; font-size: 15px; fill: rgb(227, 225, 225);" y="253" opacity="1">150</text><text x="695" text-anchor="start" transform="translate(0,0)" style="color: rgb(227, 225, 225); cursor: default; font-size: 15px; fill: rgb(227, 225, 225);" y="183" opacity="1">200</text><text x="695" text-anchor="start" transform="translate(0,0)" style="color: rgb(227, 225, 225); cursor: default; font-size: 15px; fill: rgb(227, 225, 225);" y="114" opacity="1">250</text><text x="0" text-anchor="start" transform="translate(0,0)" style="color: rgb(227, 225, 225); cursor: default; font-size: 15px; fill: rgb(227, 225, 225);" visibility="hidden">300</text></g><g class="highcharts-axis-labels highcharts-yaxis-labels" data-z-index="7"></g><g class="highcharts-axis-labels highcharts-yaxis-labels" data-z-index="7"></g><g class="highcharts-control-points" data-z-index="99" clip-path="url(#highcharts-m5utbmz-2244-)"></g><g class="highcharts-axis highcharts-yaxis" data-z-index="9999"><path fill="none" class="highcharts-tick" stroke="#333333" stroke-width="1" d="M 688 456.5 L 693 456.5" opacity="1"></path><path fill="none" class="highcharts-tick" stroke="#333333" stroke-width="1" d="M 688 387.5 L 693 387.5" opacity="1"></path><path fill="none" class="highcharts-tick" stroke="#333333" stroke-width="1" d="M 688 317.5 L 693 317.5" opacity="1"></path><path fill="none" class="highcharts-tick" stroke="#333333" stroke-width="1" d="M 688 248.5 L 693 248.5" opacity="1"></path><path fill="none" class="highcharts-tick" stroke="#333333" stroke-width="1" d="M 688 179.5 L 693 179.5" opacity="1"></path><path fill="none" class="highcharts-tick" stroke="#333333" stroke-width="1" d="M 688 109.5 L 693 109.5" opacity="1"></path><path fill="none" class="highcharts-tick" stroke="#333333" stroke-width="1" d="M 688 39.5 L 693 39.5" opacity="1"></path><path fill="none" class="highcharts-axis-line" stroke="#616161" stroke-width="1" data-z-index="7" d="M 688.5 40 L 688.5 456"></path></g><path fill="none" d="M 0 0 L 1792 0" stroke="#757575" stroke-width="1" stroke-dasharray="8,3" data-z-index="6" visibility="hidden" class="crosshair-fix-horizontal"></path><path fill="none" d="M 0 40 L 0 1160" stroke="#757575" stroke-width="1" stroke-dasharray="8,3" data-z-index="6" visibility="hidden" class="crosshair-fix-vertical"></path></svg>