<?xml version="1.0" standalone="no"?><!DOCTYPE svg PUBLIC "-//W3C//DTD SVG 1.1//EN" "http://www.w3.org/Graphics/SVG/1.1/DTD/svg11.dtd"><svg xmlns:xlink="http://www.w3.org/1999/xlink" version="1.1" class="highcharts-root" style="font-family: &quot;Helvetica Neue&quot;, Helvetica, Arial, sans-serif; font-size: 12px;" xmlns="http://www.w3.org/2000/svg" width="750" height="500" viewBox="0 0 750 500"><desc>Created with Highcharts 10.1.0</desc><defs><linearGradient x1="0" y1="0" x2="500" y2="500" gradientUnits="userSpaceOnUse" id="highcharts-dst5hth-2382"><stop offset="0" stop-color="rgb(35, 35, 35)" stop-opacity="1"></stop></linearGradient><clipPath id="highcharts-dst5hth-2383-"><rect x="0" y="0" width="687" height="416" fill="none"></rect></clipPath><clipPath id="highcharts-dst5hth-2785-"><rect x="0" y="0" width="687" height="416" fill="none"></rect></clipPath><linearGradient x1="0" y1="0" x2="0" y2="1" id="highcharts-dst5hth-2786"><stop offset="0" stop-color="#2962FF" stop-opacity="1"></stop><stop offset="1" stop-color="rgb(41,98,255)" stop-opacity="0"></stop></linearGradient><linearGradient x1="0" y1="0" x2="0" y2="1" id="highcharts-dst5hth-3193"><stop offset="0" stop-color="#459a63" stop-opacity="1"></stop><stop offset="1" stop-color="rgb(69,154,99)" stop-opacity="0"></stop></linearGradient><clipPath id="highcharts-dst5hth-3194-"><rect x="0" y="40" width="687" height="416" fill="none"></rect></clipPath></defs><rect fill="url(#highcharts-dst5hth-2382)" class="highcharts-background" x="0" y="0" width="750" height="520" rx="0" ry="0"></rect><rect fill="none" class="highcharts-plot-background" x="0" y="40" width="687" height="416"></rect><g class="highcharts-grid highcharts-xaxis-grid" data-z-index="1"><path fill="none" stroke="#333333" stroke-width="1" stroke-dasharray="none" data-z-index="1" class="highcharts-grid-line" d="M 96.5 40 L 96.5 456" opacity="1"></path><path fill="none" stroke="#333333" stroke-width="1" stroke-dasharray="none" data-z-index="1" class="highcharts-grid-line" d="M 197.5 40 L 197.5 456" opacity="1"></path><path fill="none" stroke="#333333" stroke-width="1" stroke-dasharray="none" data-z-index="1" class="highcharts-grid-line" d="M 299.5 40 L 299.5 456" opacity="1"></path><path fill="none" stroke="#333333" stroke-width="1" stroke-dasharray="none" data-z-index="1" class="highcharts-grid-line" d="M 401.5 40 L 401.5 456" opacity="1"></path><path fill="none" stroke="#333333" stroke-width="1" stroke-dasharray="none" data-z-index="1" class="highcharts-grid-line" d="M 503.5 40 L 503.5 456" opacity="1"></path><path fill="none" stroke="#333333" stroke-width="1" stroke-dasharray="none" data-z-index="1" class="highcharts-grid-line" d="M 605.5 40 L 605.5 456" opacity="1"></path></g><g class="highcharts-grid highcharts-yaxis-grid" data-z-index="1"><path fill="none" stroke="#333333" stroke-width="1" stroke-dasharray="none" data-z-index="1" class="highcharts-grid-line" d="M 0 456.5 L 687 456.5" opacity="1"></path><path fill="none" stroke="#333333" stroke-width="1" stroke-dasharray="none" data-z-index="1" class="highcharts-grid-line" d="M 0 404.5 L 687 404.5" opacity="1"></path><path fill="none" stroke="#333333" stroke-width="1" stroke-dasharray="none" data-z-index="1" class="highcharts-grid-line" d="M 0 352.5 L 687 352.5" opacity="1"></path><path fill="none" stroke="#333333" stroke-width="1" stroke-dasharray="none" data-z-index="1" class="highcharts-grid-line" d="M 0 300.5 L 687 300.5" opacity="1"></path><path fill="none" stroke="#333333" stroke-width="1" stroke-dasharray="none" data-z-index="1" class="highcharts-grid-line" d="M 0 248.5 L 687 248.5" opacity="1"></path><path fill="none" stroke="#333333" stroke-width="1" stroke-dasharray="none" data-z-index="1" class="highcharts-grid-line" d="M 0 196.5 L 687 196.5" opacity="1"></path><path fill="none" stroke="#333333" stroke-width="1" stroke-dasharray="none" data-z-index="1" class="highcharts-grid-line" d="M 0 144.5 L 687 144.5" opacity="1"></path><path fill="none" stroke="#333333" stroke-width="1" stroke-dasharray="none" data-z-index="1" class="highcharts-grid-line" d="M 0 92.5 L 687 92.5" opacity="1"></path><path fill="none" stroke="#333333" stroke-width="1" stroke-dasharray="none" data-z-index="1" class="highcharts-grid-line" d="M 0 39.5 L 687 39.5" opacity="1"></path></g><g class="highcharts-grid highcharts-yaxis-grid" data-z-index="1"></g><g class="highcharts-grid highcharts-yaxis-grid" data-z-index="1"></g><rect fill="none" class="highcharts-plot-border" data-z-index="1" x="0" y="40" width="687" height="416"></rect><g class="highcharts-axis highcharts-xaxis" data-z-index="2"><path fill="none" class="highcharts-axis-line" stroke="#616161" stroke-width="1" data-z-index="7" d="M 0 456.5 L 687 456.5"></path></g><g class="highcharts-axis highcharts-yaxis" data-z-index="2"><path fill="none" class="highcharts-axis-line" data-z-index="7" d="M 712 40 L 712 456"></path></g><g class="highcharts-axis highcharts-yaxis" data-z-index="2"><path fill="none" class="highcharts-axis-line" stroke="#616161" stroke-width="1" data-z-index="7" d="M -1.5 40 L -1.5 456"></path></g><g class="highcharts-series-group" data-z-index="3"><g class="highcharts-series highcharts-series-0 highcharts-area-series" data-z-index="90" opacity="1" transform="translate(0,40) scale(1 1)" clip-path="url(#highcharts-dst5hth-2785-)"><path fill="url(#highcharts-dst5hth-2786)" d="M 0 375.31 L 1.6962962962963 374.65999999999997 L 3.3925925925926 376.506 L 5.0888888888889 379.314 L 6.7851851851852 377 L 8.4814814814815 365.69 L 10.177777777778 354.64 L 11.874074074074 352.43 L 13.57037037037 365.3 L 15.266666666667 380.12 L 16.962962962963 380.302 L 18.659259259259 381.15999999999997 L 20.355555555556 380.25 L 22.051851851852 381.342 L 23.748148148148 384.592 L 25.444444444444 383.24 L 27.140740740741 375.336 L 28.837037037037 366.08 L 30.533333333333 362.804 L 32.22962962963 361.65999999999997 L 33.925925925926 381.082 L 35.622222222222 385.32 L 37.318518518518 385.554 L 39.014814814815 380.718 L 40.711111111111 379.028 L 42.407407407407 373.75 L 44.103703703704 376.532 L 45.8 366.808 L 47.496296296296 361.088 L 49.192592592593 350.61 L 50.888888888889 356.33 L 52.585185185185 361.738 L 54.281481481482 372.138 L 55.977777777778 374.478 L 57.674074074074 367.744 L 59.37037037037 362.206 L 61.066666666667 354.51 L 62.762962962963 354.9 L 64.459259259259 359.294 L 66.155555555556 358.28 L 67.851851851852 354.25 L 69.548148148148 356.43399999999997 L 71.244444444444 354.432 L 72.940740740741 357.682 L 74.637037037037 362.44 L 76.333333333333 349.596 L 78.02962962963 358.592 L 79.725925925926 362.05 L 81.422222222222 362.258 L 83.118518518518 366.158 L 84.814814814815 359.216 L 86.511111111111 366.782 L 88.207407407407 374.764 L 89.903703703704 372.918 L 91.6 365.3 L 93.296296296296 371.93 L 94.992592592593 372.164 L 96.688888888889 380.796 L 98.385185185185 378.82 L 100.08148148148 372.19 L 101.77777777778 372.788 L 103.47407407407 371.332 L 105.17037037037 376.22 L 106.86666666667 374.036 L 108.56296296296 370.552 L 110.25925925926 370.5 L 111.95555555556 367.484 L 113.65185185185 363.532 L 115.34814814815 347.906 L 117.04444444444 346.892 L 118.74074074074 357.864 L 120.43703703704 355.264 L 122.13333333333 358.176 L 123.82962962963 353.444 L 125.52592592593 340.31399999999996 L 127.22222222222 359.762 L 128.91851851852 367.666 L 130.61481481481 358.436 L 132.31111111111 345.072 L 134.00740740741 315.64 L 135.7037037037 344.318 L 137.4 353.99 L 139.0962962963 368.654 L 140.79259259259 365.924 L 142.48888888889 359.216 L 144.18518518519 357.786 L 145.88148148148 360.386 L 147.57777777778 359.398 L 149.27407407407 345.43600000000004 L 150.97037037037 335.868 L 152.66666666667 323.648 L 154.36296296296 351 L 156.05925925926 357.136 L 157.75555555556 357.318 L 159.45185185185 355.654 L 161.14814814815 350.428 L 162.84444444444 358.254 L 164.54074074074 359.58 L 166.23703703704 351.806 L 167.93333333333 368.056 L 169.62962962963 370.448 L 171.32592592593 352.742 L 173.02222222222 356.85 L 174.71851851852 364.624 L 176.41481481481 365.43 L 178.11111111111 369.798 L 179.80740740741 373.672 L 181.5037037037 363.662 L 183.2 357.422 L 184.8962962963 356.46 L 186.59259259259 353.756 L 188.28888888889 349.882 L 189.98518518519 342.55 L 191.68148148148 344.656 L 193.37777777778 339.014 L 195.07407407407 356.096 L 196.77037037037 356.2 L 198.46666666667 346.788 L 200.16296296296 344.214 L 201.85925925926 339.43 L 203.55555555556 334.334 L 205.25185185185 302.744 L 206.94814814815 299.624 L 208.64444444444 317.876 L 210.34074074074 291.668 L 212.03703703704 281.164 L 213.73333333333 299.26 L 215.42962962963 244.686 L 217.12592592593 161.85 L 218.82222222222 267.618 L 220.51851851852 279.86400000000003 L 222.21481481481 285.35 L 223.91111111111 293.93 L 225.60740740741 314.236 L 227.3037037037 335.504 L 229 330.304 L 230.6962962963 354.12 L 232.39259259259 357.656 L 234.08888888889 330.43399999999997 L 235.78518518519 345.774 L 237.48148148148 349.18 L 239.17777777778 360.412 L 240.87407407407 354.718 L 242.57037037037 333.32 L 244.26666666667 317.33 L 245.96296296296 332.358 L 247.65925925926 331.63 L 249.35555555556 339.196 L 251.05185185185 330.304 L 252.74814814815 308.41200000000003 L 254.44444444444 307.944 L 256.14074074074 307.06 L 257.83703703704 291.486 L 259.53333333333 270.27 L 261.22962962963 205.374 L 262.92592592593 284.44 L 264.62222222222 275.99 L 266.31851851852 253.474 L 268.01481481481 275.31399999999996 L 269.71111111111 293.332 L 271.40740740741 292.994 L 273.1037037037 290.42 L 274.8 288.782 L 276.4962962963 289.64 L 278.19259259259 255.32 L 279.88888888889 275.678 L 281.58518518519 275.18399999999997 L 283.28148148148 261.74199999999996 L 284.97777777778 263.58799999999997 L 286.67407407407 248.3 L 288.37037037037 255.97 L 290.06666666667 257.08799999999997 L 291.76296296296 284.076 L 293.45925925926 239.33 L 295.15555555556 189.15 L 296.85185185185 217.88 L 298.54814814815 259.48 L 300.24444444444 251.654 L 301.94074074074 241.02 L 303.63703703704 217.022 L 305.33333333333 244.79 L 307.02962962963 250.146 L 308.72592592593 234.494 L 310.42222222222 210.99 L 312.11851851852 117.72800000000001 L 313.81481481481 54.053999999999974 L 315.51111111111 98.67000000000002 L 317.20740740741 88.738 L 318.9037037037 124.14999999999998 L 320.6 173.784 L 322.2962962963 241.436 L 323.99259259259 228.54 L 325.68888888889 245.57 L 327.38518518519 250.016 L 329.08148148148 257.296 L 330.77777777778 202.514 L 332.47407407407 258.752 L 334.17037037037 269.88 L 335.86666666667 220.116 L 337.56296296296 186.056 L 339.25925925926 252.226 L 340.95555555556 216.658 L 342.65185185185 226.2 L 344.34814814815 215.02 L 346.04444444444 211.562 L 347.74074074074 209.69 L 349.43703703704 239.902 L 351.13333333333 255.034 L 352.82962962963 273.832 L 354.52592592593 237.38 L 356.22222222222 199.42 L 357.91851851852 226.148 L 359.61481481481 221.442 L 361.31111111111 206.076 L 363.00740740741 172.484 L 364.7037037037 153.37400000000002 L 366.4 134.082 L 368.0962962963 111.72199999999998 L 369.79259259259 68.822 L 371.48888888889 178.906 L 373.18518518519 209.482 L 374.88148148148 222.612 L 376.57777777778 239.642 L 378.27407407407 246.74 L 379.97037037037 269.828 L 381.66666666667 301.158 L 383.36296296296 306.852 L 385.05925925926 317.824 L 386.75555555556 328.302 L 388.45185185185 316.29 L 390.14814814815 316.29 L 391.84444444444 321.022 L 393.54074074074 338.598 L 395.23703703704 290.134 L 396.93333333333 284.83000000000004 L 398.62962962963 289.952 L 400.32592592593 271.128 L 402.02222222222 282.594 L 403.71851851852 290.86199999999997 L 405.41481481481 315.406 L 407.11111111111 314.08 L 408.80740740741 303.94 L 410.5037037037 295.984 L 412.2 288.002 L 413.8962962963 316.784 L 415.59259259259 315.328 L 417.28888888889 311.012 L 418.98518518519 307.32 L 420.68148148148 301.47 L 422.37777777778 301.08 L 424.07407407407 311.038 L 425.77037037037 301.88599999999997 L 427.46666666667 293.852 L 429.16296296296 294.68399999999997 L 430.85925925926 302.276 L 432.55555555556 308.23 L 434.25185185185 310.596 L 435.94814814815 320.68399999999997 L 437.64444444444 313.716 L 439.34074074074 323.7 L 441.03703703704 338.286 L 442.73333333333 350.922 L 444.42962962963 347.984 L 446.12592592593 360.724 L 447.82222222222 356.59000000000003 L 449.51851851852 353.028 L 451.21481481481 342.576 L 452.91111111111 332.56600000000003 L 454.60740740741 343.226 L 456.3037037037 329.68 L 458 320.008 L 459.6962962963 323.414 L 461.39259259259 328.874 L 463.08888888889 329.18600000000004 L 464.78518518519 325.36400000000003 L 466.48148148148 311.22 L 468.17777777778 303.082 L 469.87407407407 312.416 L 471.57037037037 323.31 L 473.26666666667 326.404 L 474.96296296296 322.894 L 476.65925925926 323.44 L 478.35555555556 322.894 L 480.05185185185 313.196 L 481.74814814815 306.02 L 483.44444444444 287.48199999999997 L 485.14074074074 296.166 L 486.83703703704 302.354 L 488.53333333333 290.81 L 490.22962962963 297.908 L 491.92592592593 300.014 L 493.62222222222 316.134 L 495.31851851852 310.31 L 497.01481481481 308.854 L 498.71111111111 315.302 L 500.40740740741 309.712 L 502.1037037037 340.88599999999997 L 503.8 346.034 L 505.4962962963 344.916 L 507.19259259259 347.36 L 508.88888888889 344.474 L 510.58518518519 347.308 L 512.28148148148 342.368 L 513.97777777778 345.384 L 515.67407407407 346.086 L 517.37037037037 350.376 L 519.06666666667 355.654 L 520.76296296296 357.89 L 522.45925925926 355.238 L 524.15555555556 356.252 L 525.85185185185 371.514 L 527.54814814815 365.06600000000003 L 529.24444444444 359.372 L 530.94074074074 356.512 L 532.63703703704 339.976 L 534.33333333333 341.224 L 536.02962962963 340.938 L 537.72592592593 340.444 L 539.42222222222 337.324 L 541.11851851852 328.848 L 542.81481481481 319.176 L 544.51111111111 334.95799999999997 L 546.20740740741 343.876 L 547.9037037037 333.06 L 549.6 330.824 L 551.2962962963 336.154 L 552.99259259259 337.09000000000003 L 554.68888888889 343.356 L 556.38518518519 336.96 L 558.08148148148 337.818 L 559.77777777778 340.704 L 561.47407407407 337.35 L 563.17037037037 339.222 L 564.86666666667 338.13 L 566.56296296296 346.658 L 568.25925925926 344.942 L 569.95555555556 344.16200000000003 L 571.65185185185 339.248 L 573.34814814815 339.976 L 575.04444444444 343.668 L 576.74074074074 340.18399999999997 L 578.43703703704 337.79200000000003 L 580.13333333333 331.214 L 581.82962962963 296.08799999999997 L 583.52592592593 339.56 L 585.22222222222 342.836 L 586.91851851852 342.88800000000003 L 588.61481481481 346.788 L 590.31111111111 349.05 L 592.00740740741 352.196 L 593.7037037037 355.992 L 595.4 357.942 L 597.0962962963 356.59000000000003 L 598.79259259259 355.42 L 600.48888888889 347.54200000000003 L 602.18518518518 355.8256 L 603.88148148148 360.0688 L 605.57777777778 368.121 L 607.27407407407 368.862 L 608.97037037037 373.152 L 610.66666666667 365.716 L 612.36296296296 368.186 L 614.05925925926 371.176 L 615.75555555556 368.836 L 617.45185185185 347.282 L 619.14814814815 349.544 L 620.84444444444 328.796 L 622.54074074074 341.068 L 624.23703703704 349.986 L 625.93333333333 349.336 L 627.62962962963 343.954 L 629.32592592593 348.192 L 631.02222222222 339.794 L 632.71851851852 336.622 L 634.41481481481 321.1 L 636.11111111111 314.236 L 637.80740740741 302.198 L 639.5037037037 263.45799999999997 L 641.2 274.924 L 642.8962962963 298.844 L 644.59259259259 319.02 L 646.28888888889 294.45 L 647.98518518519 301.548 L 649.68148148148 267.774 L 651.37777777778 227.656 L 653.07407407407 204.412 L 654.77037037037 275.808 L 656.46666666667 202.046 L 658.16296296296 177.086 L 659.85925925926 232.31 L 661.55555555556 244.218 L 663.25185185185 238.732 L 664.94814814815 309.296 L 666.64444444444 344.734 L 668.34074074074 341.562 L 670.03703703704 358.384 L 671.73333333333 353.34000000000003 L 673.42962962963 354.692 L 675.12592592593 343.876 L 676.82222222222 344.734 L 678.51851851852 344.0684 L 678.51851851852 416 L 676.82222222222 416 L 675.12592592593 416 L 673.42962962963 416 L 671.73333333333 416 L 670.03703703704 416 L 668.34074074074 416 L 666.64444444444 416 L 664.94814814815 416 L 663.25185185185 416 L 661.55555555556 416 L 659.85925925926 416 L 658.16296296296 416 L 656.46666666667 416 L 654.77037037037 416 L 653.07407407407 416 L 651.37777777778 416 L 649.68148148148 416 L 647.98518518519 416 L 646.28888888889 416 L 644.59259259259 416 L 642.8962962963 416 L 641.2 416 L 639.5037037037 416 L 637.80740740741 416 L 636.11111111111 416 L 634.41481481481 416 L 632.71851851852 416 L 631.02222222222 416 L 629.32592592593 416 L 627.62962962963 416 L 625.93333333333 416 L 624.23703703704 416 L 622.54074074074 416 L 620.84444444444 416 L 619.14814814815 416 L 617.45185185185 416 L 615.75555555556 416 L 614.05925925926 416 L 612.36296296296 416 L 610.66666666667 416 L 608.97037037037 416 L 607.27407407407 416 L 605.57777777778 416 L 603.88148148148 416 L 602.18518518518 416 L 600.48888888889 416 L 598.79259259259 416 L 597.0962962963 416 L 595.4 416 L 593.7037037037 416 L 592.00740740741 416 L 590.31111111111 416 L 588.61481481481 416 L 586.91851851852 416 L 585.22222222222 416 L 583.52592592593 416 L 581.82962962963 416 L 580.13333333333 416 L 578.43703703704 416 L 576.74074074074 416 L 575.04444444444 416 L 573.34814814815 416 L 571.65185185185 416 L 569.95555555556 416 L 568.25925925926 416 L 566.56296296296 416 L 564.86666666667 416 L 563.17037037037 416 L 561.47407407407 416 L 559.77777777778 416 L 558.08148148148 416 L 556.38518518519 416 L 554.68888888889 416 L 552.99259259259 416 L 551.2962962963 416 L 549.6 416 L 547.9037037037 416 L 546.20740740741 416 L 544.51111111111 416 L 542.81481481481 416 L 541.11851851852 416 L 539.42222222222 416 L 537.72592592593 416 L 536.02962962963 416 L 534.33333333333 416 L 532.63703703704 416 L 530.94074074074 416 L 529.24444444444 416 L 527.54814814815 416 L 525.85185185185 416 L 524.15555555556 416 L 522.45925925926 416 L 520.76296296296 416 L 519.06666666667 416 L 517.37037037037 416 L 515.67407407407 416 L 513.97777777778 416 L 512.28148148148 416 L 510.58518518519 416 L 508.88888888889 416 L 507.19259259259 416 L 505.4962962963 416 L 503.8 416 L 502.1037037037 416 L 500.40740740741 416 L 498.71111111111 416 L 497.01481481481 416 L 495.31851851852 416 L 493.62222222222 416 L 491.92592592593 416 L 490.22962962963 416 L 488.53333333333 416 L 486.83703703704 416 L 485.14074074074 416 L 483.44444444444 416 L 481.74814814815 416 L 480.05185185185 416 L 478.35555555556 416 L 476.65925925926 416 L 474.96296296296 416 L 473.26666666667 416 L 471.57037037037 416 L 469.87407407407 416 L 468.17777777778 416 L 466.48148148148 416 L 464.78518518519 416 L 463.08888888889 416 L 461.39259259259 416 L 459.6962962963 416 L 458 416 L 456.3037037037 416 L 454.60740740741 416 L 452.91111111111 416 L 451.21481481481 416 L 449.51851851852 416 L 447.82222222222 416 L 446.12592592593 416 L 444.42962962963 416 L 442.73333333333 416 L 441.03703703704 416 L 439.34074074074 416 L 437.64444444444 416 L 435.94814814815 416 L 434.25185185185 416 L 432.55555555556 416 L 430.85925925926 416 L 429.16296296296 416 L 427.46666666667 416 L 425.77037037037 416 L 424.07407407407 416 L 422.37777777778 416 L 420.68148148148 416 L 418.98518518519 416 L 417.28888888889 416 L 415.59259259259 416 L 413.8962962963 416 L 412.2 416 L 410.5037037037 416 L 408.80740740741 416 L 407.11111111111 416 L 405.41481481481 416 L 403.71851851852 416 L 402.02222222222 416 L 400.32592592593 416 L 398.62962962963 416 L 396.93333333333 416 L 395.23703703704 416 L 393.54074074074 416 L 391.84444444444 416 L 390.14814814815 416 L 388.45185185185 416 L 386.75555555556 416 L 385.05925925926 416 L 383.36296296296 416 L 381.66666666667 416 L 379.97037037037 416 L 378.27407407407 416 L 376.57777777778 416 L 374.88148148148 416 L 373.18518518519 416 L 371.48888888889 416 L 369.79259259259 416 L 368.0962962963 416 L 366.4 416 L 364.7037037037 416 L 363.00740740741 416 L 361.31111111111 416 L 359.61481481481 416 L 357.91851851852 416 L 356.22222222222 416 L 354.52592592593 416 L 352.82962962963 416 L 351.13333333333 416 L 349.43703703704 416 L 347.74074074074 416 L 346.04444444444 416 L 344.34814814815 416 L 342.65185185185 416 L 340.95555555556 416 L 339.25925925926 416 L 337.56296296296 416 L 335.86666666667 416 L 334.17037037037 416 L 332.47407407407 416 L 330.77777777778 416 L 329.08148148148 416 L 327.38518518519 416 L 325.68888888889 416 L 323.99259259259 416 L 322.2962962963 416 L 320.6 416 L 318.9037037037 416 L 317.20740740741 416 L 315.51111111111 416 L 313.81481481481 416 L 312.11851851852 416 L 310.42222222222 416 L 308.72592592593 416 L 307.02962962963 416 L 305.33333333333 416 L 303.63703703704 416 L 301.94074074074 416 L 300.24444444444 416 L 298.54814814815 416 L 296.85185185185 416 L 295.15555555556 416 L 293.45925925926 416 L 291.76296296296 416 L 290.06666666667 416 L 288.37037037037 416 L 286.67407407407 416 L 284.97777777778 416 L 283.28148148148 416 L 281.58518518519 416 L 279.88888888889 416 L 278.19259259259 416 L 276.4962962963 416 L 274.8 416 L 273.1037037037 416 L 271.40740740741 416 L 269.71111111111 416 L 268.01481481481 416 L 266.31851851852 416 L 264.62222222222 416 L 262.92592592593 416 L 261.22962962963 416 L 259.53333333333 416 L 257.83703703704 416 L 256.14074074074 416 L 254.44444444444 416 L 252.74814814815 416 L 251.05185185185 416 L 249.35555555556 416 L 247.65925925926 416 L 245.96296296296 416 L 244.26666666667 416 L 242.57037037037 416 L 240.87407407407 416 L 239.17777777778 416 L 237.48148148148 416 L 235.78518518519 416 L 234.08888888889 416 L 232.39259259259 416 L 230.6962962963 416 L 229 416 L 227.3037037037 416 L 225.60740740741 416 L 223.91111111111 416 L 222.21481481481 416 L 220.51851851852 416 L 218.82222222222 416 L 217.12592592593 416 L 215.42962962963 416 L 213.73333333333 416 L 212.03703703704 416 L 210.34074074074 416 L 208.64444444444 416 L 206.94814814815 416 L 205.25185185185 416 L 203.55555555556 416 L 201.85925925926 416 L 200.16296296296 416 L 198.46666666667 416 L 196.77037037037 416 L 195.07407407407 416 L 193.37777777778 416 L 191.68148148148 416 L 189.98518518519 416 L 188.28888888889 416 L 186.59259259259 416 L 184.8962962963 416 L 183.2 416 L 181.5037037037 416 L 179.80740740741 416 L 178.11111111111 416 L 176.41481481481 416 L 174.71851851852 416 L 173.02222222222 416 L 171.32592592593 416 L 169.62962962963 416 L 167.93333333333 416 L 166.23703703704 416 L 164.54074074074 416 L 162.84444444444 416 L 161.14814814815 416 L 159.45185185185 416 L 157.75555555556 416 L 156.05925925926 416 L 154.36296296296 416 L 152.66666666667 416 L 150.97037037037 416 L 149.27407407407 416 L 147.57777777778 416 L 145.88148148148 416 L 144.18518518519 416 L 142.48888888889 416 L 140.79259259259 416 L 139.0962962963 416 L 137.4 416 L 135.7037037037 416 L 134.00740740741 416 L 132.31111111111 416 L 130.61481481481 416 L 128.91851851852 416 L 127.22222222222 416 L 125.52592592593 416 L 123.82962962963 416 L 122.13333333333 416 L 120.43703703704 416 L 118.74074074074 416 L 117.04444444444 416 L 115.34814814815 416 L 113.65185185185 416 L 111.95555555556 416 L 110.25925925926 416 L 108.56296296296 416 L 106.86666666667 416 L 105.17037037037 416 L 103.47407407407 416 L 101.77777777778 416 L 100.08148148148 416 L 98.385185185185 416 L 96.688888888889 416 L 94.992592592593 416 L 93.296296296296 416 L 91.6 416 L 89.903703703704 416 L 88.207407407407 416 L 86.511111111111 416 L 84.814814814815 416 L 83.118518518518 416 L 81.422222222222 416 L 79.725925925926 416 L 78.02962962963 416 L 76.333333333333 416 L 74.637037037037 416 L 72.940740740741 416 L 71.244444444444 416 L 69.548148148148 416 L 67.851851851852 416 L 66.155555555556 416 L 64.459259259259 416 L 62.762962962963 416 L 61.066666666667 416 L 59.37037037037 416 L 57.674074074074 416 L 55.977777777778 416 L 54.281481481482 416 L 52.585185185185 416 L 50.888888888889 416 L 49.192592592593 416 L 47.496296296296 416 L 45.8 416 L 44.103703703704 416 L 42.407407407407 416 L 40.711111111111 416 L 39.014814814815 416 L 37.318518518518 416 L 35.622222222222 416 L 33.925925925926 416 L 32.22962962963 416 L 30.533333333333 416 L 28.837037037037 416 L 27.140740740741 416 L 25.444444444444 416 L 23.748148148148 416 L 22.051851851852 416 L 20.355555555556 416 L 18.659259259259 416 L 16.962962962963 416 L 15.266666666667 416 L 13.57037037037 416 L 11.874074074074 416 L 10.177777777778 416 L 8.4814814814815 416 L 6.7851851851852 416 L 5.0888888888889 416 L 3.3925925925926 416 L 1.6962962962963 416 L 0 416 Z" class="highcharts-area" data-z-index="0"></path><path fill="none" d="M 0 375.31 L 1.6962962962963 374.65999999999997 L 3.3925925925926 376.506 L 5.0888888888889 379.314 L 6.7851851851852 377 L 8.4814814814815 365.69 L 10.177777777778 354.64 L 11.874074074074 352.43 L 13.57037037037 365.3 L 15.266666666667 380.12 L 16.962962962963 380.302 L 18.659259259259 381.15999999999997 L 20.355555555556 380.25 L 22.051851851852 381.342 L 23.748148148148 384.592 L 25.444444444444 383.24 L 27.140740740741 375.336 L 28.837037037037 366.08 L 30.533333333333 362.804 L 32.22962962963 361.65999999999997 L 33.925925925926 381.082 L 35.622222222222 385.32 L 37.318518518518 385.554 L 39.014814814815 380.718 L 40.711111111111 379.028 L 42.407407407407 373.75 L 44.103703703704 376.532 L 45.8 366.808 L 47.496296296296 361.088 L 49.192592592593 350.61 L 50.888888888889 356.33 L 52.585185185185 361.738 L 54.281481481482 372.138 L 55.977777777778 374.478 L 57.674074074074 367.744 L 59.37037037037 362.206 L 61.066666666667 354.51 L 62.762962962963 354.9 L 64.459259259259 359.294 L 66.155555555556 358.28 L 67.851851851852 354.25 L 69.548148148148 356.43399999999997 L 71.244444444444 354.432 L 72.940740740741 357.682 L 74.637037037037 362.44 L 76.333333333333 349.596 L 78.02962962963 358.592 L 79.725925925926 362.05 L 81.422222222222 362.258 L 83.118518518518 366.158 L 84.814814814815 359.216 L 86.511111111111 366.782 L 88.207407407407 374.764 L 89.903703703704 372.918 L 91.6 365.3 L 93.296296296296 371.93 L 94.992592592593 372.164 L 96.688888888889 380.796 L 98.385185185185 378.82 L 100.08148148148 372.19 L 101.77777777778 372.788 L 103.47407407407 371.332 L 105.17037037037 376.22 L 106.86666666667 374.036 L 108.56296296296 370.552 L 110.25925925926 370.5 L 111.95555555556 367.484 L 113.65185185185 363.532 L 115.34814814815 347.906 L 117.04444444444 346.892 L 118.74074074074 357.864 L 120.43703703704 355.264 L 122.13333333333 358.176 L 123.82962962963 353.444 L 125.52592592593 340.31399999999996 L 127.22222222222 359.762 L 128.91851851852 367.666 L 130.61481481481 358.436 L 132.31111111111 345.072 L 134.00740740741 315.64 L 135.7037037037 344.318 L 137.4 353.99 L 139.0962962963 368.654 L 140.79259259259 365.924 L 142.48888888889 359.216 L 144.18518518519 357.786 L 145.88148148148 360.386 L 147.57777777778 359.398 L 149.27407407407 345.43600000000004 L 150.97037037037 335.868 L 152.66666666667 323.648 L 154.36296296296 351 L 156.05925925926 357.136 L 157.75555555556 357.318 L 159.45185185185 355.654 L 161.14814814815 350.428 L 162.84444444444 358.254 L 164.54074074074 359.58 L 166.23703703704 351.806 L 167.93333333333 368.056 L 169.62962962963 370.448 L 171.32592592593 352.742 L 173.02222222222 356.85 L 174.71851851852 364.624 L 176.41481481481 365.43 L 178.11111111111 369.798 L 179.80740740741 373.672 L 181.5037037037 363.662 L 183.2 357.422 L 184.8962962963 356.46 L 186.59259259259 353.756 L 188.28888888889 349.882 L 189.98518518519 342.55 L 191.68148148148 344.656 L 193.37777777778 339.014 L 195.07407407407 356.096 L 196.77037037037 356.2 L 198.46666666667 346.788 L 200.16296296296 344.214 L 201.85925925926 339.43 L 203.55555555556 334.334 L 205.25185185185 302.744 L 206.94814814815 299.624 L 208.64444444444 317.876 L 210.34074074074 291.668 L 212.03703703704 281.164 L 213.73333333333 299.26 L 215.42962962963 244.686 L 217.12592592593 161.85 L 218.82222222222 267.618 L 220.51851851852 279.86400000000003 L 222.21481481481 285.35 L 223.91111111111 293.93 L 225.60740740741 314.236 L 227.3037037037 335.504 L 229 330.304 L 230.6962962963 354.12 L 232.39259259259 357.656 L 234.08888888889 330.43399999999997 L 235.78518518519 345.774 L 237.48148148148 349.18 L 239.17777777778 360.412 L 240.87407407407 354.718 L 242.57037037037 333.32 L 244.26666666667 317.33 L 245.96296296296 332.358 L 247.65925925926 331.63 L 249.35555555556 339.196 L 251.05185185185 330.304 L 252.74814814815 308.41200000000003 L 254.44444444444 307.944 L 256.14074074074 307.06 L 257.83703703704 291.486 L 259.53333333333 270.27 L 261.22962962963 205.374 L 262.92592592593 284.44 L 264.62222222222 275.99 L 266.31851851852 253.474 L 268.01481481481 275.31399999999996 L 269.71111111111 293.332 L 271.40740740741 292.994 L 273.1037037037 290.42 L 274.8 288.782 L 276.4962962963 289.64 L 278.19259259259 255.32 L 279.88888888889 275.678 L 281.58518518519 275.18399999999997 L 283.28148148148 261.74199999999996 L 284.97777777778 263.58799999999997 L 286.67407407407 248.3 L 288.37037037037 255.97 L 290.06666666667 257.08799999999997 L 291.76296296296 284.076 L 293.45925925926 239.33 L 295.15555555556 189.15 L 296.85185185185 217.88 L 298.54814814815 259.48 L 300.24444444444 251.654 L 301.94074074074 241.02 L 303.63703703704 217.022 L 305.33333333333 244.79 L 307.02962962963 250.146 L 308.72592592593 234.494 L 310.42222222222 210.99 L 312.11851851852 117.72800000000001 L 313.81481481481 54.053999999999974 L 315.51111111111 98.67000000000002 L 317.20740740741 88.738 L 318.9037037037 124.14999999999998 L 320.6 173.784 L 322.2962962963 241.436 L 323.99259259259 228.54 L 325.68888888889 245.57 L 327.38518518519 250.016 L 329.08148148148 257.296 L 330.77777777778 202.514 L 332.47407407407 258.752 L 334.17037037037 269.88 L 335.86666666667 220.116 L 337.56296296296 186.056 L 339.25925925926 252.226 L 340.95555555556 216.658 L 342.65185185185 226.2 L 344.34814814815 215.02 L 346.04444444444 211.562 L 347.74074074074 209.69 L 349.43703703704 239.902 L 351.13333333333 255.034 L 352.82962962963 273.832 L 354.52592592593 237.38 L 356.22222222222 199.42 L 357.91851851852 226.148 L 359.61481481481 221.442 L 361.31111111111 206.076 L 363.00740740741 172.484 L 364.7037037037 153.37400000000002 L 366.4 134.082 L 368.0962962963 111.72199999999998 L 369.79259259259 68.822 L 371.48888888889 178.906 L 373.18518518519 209.482 L 374.88148148148 222.612 L 376.57777777778 239.642 L 378.27407407407 246.74 L 379.97037037037 269.828 L 381.66666666667 301.158 L 383.36296296296 306.852 L 385.05925925926 317.824 L 386.75555555556 328.302 L 388.45185185185 316.29 L 390.14814814815 316.29 L 391.84444444444 321.022 L 393.54074074074 338.598 L 395.23703703704 290.134 L 396.93333333333 284.83000000000004 L 398.62962962963 289.952 L 400.32592592593 271.128 L 402.02222222222 282.594 L 403.71851851852 290.86199999999997 L 405.41481481481 315.406 L 407.11111111111 314.08 L 408.80740740741 303.94 L 410.5037037037 295.984 L 412.2 288.002 L 413.8962962963 316.784 L 415.59259259259 315.328 L 417.28888888889 311.012 L 418.98518518519 307.32 L 420.68148148148 301.47 L 422.37777777778 301.08 L 424.07407407407 311.038 L 425.77037037037 301.88599999999997 L 427.46666666667 293.852 L 429.16296296296 294.68399999999997 L 430.85925925926 302.276 L 432.55555555556 308.23 L 434.25185185185 310.596 L 435.94814814815 320.68399999999997 L 437.64444444444 313.716 L 439.34074074074 323.7 L 441.03703703704 338.286 L 442.73333333333 350.922 L 444.42962962963 347.984 L 446.12592592593 360.724 L 447.82222222222 356.59000000000003 L 449.51851851852 353.028 L 451.21481481481 342.576 L 452.91111111111 332.56600000000003 L 454.60740740741 343.226 L 456.3037037037 329.68 L 458 320.008 L 459.6962962963 323.414 L 461.39259259259 328.874 L 463.08888888889 329.18600000000004 L 464.78518518519 325.36400000000003 L 466.48148148148 311.22 L 468.17777777778 303.082 L 469.87407407407 312.416 L 471.57037037037 323.31 L 473.26666666667 326.404 L 474.96296296296 322.894 L 476.65925925926 323.44 L 478.35555555556 322.894 L 480.05185185185 313.196 L 481.74814814815 306.02 L 483.44444444444 287.48199999999997 L 485.14074074074 296.166 L 486.83703703704 302.354 L 488.53333333333 290.81 L 490.22962962963 297.908 L 491.92592592593 300.014 L 493.62222222222 316.134 L 495.31851851852 310.31 L 497.01481481481 308.854 L 498.71111111111 315.302 L 500.40740740741 309.712 L 502.1037037037 340.88599999999997 L 503.8 346.034 L 505.4962962963 344.916 L 507.19259259259 347.36 L 508.88888888889 344.474 L 510.58518518519 347.308 L 512.28148148148 342.368 L 513.97777777778 345.384 L 515.67407407407 346.086 L 517.37037037037 350.376 L 519.06666666667 355.654 L 520.76296296296 357.89 L 522.45925925926 355.238 L 524.15555555556 356.252 L 525.85185185185 371.514 L 527.54814814815 365.06600000000003 L 529.24444444444 359.372 L 530.94074074074 356.512 L 532.63703703704 339.976 L 534.33333333333 341.224 L 536.02962962963 340.938 L 537.72592592593 340.444 L 539.42222222222 337.324 L 541.11851851852 328.848 L 542.81481481481 319.176 L 544.51111111111 334.95799999999997 L 546.20740740741 343.876 L 547.9037037037 333.06 L 549.6 330.824 L 551.2962962963 336.154 L 552.99259259259 337.09000000000003 L 554.68888888889 343.356 L 556.38518518519 336.96 L 558.08148148148 337.818 L 559.77777777778 340.704 L 561.47407407407 337.35 L 563.17037037037 339.222 L 564.86666666667 338.13 L 566.56296296296 346.658 L 568.25925925926 344.942 L 569.95555555556 344.16200000000003 L 571.65185185185 339.248 L 573.34814814815 339.976 L 575.04444444444 343.668 L 576.74074074074 340.18399999999997 L 578.43703703704 337.79200000000003 L 580.13333333333 331.214 L 581.82962962963 296.08799999999997 L 583.52592592593 339.56 L 585.22222222222 342.836 L 586.91851851852 342.88800000000003 L 588.61481481481 346.788 L 590.31111111111 349.05 L 592.00740740741 352.196 L 593.7037037037 355.992 L 595.4 357.942 L 597.0962962963 356.59000000000003 L 598.79259259259 355.42 L 600.48888888889 347.54200000000003 L 602.18518518518 355.8256 L 603.88148148148 360.0688 L 605.57777777778 368.121 L 607.27407407407 368.862 L 608.97037037037 373.152 L 610.66666666667 365.716 L 612.36296296296 368.186 L 614.05925925926 371.176 L 615.75555555556 368.836 L 617.45185185185 347.282 L 619.14814814815 349.544 L 620.84444444444 328.796 L 622.54074074074 341.068 L 624.23703703704 349.986 L 625.93333333333 349.336 L 627.62962962963 343.954 L 629.32592592593 348.192 L 631.02222222222 339.794 L 632.71851851852 336.622 L 634.41481481481 321.1 L 636.11111111111 314.236 L 637.80740740741 302.198 L 639.5037037037 263.45799999999997 L 641.2 274.924 L 642.8962962963 298.844 L 644.59259259259 319.02 L 646.28888888889 294.45 L 647.98518518519 301.548 L 649.68148148148 267.774 L 651.37777777778 227.656 L 653.07407407407 204.412 L 654.77037037037 275.808 L 656.46666666667 202.046 L 658.16296296296 177.086 L 659.85925925926 232.31 L 661.55555555556 244.218 L 663.25185185185 238.732 L 664.94814814815 309.296 L 666.64444444444 344.734 L 668.34074074074 341.562 L 670.03703703704 358.384 L 671.73333333333 353.34000000000003 L 673.42962962963 354.692 L 675.12592592593 343.876 L 676.82222222222 344.734 L 678.51851851852 344.0684" class="highcharts-graph" data-z-index="1" stroke="#2962FF" stroke-width="2" stroke-linejoin="round" stroke-linecap="round"></path></g><g class="highcharts-markers highcharts-series-0 highcharts-area-series" data-z-index="90" opacity="1" transform="translate(0,40) scale(1 1)" clip-path="none"></g></g><text x="740" text-anchor="end" class="highcharts-title" data-z-index="4" style="color: rgb(211, 211, 211); font-size: 15px; fill: rgb(211, 211, 211);" y="512"></text><text x="14" text-anchor="start" class="highcharts-subtitle" data-z-index="4" style="color: rgb(51, 51, 51); fill: rgb(51, 51, 51); font-size: 15px;" y="25"><tspan style="color: rgb(211, 211, 211); fill: rgb(211, 211, 211);">Natural gas</tspan></text><text x="0" text-anchor="start" class="highcharts-caption" data-z-index="4" style="color: rgb(102, 102, 102); fill: rgb(102, 102, 102);" y="527"></text><g class="highcharts-axis-labels highcharts-xaxis-labels" data-z-index="7"><text x="96.63587962963" text-anchor="middle" transform="translate(0,0)" style="color: rgb(227, 225, 225); cursor: default; font-size: 15px; font-weight: 400; fill: rgb(227, 225, 225);" y="476" opacity="1">1995</text><text x="198.36386083053" text-anchor="middle" transform="translate(0,0)" style="color: rgb(227, 225, 225); cursor: default; font-size: 15px; font-weight: 400; fill: rgb(227, 225, 225);" y="476" opacity="1">2000</text><text x="300.14163860831" text-anchor="middle" transform="translate(0,0)" style="color: rgb(227, 225, 225); cursor: default; font-size: 15px; font-weight: 400; fill: rgb(227, 225, 225);" y="476" opacity="1">2005</text><text x="402.02222222222" text-anchor="middle" transform="translate(0,0)" style="color: rgb(227, 225, 225); cursor: default; font-size: 15px; font-weight: 400; fill: rgb(227, 225, 225);" y="476" opacity="1">2010</text><text x="503.8" text-anchor="middle" transform="translate(0,0)" style="color: rgb(227, 225, 225); cursor: default; font-size: 15px; font-weight: 400; fill: rgb(227, 225, 225);" y="476" opacity="1">2015</text><text x="605.57777777778" text-anchor="middle" transform="translate(0,0)" style="color: rgb(227, 225, 225); cursor: default; font-size: 15px; font-weight: 400; fill: rgb(227, 225, 225);" y="476" opacity="1">2020</text></g><g class="highcharts-axis-labels highcharts-yaxis-labels" data-z-index="7"><text x="0" text-anchor="start" transform="translate(0,0)" style="color: rgb(227, 225, 225); cursor: default; font-size: 15px; fill: rgb(227, 225, 225);" visibility="hidden"><tspan>0</tspan></text><text x="695" text-anchor="start" transform="translate(0,0)" style="color: rgb(227, 225, 225); cursor: default; font-size: 15px; fill: rgb(227, 225, 225);" y="409" opacity="1">2</text><text x="695" text-anchor="start" transform="translate(0,0)" style="color: rgb(227, 225, 225); cursor: default; font-size: 15px; fill: rgb(227, 225, 225);" y="357" opacity="1">4</text><text x="695" text-anchor="start" transform="translate(0,0)" style="color: rgb(227, 225, 225); cursor: default; font-size: 15px; fill: rgb(227, 225, 225);" y="305" opacity="1">6</text><text x="695" text-anchor="start" transform="translate(0,0)" style="color: rgb(227, 225, 225); cursor: default; font-size: 15px; fill: rgb(227, 225, 225);" y="253" opacity="1">8</text><text x="695" text-anchor="start" transform="translate(0,0)" style="color: rgb(227, 225, 225); cursor: default; font-size: 15px; fill: rgb(227, 225, 225);" y="201" opacity="1">10</text><text x="695" text-anchor="start" transform="translate(0,0)" style="color: rgb(227, 225, 225); cursor: default; font-size: 15px; fill: rgb(227, 225, 225);" y="149" opacity="1">12</text><text x="695" text-anchor="start" transform="translate(0,0)" style="color: rgb(227, 225, 225); cursor: default; font-size: 15px; fill: rgb(227, 225, 225);" y="97" opacity="1">14</text><text x="0" text-anchor="start" transform="translate(0,0)" style="color: rgb(227, 225, 225); cursor: default; font-size: 15px; fill: rgb(227, 225, 225);" visibility="hidden">16</text></g><g class="highcharts-axis-labels highcharts-yaxis-labels" data-z-index="7"></g><g class="highcharts-axis-labels highcharts-yaxis-labels" data-z-index="7"></g><g class="highcharts-control-points" data-z-index="99" clip-path="url(#highcharts-dst5hth-3194-)"></g><g class="highcharts-axis highcharts-yaxis" data-z-index="9999"><path fill="none" class="highcharts-tick" stroke="#333333" stroke-width="1" d="M 688 456.5 L 693 456.5" opacity="1"></path><path fill="none" class="highcharts-tick" stroke="#333333" stroke-width="1" d="M 688 404.5 L 693 404.5" opacity="1"></path><path fill="none" class="highcharts-tick" stroke="#333333" stroke-width="1" d="M 688 352.5 L 693 352.5" opacity="1"></path><path fill="none" class="highcharts-tick" stroke="#333333" stroke-width="1" d="M 688 300.5 L 693 300.5" opacity="1"></path><path fill="none" class="highcharts-tick" stroke="#333333" stroke-width="1" d="M 688 248.5 L 693 248.5" opacity="1"></path><path fill="none" class="highcharts-tick" stroke="#333333" stroke-width="1" d="M 688 196.5 L 693 196.5" opacity="1"></path><path fill="none" class="highcharts-tick" stroke="#333333" stroke-width="1" d="M 688 144.5 L 693 144.5" opacity="1"></path><path fill="none" class="highcharts-tick" stroke="#333333" stroke-width="1" d="M 688 92.5 L 693 92.5" opacity="1"></path><path fill="none" class="highcharts-tick" stroke="#333333" stroke-width="1" d="M 688 39.5 L 693 39.5" opacity="1"></path><path fill="none" class="highcharts-axis-line" stroke="#616161" stroke-width="1" data-z-index="7" d="M 688.5 40 L 688.5 456"></path></g><path fill="none" d="M 0 0 L 1792 0" stroke="#757575" stroke-width="1" stroke-dasharray="8,3" data-z-index="6" visibility="hidden" class="crosshair-fix-horizontal"></path><path fill="none" d="M 0 40 L 0 1160" stroke="#757575" stroke-width="1" stroke-dasharray="8,3" data-z-index="6" visibility="hidden" class="crosshair-fix-vertical"></path></svg>