<?xml version="1.0" standalone="no"?><!DOCTYPE svg PUBLIC "-//W3C//DTD SVG 1.1//EN" "http://www.w3.org/Graphics/SVG/1.1/DTD/svg11.dtd"><svg xmlns:xlink="http://www.w3.org/1999/xlink" version="1.1" class="highcharts-root" style="font-family: &quot;Helvetica Neue&quot;, Helvetica, Arial, sans-serif; font-size: 12px;" xmlns="http://www.w3.org/2000/svg" width="750" height="520" viewBox="0 0 750 520"><desc>Created with Highcharts 10.1.0</desc><defs><linearGradient x1="0" y1="0" x2="500" y2="500" gradientUnits="userSpaceOnUse" id="highcharts-bf5erwh-2208"><stop offset="0" stop-color="rgb(35, 35, 35)" stop-opacity="1"></stop></linearGradient><clipPath id="highcharts-bf5erwh-2209-"><rect x="0" y="0" width="687" height="416" fill="none"></rect></clipPath><clipPath id="highcharts-bf5erwh-2530-"><rect x="0" y="0" width="687" height="416" fill="none"></rect></clipPath><linearGradient x1="0" y1="0" x2="0" y2="1" id="highcharts-bf5erwh-2531"><stop offset="0" stop-color="#2962FF" stop-opacity="1"></stop><stop offset="1" stop-color="rgb(41,98,255)" stop-opacity="0"></stop></linearGradient><linearGradient x1="0" y1="0" x2="0" y2="1" id="highcharts-bf5erwh-2857"><stop offset="0" stop-color="#459a63" stop-opacity="1"></stop><stop offset="1" stop-color="rgb(69,154,99)" stop-opacity="0"></stop></linearGradient><clipPath id="highcharts-bf5erwh-2858-"><rect x="0" y="40" width="687" height="416" fill="none"></rect></clipPath></defs><rect fill="url(#highcharts-bf5erwh-2208)" class="highcharts-background" x="0" y="0" width="750" height="520" rx="0" ry="0"></rect><rect fill="none" class="highcharts-plot-background" x="0" y="40" width="687" height="416"></rect><g class="highcharts-grid highcharts-xaxis-grid" data-z-index="1"><path fill="none" stroke="#333333" stroke-width="1" stroke-dasharray="none" data-z-index="1" class="highcharts-grid-line" d="M 101.5 40 L 101.5 456" opacity="1"></path><path fill="none" stroke="#333333" stroke-width="1" stroke-dasharray="none" data-z-index="1" class="highcharts-grid-line" d="M 215.5 40 L 215.5 456" opacity="1"></path><path fill="none" stroke="#333333" stroke-width="1" stroke-dasharray="none" data-z-index="1" class="highcharts-grid-line" d="M 330.5 40 L 330.5 456" opacity="1"></path><path fill="none" stroke="#333333" stroke-width="1" stroke-dasharray="none" data-z-index="1" class="highcharts-grid-line" d="M 444.5 40 L 444.5 456" opacity="1"></path><path fill="none" stroke="#333333" stroke-width="1" stroke-dasharray="none" data-z-index="1" class="highcharts-grid-line" d="M 559.5 40 L 559.5 456" opacity="1"></path><path fill="none" stroke="#333333" stroke-width="1" stroke-dasharray="none" data-z-index="1" class="highcharts-grid-line" d="M 673.5 40 L 673.5 456" opacity="1"></path></g><g class="highcharts-grid highcharts-yaxis-grid" data-z-index="1"><path fill="none" stroke="#333333" stroke-width="1" stroke-dasharray="none" data-z-index="1" class="highcharts-grid-line" d="M 0 456.5 L 687 456.5" opacity="1"></path><path fill="none" stroke="#333333" stroke-width="1" stroke-dasharray="none" data-z-index="1" class="highcharts-grid-line" d="M 0 387.5 L 687 387.5" opacity="1"></path><path fill="none" stroke="#333333" stroke-width="1" stroke-dasharray="none" data-z-index="1" class="highcharts-grid-line" d="M 0 317.5 L 687 317.5" opacity="1"></path><path fill="none" stroke="#333333" stroke-width="1" stroke-dasharray="none" data-z-index="1" class="highcharts-grid-line" d="M 0 248.5 L 687 248.5" opacity="1"></path><path fill="none" stroke="#333333" stroke-width="1" stroke-dasharray="none" data-z-index="1" class="highcharts-grid-line" d="M 0 179.5 L 687 179.5" opacity="1"></path><path fill="none" stroke="#333333" stroke-width="1" stroke-dasharray="none" data-z-index="1" class="highcharts-grid-line" d="M 0 109.5 L 687 109.5" opacity="1"></path><path fill="none" stroke="#333333" stroke-width="1" stroke-dasharray="none" data-z-index="1" class="highcharts-grid-line" d="M 0 39.5 L 687 39.5" opacity="1"></path></g><g class="highcharts-grid highcharts-yaxis-grid" data-z-index="1"></g><g class="highcharts-grid highcharts-yaxis-grid" data-z-index="1"></g><rect fill="none" class="highcharts-plot-border" data-z-index="1" x="0" y="40" width="687" height="416"></rect><g class="highcharts-axis highcharts-xaxis" data-z-index="2"><path fill="none" class="highcharts-axis-line" stroke="#616161" stroke-width="1" data-z-index="7" d="M 0 456.5 L 687 456.5"></path></g><g class="highcharts-axis highcharts-yaxis" data-z-index="2"><path fill="none" class="highcharts-axis-line" data-z-index="7" d="M 720 40 L 720 456"></path></g><g class="highcharts-axis highcharts-yaxis" data-z-index="2"><path fill="none" class="highcharts-axis-line" stroke="#616161" stroke-width="1" data-z-index="7" d="M -1.5 40 L -1.5 456"></path></g><g class="highcharts-series-group" data-z-index="3"><g class="highcharts-series highcharts-series-0 highcharts-area-series" data-z-index="90" opacity="1" transform="translate(0,40) scale(1 1)" clip-path="url(#highcharts-bf5erwh-2530-)"><path fill="url(#highcharts-bf5erwh-2531)" d="M 0 406.2933333333333 L 2.1203703703703 408.8309333333333 L 4.2407407407408 408.928 L 6.3611111111111 408.6368 L 8.4814814814814 408.72 L 10.601851851852 409.5866666666667 L 12.722222222222 409.3370666666667 L 14.842592592593 408.4010666666667 L 16.962962962963 406.7994666666667 L 19.083333333333 404.906666666667 L 21.203703703704 403.388266666667 L 23.324074074074 404.865066666667 L 25.444444444444 408.616 L 27.564814814815 409.6005333333333 L 29.685185185185 410.0512 L 31.805555555556 409.6282666666667 L 33.925925925926 409.9125333333333 L 36.046296296296 409.5589333333333 L 38.166666666667 408.7338666666667 L 40.287037037037 407.472 L 42.407407407407 406.3973333333333 L 44.527777777778 406.6469333333333 L 46.648148148148 404.407466666667 L 48.768518518519 407.7632 L 50.888888888889 409.4757333333333 L 53.009259259259 409.5450666666667 L 55.12962962963 409.6005333333333 L 57.25 409.6213333333333 L 59.37037037037 409.6768 L 61.490740740741 409.1221333333333 L 63.611111111111 409.4618666666667 L 65.731481481481 409.656 L 67.851851851852 407.8325333333333 L 69.972222222222 407.9365333333333 L 72.092592592593 408.3386666666667 L 74.212962962963 407.7008 L 76.333333333333 407.9781333333333 L 78.453703703704 407.6453333333333 L 80.574074074074 407.7909333333333 L 82.694444444444 406.2517333333333 L 84.814814814815 401.509333333333 L 86.935185185185 404.130133333333 L 89.055555555556 404.837333333333 L 91.175925925926 402.5424 L 93.296296296296 399.9008 L 95.416666666667 397.536533333333 L 97.537037037037 393.965866666667 L 99.657407407407 397.3424 L 101.77777777778 399.769066666667 L 103.89814814815 400.164266666667 L 106.01851851852 401.329066666667 L 108.13888888889 400.504 L 110.25925925926 401.412266666667 L 112.37962962963 403.8944 L 114.5 404.248 L 116.62037037037 401.842133333333 L 118.74074074074 400.185066666667 L 120.86111111111 400.594133333333 L 122.98148148148 398.271466666667 L 125.10185185185 397.099733333333 L 127.22222222222 402.098666666667 L 129.34259259259 404.6016 L 131.46296296296 406.4389333333333 L 133.58333333333 407.0074666666667 L 135.7037037037 407.5413333333333 L 137.82407407407 406.6053333333333 L 139.94444444444 407.4165333333333 L 142.06481481481 404.5184 L 144.18518518519 401.571733333333 L 146.30555555556 399.533333333333 L 148.42592592593 399.179733333333 L 150.5462962963 400.3792 L 152.66666666667 404.4144 L 154.78703703704 404.358933333333 L 156.90740740741 404.76800000000003 L 159.02777777778 405.322666666667 L 161.14814814815 404.629333333333 L 163.26851851852 404.3312 L 165.38888888889 404.989866666667 L 167.50925925926 402.549333333333 L 169.62962962963 399.249066666667 L 171.75 394.374933333333 L 173.87037037037 392.544533333333 L 175.99074074074 393.6816 L 178.11111111111 401.051733333333 L 180.23148148148 402.265066666667 L 182.35185185185 402.923733333333 L 184.47222222222 402.1472 L 186.59259259259 401.2112 L 188.71296296296 400.510933333333 L 190.83333333333 401.537066666667 L 192.9537037037 395.4704 L 195.07407407407 388.807466666667 L 197.19444444444 388.0656 L 199.31481481481 386.1104 L 201.43518518519 392.5792 L 203.55555555556 396.184533333333 L 205.67592592593 394.936533333333 L 207.7962962963 395.213866666667 L 209.91666666667 395.7616 L 212.03703703704 395.4288 L 214.15740740741 393.792533333333 L 216.27777777778 391.8304 L 218.39814814815 387.725866666667 L 220.51851851852 382.359466666667 L 222.63888888889 374.4 L 224.75925925926 341.487466666667 L 226.87962962963 360.678933333333 L 229 373.40160000000003 L 231.12037037037 384.786133333333 L 233.24074074074 385.6736 L 235.36111111111 388.64106666666703 L 237.48148148148 389.098666666667 L 239.60185185185 388.5648 L 241.72222222222 389.8544 L 243.84259259259 385.867733333333 L 245.96296296296 377.991466666667 L 248.08333333333 376.986133333333 L 250.2037037037 383.4896 L 252.32407407407 393.6608 L 254.44444444444 399.866133333333 L 256.56481481481 402.9584 L 258.68518518519 401.932266666667 L 260.80555555556 404.109333333333 L 262.92592592593 401.5232 L 265.0462962963 401.1904 L 267.16666666667 396.538133333333 L 269.28703703704 396.9264 L 271.40740740741 386.498666666667 L 273.52777777778 378.3728 L 275.64814814815 380.9312 L 277.76851851852 379.752533333333 L 279.88888888889 380.5152 L 282.00925925926 378.878933333333 L 284.12962962963 375.8352 L 286.25 373.997866666667 L 288.37037037037 370.669866666667 L 290.49074074074 365.178666666667 L 292.61111111111 372.846933333333 L 294.73148148148 361.476266666667 L 296.85185185185 356.8864 L 298.97222222222 363.23040000000003 L 301.09259259259 373.727466666667 L 303.21296296296 375.4192 L 305.33333333333 372.84000000000003 L 307.4537037037 392.759466666667 L 309.57407407407 393.834133333333 L 311.69444444444 396.233066666667 L 313.81481481481 397.84159999999997 L 315.93518518519 397.980266666667 L 318.05555555556 400.5456 L 320.17592592593 397.592 L 322.2962962963 393.522133333333 L 324.41666666667 390.4784 L 326.53703703704 395.498133333333 L 328.65740740741 392.6208 L 330.77777777778 389.119466666667 L 332.89814814815 394.270933333333 L 335.01851851852 395.401066666667 L 337.13888888889 393.029866666667 L 339.25925925926 385.638933333333 L 341.37962962963 384.460266666667 L 343.5 387.809066666667 L 345.62037037037 386.997866666667 L 347.74074074074 383.191466666667 L 349.86111111111 382.9904 L 351.98148148148 378.421333333333 L 354.10185185185 373.658133333333 L 356.22222222222 379.489066666667 L 358.34259259259 378.053866666667 L 360.46296296296 371.585066666667 L 362.58333333333 375.862933333333 L 364.7037037037 375.550933333333 L 366.82407407407 376.278933333333 L 368.94444444444 379.7872 L 371.06481481481 368.811733333333 L 373.18518518519 369.893333333333 L 375.30555555556 369.692266666667 L 377.42592592593 374.344533333333 L 379.5462962963 378.345066666667 L 381.66666666667 377 L 383.78703703704 374.829866666667 L 385.90740740741 373.36 L 388.02777777778 375.8768 L 390.14814814815 378.573866666667 L 392.26851851852 377.47146666666697 L 394.38888888889 378.0816 L 396.50925925926 375.155733333333 L 398.62962962963 372.96479999999997 L 400.75 370.004266666667 L 402.87037037037 369.089066666667 L 404.99074074074 371.273066666667 L 407.11111111111 370.974933333333 L 409.23148148148 369.317866666667 L 411.35185185185 369.026666666667 L 413.47222222222 371.6752 L 415.59259259259 370.8432 L 417.71296296296 370.919466666667 L 419.83333333333 370.0528 L 421.9537037037 370.8016 L 424.07407407407 368.9712 L 426.19444444444 367.466666666667 L 428.31481481481 366.364266666667 L 430.43518518519 368.2224 L 432.55555555556 373.623466666667 L 434.67592592593 377.069333333333 L 436.7962962963 380.4528 L 438.91666666667 383.919466666667 L 441.03703703704 385.396266666667 L 443.15740740741 388.544 L 445.27777777778 387.219733333333 L 447.39814814815 380.570666666667 L 449.51851851852 377.318933333333 L 451.63888888889 378.511466666667 L 453.75925925926 375.599466666667 L 455.87962962963 381.465066666667 L 458 384.203733333333 L 460.12037037037 381.312533333333 L 462.24074074074 384.182933333333 L 464.36111111111 386.9216 L 466.48148148148 386.956266666667 L 468.60185185185 386.789866666667 L 470.72222222222 386.637333333333 L 472.84259259259 387.656533333333 L 474.96296296296 387.088 L 477.08333333333 388.648 L 479.2037037037 389.202666666667 L 481.32407407407 393.029866666667 L 483.44444444444 394.790933333333 L 485.56481481481 395.6576 L 487.68518518519 396.57280000000003 L 489.80555555556 396.16373333333297 L 491.92592592593 393.605333333333 L 494.0462962963 391.9344 L 496.16666666667 390.610133333333 L 498.28703703704 393.778666666667 L 500.40740740741 387.573333333333 L 502.52777777778 380.695466666667 L 504.64814814815 381.68 L 506.76851851852 378.816533333333 L 508.88888888889 377.734933333333 L 511.00925925926 385.84 L 513.12962962963 388.509333333333 L 515.25 389.5424 L 517.37037037037 390.277333333333 L 519.49074074074 390.901333333333 L 521.61111111111 388.613333333333 L 523.73148148148 384.8624 L 525.85185185185 383.191466666667 L 527.97222222222 381.069866666667 L 530.09259259259 376.688 L 532.21296296296 376.8752 L 534.33333333333 382.061333333333 L 536.4537037037 383.642133333333 L 538.57407407407 383.16373333333297 L 540.69444444444 379.190933333333 L 542.81481481481 376.091733333333 L 544.93518518519 377.700266666667 L 547.05555555556 375.405333333333 L 549.17592592593 368.998933333333 L 551.2962962963 363.9584 L 553.41666666667 368.728533333333 L 555.53703703704 369.172266666667 L 557.65740740741 373.658133333333 L 559.77777777778 380.279466666667 L 561.89814814815 385.417066666667 L 564.01851851852 392.003733333333 L 566.13888888889 392.6624 L 568.25925925926 396.8848 L 570.37962962963 398.216 L 572.5 395.3664 L 574.62037037037 393.0992 L 576.74074074074 386.061866666667 L 578.86111111111 386.436266666667 L 580.98148148148 386.353066666667 L 583.10185185185 394.458133333333 L 585.22222222222 399.2352 L 587.34259259259 400.954666666667 L 589.46296296296 404.677866666667 L 591.58333333333 406.3834666666667 L 593.7037037037 409.3232 L 595.82407407407 404.754133333333 L 597.94444444444 405.156266666667 L 600.06481481481 395.928 L 602.18518518519 390.346666666667 L 604.30555555556 387.22666666666703 L 606.42592592593 385.722133333333 L 608.5462962963 376.896 L 610.66666666667 379.149333333333 L 612.78703703704 388.412266666667 L 614.90740740741 383.552 L 617.02777777778 374.2336 L 619.14814814815 373.928533333333 L 621.26851851852 356.463466666667 L 623.38888888889 344.066666666667 L 625.50925925926 327.4544 L 627.62962962963 241.84853333333 L 629.75 300.92053333333 L 631.87037037037 250.77173333333 L 633.99074074074 297.6896 L 636.11111111111 275.19786666667 L 638.23148148148 251.1392 L 640.35185185185 208.47146666667 L 642.47222222222 302.5152 L 644.59259259259 288.62773333333 L 646.71296296296 243.84533333333 L 648.83333333333 172.00213333333 L 650.9537037037 97.82933333333 L 653.07407407407 171.3296 L 655.19444444444 207.48693333333 L 657.31481481481 159.70933333333 L 659.43518518519 287.00533333333 L 661.55555555556 315.11306666666997 L 663.67592592593 335.892266666667 L 665.7962962963 334.165866666667 L 667.91666666667 354.6192 L 670.03703703704 371.952533333333 L 672.15740740741 352.754133333333 L 674.27777777778 366.946666666667 L 676.39814814815 354.813333333333 L 676.39814814815 416 L 674.27777777778 416 L 672.15740740741 416 L 670.03703703704 416 L 667.91666666667 416 L 665.7962962963 416 L 663.67592592593 416 L 661.55555555556 416 L 659.43518518519 416 L 657.31481481481 416 L 655.19444444444 416 L 653.07407407407 416 L 650.9537037037 416 L 648.83333333333 416 L 646.71296296296 416 L 644.59259259259 416 L 642.47222222222 416 L 640.35185185185 416 L 638.23148148148 416 L 636.11111111111 416 L 633.99074074074 416 L 631.87037037037 416 L 629.75 416 L 627.62962962963 416 L 625.50925925926 416 L 623.38888888889 416 L 621.26851851852 416 L 619.14814814815 416 L 617.02777777778 416 L 614.90740740741 416 L 612.78703703704 416 L 610.66666666667 416 L 608.5462962963 416 L 606.42592592593 416 L 604.30555555556 416 L 602.18518518519 416 L 600.06481481481 416 L 597.94444444444 416 L 595.82407407407 416 L 593.7037037037 416 L 591.58333333333 416 L 589.46296296296 416 L 587.34259259259 416 L 585.22222222222 416 L 583.10185185185 416 L 580.98148148148 416 L 578.86111111111 416 L 576.74074074074 416 L 574.62037037037 416 L 572.5 416 L 570.37962962963 416 L 568.25925925926 416 L 566.13888888889 416 L 564.01851851852 416 L 561.89814814815 416 L 559.77777777778 416 L 557.65740740741 416 L 555.53703703704 416 L 553.41666666667 416 L 551.2962962963 416 L 549.17592592593 416 L 547.05555555556 416 L 544.93518518519 416 L 542.81481481481 416 L 540.69444444444 416 L 538.57407407407 416 L 536.4537037037 416 L 534.33333333333 416 L 532.21296296296 416 L 530.09259259259 416 L 527.97222222222 416 L 525.85185185185 416 L 523.73148148148 416 L 521.61111111111 416 L 519.49074074074 416 L 517.37037037037 416 L 515.25 416 L 513.12962962963 416 L 511.00925925926 416 L 508.88888888889 416 L 506.76851851852 416 L 504.64814814815 416 L 502.52777777778 416 L 500.40740740741 416 L 498.28703703704 416 L 496.16666666667 416 L 494.0462962963 416 L 491.92592592593 416 L 489.80555555556 416 L 487.68518518519 416 L 485.56481481481 416 L 483.44444444444 416 L 481.32407407407 416 L 479.2037037037 416 L 477.08333333333 416 L 474.96296296296 416 L 472.84259259259 416 L 470.72222222222 416 L 468.60185185185 416 L 466.48148148148 416 L 464.36111111111 416 L 462.24074074074 416 L 460.12037037037 416 L 458 416 L 455.87962962963 416 L 453.75925925926 416 L 451.63888888889 416 L 449.51851851852 416 L 447.39814814815 416 L 445.27777777778 416 L 443.15740740741 416 L 441.03703703704 416 L 438.91666666667 416 L 436.7962962963 416 L 434.67592592593 416 L 432.55555555556 416 L 430.43518518519 416 L 428.31481481481 416 L 426.19444444444 416 L 424.07407407407 416 L 421.9537037037 416 L 419.83333333333 416 L 417.71296296296 416 L 415.59259259259 416 L 413.47222222222 416 L 411.35185185185 416 L 409.23148148148 416 L 407.11111111111 416 L 404.99074074074 416 L 402.87037037037 416 L 400.75 416 L 398.62962962963 416 L 396.50925925926 416 L 394.38888888889 416 L 392.26851851852 416 L 390.14814814815 416 L 388.02777777778 416 L 385.90740740741 416 L 383.78703703704 416 L 381.66666666667 416 L 379.5462962963 416 L 377.42592592593 416 L 375.30555555556 416 L 373.18518518519 416 L 371.06481481481 416 L 368.94444444444 416 L 366.82407407407 416 L 364.7037037037 416 L 362.58333333333 416 L 360.46296296296 416 L 358.34259259259 416 L 356.22222222222 416 L 354.10185185185 416 L 351.98148148148 416 L 349.86111111111 416 L 347.74074074074 416 L 345.62037037037 416 L 343.5 416 L 341.37962962963 416 L 339.25925925926 416 L 337.13888888889 416 L 335.01851851852 416 L 332.89814814815 416 L 330.77777777778 416 L 328.65740740741 416 L 326.53703703704 416 L 324.41666666667 416 L 322.2962962963 416 L 320.17592592593 416 L 318.05555555556 416 L 315.93518518519 416 L 313.81481481481 416 L 311.69444444444 416 L 309.57407407407 416 L 307.4537037037 416 L 305.33333333333 416 L 303.21296296296 416 L 301.09259259259 416 L 298.97222222222 416 L 296.85185185185 416 L 294.73148148148 416 L 292.61111111111 416 L 290.49074074074 416 L 288.37037037037 416 L 286.25 416 L 284.12962962963 416 L 282.00925925926 416 L 279.88888888889 416 L 277.76851851852 416 L 275.64814814815 416 L 273.52777777778 416 L 271.40740740741 416 L 269.28703703704 416 L 267.16666666667 416 L 265.0462962963 416 L 262.92592592593 416 L 260.80555555556 416 L 258.68518518519 416 L 256.56481481481 416 L 254.44444444444 416 L 252.32407407407 416 L 250.2037037037 416 L 248.08333333333 416 L 245.96296296296 416 L 243.84259259259 416 L 241.72222222222 416 L 239.60185185185 416 L 237.48148148148 416 L 235.36111111111 416 L 233.24074074074 416 L 231.12037037037 416 L 229 416 L 226.87962962963 416 L 224.75925925926 416 L 222.63888888889 416 L 220.51851851852 416 L 218.39814814815 416 L 216.27777777778 416 L 214.15740740741 416 L 212.03703703704 416 L 209.91666666667 416 L 207.7962962963 416 L 205.67592592593 416 L 203.55555555556 416 L 201.43518518519 416 L 199.31481481481 416 L 197.19444444444 416 L 195.07407407407 416 L 192.9537037037 416 L 190.83333333333 416 L 188.71296296296 416 L 186.59259259259 416 L 184.47222222222 416 L 182.35185185185 416 L 180.23148148148 416 L 178.11111111111 416 L 175.99074074074 416 L 173.87037037037 416 L 171.75 416 L 169.62962962963 416 L 167.50925925926 416 L 165.38888888889 416 L 163.26851851852 416 L 161.14814814815 416 L 159.02777777778 416 L 156.90740740741 416 L 154.78703703704 416 L 152.66666666667 416 L 150.5462962963 416 L 148.42592592593 416 L 146.30555555556 416 L 144.18518518519 416 L 142.06481481481 416 L 139.94444444444 416 L 137.82407407407 416 L 135.7037037037 416 L 133.58333333333 416 L 131.46296296296 416 L 129.34259259259 416 L 127.22222222222 416 L 125.10185185185 416 L 122.98148148148 416 L 120.86111111111 416 L 118.74074074074 416 L 116.62037037037 416 L 114.5 416 L 112.37962962963 416 L 110.25925925926 416 L 108.13888888889 416 L 106.01851851852 416 L 103.89814814815 416 L 101.77777777778 416 L 99.657407407407 416 L 97.537037037037 416 L 95.416666666667 416 L 93.296296296296 416 L 91.175925925926 416 L 89.055555555556 416 L 86.935185185185 416 L 84.814814814815 416 L 82.694444444444 416 L 80.574074074074 416 L 78.453703703704 416 L 76.333333333333 416 L 74.212962962963 416 L 72.092592592593 416 L 69.972222222222 416 L 67.851851851852 416 L 65.731481481481 416 L 63.611111111111 416 L 61.490740740741 416 L 59.37037037037 416 L 57.25 416 L 55.12962962963 416 L 53.009259259259 416 L 50.888888888889 416 L 48.768518518519 416 L 46.648148148148 416 L 44.527777777778 416 L 42.407407407407 416 L 40.287037037037 416 L 38.166666666667 416 L 36.046296296296 416 L 33.925925925926 416 L 31.805555555556 416 L 29.685185185185 416 L 27.564814814815 416 L 25.444444444444 416 L 23.324074074074 416 L 21.203703703704 416 L 19.083333333333 416 L 16.962962962963 416 L 14.842592592593 416 L 12.722222222222 416 L 10.601851851852 416 L 8.4814814814814 416 L 6.3611111111111 416 L 4.2407407407408 416 L 2.1203703703703 416 L 0 416 Z" class="highcharts-area" data-z-index="0"></path><path fill="none" d="M 0 406.2933333333333 L 2.1203703703703 408.8309333333333 L 4.2407407407408 408.928 L 6.3611111111111 408.6368 L 8.4814814814814 408.72 L 10.601851851852 409.5866666666667 L 12.722222222222 409.3370666666667 L 14.842592592593 408.4010666666667 L 16.962962962963 406.7994666666667 L 19.083333333333 404.906666666667 L 21.203703703704 403.388266666667 L 23.324074074074 404.865066666667 L 25.444444444444 408.616 L 27.564814814815 409.6005333333333 L 29.685185185185 410.0512 L 31.805555555556 409.6282666666667 L 33.925925925926 409.9125333333333 L 36.046296296296 409.5589333333333 L 38.166666666667 408.7338666666667 L 40.287037037037 407.472 L 42.407407407407 406.3973333333333 L 44.527777777778 406.6469333333333 L 46.648148148148 404.407466666667 L 48.768518518519 407.7632 L 50.888888888889 409.4757333333333 L 53.009259259259 409.5450666666667 L 55.12962962963 409.6005333333333 L 57.25 409.6213333333333 L 59.37037037037 409.6768 L 61.490740740741 409.1221333333333 L 63.611111111111 409.4618666666667 L 65.731481481481 409.656 L 67.851851851852 407.8325333333333 L 69.972222222222 407.9365333333333 L 72.092592592593 408.3386666666667 L 74.212962962963 407.7008 L 76.333333333333 407.9781333333333 L 78.453703703704 407.6453333333333 L 80.574074074074 407.7909333333333 L 82.694444444444 406.2517333333333 L 84.814814814815 401.509333333333 L 86.935185185185 404.130133333333 L 89.055555555556 404.837333333333 L 91.175925925926 402.5424 L 93.296296296296 399.9008 L 95.416666666667 397.536533333333 L 97.537037037037 393.965866666667 L 99.657407407407 397.3424 L 101.77777777778 399.769066666667 L 103.89814814815 400.164266666667 L 106.01851851852 401.329066666667 L 108.13888888889 400.504 L 110.25925925926 401.412266666667 L 112.37962962963 403.8944 L 114.5 404.248 L 116.62037037037 401.842133333333 L 118.74074074074 400.185066666667 L 120.86111111111 400.594133333333 L 122.98148148148 398.271466666667 L 125.10185185185 397.099733333333 L 127.22222222222 402.098666666667 L 129.34259259259 404.6016 L 131.46296296296 406.4389333333333 L 133.58333333333 407.0074666666667 L 135.7037037037 407.5413333333333 L 137.82407407407 406.6053333333333 L 139.94444444444 407.4165333333333 L 142.06481481481 404.5184 L 144.18518518519 401.571733333333 L 146.30555555556 399.533333333333 L 148.42592592593 399.179733333333 L 150.5462962963 400.3792 L 152.66666666667 404.4144 L 154.78703703704 404.358933333333 L 156.90740740741 404.76800000000003 L 159.02777777778 405.322666666667 L 161.14814814815 404.629333333333 L 163.26851851852 404.3312 L 165.38888888889 404.989866666667 L 167.50925925926 402.549333333333 L 169.62962962963 399.249066666667 L 171.75 394.374933333333 L 173.87037037037 392.544533333333 L 175.99074074074 393.6816 L 178.11111111111 401.051733333333 L 180.23148148148 402.265066666667 L 182.35185185185 402.923733333333 L 184.47222222222 402.1472 L 186.59259259259 401.2112 L 188.71296296296 400.510933333333 L 190.83333333333 401.537066666667 L 192.9537037037 395.4704 L 195.07407407407 388.807466666667 L 197.19444444444 388.0656 L 199.31481481481 386.1104 L 201.43518518519 392.5792 L 203.55555555556 396.184533333333 L 205.67592592593 394.936533333333 L 207.7962962963 395.213866666667 L 209.91666666667 395.7616 L 212.03703703704 395.4288 L 214.15740740741 393.792533333333 L 216.27777777778 391.8304 L 218.39814814815 387.725866666667 L 220.51851851852 382.359466666667 L 222.63888888889 374.4 L 224.75925925926 341.487466666667 L 226.87962962963 360.678933333333 L 229 373.40160000000003 L 231.12037037037 384.786133333333 L 233.24074074074 385.6736 L 235.36111111111 388.64106666666703 L 237.48148148148 389.098666666667 L 239.60185185185 388.5648 L 241.72222222222 389.8544 L 243.84259259259 385.867733333333 L 245.96296296296 377.991466666667 L 248.08333333333 376.986133333333 L 250.2037037037 383.4896 L 252.32407407407 393.6608 L 254.44444444444 399.866133333333 L 256.56481481481 402.9584 L 258.68518518519 401.932266666667 L 260.80555555556 404.109333333333 L 262.92592592593 401.5232 L 265.0462962963 401.1904 L 267.16666666667 396.538133333333 L 269.28703703704 396.9264 L 271.40740740741 386.498666666667 L 273.52777777778 378.3728 L 275.64814814815 380.9312 L 277.76851851852 379.752533333333 L 279.88888888889 380.5152 L 282.00925925926 378.878933333333 L 284.12962962963 375.8352 L 286.25 373.997866666667 L 288.37037037037 370.669866666667 L 290.49074074074 365.178666666667 L 292.61111111111 372.846933333333 L 294.73148148148 361.476266666667 L 296.85185185185 356.8864 L 298.97222222222 363.23040000000003 L 301.09259259259 373.727466666667 L 303.21296296296 375.4192 L 305.33333333333 372.84000000000003 L 307.4537037037 392.759466666667 L 309.57407407407 393.834133333333 L 311.69444444444 396.233066666667 L 313.81481481481 397.84159999999997 L 315.93518518519 397.980266666667 L 318.05555555556 400.5456 L 320.17592592593 397.592 L 322.2962962963 393.522133333333 L 324.41666666667 390.4784 L 326.53703703704 395.498133333333 L 328.65740740741 392.6208 L 330.77777777778 389.119466666667 L 332.89814814815 394.270933333333 L 335.01851851852 395.401066666667 L 337.13888888889 393.029866666667 L 339.25925925926 385.638933333333 L 341.37962962963 384.460266666667 L 343.5 387.809066666667 L 345.62037037037 386.997866666667 L 347.74074074074 383.191466666667 L 349.86111111111 382.9904 L 351.98148148148 378.421333333333 L 354.10185185185 373.658133333333 L 356.22222222222 379.489066666667 L 358.34259259259 378.053866666667 L 360.46296296296 371.585066666667 L 362.58333333333 375.862933333333 L 364.7037037037 375.550933333333 L 366.82407407407 376.278933333333 L 368.94444444444 379.7872 L 371.06481481481 368.811733333333 L 373.18518518519 369.893333333333 L 375.30555555556 369.692266666667 L 377.42592592593 374.344533333333 L 379.5462962963 378.345066666667 L 381.66666666667 377 L 383.78703703704 374.829866666667 L 385.90740740741 373.36 L 388.02777777778 375.8768 L 390.14814814815 378.573866666667 L 392.26851851852 377.47146666666697 L 394.38888888889 378.0816 L 396.50925925926 375.155733333333 L 398.62962962963 372.96479999999997 L 400.75 370.004266666667 L 402.87037037037 369.089066666667 L 404.99074074074 371.273066666667 L 407.11111111111 370.974933333333 L 409.23148148148 369.317866666667 L 411.35185185185 369.026666666667 L 413.47222222222 371.6752 L 415.59259259259 370.8432 L 417.71296296296 370.919466666667 L 419.83333333333 370.0528 L 421.9537037037 370.8016 L 424.07407407407 368.9712 L 426.19444444444 367.466666666667 L 428.31481481481 366.364266666667 L 430.43518518519 368.2224 L 432.55555555556 373.623466666667 L 434.67592592593 377.069333333333 L 436.7962962963 380.4528 L 438.91666666667 383.919466666667 L 441.03703703704 385.396266666667 L 443.15740740741 388.544 L 445.27777777778 387.219733333333 L 447.39814814815 380.570666666667 L 449.51851851852 377.318933333333 L 451.63888888889 378.511466666667 L 453.75925925926 375.599466666667 L 455.87962962963 381.465066666667 L 458 384.203733333333 L 460.12037037037 381.312533333333 L 462.24074074074 384.182933333333 L 464.36111111111 386.9216 L 466.48148148148 386.956266666667 L 468.60185185185 386.789866666667 L 470.72222222222 386.637333333333 L 472.84259259259 387.656533333333 L 474.96296296296 387.088 L 477.08333333333 388.648 L 479.2037037037 389.202666666667 L 481.32407407407 393.029866666667 L 483.44444444444 394.790933333333 L 485.56481481481 395.6576 L 487.68518518519 396.57280000000003 L 489.80555555556 396.16373333333297 L 491.92592592593 393.605333333333 L 494.0462962963 391.9344 L 496.16666666667 390.610133333333 L 498.28703703704 393.778666666667 L 500.40740740741 387.573333333333 L 502.52777777778 380.695466666667 L 504.64814814815 381.68 L 506.76851851852 378.816533333333 L 508.88888888889 377.734933333333 L 511.00925925926 385.84 L 513.12962962963 388.509333333333 L 515.25 389.5424 L 517.37037037037 390.277333333333 L 519.49074074074 390.901333333333 L 521.61111111111 388.613333333333 L 523.73148148148 384.8624 L 525.85185185185 383.191466666667 L 527.97222222222 381.069866666667 L 530.09259259259 376.688 L 532.21296296296 376.8752 L 534.33333333333 382.061333333333 L 536.4537037037 383.642133333333 L 538.57407407407 383.16373333333297 L 540.69444444444 379.190933333333 L 542.81481481481 376.091733333333 L 544.93518518519 377.700266666667 L 547.05555555556 375.405333333333 L 549.17592592593 368.998933333333 L 551.2962962963 363.9584 L 553.41666666667 368.728533333333 L 555.53703703704 369.172266666667 L 557.65740740741 373.658133333333 L 559.77777777778 380.279466666667 L 561.89814814815 385.417066666667 L 564.01851851852 392.003733333333 L 566.13888888889 392.6624 L 568.25925925926 396.8848 L 570.37962962963 398.216 L 572.5 395.3664 L 574.62037037037 393.0992 L 576.74074074074 386.061866666667 L 578.86111111111 386.436266666667 L 580.98148148148 386.353066666667 L 583.10185185185 394.458133333333 L 585.22222222222 399.2352 L 587.34259259259 400.954666666667 L 589.46296296296 404.677866666667 L 591.58333333333 406.3834666666667 L 593.7037037037 409.3232 L 595.82407407407 404.754133333333 L 597.94444444444 405.156266666667 L 600.06481481481 395.928 L 602.18518518519 390.346666666667 L 604.30555555556 387.22666666666703 L 606.42592592593 385.722133333333 L 608.5462962963 376.896 L 610.66666666667 379.149333333333 L 612.78703703704 388.412266666667 L 614.90740740741 383.552 L 617.02777777778 374.2336 L 619.14814814815 373.928533333333 L 621.26851851852 356.463466666667 L 623.38888888889 344.066666666667 L 625.50925925926 327.4544 L 627.62962962963 241.84853333333 L 629.75 300.92053333333 L 631.87037037037 250.77173333333 L 633.99074074074 297.6896 L 636.11111111111 275.19786666667 L 638.23148148148 251.1392 L 640.35185185185 208.47146666667 L 642.47222222222 302.5152 L 644.59259259259 288.62773333333 L 646.71296296296 243.84533333333 L 648.83333333333 172.00213333333 L 650.9537037037 97.82933333333 L 653.07407407407 171.3296 L 655.19444444444 207.48693333333 L 657.31481481481 159.70933333333 L 659.43518518519 287.00533333333 L 661.55555555556 315.11306666666997 L 663.67592592593 335.892266666667 L 665.7962962963 334.165866666667 L 667.91666666667 354.6192 L 670.03703703704 371.952533333333 L 672.15740740741 352.754133333333 L 674.27777777778 366.946666666667 L 676.39814814815 354.813333333333" class="highcharts-graph" data-z-index="1" stroke="#2962FF" stroke-width="2" stroke-linejoin="round" stroke-linecap="round"></path></g><g class="highcharts-markers highcharts-series-0 highcharts-area-series" data-z-index="90" opacity="1" transform="translate(0,40) scale(1 1)" clip-path="none"></g></g><text x="740" text-anchor="end" class="highcharts-title" data-z-index="4" style="color: rgb(211, 211, 211); font-size: 15px; fill: rgb(211, 211, 211);" y="512"></text><text x="14" text-anchor="start" class="highcharts-subtitle" data-z-index="4" style="color: rgb(51, 51, 51); fill: rgb(51, 51, 51); font-size: 15px;" y="25"><tspan style="color: rgb(211, 211, 211); fill: rgb(211, 211, 211);">Natural Gas UK GBP</tspan></text><text x="0" text-anchor="start" class="highcharts-caption" data-z-index="4" style="color: rgb(102, 102, 102); fill: rgb(102, 102, 102);" y="527"></text><g class="highcharts-axis-labels highcharts-xaxis-labels" data-z-index="7"><text x="101.7115162037" text-anchor="middle" transform="translate(0,0)" style="color: rgb(227, 225, 225); cursor: default; font-size: 15px; font-weight: 400; fill: rgb(227, 225, 225);" y="476" opacity="1">2001</text><text x="216.27777777778" text-anchor="middle" transform="translate(0,0)" style="color: rgb(227, 225, 225); cursor: default; font-size: 15px; font-weight: 400; fill: rgb(227, 225, 225);" y="476" opacity="1">2005</text><text x="330.59068627451" text-anchor="middle" transform="translate(0,0)" style="color: rgb(227, 225, 225); cursor: default; font-size: 15px; font-weight: 400; fill: rgb(227, 225, 225);" y="476" opacity="1">2010</text><text x="445.27777777778" text-anchor="middle" transform="translate(0,0)" style="color: rgb(227, 225, 225); cursor: default; font-size: 15px; font-weight: 400; fill: rgb(227, 225, 225);" y="476" opacity="1">2014</text><text x="559.70709876543" text-anchor="middle" transform="translate(0,0)" style="color: rgb(227, 225, 225); cursor: default; font-size: 15px; font-weight: 400; fill: rgb(227, 225, 225);" y="476" opacity="1">2019</text><text x="674.14525462963" text-anchor="middle" transform="translate(0,0)" style="color: rgb(227, 225, 225); cursor: default; font-size: 15px; font-weight: 400; fill: rgb(227, 225, 225);" y="476" opacity="1">2023</text></g><g class="highcharts-axis-labels highcharts-yaxis-labels" data-z-index="7"><text x="0" text-anchor="start" transform="translate(0,0)" style="color: rgb(227, 225, 225); cursor: default; font-size: 15px; fill: rgb(227, 225, 225);" visibility="hidden"><tspan>0</tspan></text><text x="695" text-anchor="start" transform="translate(0,0)" style="color: rgb(227, 225, 225); cursor: default; font-size: 15px; fill: rgb(227, 225, 225);" y="391" opacity="1">100</text><text x="695" text-anchor="start" transform="translate(0,0)" style="color: rgb(227, 225, 225); cursor: default; font-size: 15px; fill: rgb(227, 225, 225);" y="322" opacity="1">200</text><text x="695" text-anchor="start" transform="translate(0,0)" style="color: rgb(227, 225, 225); cursor: default; font-size: 15px; fill: rgb(227, 225, 225);" y="253" opacity="1">300</text><text x="695" text-anchor="start" transform="translate(0,0)" style="color: rgb(227, 225, 225); cursor: default; font-size: 15px; fill: rgb(227, 225, 225);" y="183" opacity="1">400</text><text x="695" text-anchor="start" transform="translate(0,0)" style="color: rgb(227, 225, 225); cursor: default; font-size: 15px; fill: rgb(227, 225, 225);" y="114" opacity="1">500</text><text x="0" text-anchor="start" transform="translate(0,0)" style="color: rgb(227, 225, 225); cursor: default; font-size: 15px; fill: rgb(227, 225, 225);" visibility="hidden">600</text></g><g class="highcharts-axis-labels highcharts-yaxis-labels" data-z-index="7"></g><g class="highcharts-axis-labels highcharts-yaxis-labels" data-z-index="7"></g><g class="highcharts-control-points" data-z-index="99" clip-path="url(#highcharts-bf5erwh-2858-)"></g><g class="highcharts-axis highcharts-yaxis" data-z-index="9999"><path fill="none" class="highcharts-tick" stroke="#333333" stroke-width="1" d="M 688 456.5 L 693 456.5" opacity="1"></path><path fill="none" class="highcharts-tick" stroke="#333333" stroke-width="1" d="M 688 387.5 L 693 387.5" opacity="1"></path><path fill="none" class="highcharts-tick" stroke="#333333" stroke-width="1" d="M 688 317.5 L 693 317.5" opacity="1"></path><path fill="none" class="highcharts-tick" stroke="#333333" stroke-width="1" d="M 688 248.5 L 693 248.5" opacity="1"></path><path fill="none" class="highcharts-tick" stroke="#333333" stroke-width="1" d="M 688 179.5 L 693 179.5" opacity="1"></path><path fill="none" class="highcharts-tick" stroke="#333333" stroke-width="1" d="M 688 109.5 L 693 109.5" opacity="1"></path><path fill="none" class="highcharts-tick" stroke="#333333" stroke-width="1" d="M 688 39.5 L 693 39.5" opacity="1"></path><path fill="none" class="highcharts-axis-line" stroke="#616161" stroke-width="1" data-z-index="7" d="M 688.5 40 L 688.5 456"></path></g><path fill="none" d="M 0 0 L 1792 0" stroke="#757575" stroke-width="1" stroke-dasharray="8,3" data-z-index="6" visibility="hidden" class="crosshair-fix-horizontal"></path><path fill="none" d="M 0 40 L 0 1160" stroke="#757575" stroke-width="1" stroke-dasharray="8,3" data-z-index="6" visibility="hidden" class="crosshair-fix-vertical"></path></svg>