<?xml version="1.0" standalone="no"?><!DOCTYPE svg PUBLIC "-//W3C//DTD SVG 1.1//EN" "http://www.w3.org/Graphics/SVG/1.1/DTD/svg11.dtd"><svg xmlns:xlink="http://www.w3.org/1999/xlink" version="1.1" class="highcharts-root" style="font-family: &quot;Helvetica Neue&quot;, Helvetica, Arial, sans-serif; font-size: 12px;" xmlns="http://www.w3.org/2000/svg" width="750" height="520" viewBox="0 0 750 520"><desc>Created with Highcharts 10.1.0</desc><defs><linearGradient x1="0" y1="0" x2="500" y2="500" gradientUnits="userSpaceOnUse" id="highcharts-rpmgxpq-2546"><stop offset="0" stop-color="rgb(35, 35, 35)" stop-opacity="1"></stop></linearGradient><clipPath id="highcharts-rpmgxpq-2547-"><rect x="0" y="0" width="687" height="416" fill="none"></rect></clipPath><clipPath id="highcharts-rpmgxpq-3034-"><rect x="0" y="0" width="687" height="416" fill="none"></rect></clipPath><linearGradient x1="0" y1="0" x2="0" y2="1" id="highcharts-rpmgxpq-3035"><stop offset="0" stop-color="#2962FF" stop-opacity="1"></stop><stop offset="1" stop-color="rgb(41,98,255)" stop-opacity="0"></stop></linearGradient><linearGradient x1="0" y1="0" x2="0" y2="1" id="highcharts-rpmgxpq-3527"><stop offset="0" stop-color="#459a63" stop-opacity="1"></stop><stop offset="1" stop-color="rgb(69,154,99)" stop-opacity="0"></stop></linearGradient><clipPath id="highcharts-rpmgxpq-3528-"><rect x="0" y="40" width="687" height="416" fill="none"></rect></clipPath></defs><rect fill="url(#highcharts-rpmgxpq-2546)" class="highcharts-background" x="0" y="0" width="750" height="520" rx="0" ry="0"></rect><rect fill="none" class="highcharts-plot-background" x="0" y="40" width="687" height="416"></rect><g class="highcharts-grid highcharts-xaxis-grid" data-z-index="1"><path fill="none" stroke="#333333" stroke-width="1" stroke-dasharray="none" data-z-index="1" class="highcharts-grid-line" d="M 80.5 40 L 80.5 456" opacity="1"></path><path fill="none" stroke="#333333" stroke-width="1" stroke-dasharray="none" data-z-index="1" class="highcharts-grid-line" d="M 198.5 40 L 198.5 456" opacity="1"></path><path fill="none" stroke="#333333" stroke-width="1" stroke-dasharray="none" data-z-index="1" class="highcharts-grid-line" d="M 316.5 40 L 316.5 456" opacity="1"></path><path fill="none" stroke="#333333" stroke-width="1" stroke-dasharray="none" data-z-index="1" class="highcharts-grid-line" d="M 434.5 40 L 434.5 456" opacity="1"></path><path fill="none" stroke="#333333" stroke-width="1" stroke-dasharray="none" data-z-index="1" class="highcharts-grid-line" d="M 551.5 40 L 551.5 456" opacity="1"></path><path fill="none" stroke="#333333" stroke-width="1" stroke-dasharray="none" data-z-index="1" class="highcharts-grid-line" d="M 669.5 40 L 669.5 456" opacity="1"></path></g><g class="highcharts-grid highcharts-yaxis-grid" data-z-index="1"><path fill="none" stroke="#333333" stroke-width="1" stroke-dasharray="none" data-z-index="1" class="highcharts-grid-line" d="M 0 456.5 L 687 456.5" opacity="1"></path><path fill="none" stroke="#333333" stroke-width="1" stroke-dasharray="none" data-z-index="1" class="highcharts-grid-line" d="M 0 404.5 L 687 404.5" opacity="1"></path><path fill="none" stroke="#333333" stroke-width="1" stroke-dasharray="none" data-z-index="1" class="highcharts-grid-line" d="M 0 352.5 L 687 352.5" opacity="1"></path><path fill="none" stroke="#333333" stroke-width="1" stroke-dasharray="none" data-z-index="1" class="highcharts-grid-line" d="M 0 300.5 L 687 300.5" opacity="1"></path><path fill="none" stroke="#333333" stroke-width="1" stroke-dasharray="none" data-z-index="1" class="highcharts-grid-line" d="M 0 248.5 L 687 248.5" opacity="1"></path><path fill="none" stroke="#333333" stroke-width="1" stroke-dasharray="none" data-z-index="1" class="highcharts-grid-line" d="M 0 196.5 L 687 196.5" opacity="1"></path><path fill="none" stroke="#333333" stroke-width="1" stroke-dasharray="none" data-z-index="1" class="highcharts-grid-line" d="M 0 144.5 L 687 144.5" opacity="1"></path><path fill="none" stroke="#333333" stroke-width="1" stroke-dasharray="none" data-z-index="1" class="highcharts-grid-line" d="M 0 92.5 L 687 92.5" opacity="1"></path><path fill="none" stroke="#333333" stroke-width="1" stroke-dasharray="none" data-z-index="1" class="highcharts-grid-line" d="M 0 39.5 L 687 39.5" opacity="1"></path></g><g class="highcharts-grid highcharts-yaxis-grid" data-z-index="1"></g><g class="highcharts-grid highcharts-yaxis-grid" data-z-index="1"></g><rect fill="none" class="highcharts-plot-border" data-z-index="1" x="0" y="40" width="687" height="416"></rect><g class="highcharts-axis highcharts-xaxis" data-z-index="2"><path fill="none" class="highcharts-axis-line" stroke="#616161" stroke-width="1" data-z-index="7" d="M 0 456.5 L 687 456.5"></path></g><g class="highcharts-axis highcharts-yaxis" data-z-index="2"><path fill="none" class="highcharts-axis-line" data-z-index="7" d="M 720 40 L 720 456"></path></g><g class="highcharts-axis highcharts-yaxis" data-z-index="2"><path fill="none" class="highcharts-axis-line" stroke="#616161" stroke-width="1" data-z-index="7" d="M -1.5 40 L -1.5 456"></path></g><g class="highcharts-series-group" data-z-index="3"><g class="highcharts-series highcharts-series-0 highcharts-area-series" data-z-index="90" opacity="1" transform="translate(0,40) scale(1 1)" clip-path="url(#highcharts-rpmgxpq-3034-)"><path fill="url(#highcharts-rpmgxpq-3035)" d="M 0 339.898 L 1.4020408163265 336.36199999999997 L 2.8040816326531 337.35 L 4.2061224489796 334.41200000000003 L 5.6081632653061 332.8 L 7.0102040816327 333.866 L 8.4122448979592 337.06399999999996 L 9.8142857142857 337.038 L 11.216326530612 340.002 L 12.618367346939 339.04 L 14.020408163265 338.052 L 15.422448979592 336.57 L 16.824489795918 335.79 L 18.226530612245 337.324 L 19.628571428571 335.842 L 21.030612244898 338.65 L 22.432653061224 344.24 L 23.834693877551 340.002 L 25.236734693878 338.884 L 26.638775510204 342.004 L 28.040816326531 344.994 L 29.442857142857 347.334 L 30.844897959184 347.334 L 32.24693877551 346.502 L 33.648979591837 342.446 L 35.051020408163 344.16200000000003 L 36.45306122449 343.616 L 37.855102040816 346.13800000000003 L 39.257142857143 345.488 L 40.659183673469 342.992 L 42.061224489796 340.392 L 43.463265306122 337.012 L 44.865306122449 338.65 L 46.267346938776 347.62 L 47.669387755102 367.04200000000003 L 49.071428571429 381.524 L 50.473469387755 388.908 L 51.875510204082 381.31600000000003 L 53.277551020408 378.82 L 54.679591836735 382.772 L 56.081632653061 387.01 L 57.483673469388 374.65999999999997 L 58.885714285714 377.598 L 60.287755102041 376.298 L 61.689795918367 377 L 63.091836734694 369.356 L 64.49387755102 367.25 L 65.895918367347 372.84000000000003 L 67.297959183673 367.04200000000003 L 68.7 367.302 L 70.102040816327 365.612 L 71.504081632653 363.246 L 72.90612244898 360.438 L 74.308163265306 364.702 L 75.710204081633 365.06600000000003 L 77.112244897959 364.104 L 78.514285714286 367.874 L 79.916326530612 372.58 L 81.318367346939 371.956 L 82.720408163265 374.374 L 84.122448979592 371.592 L 85.524489795918 369.226 L 86.926530612245 370.474 L 88.328571428571 376.584 L 89.730612244898 373.594 L 91.132653061224 376.532 L 92.534693877551 381.238 L 93.936734693878 380.692 L 95.338775510204 376.168 L 96.740816326531 371.176 L 98.142857142857 371.722 L 99.544897959184 368.81 L 100.94693877551 363.506 L 102.34897959184 362.908 L 103.75102040816 364.26 L 105.15306122449 363.298 L 106.55510204082 368.394 L 107.95714285714 367.04200000000003 L 109.35918367347 363.662 L 110.7612244898 364.156 L 112.16326530612 364.286 L 113.56530612245 359.26800000000003 L 114.96734693878 357.032 L 116.3693877551 359.996 L 117.77142857143 363.272 L 119.17346938776 367.796 L 120.57551020408 370.76 L 121.97755102041 371.618 L 123.37959183673 362.206 L 124.78163265306 344.968 L 126.18367346939 313.274 L 127.58571428571 324.402 L 128.98775510204 340.99 L 130.38979591837 342.056 L 131.79183673469 359.996 L 133.19387755102 366.18399999999997 L 134.59591836735 364.962 L 135.99795918367 361.504 L 137.4 361.062 L 138.80204081633 362.544 L 140.20408163265 359.632 L 141.60612244898 358.124 L 143.00816326531 358.202 L 144.41020408163 355.238 L 145.81224489796 360.152 L 147.21428571429 366.288 L 148.61632653061 366.86 L 150.01836734694 367.432 L 151.42040816327 365.456 L 152.82244897959 361.79 L 154.22448979592 358.514 L 155.62653061224 359.84000000000003 L 157.02857142857 359.138 L 158.4306122449 360.152 L 159.83265306122 359.554 L 161.23469387755 362.388 L 162.63673469388 364.286 L 164.0387755102 365.3 L 165.44081632653 363.324 L 166.84285714286 362.44 L 168.24489795918 362.856 L 169.64693877551 362.622 L 171.04897959184 363.948 L 172.45102040816 366.99 L 173.85306122449 369.512 L 175.25510204082 368.446 L 176.65714285714 367.146 L 178.05918367347 372.008 L 179.4612244898 375.882 L 180.86326530612 379.158 L 182.26530612245 376.506 L 183.66734693878 378.352 L 185.0693877551 377.546 L 186.47142857143 372.06 L 187.87346938776 368.394 L 189.27551020408 365.638 L 190.67755102041 364.598 L 192.07959183673 370.344 L 193.48163265306 368.186 L 194.88367346939 368.706 L 196.28571428571 369.07 L 197.68775510204 369.824 L 199.08979591837 368.186 L 200.49183673469 367.926 L 201.89387755102 366.158 L 203.29591836735 363.012 L 204.69795918367 366.886 L 206.1 370.76 L 207.50204081633 370.344 L 208.90408163265 369.616 L 210.30612244898 370.396 L 211.70816326531 370.136 L 213.11020408163 368.73199999999997 L 214.51224489796 365.17 L 215.91428571429 369.876 L 217.31632653061 365.196 L 218.71836734694 360.178 L 220.12040816327 360.88 L 221.52244897959 364.624 L 222.92448979592 361.608 L 224.32653061224 362.908 L 225.72857142857 358.15 L 227.1306122449 352.612 L 228.53265306122 355.29 L 229.93469387755 354.25 L 231.33673469388 348.608 L 232.7387755102 353.21 L 234.14081632653 363.22 L 235.54285714286 362.93399999999997 L 236.94489795918 363.454 L 238.34693877551 361.712 L 239.74897959184 364.52 L 241.15102040816 363.636 L 242.55306122449 365.014 L 243.95510204082 360.932 L 245.35714285714 361.192 L 246.75918367347 366.21 L 248.1612244898 370.136 L 249.56326530612 371.254 L 250.96530612245 375.856 L 252.36734693878 375.414 L 253.7693877551 375.986 L 255.17142857143 376.48 L 256.57346938776 379.132 L 257.97551020408 379.054 L 259.37755102041 381.31600000000003 L 260.77959183673 374.036 L 262.18163265306 378.508 L 263.58367346939 386.828 L 264.98571428571 384.67 L 266.38775510204 382.85 L 267.78979591837 384.098 L 269.19183673469 372.424 L 270.59387755102 367.484 L 271.99591836735 372.216 L 273.39795918367 365.846 L 274.8 362.622 L 276.20204081633 358.514 L 277.60408163265 352.274 L 279.00612244898 359.45 L 280.40816326531 352.06600000000003 L 281.81020408163 349.44 L 283.21224489796 344.13599999999997 L 284.61428571429 336.882 L 286.01632653061 346.06 L 287.41836734694 349.076 L 288.82040816327 340.574 L 290.22244897959 331.5 L 291.62448979592 344.682 L 293.02653061224 329.88800000000003 L 294.42857142857 335.81600000000003 L 295.8306122449 330.98 L 297.23265306122 328.068 L 298.63469387755 346.32 L 300.03673469388 341.484 L 301.4387755102 344.786 L 302.84081632653 347.646 L 304.24285714286 342.004 L 305.64489795918 342.238 L 307.04693877551 347.75 L 308.44897959184 347.49 L 309.85102040816 345.28 L 311.25306122449 355.082 L 312.65510204082 360.932 L 314.05714285714 365.456 L 315.45918367347 364.416 L 316.8612244898 365.352 L 318.26326530612 359.476 L 319.66530612245 347.594 L 321.06734693878 345.046 L 322.4693877551 350.194 L 323.87142857143 346.164 L 325.27346938776 345.748 L 326.67551020408 340.652 L 328.07755102041 336.83 L 329.47959183673 345.228 L 330.88163265306 346.086 L 332.28367346939 334.88 L 333.68571428571 328.874 L 335.08775510204 320.84000000000003 L 336.48979591837 335.296 L 337.89183673469 348.92 L 339.29387755102 339.144 L 340.69591836735 337.506 L 342.09795918367 336.596 L 343.5 333.918 L 344.90204081633 340.08 L 346.30408163265 340.31399999999996 L 347.70612244898 336.93399999999997 L 349.10816326531 331.448 L 350.51020408163 330.07 L 351.91224489796 321.984 L 353.31428571429 323.024 L 354.71632653061 318.812 L 356.11836734694 312.312 L 357.52040816327 319.67 L 358.92244897959 302.12 L 360.32448979592 306.488 L 361.72653061224 286.93600000000004 L 363.12857142857 281.424 L 364.5306122449 288.262 L 365.93265306122 303.03 L 367.33469387755 290.68 L 368.73673469388 281.45 L 370.1387755102 271.96000000000004 L 371.54081632653 286.728 L 372.94285714286 280.878 L 374.34489795918 269.1 L 375.74693877551 258.51800000000003 L 377.14897959184 236.756 L 378.55102040816 243.776 L 379.95306122449 260.624 L 381.35510204082 266.96799999999996 L 382.75714285714 257.296 L 384.15918367347 239.408 L 385.5612244898 256.334 L 386.96326530612 242.762 L 388.36530612245 229.112 L 389.76734693878 230.646 L 391.1693877551 223.782 L 392.57142857143 222.56 L 393.97346938776 233.324 L 395.37551020408 252.434 L 396.77755102041 263.302 L 398.17959183673 251.862 L 399.58163265306 257.27 L 400.98367346939 264.836 L 402.38571428571 255.346 L 403.78775510204 244.738 L 405.18979591837 245.154 L 406.59183673469 249.574 L 407.99387755102 232.232 L 409.39591836735 212.654 L 410.79795918367 223.496 L 412.2 203.684 L 413.60204081633 170.222 L 415.00408163265 185.354 L 416.40612244898 166.452 L 417.80816326531 177.45 L 419.21020408163 151.216 L 420.61224489796 151.892 L 422.01428571429 121.00400000000002 L 423.41632653061 84.88999999999999 L 424.81836734694 52 L 426.22040816327 93.392 L 427.62244897959 115.80399999999997 L 429.02448979592 154.336 L 430.42653061224 239.694 L 431.82857142857 274.48199999999997 L 433.2306122449 300.04 L 434.63265306122 307.632 L 436.03469387755 299.624 L 437.43673469388 286.884 L 438.8387755102 283.08799999999997 L 440.24081632653 243.594 L 441.64285714286 234.286 L 443.04489795918 235.43 L 444.44693877551 234.104 L 445.84897959184 232.414 L 447.25102040816 215.8 L 448.65306122449 215.072 L 450.05510204082 209.664 L 451.45714285714 226.486 L 452.85918367347 208.884 L 454.2612244898 198.224 L 455.66326530612 192.01 L 457.06530612245 223.678 L 458.46734693878 219.362 L 459.8693877551 210.73 L 461.27142857143 229.008 L 462.67346938776 208.078 L 464.07551020408 204.282 L 465.47755102041 197.314 L 466.87959183673 178.412 L 468.28163265306 176.306 L 469.68367346939 163.878 L 471.08571428571 138.52800000000002 L 472.48775510204 119.78199999999998 L 473.88979591837 148.98000000000002 L 475.29183673469 167.908 L 476.69387755102 167.18 L 478.09591836735 185.094 L 479.49795918367 210.08 L 480.9 173.706 L 482.30204081633 155.06400000000002 L 483.70408163265 159.04199999999997 L 485.10612244898 159.952 L 486.50816326531 137.618 L 487.91020408163 148.14800000000002 L 489.31224489796 143.33800000000002 L 490.71428571429 191.022 L 492.11632653061 195.104 L 493.51836734694 187.044 L 494.92040816327 165.178 L 496.32244897959 176.306 L 497.72448979592 191.776 L 499.12653061224 184.834 L 500.52857142857 177.268 L 501.9306122449 162.526 L 503.33265306122 176.67 L 504.73469387755 163.202 L 506.13673469388 173.004 L 507.5387755102 176.878 L 508.94081632653 164.944 L 510.34285714286 142.92200000000003 L 511.74489795918 136.11 L 513.14693877551 149.942 L 514.54897959184 165.412 L 515.95102040816 174.928 L 517.35306122449 160.108 L 518.75510204082 162.526 L 520.15714285714 149.26600000000002 L 521.55918367347 151.892 L 522.9612244898 156.676 L 524.36326530612 148.954 L 525.76530612245 142.038 L 527.16734693878 160.758 L 528.5693877551 166.504 L 529.97142857143 178.984 L 531.37346938776 206.596 L 532.77551020408 244.01 L 534.17755102041 277.498 L 535.57959183673 290.576 L 536.98163265306 286.624 L 538.38367346939 292.24 L 539.78571428571 260.962 L 541.18775510204 259.22 L 542.58979591837 261.378 L 543.99183673469 293.488 L 545.39387755102 288.08 L 546.79591836735 298.766 L 548.19795918367 294.866 L 549.6 307.71 L 551.00204081633 319.696 L 552.40408163265 328.58799999999997 L 553.80612244898 328.25 L 555.20816326531 316.31600000000003 L 556.61020408163 296.608 L 558.01224489796 288.34000000000003 L 559.41428571429 290.342 L 560.81632653061 307.84000000000003 L 562.21836734694 299.78 L 563.62040816327 290.576 L 565.02244897959 294.164 L 566.42448979592 287.456 L 567.82653061224 276.328 L 569.22857142857 278.69399999999996 L 570.6306122449 275.574 L 572.03265306122 284.44 L 573.43469387755 288.054 L 574.83673469388 290.368 L 576.2387755102 296.296 L 577.64081632653 285.558 L 579.04285714286 293.202 L 580.44489795918 281.658 L 581.84693877551 274.61199999999997 L 583.24897959184 266.76 L 584.65102040816 258.908 L 586.05306122449 247.702 L 587.45510204082 255.736 L 588.85714285714 247.156 L 590.25918367347 237.718 L 591.6612244898 241.696 L 593.06326530612 223.21 L 594.46530612245 237.224 L 595.86734693878 234.00598 L 597.2693877551 224.64208 L 598.67142857143 246.194 L 600.07346938776 283.582 L 601.47551020408 297.93399999999997 L 602.87755102041 276.14599999999996 L 604.27959183673 267.228 L 605.68163265306 259.63599999999997 L 607.08367346939 249.834 L 608.48571428571 276.9 L 609.88775510204 261.40373999999997 L 611.28979591837 263.692 L 612.69183673469 272.74 L 614.09387755102 275.418 L 615.49591836735 275.132 L 616.89795918367 271.73328000000004 L 618.3 258.03544 L 619.70204081633 281.94399999999996 L 621.10408163265 299.624 L 622.50612244898 362.752 L 623.90816326531 367.016 L 625.31020408163 323.726 L 626.71224489796 313.898 L 628.11428571429 311.298 L 629.51632653061 305.214 L 630.91836734694 311.428 L 632.32040816327 322.946 L 633.72244897959 298.116 L 635.12448979592 289.848 L 636.52653061224 280.28 L 637.92857142857 256.1 L 639.3306122449 262.18399999999997 L 640.73265306122 250.692 L 642.13469387755 241.982 L 643.53673469388 224.978 L 644.9387755102 223.73 L 646.34081632653 237.9 L 647.74285714286 220.922 L 649.14489795918 203.372 L 650.54693877551 244.79 L 651.94897959184 221.312 L 653.35102040816 191.126 L 654.75306122449 172.9 L 656.15510204082 159.848 L 657.55714285714 148.356 L 658.95918367347 125.03399999999999 L 660.3612244898 147.94 L 661.76326530612 164.45 L 663.16530612245 184.522 L 664.56734693878 211.328 L 665.9693877551 193.96 L 667.37142857143 206.284 L 668.77346938776 206.83 L 670.17551020408 210.158 L 671.57755102041 215.306 L 672.97959183673 218.92 L 674.38163265306 216.372 L 675.78367346939 238.576 L 677.18571428571 231.972 L 678.58775510204 204.568 L 679.98979591837 198.47022 L 679.98979591837 416 L 678.58775510204 416 L 677.18571428571 416 L 675.78367346939 416 L 674.38163265306 416 L 672.97959183673 416 L 671.57755102041 416 L 670.17551020408 416 L 668.77346938776 416 L 667.37142857143 416 L 665.9693877551 416 L 664.56734693878 416 L 663.16530612245 416 L 661.76326530612 416 L 660.3612244898 416 L 658.95918367347 416 L 657.55714285714 416 L 656.15510204082 416 L 654.75306122449 416 L 653.35102040816 416 L 651.94897959184 416 L 650.54693877551 416 L 649.14489795918 416 L 647.74285714286 416 L 646.34081632653 416 L 644.9387755102 416 L 643.53673469388 416 L 642.13469387755 416 L 640.73265306122 416 L 639.3306122449 416 L 637.92857142857 416 L 636.52653061224 416 L 635.12448979592 416 L 633.72244897959 416 L 632.32040816327 416 L 630.91836734694 416 L 629.51632653061 416 L 628.11428571429 416 L 626.71224489796 416 L 625.31020408163 416 L 623.90816326531 416 L 622.50612244898 416 L 621.10408163265 416 L 619.70204081633 416 L 618.3 416 L 616.89795918367 416 L 615.49591836735 416 L 614.09387755102 416 L 612.69183673469 416 L 611.28979591837 416 L 609.88775510204 416 L 608.48571428571 416 L 607.08367346939 416 L 605.68163265306 416 L 604.27959183673 416 L 602.87755102041 416 L 601.47551020408 416 L 600.07346938776 416 L 598.67142857143 416 L 597.2693877551 416 L 595.86734693878 416 L 594.46530612245 416 L 593.06326530612 416 L 591.6612244898 416 L 590.25918367347 416 L 588.85714285714 416 L 587.45510204082 416 L 586.05306122449 416 L 584.65102040816 416 L 583.24897959184 416 L 581.84693877551 416 L 580.44489795918 416 L 579.04285714286 416 L 577.64081632653 416 L 576.2387755102 416 L 574.83673469388 416 L 573.43469387755 416 L 572.03265306122 416 L 570.6306122449 416 L 569.22857142857 416 L 567.82653061224 416 L 566.42448979592 416 L 565.02244897959 416 L 563.62040816327 416 L 562.21836734694 416 L 560.81632653061 416 L 559.41428571429 416 L 558.01224489796 416 L 556.61020408163 416 L 555.20816326531 416 L 553.80612244898 416 L 552.40408163265 416 L 551.00204081633 416 L 549.6 416 L 548.19795918367 416 L 546.79591836735 416 L 545.39387755102 416 L 543.99183673469 416 L 542.58979591837 416 L 541.18775510204 416 L 539.78571428571 416 L 538.38367346939 416 L 536.98163265306 416 L 535.57959183673 416 L 534.17755102041 416 L 532.77551020408 416 L 531.37346938776 416 L 529.97142857143 416 L 528.5693877551 416 L 527.16734693878 416 L 525.76530612245 416 L 524.36326530612 416 L 522.9612244898 416 L 521.55918367347 416 L 520.15714285714 416 L 518.75510204082 416 L 517.35306122449 416 L 515.95102040816 416 L 514.54897959184 416 L 513.14693877551 416 L 511.74489795918 416 L 510.34285714286 416 L 508.94081632653 416 L 507.5387755102 416 L 506.13673469388 416 L 504.73469387755 416 L 503.33265306122 416 L 501.9306122449 416 L 500.52857142857 416 L 499.12653061224 416 L 497.72448979592 416 L 496.32244897959 416 L 494.92040816327 416 L 493.51836734694 416 L 492.11632653061 416 L 490.71428571429 416 L 489.31224489796 416 L 487.91020408163 416 L 486.50816326531 416 L 485.10612244898 416 L 483.70408163265 416 L 482.30204081633 416 L 480.9 416 L 479.49795918367 416 L 478.09591836735 416 L 476.69387755102 416 L 475.29183673469 416 L 473.88979591837 416 L 472.48775510204 416 L 471.08571428571 416 L 469.68367346939 416 L 468.28163265306 416 L 466.87959183673 416 L 465.47755102041 416 L 464.07551020408 416 L 462.67346938776 416 L 461.27142857143 416 L 459.8693877551 416 L 458.46734693878 416 L 457.06530612245 416 L 455.66326530612 416 L 454.2612244898 416 L 452.85918367347 416 L 451.45714285714 416 L 450.05510204082 416 L 448.65306122449 416 L 447.25102040816 416 L 445.84897959184 416 L 444.44693877551 416 L 443.04489795918 416 L 441.64285714286 416 L 440.24081632653 416 L 438.8387755102 416 L 437.43673469388 416 L 436.03469387755 416 L 434.63265306122 416 L 433.2306122449 416 L 431.82857142857 416 L 430.42653061224 416 L 429.02448979592 416 L 427.62244897959 416 L 426.22040816327 416 L 424.81836734694 416 L 423.41632653061 416 L 422.01428571429 416 L 420.61224489796 416 L 419.21020408163 416 L 417.80816326531 416 L 416.40612244898 416 L 415.00408163265 416 L 413.60204081633 416 L 412.2 416 L 410.79795918367 416 L 409.39591836735 416 L 407.99387755102 416 L 406.59183673469 416 L 405.18979591837 416 L 403.78775510204 416 L 402.38571428571 416 L 400.98367346939 416 L 399.58163265306 416 L 398.17959183673 416 L 396.77755102041 416 L 395.37551020408 416 L 393.97346938776 416 L 392.57142857143 416 L 391.1693877551 416 L 389.76734693878 416 L 388.36530612245 416 L 386.96326530612 416 L 385.5612244898 416 L 384.15918367347 416 L 382.75714285714 416 L 381.35510204082 416 L 379.95306122449 416 L 378.55102040816 416 L 377.14897959184 416 L 375.74693877551 416 L 374.34489795918 416 L 372.94285714286 416 L 371.54081632653 416 L 370.1387755102 416 L 368.73673469388 416 L 367.33469387755 416 L 365.93265306122 416 L 364.5306122449 416 L 363.12857142857 416 L 361.72653061224 416 L 360.32448979592 416 L 358.92244897959 416 L 357.52040816327 416 L 356.11836734694 416 L 354.71632653061 416 L 353.31428571429 416 L 351.91224489796 416 L 350.51020408163 416 L 349.10816326531 416 L 347.70612244898 416 L 346.30408163265 416 L 344.90204081633 416 L 343.5 416 L 342.09795918367 416 L 340.69591836735 416 L 339.29387755102 416 L 337.89183673469 416 L 336.48979591837 416 L 335.08775510204 416 L 333.68571428571 416 L 332.28367346939 416 L 330.88163265306 416 L 329.47959183673 416 L 328.07755102041 416 L 326.67551020408 416 L 325.27346938776 416 L 323.87142857143 416 L 322.4693877551 416 L 321.06734693878 416 L 319.66530612245 416 L 318.26326530612 416 L 316.8612244898 416 L 315.45918367347 416 L 314.05714285714 416 L 312.65510204082 416 L 311.25306122449 416 L 309.85102040816 416 L 308.44897959184 416 L 307.04693877551 416 L 305.64489795918 416 L 304.24285714286 416 L 302.84081632653 416 L 301.4387755102 416 L 300.03673469388 416 L 298.63469387755 416 L 297.23265306122 416 L 295.8306122449 416 L 294.42857142857 416 L 293.02653061224 416 L 291.62448979592 416 L 290.22244897959 416 L 288.82040816327 416 L 287.41836734694 416 L 286.01632653061 416 L 284.61428571429 416 L 283.21224489796 416 L 281.81020408163 416 L 280.40816326531 416 L 279.00612244898 416 L 277.60408163265 416 L 276.20204081633 416 L 274.8 416 L 273.39795918367 416 L 271.99591836735 416 L 270.59387755102 416 L 269.19183673469 416 L 267.78979591837 416 L 266.38775510204 416 L 264.98571428571 416 L 263.58367346939 416 L 262.18163265306 416 L 260.77959183673 416 L 259.37755102041 416 L 257.97551020408 416 L 256.57346938776 416 L 255.17142857143 416 L 253.7693877551 416 L 252.36734693878 416 L 250.96530612245 416 L 249.56326530612 416 L 248.1612244898 416 L 246.75918367347 416 L 245.35714285714 416 L 243.95510204082 416 L 242.55306122449 416 L 241.15102040816 416 L 239.74897959184 416 L 238.34693877551 416 L 236.94489795918 416 L 235.54285714286 416 L 234.14081632653 416 L 232.7387755102 416 L 231.33673469388 416 L 229.93469387755 416 L 228.53265306122 416 L 227.1306122449 416 L 225.72857142857 416 L 224.32653061224 416 L 222.92448979592 416 L 221.52244897959 416 L 220.12040816327 416 L 218.71836734694 416 L 217.31632653061 416 L 215.91428571429 416 L 214.51224489796 416 L 213.11020408163 416 L 211.70816326531 416 L 210.30612244898 416 L 208.90408163265 416 L 207.50204081633 416 L 206.1 416 L 204.69795918367 416 L 203.29591836735 416 L 201.89387755102 416 L 200.49183673469 416 L 199.08979591837 416 L 197.68775510204 416 L 196.28571428571 416 L 194.88367346939 416 L 193.48163265306 416 L 192.07959183673 416 L 190.67755102041 416 L 189.27551020408 416 L 187.87346938776 416 L 186.47142857143 416 L 185.0693877551 416 L 183.66734693878 416 L 182.26530612245 416 L 180.86326530612 416 L 179.4612244898 416 L 178.05918367347 416 L 176.65714285714 416 L 175.25510204082 416 L 173.85306122449 416 L 172.45102040816 416 L 171.04897959184 416 L 169.64693877551 416 L 168.24489795918 416 L 166.84285714286 416 L 165.44081632653 416 L 164.0387755102 416 L 162.63673469388 416 L 161.23469387755 416 L 159.83265306122 416 L 158.4306122449 416 L 157.02857142857 416 L 155.62653061224 416 L 154.22448979592 416 L 152.82244897959 416 L 151.42040816327 416 L 150.01836734694 416 L 148.61632653061 416 L 147.21428571429 416 L 145.81224489796 416 L 144.41020408163 416 L 143.00816326531 416 L 141.60612244898 416 L 140.20408163265 416 L 138.80204081633 416 L 137.4 416 L 135.99795918367 416 L 134.59591836735 416 L 133.19387755102 416 L 131.79183673469 416 L 130.38979591837 416 L 128.98775510204 416 L 127.58571428571 416 L 126.18367346939 416 L 124.78163265306 416 L 123.37959183673 416 L 121.97755102041 416 L 120.57551020408 416 L 119.17346938776 416 L 117.77142857143 416 L 116.3693877551 416 L 114.96734693878 416 L 113.56530612245 416 L 112.16326530612 416 L 110.7612244898 416 L 109.35918367347 416 L 107.95714285714 416 L 106.55510204082 416 L 105.15306122449 416 L 103.75102040816 416 L 102.34897959184 416 L 100.94693877551 416 L 99.544897959184 416 L 98.142857142857 416 L 96.740816326531 416 L 95.338775510204 416 L 93.936734693878 416 L 92.534693877551 416 L 91.132653061224 416 L 89.730612244898 416 L 88.328571428571 416 L 86.926530612245 416 L 85.524489795918 416 L 84.122448979592 416 L 82.720408163265 416 L 81.318367346939 416 L 79.916326530612 416 L 78.514285714286 416 L 77.112244897959 416 L 75.710204081633 416 L 74.308163265306 416 L 72.90612244898 416 L 71.504081632653 416 L 70.102040816327 416 L 68.7 416 L 67.297959183673 416 L 65.895918367347 416 L 64.49387755102 416 L 63.091836734694 416 L 61.689795918367 416 L 60.287755102041 416 L 58.885714285714 416 L 57.483673469388 416 L 56.081632653061 416 L 54.679591836735 416 L 53.277551020408 416 L 51.875510204082 416 L 50.473469387755 416 L 49.071428571429 416 L 47.669387755102 416 L 46.267346938776 416 L 44.865306122449 416 L 43.463265306122 416 L 42.061224489796 416 L 40.659183673469 416 L 39.257142857143 416 L 37.855102040816 416 L 36.45306122449 416 L 35.051020408163 416 L 33.648979591837 416 L 32.24693877551 416 L 30.844897959184 416 L 29.442857142857 416 L 28.040816326531 416 L 26.638775510204 416 L 25.236734693878 416 L 23.834693877551 416 L 22.432653061224 416 L 21.030612244898 416 L 19.628571428571 416 L 18.226530612245 416 L 16.824489795918 416 L 15.422448979592 416 L 14.020408163265 416 L 12.618367346939 416 L 11.216326530612 416 L 9.8142857142857 416 L 8.4122448979592 416 L 7.0102040816327 416 L 5.6081632653061 416 L 4.2061224489796 416 L 2.8040816326531 416 L 1.4020408163265 416 L 0 416 Z" class="highcharts-area" data-z-index="0"></path><path fill="none" d="M 0 339.898 L 1.4020408163265 336.36199999999997 L 2.8040816326531 337.35 L 4.2061224489796 334.41200000000003 L 5.6081632653061 332.8 L 7.0102040816327 333.866 L 8.4122448979592 337.06399999999996 L 9.8142857142857 337.038 L 11.216326530612 340.002 L 12.618367346939 339.04 L 14.020408163265 338.052 L 15.422448979592 336.57 L 16.824489795918 335.79 L 18.226530612245 337.324 L 19.628571428571 335.842 L 21.030612244898 338.65 L 22.432653061224 344.24 L 23.834693877551 340.002 L 25.236734693878 338.884 L 26.638775510204 342.004 L 28.040816326531 344.994 L 29.442857142857 347.334 L 30.844897959184 347.334 L 32.24693877551 346.502 L 33.648979591837 342.446 L 35.051020408163 344.16200000000003 L 36.45306122449 343.616 L 37.855102040816 346.13800000000003 L 39.257142857143 345.488 L 40.659183673469 342.992 L 42.061224489796 340.392 L 43.463265306122 337.012 L 44.865306122449 338.65 L 46.267346938776 347.62 L 47.669387755102 367.04200000000003 L 49.071428571429 381.524 L 50.473469387755 388.908 L 51.875510204082 381.31600000000003 L 53.277551020408 378.82 L 54.679591836735 382.772 L 56.081632653061 387.01 L 57.483673469388 374.65999999999997 L 58.885714285714 377.598 L 60.287755102041 376.298 L 61.689795918367 377 L 63.091836734694 369.356 L 64.49387755102 367.25 L 65.895918367347 372.84000000000003 L 67.297959183673 367.04200000000003 L 68.7 367.302 L 70.102040816327 365.612 L 71.504081632653 363.246 L 72.90612244898 360.438 L 74.308163265306 364.702 L 75.710204081633 365.06600000000003 L 77.112244897959 364.104 L 78.514285714286 367.874 L 79.916326530612 372.58 L 81.318367346939 371.956 L 82.720408163265 374.374 L 84.122448979592 371.592 L 85.524489795918 369.226 L 86.926530612245 370.474 L 88.328571428571 376.584 L 89.730612244898 373.594 L 91.132653061224 376.532 L 92.534693877551 381.238 L 93.936734693878 380.692 L 95.338775510204 376.168 L 96.740816326531 371.176 L 98.142857142857 371.722 L 99.544897959184 368.81 L 100.94693877551 363.506 L 102.34897959184 362.908 L 103.75102040816 364.26 L 105.15306122449 363.298 L 106.55510204082 368.394 L 107.95714285714 367.04200000000003 L 109.35918367347 363.662 L 110.7612244898 364.156 L 112.16326530612 364.286 L 113.56530612245 359.26800000000003 L 114.96734693878 357.032 L 116.3693877551 359.996 L 117.77142857143 363.272 L 119.17346938776 367.796 L 120.57551020408 370.76 L 121.97755102041 371.618 L 123.37959183673 362.206 L 124.78163265306 344.968 L 126.18367346939 313.274 L 127.58571428571 324.402 L 128.98775510204 340.99 L 130.38979591837 342.056 L 131.79183673469 359.996 L 133.19387755102 366.18399999999997 L 134.59591836735 364.962 L 135.99795918367 361.504 L 137.4 361.062 L 138.80204081633 362.544 L 140.20408163265 359.632 L 141.60612244898 358.124 L 143.00816326531 358.202 L 144.41020408163 355.238 L 145.81224489796 360.152 L 147.21428571429 366.288 L 148.61632653061 366.86 L 150.01836734694 367.432 L 151.42040816327 365.456 L 152.82244897959 361.79 L 154.22448979592 358.514 L 155.62653061224 359.84000000000003 L 157.02857142857 359.138 L 158.4306122449 360.152 L 159.83265306122 359.554 L 161.23469387755 362.388 L 162.63673469388 364.286 L 164.0387755102 365.3 L 165.44081632653 363.324 L 166.84285714286 362.44 L 168.24489795918 362.856 L 169.64693877551 362.622 L 171.04897959184 363.948 L 172.45102040816 366.99 L 173.85306122449 369.512 L 175.25510204082 368.446 L 176.65714285714 367.146 L 178.05918367347 372.008 L 179.4612244898 375.882 L 180.86326530612 379.158 L 182.26530612245 376.506 L 183.66734693878 378.352 L 185.0693877551 377.546 L 186.47142857143 372.06 L 187.87346938776 368.394 L 189.27551020408 365.638 L 190.67755102041 364.598 L 192.07959183673 370.344 L 193.48163265306 368.186 L 194.88367346939 368.706 L 196.28571428571 369.07 L 197.68775510204 369.824 L 199.08979591837 368.186 L 200.49183673469 367.926 L 201.89387755102 366.158 L 203.29591836735 363.012 L 204.69795918367 366.886 L 206.1 370.76 L 207.50204081633 370.344 L 208.90408163265 369.616 L 210.30612244898 370.396 L 211.70816326531 370.136 L 213.11020408163 368.73199999999997 L 214.51224489796 365.17 L 215.91428571429 369.876 L 217.31632653061 365.196 L 218.71836734694 360.178 L 220.12040816327 360.88 L 221.52244897959 364.624 L 222.92448979592 361.608 L 224.32653061224 362.908 L 225.72857142857 358.15 L 227.1306122449 352.612 L 228.53265306122 355.29 L 229.93469387755 354.25 L 231.33673469388 348.608 L 232.7387755102 353.21 L 234.14081632653 363.22 L 235.54285714286 362.93399999999997 L 236.94489795918 363.454 L 238.34693877551 361.712 L 239.74897959184 364.52 L 241.15102040816 363.636 L 242.55306122449 365.014 L 243.95510204082 360.932 L 245.35714285714 361.192 L 246.75918367347 366.21 L 248.1612244898 370.136 L 249.56326530612 371.254 L 250.96530612245 375.856 L 252.36734693878 375.414 L 253.7693877551 375.986 L 255.17142857143 376.48 L 256.57346938776 379.132 L 257.97551020408 379.054 L 259.37755102041 381.31600000000003 L 260.77959183673 374.036 L 262.18163265306 378.508 L 263.58367346939 386.828 L 264.98571428571 384.67 L 266.38775510204 382.85 L 267.78979591837 384.098 L 269.19183673469 372.424 L 270.59387755102 367.484 L 271.99591836735 372.216 L 273.39795918367 365.846 L 274.8 362.622 L 276.20204081633 358.514 L 277.60408163265 352.274 L 279.00612244898 359.45 L 280.40816326531 352.06600000000003 L 281.81020408163 349.44 L 283.21224489796 344.13599999999997 L 284.61428571429 336.882 L 286.01632653061 346.06 L 287.41836734694 349.076 L 288.82040816327 340.574 L 290.22244897959 331.5 L 291.62448979592 344.682 L 293.02653061224 329.88800000000003 L 294.42857142857 335.81600000000003 L 295.8306122449 330.98 L 297.23265306122 328.068 L 298.63469387755 346.32 L 300.03673469388 341.484 L 301.4387755102 344.786 L 302.84081632653 347.646 L 304.24285714286 342.004 L 305.64489795918 342.238 L 307.04693877551 347.75 L 308.44897959184 347.49 L 309.85102040816 345.28 L 311.25306122449 355.082 L 312.65510204082 360.932 L 314.05714285714 365.456 L 315.45918367347 364.416 L 316.8612244898 365.352 L 318.26326530612 359.476 L 319.66530612245 347.594 L 321.06734693878 345.046 L 322.4693877551 350.194 L 323.87142857143 346.164 L 325.27346938776 345.748 L 326.67551020408 340.652 L 328.07755102041 336.83 L 329.47959183673 345.228 L 330.88163265306 346.086 L 332.28367346939 334.88 L 333.68571428571 328.874 L 335.08775510204 320.84000000000003 L 336.48979591837 335.296 L 337.89183673469 348.92 L 339.29387755102 339.144 L 340.69591836735 337.506 L 342.09795918367 336.596 L 343.5 333.918 L 344.90204081633 340.08 L 346.30408163265 340.31399999999996 L 347.70612244898 336.93399999999997 L 349.10816326531 331.448 L 350.51020408163 330.07 L 351.91224489796 321.984 L 353.31428571429 323.024 L 354.71632653061 318.812 L 356.11836734694 312.312 L 357.52040816327 319.67 L 358.92244897959 302.12 L 360.32448979592 306.488 L 361.72653061224 286.93600000000004 L 363.12857142857 281.424 L 364.5306122449 288.262 L 365.93265306122 303.03 L 367.33469387755 290.68 L 368.73673469388 281.45 L 370.1387755102 271.96000000000004 L 371.54081632653 286.728 L 372.94285714286 280.878 L 374.34489795918 269.1 L 375.74693877551 258.51800000000003 L 377.14897959184 236.756 L 378.55102040816 243.776 L 379.95306122449 260.624 L 381.35510204082 266.96799999999996 L 382.75714285714 257.296 L 384.15918367347 239.408 L 385.5612244898 256.334 L 386.96326530612 242.762 L 388.36530612245 229.112 L 389.76734693878 230.646 L 391.1693877551 223.782 L 392.57142857143 222.56 L 393.97346938776 233.324 L 395.37551020408 252.434 L 396.77755102041 263.302 L 398.17959183673 251.862 L 399.58163265306 257.27 L 400.98367346939 264.836 L 402.38571428571 255.346 L 403.78775510204 244.738 L 405.18979591837 245.154 L 406.59183673469 249.574 L 407.99387755102 232.232 L 409.39591836735 212.654 L 410.79795918367 223.496 L 412.2 203.684 L 413.60204081633 170.222 L 415.00408163265 185.354 L 416.40612244898 166.452 L 417.80816326531 177.45 L 419.21020408163 151.216 L 420.61224489796 151.892 L 422.01428571429 121.00400000000002 L 423.41632653061 84.88999999999999 L 424.81836734694 52 L 426.22040816327 93.392 L 427.62244897959 115.80399999999997 L 429.02448979592 154.336 L 430.42653061224 239.694 L 431.82857142857 274.48199999999997 L 433.2306122449 300.04 L 434.63265306122 307.632 L 436.03469387755 299.624 L 437.43673469388 286.884 L 438.8387755102 283.08799999999997 L 440.24081632653 243.594 L 441.64285714286 234.286 L 443.04489795918 235.43 L 444.44693877551 234.104 L 445.84897959184 232.414 L 447.25102040816 215.8 L 448.65306122449 215.072 L 450.05510204082 209.664 L 451.45714285714 226.486 L 452.85918367347 208.884 L 454.2612244898 198.224 L 455.66326530612 192.01 L 457.06530612245 223.678 L 458.46734693878 219.362 L 459.8693877551 210.73 L 461.27142857143 229.008 L 462.67346938776 208.078 L 464.07551020408 204.282 L 465.47755102041 197.314 L 466.87959183673 178.412 L 468.28163265306 176.306 L 469.68367346939 163.878 L 471.08571428571 138.52800000000002 L 472.48775510204 119.78199999999998 L 473.88979591837 148.98000000000002 L 475.29183673469 167.908 L 476.69387755102 167.18 L 478.09591836735 185.094 L 479.49795918367 210.08 L 480.9 173.706 L 482.30204081633 155.06400000000002 L 483.70408163265 159.04199999999997 L 485.10612244898 159.952 L 486.50816326531 137.618 L 487.91020408163 148.14800000000002 L 489.31224489796 143.33800000000002 L 490.71428571429 191.022 L 492.11632653061 195.104 L 493.51836734694 187.044 L 494.92040816327 165.178 L 496.32244897959 176.306 L 497.72448979592 191.776 L 499.12653061224 184.834 L 500.52857142857 177.268 L 501.9306122449 162.526 L 503.33265306122 176.67 L 504.73469387755 163.202 L 506.13673469388 173.004 L 507.5387755102 176.878 L 508.94081632653 164.944 L 510.34285714286 142.92200000000003 L 511.74489795918 136.11 L 513.14693877551 149.942 L 514.54897959184 165.412 L 515.95102040816 174.928 L 517.35306122449 160.108 L 518.75510204082 162.526 L 520.15714285714 149.26600000000002 L 521.55918367347 151.892 L 522.9612244898 156.676 L 524.36326530612 148.954 L 525.76530612245 142.038 L 527.16734693878 160.758 L 528.5693877551 166.504 L 529.97142857143 178.984 L 531.37346938776 206.596 L 532.77551020408 244.01 L 534.17755102041 277.498 L 535.57959183673 290.576 L 536.98163265306 286.624 L 538.38367346939 292.24 L 539.78571428571 260.962 L 541.18775510204 259.22 L 542.58979591837 261.378 L 543.99183673469 293.488 L 545.39387755102 288.08 L 546.79591836735 298.766 L 548.19795918367 294.866 L 549.6 307.71 L 551.00204081633 319.696 L 552.40408163265 328.58799999999997 L 553.80612244898 328.25 L 555.20816326531 316.31600000000003 L 556.61020408163 296.608 L 558.01224489796 288.34000000000003 L 559.41428571429 290.342 L 560.81632653061 307.84000000000003 L 562.21836734694 299.78 L 563.62040816327 290.576 L 565.02244897959 294.164 L 566.42448979592 287.456 L 567.82653061224 276.328 L 569.22857142857 278.69399999999996 L 570.6306122449 275.574 L 572.03265306122 284.44 L 573.43469387755 288.054 L 574.83673469388 290.368 L 576.2387755102 296.296 L 577.64081632653 285.558 L 579.04285714286 293.202 L 580.44489795918 281.658 L 581.84693877551 274.61199999999997 L 583.24897959184 266.76 L 584.65102040816 258.908 L 586.05306122449 247.702 L 587.45510204082 255.736 L 588.85714285714 247.156 L 590.25918367347 237.718 L 591.6612244898 241.696 L 593.06326530612 223.21 L 594.46530612245 237.224 L 595.86734693878 234.00598 L 597.2693877551 224.64208 L 598.67142857143 246.194 L 600.07346938776 283.582 L 601.47551020408 297.93399999999997 L 602.87755102041 276.14599999999996 L 604.27959183673 267.228 L 605.68163265306 259.63599999999997 L 607.08367346939 249.834 L 608.48571428571 276.9 L 609.88775510204 261.40373999999997 L 611.28979591837 263.692 L 612.69183673469 272.74 L 614.09387755102 275.418 L 615.49591836735 275.132 L 616.89795918367 271.73328000000004 L 618.3 258.03544 L 619.70204081633 281.94399999999996 L 621.10408163265 299.624 L 622.50612244898 362.752 L 623.90816326531 367.016 L 625.31020408163 323.726 L 626.71224489796 313.898 L 628.11428571429 311.298 L 629.51632653061 305.214 L 630.91836734694 311.428 L 632.32040816327 322.946 L 633.72244897959 298.116 L 635.12448979592 289.848 L 636.52653061224 280.28 L 637.92857142857 256.1 L 639.3306122449 262.18399999999997 L 640.73265306122 250.692 L 642.13469387755 241.982 L 643.53673469388 224.978 L 644.9387755102 223.73 L 646.34081632653 237.9 L 647.74285714286 220.922 L 649.14489795918 203.372 L 650.54693877551 244.79 L 651.94897959184 221.312 L 653.35102040816 191.126 L 654.75306122449 172.9 L 656.15510204082 159.848 L 657.55714285714 148.356 L 658.95918367347 125.03399999999999 L 660.3612244898 147.94 L 661.76326530612 164.45 L 663.16530612245 184.522 L 664.56734693878 211.328 L 665.9693877551 193.96 L 667.37142857143 206.284 L 668.77346938776 206.83 L 670.17551020408 210.158 L 671.57755102041 215.306 L 672.97959183673 218.92 L 674.38163265306 216.372 L 675.78367346939 238.576 L 677.18571428571 231.972 L 678.58775510204 204.568 L 679.98979591837 198.47022" class="highcharts-graph" data-z-index="1" stroke="#2962FF" stroke-width="2" stroke-linejoin="round" stroke-linecap="round"></path></g><g class="highcharts-markers highcharts-series-0 highcharts-area-series" data-z-index="90" opacity="1" transform="translate(0,40) scale(1 1)" clip-path="none"></g></g><text x="740" text-anchor="end" class="highcharts-title" data-z-index="4" style="color: rgb(211, 211, 211); font-size: 15px; fill: rgb(211, 211, 211);" y="512"></text><text x="14" text-anchor="start" class="highcharts-subtitle" data-z-index="4" style="color: rgb(51, 51, 51); fill: rgb(51, 51, 51); font-size: 15px;" y="25"><tspan style="color: rgb(211, 211, 211); fill: rgb(211, 211, 211);">Crude Oil WTI</tspan></text><text x="0" text-anchor="start" class="highcharts-caption" data-z-index="4" style="color: rgb(102, 102, 102); fill: rgb(102, 102, 102);" y="527"></text><g class="highcharts-axis-labels highcharts-xaxis-labels" data-z-index="7"><text x="81.194657863145" text-anchor="middle" transform="translate(0,0)" style="color: rgb(227, 225, 225); cursor: default; font-size: 15px; font-weight: 400; fill: rgb(227, 225, 225);" y="476" opacity="1">1988</text><text x="199.00482374768" text-anchor="middle" transform="translate(0,0)" style="color: rgb(227, 225, 225); cursor: default; font-size: 15px; font-weight: 400; fill: rgb(227, 225, 225);" y="476" opacity="1">1995</text><text x="316.81448979592" text-anchor="middle" transform="translate(0,0)" style="color: rgb(227, 225, 225); cursor: default; font-size: 15px; font-weight: 400; fill: rgb(227, 225, 225);" y="476" opacity="1">2002</text><text x="434.58883928571" text-anchor="middle" transform="translate(0,0)" style="color: rgb(227, 225, 225); cursor: default; font-size: 15px; font-weight: 400; fill: rgb(227, 225, 225);" y="476" opacity="1">2009</text><text x="552.40408163265" text-anchor="middle" transform="translate(0,0)" style="color: rgb(227, 225, 225); cursor: default; font-size: 15px; font-weight: 400; fill: rgb(227, 225, 225);" y="476" opacity="1">2016</text><text x="670.0905380334" text-anchor="middle" transform="translate(0,0)" style="color: rgb(227, 225, 225); cursor: default; font-size: 15px; font-weight: 400; fill: rgb(227, 225, 225);" y="476" opacity="1">2023</text></g><g class="highcharts-axis-labels highcharts-yaxis-labels" data-z-index="7"><text x="0" text-anchor="start" transform="translate(0,0)" style="color: rgb(227, 225, 225); cursor: default; font-size: 15px; fill: rgb(227, 225, 225);" visibility="hidden"><tspan>0</tspan></text><text x="695" text-anchor="start" transform="translate(0,0)" style="color: rgb(227, 225, 225); cursor: default; font-size: 15px; fill: rgb(227, 225, 225);" y="409" opacity="1">20</text><text x="695" text-anchor="start" transform="translate(0,0)" style="color: rgb(227, 225, 225); cursor: default; font-size: 15px; fill: rgb(227, 225, 225);" y="357" opacity="1">40</text><text x="695" text-anchor="start" transform="translate(0,0)" style="color: rgb(227, 225, 225); cursor: default; font-size: 15px; fill: rgb(227, 225, 225);" y="305" opacity="1">60</text><text x="695" text-anchor="start" transform="translate(0,0)" style="color: rgb(227, 225, 225); cursor: default; font-size: 15px; fill: rgb(227, 225, 225);" y="253" opacity="1">80</text><text x="695" text-anchor="start" transform="translate(0,0)" style="color: rgb(227, 225, 225); cursor: default; font-size: 15px; fill: rgb(227, 225, 225);" y="201" opacity="1">100</text><text x="695" text-anchor="start" transform="translate(0,0)" style="color: rgb(227, 225, 225); cursor: default; font-size: 15px; fill: rgb(227, 225, 225);" y="149" opacity="1">120</text><text x="695" text-anchor="start" transform="translate(0,0)" style="color: rgb(227, 225, 225); cursor: default; font-size: 15px; fill: rgb(227, 225, 225);" y="97" opacity="1">140</text><text x="0" text-anchor="start" transform="translate(0,0)" style="color: rgb(227, 225, 225); cursor: default; font-size: 15px; fill: rgb(227, 225, 225);" visibility="hidden">160</text></g><g class="highcharts-axis-labels highcharts-yaxis-labels" data-z-index="7"></g><g class="highcharts-axis-labels highcharts-yaxis-labels" data-z-index="7"></g><g class="highcharts-control-points" data-z-index="99" clip-path="url(#highcharts-rpmgxpq-3528-)"></g><g class="highcharts-axis highcharts-yaxis" data-z-index="9999"><path fill="none" class="highcharts-tick" stroke="#333333" stroke-width="1" d="M 688 456.5 L 693 456.5" opacity="1"></path><path fill="none" class="highcharts-tick" stroke="#333333" stroke-width="1" d="M 688 404.5 L 693 404.5" opacity="1"></path><path fill="none" class="highcharts-tick" stroke="#333333" stroke-width="1" d="M 688 352.5 L 693 352.5" opacity="1"></path><path fill="none" class="highcharts-tick" stroke="#333333" stroke-width="1" d="M 688 300.5 L 693 300.5" opacity="1"></path><path fill="none" class="highcharts-tick" stroke="#333333" stroke-width="1" d="M 688 248.5 L 693 248.5" opacity="1"></path><path fill="none" class="highcharts-tick" stroke="#333333" stroke-width="1" d="M 688 196.5 L 693 196.5" opacity="1"></path><path fill="none" class="highcharts-tick" stroke="#333333" stroke-width="1" d="M 688 144.5 L 693 144.5" opacity="1"></path><path fill="none" class="highcharts-tick" stroke="#333333" stroke-width="1" d="M 688 92.5 L 693 92.5" opacity="1"></path><path fill="none" class="highcharts-tick" stroke="#333333" stroke-width="1" d="M 688 39.5 L 693 39.5" opacity="1"></path><path fill="none" class="highcharts-axis-line" stroke="#616161" stroke-width="1" data-z-index="7" d="M 688.5 40 L 688.5 456"></path></g><path fill="none" d="M 0 0 L 1792 0" stroke="#757575" stroke-width="1" stroke-dasharray="8,3" data-z-index="6" visibility="hidden" class="crosshair-fix-horizontal"></path><path fill="none" d="M 0 40 L 0 1160" stroke="#757575" stroke-width="1" stroke-dasharray="8,3" data-z-index="6" visibility="hidden" class="crosshair-fix-vertical"></path></svg>