<?xml version="1.0" standalone="no"?><!DOCTYPE svg PUBLIC "-//W3C//DTD SVG 1.1//EN" "http://www.w3.org/Graphics/SVG/1.1/DTD/svg11.dtd"><svg xmlns:xlink="http://www.w3.org/1999/xlink" version="1.1" class="highcharts-root" style="font-family: &quot;Helvetica Neue&quot;, Helvetica, Arial, sans-serif; font-size: 12px;" xmlns="http://www.w3.org/2000/svg" width="750" height="520" viewBox="0 0 750 520"><desc>Created with Highcharts 10.1.0</desc><defs><linearGradient x1="0" y1="0" x2="500" y2="500" gradientUnits="userSpaceOnUse" id="highcharts-hpe1zjx-2782"><stop offset="0" stop-color="rgb(35, 35, 35)" stop-opacity="1"></stop></linearGradient><clipPath id="highcharts-hpe1zjx-2783-"><rect x="0" y="0" width="687" height="416" fill="none"></rect></clipPath><clipPath id="highcharts-hpe1zjx-3385-"><rect x="0" y="0" width="687" height="416" fill="none"></rect></clipPath><linearGradient x1="0" y1="0" x2="0" y2="1" id="highcharts-hpe1zjx-3386"><stop offset="0" stop-color="#2962FF" stop-opacity="1"></stop><stop offset="1" stop-color="rgb(41,98,255)" stop-opacity="0"></stop></linearGradient><linearGradient x1="0" y1="0" x2="0" y2="1" id="highcharts-hpe1zjx-3993"><stop offset="0" stop-color="#459a63" stop-opacity="1"></stop><stop offset="1" stop-color="rgb(69,154,99)" stop-opacity="0"></stop></linearGradient><clipPath id="highcharts-hpe1zjx-3994-"><rect x="0" y="40" width="687" height="416" fill="none"></rect></clipPath></defs><rect fill="url(#highcharts-hpe1zjx-2782)" class="highcharts-background" x="0" y="0" width="750" height="520" rx="0" ry="0"></rect><rect fill="none" class="highcharts-plot-background" x="0" y="40" width="687" height="416"></rect><g class="highcharts-grid highcharts-xaxis-grid" data-z-index="1"><path fill="none" stroke="#333333" stroke-width="1" stroke-dasharray="none" data-z-index="1" class="highcharts-grid-line" d="M 94.5 40 L 94.5 456" opacity="1"></path><path fill="none" stroke="#333333" stroke-width="1" stroke-dasharray="none" data-z-index="1" class="highcharts-grid-line" d="M 223.5 40 L 223.5 456" opacity="1"></path><path fill="none" stroke="#333333" stroke-width="1" stroke-dasharray="none" data-z-index="1" class="highcharts-grid-line" d="M 359.5 40 L 359.5 456" opacity="1"></path><path fill="none" stroke="#333333" stroke-width="1" stroke-dasharray="none" data-z-index="1" class="highcharts-grid-line" d="M 495.5 40 L 495.5 456" opacity="1"></path><path fill="none" stroke="#333333" stroke-width="1" stroke-dasharray="none" data-z-index="1" class="highcharts-grid-line" d="M 631.5 40 L 631.5 456" opacity="1"></path></g><g class="highcharts-grid highcharts-yaxis-grid" data-z-index="1"><path fill="none" stroke="#333333" stroke-width="1" stroke-dasharray="none" data-z-index="1" class="highcharts-grid-line" d="M 0 456.5 L 687 456.5" opacity="1"></path><path fill="none" stroke="#333333" stroke-width="1" stroke-dasharray="none" data-z-index="1" class="highcharts-grid-line" d="M 0 397.5 L 687 397.5" opacity="1"></path><path fill="none" stroke="#333333" stroke-width="1" stroke-dasharray="none" data-z-index="1" class="highcharts-grid-line" d="M 0 337.5 L 687 337.5" opacity="1"></path><path fill="none" stroke="#333333" stroke-width="1" stroke-dasharray="none" data-z-index="1" class="highcharts-grid-line" d="M 0 278.5 L 687 278.5" opacity="1"></path><path fill="none" stroke="#333333" stroke-width="1" stroke-dasharray="none" data-z-index="1" class="highcharts-grid-line" d="M 0 218.5 L 687 218.5" opacity="1"></path><path fill="none" stroke="#333333" stroke-width="1" stroke-dasharray="none" data-z-index="1" class="highcharts-grid-line" d="M 0 159.5 L 687 159.5" opacity="1"></path><path fill="none" stroke="#333333" stroke-width="1" stroke-dasharray="none" data-z-index="1" class="highcharts-grid-line" d="M 0 99.5 L 687 99.5" opacity="1"></path><path fill="none" stroke="#333333" stroke-width="1" stroke-dasharray="none" data-z-index="1" class="highcharts-grid-line" d="M 0 39.5 L 687 39.5" opacity="1"></path></g><g class="highcharts-grid highcharts-yaxis-grid" data-z-index="1"></g><g class="highcharts-grid highcharts-yaxis-grid" data-z-index="1"></g><rect fill="none" class="highcharts-plot-border" data-z-index="1" x="0" y="40" width="687" height="416"></rect><g class="highcharts-axis highcharts-xaxis" data-z-index="2"><path fill="none" class="highcharts-axis-line" stroke="#616161" stroke-width="1" data-z-index="7" d="M 0 456.5 L 687 456.5"></path></g><g class="highcharts-axis highcharts-yaxis" data-z-index="2"><path fill="none" class="highcharts-axis-line" data-z-index="7" d="M 720 40 L 720 456"></path></g><g class="highcharts-axis highcharts-yaxis" data-z-index="2"><path fill="none" class="highcharts-axis-line" stroke="#616161" stroke-width="1" data-z-index="7" d="M -1.5 40 L -1.5 456"></path></g><g class="highcharts-series-group" data-z-index="3"><g class="highcharts-series highcharts-series-0 highcharts-area-series" data-z-index="90" opacity="1" transform="translate(0,40) scale(1 1)" clip-path="url(#highcharts-hpe1zjx-3385-)"><path fill="url(#highcharts-hpe1zjx-3386)" d="M 0 410.6989714285714 L 1.1355371900826 410.6989714285714 L 2.2710743801653 410.6989714285714 L 3.4066115702479 410.6989714285714 L 4.5421487603306 410.6989714285714 L 5.6776859504132 410.6989714285714 L 6.8132231404959 410.6989714285714 L 7.9487603305785 410.6989714285714 L 9.0842975206612 409.9382857142857 L 10.219834710744 409.9382857142857 L 11.355371900826 409.9382857142857 L 12.490909090909 407.7988571428571 L 13.626446280992 407.7988571428571 L 14.761983471074 407.8701714285714 L 15.897520661157 407.8701714285714 L 17.03305785124 407.9177142857143 L 18.168595041322 407.9177142857143 L 19.304132231405 407.9414857142857 L 20.439669421488 407.2758857142857 L 21.57520661157 407.3472 L 22.710743801653 407.3472 L 23.846280991736 407.3947428571429 L 24.981818181818 407.3947428571429 L 26.117355371901 407.3947428571429 L 27.252892561983 407.3947428571429 L 28.388429752066 407.3947428571429 L 29.523966942149 407.0144 L 30.659504132231 407.0144 L 31.795041322314 406.4438857142857 L 32.930578512397 406.4438857142857 L 34.066115702479 405.493028571429 L 35.201652892562 405.112685714286 L 36.337190082645 405.065142857143 L 37.472727272727 405.065142857143 L 38.60826446281 379.154285714286 L 39.743801652893 379.154285714286 L 40.879338842975 379.154285714286 L 42.014876033058 385.097142857143 L 43.15041322314 385.097142857143 L 44.285950413223 388.662857142857 L 45.421487603306 388.662857142857 L 46.557024793388 388.187428571429 L 47.692561983471 388.187428571429 L 48.828099173554 388.662857142857 L 49.963636363636 388.90057142857097 L 51.099173553719 388.90057142857097 L 52.234710743802 388.662857142857 L 53.370247933884 388.662857142857 L 54.505785123967 388.662857142857 L 55.64132231405 388.425142857143 L 56.776859504132 388.425142857143 L 57.912396694215 385.334857142857 L 59.047933884298 385.334857142857 L 60.18347107438 385.216 L 61.319008264463 385.216 L 62.454545454545 384.740571428571 L 63.590082644628 384.740571428571 L 64.725619834711 383.765942857143 L 65.861157024793 383.765942857143 L 66.996694214876 381.650285714286 L 68.132231404959 381.650285714286 L 69.267768595041 381.650285714286 L 70.403305785124 381.650285714286 L 71.538842975207 381.650285714286 L 72.674380165289 382.0544 L 73.809917355372 382.0544 L 74.945454545455 382.60114285714303 L 76.080991735537 382.60114285714303 L 77.21652892562 382.60114285714303 L 78.352066115702 382.72 L 79.487603305785 383.124114285714 L 80.623140495868 382.957714285714 L 81.75867768595 382.981485714286 L 82.894214876033 382.815085714286 L 84.029752066116 381.888 L 85.165289256198 380.580571428571 L 86.300826446281 377.371428571429 L 87.436363636364 370.953142857143 L 88.571900826446 363.702857142857 L 89.707438016529 359.780571428571 L 90.842975206612 338.148571428571 L 91.978512396694 332.8 L 93.114049586777 329.234285714286 L 94.24958677686 324.48 L 95.385123966942 319.725714285714 L 96.520661157025 320.914285714286 L 97.656198347107 325.074285714286 L 98.79173553719 325.312 L 99.927272727273 325.668571428571 L 101.06280991736 327.094857142857 L 102.19834710744 336.128 L 103.33388429752 336.603428571429 L 104.4694214876 318.893714285714 L 105.60495867769 320.557714285714 L 106.74049586777 324.836571428571 L 107.87603305785 327.59405714285697 L 109.01157024793 332.348342857143 L 110.14710743802 336.96 L 111.2826446281 330.898285714286 L 112.41818181818 330.6368 L 113.55371900826 327.76045714285704 L 114.68925619835 330.9696 L 115.82479338843 342.14217142857103 L 116.96033057851 346.373485714286 L 118.0958677686 341.4528 L 119.23140495868 334.773028571429 L 120.36694214876 333.893485714286 L 121.50247933884 337.031314285714 L 122.63801652893 339.1232 L 123.77355371901 335.509942857143 L 124.90909090909 334.083657142857 L 126.04462809917 336.104228571429 L 127.18016528926 340.92982857142897 L 128.31570247934 341.690514285714 L 129.45123966942 347.181714285714 L 130.5867768595 349.511314285714 L 131.72231404959 346.207085714286 L 132.85785123967 345.68411428571403 L 133.99338842975 344.495542857143 L 135.12892561983 342.926628571429 L 136.26446280992 341.738057142857 L 137.4 343.734857142857 L 138.53553719008 345.327542857143 L 139.67107438017 347.1104 L 140.80661157025 347.871085714286 L 141.94214876033 346.088228571429 L 143.07768595041 345.327542857143 L 144.2132231405 344.661942857143 L 145.34876033058 344.566857142857 L 146.48429752066 345.256228571429 L 147.61983471074 347.015314285714 L 148.75537190083 349.7728 L 149.89090909091 348.94079999999997 L 151.02644628099 348.893257142857 L 152.16198347107 349.582628571429 L 153.29752066116 350.343314285714 L 154.43305785124 351.983542857143 L 155.56859504132 351.959771428571 L 156.7041322314 348.608 L 157.83966942149 349.035885714286 L 158.97520661157 349.511314285714 L 160.11074380165 352.4352 L 161.24628099174 353.1008 L 162.38181818182 351.983542857143 L 163.5173553719 350.9376 L 164.65289256198 350.081828571429 L 165.78842975207 348.061257142857 L 166.92396694215 345.28 L 168.05950413223 352.958171428571 L 169.19504132231 362.823314285714 L 170.3305785124 374.8992 L 171.46611570248 383.31428571428603 L 172.60165289256 386.357028571429 L 173.73719008264 382.149485714286 L 174.87272727273 387.854628571429 L 176.00826446281 393.417142857143 L 177.14380165289 384.074971428571 L 178.27933884298 382.292114285714 L 179.41487603306 383.171657142857 L 180.55041322314 381.365028571429 L 181.68595041322 378.2272 L 182.82148760331 372.213028571429 L 183.95702479339 374.8992 L 185.09256198347 373.449142857143 L 186.22809917355 372.331885714286 L 187.36363636364 371.333485714286 L 188.49917355372 370.953142857143 L 189.6347107438 368.457142857143 L 190.77024793388 371.666285714286 L 191.90578512397 371.785142857143 L 193.04132231405 371.309714285714 L 194.17685950413 373.92457142857097 L 195.31239669421 373.330285714286 L 196.4479338843 377.371428571429 L 197.58347107438 381.056 L 198.71900826446 378.56 L 199.85454545455 375.94514285714297 L 200.99008264463 377.609142857143 L 202.12561983471 380.699428571429 L 203.26115702479 378.678857142857 L 204.39669421488 381.29371428571403 L 205.53223140496 386.903771428571 L 206.66776859504 385.7152 L 207.80330578512 382.60114285714303 L 208.93884297521 379.106742857143 L 210.07438016529 378.179657142857 L 211.20991735537 377.014857142857 L 212.34545454545 369.526857142857 L 213.48099173554 370.976914285714 L 214.61652892562 373.805714285714 L 215.7520661157 374.423771428571 L 216.88760330579 376.7296 L 218.02314049587 375.018057142857 L 219.15867768595 372.831085714286 L 220.29421487603 371.713828571429 L 221.42975206612 372.046628571429 L 222.5652892562 367.791542857143 L 223.70082644628 368.314514285714 L 224.83636363636 369.693257142857 L 225.97190082645 372.308114285714 L 227.10743801653 375.303314285714 L 228.24297520661 377.3952 L 229.37851239669 377.632914285714 L 230.51404958678 368.837485714286 L 231.64958677686 352.411428571429 L 232.78512396694 323.053714285714 L 233.92066115702 334.202514285714 L 235.05619834711 346.587428571429 L 236.19173553719 348.798171428571 L 237.32727272727 368.314514285714 L 238.46280991736 371.594971428571 L 239.59834710744 373.211428571429 L 240.73388429752 369.835885714286 L 241.8694214876 370.335085714286 L 243.00495867769 371.499885714286 L 244.14049586777 369.0752 L 245.27603305785 366.793142857143 L 246.41157024793 365.675885714286 L 247.54710743802 363.465142857143 L 248.6826446281 368.148114285714 L 249.81818181818 374.138514285714 L 250.95371900826 372.854857142857 L 252.08925619835 374.281142857143 L 253.22479338843 372.878628571429 L 254.36033057851 369.26537142857103 L 255.4958677686 366.5792 L 256.63140495868 367.482514285714 L 257.76694214876 367.33988571428597 L 258.90247933884 368.932571428571 L 260.03801652893 367.648914285714 L 261.17355371901 369.764571428571 L 262.30909090909 371.214628571429 L 263.44462809917 372.522057142857 L 264.58016528926 372.09417142857103 L 265.71570247934 371.024457142857 L 266.85123966942 371.072 L 267.9867768595 370.477714285714 L 269.12231404959 372.022857142857 L 270.25785123967 374.376228571429 L 271.39338842975 376.182857142857 L 272.52892561983 375.3984 L 273.66446280992 374.5664 L 274.8 378.441142857143 L 275.93553719008 381.483885714286 L 277.07107438017 384.621714285714 L 278.20661157025 382.197028571429 L 279.34214876033 384.265142857143 L 280.47768595041 384.502857142857 L 281.6132231405 378.702628571429 L 282.74876033058 376.896 L 283.88429752066 374.352457142857 L 285.01983471074 371.808914285714 L 286.15537190083 377.3952 L 287.29090909091 375.23199999999997 L 288.42644628099 375.778742857143 L 289.56198347107 375.327085714286 L 290.69752066116 376.777142857143 L 291.83305785124 376.064 L 292.96859504132 375.8976 L 294.1041322314 374.4 L 295.23966942149 370.691657142857 L 296.37520661157 373.92457142857097 L 297.51074380165 377.0624 L 298.64628099174 377.941942857143 L 299.78181818182 377.371428571429 L 300.9173553719 377.680457142857 L 302.05289256198 377.181257142857 L 303.18842975207 375.493485714286 L 304.32396694215 372.426971428571 L 305.45950413223 376.7296 L 306.59504132231 373.781942857143 L 307.7305785124 369.85965714285703 L 308.86611570248 370.786742857143 L 310.00165289256 373.686857142857 L 311.13719008264 371.048228571429 L 312.27272727273 371.072 L 313.40826446281 366.602971428571 L 314.54380165289 360.826514285714 L 315.67933884298 362.110171428571 L 316.81487603306 361.872457142857 L 317.95041322314 359.400228571429 L 319.08595041322 362.466742857143 L 320.22148760331 371.190857142857 L 321.35702479339 371.7376 L 322.49256198347 371.975314285714 L 323.62809917355 369.883428571429 L 324.76363636364 371.999085714286 L 325.89917355372 370.976914285714 L 327.0347107438 371.999085714286 L 328.17024793388 368.694857142857 L 329.30578512397 368.4096 L 330.44132231405 370.976914285714 L 331.57685950413 376.7296 L 332.71239669421 378.0608 L 333.8479338843 382.31588571428597 L 334.98347107438 382.101942857143 L 336.11900826446 381.626514285714 L 337.25454545455 381.840457142857 L 338.39008264463 384.193828571429 L 339.52561983471 384.8832 L 340.66115702479 387.284114285714 L 341.79669421488 381.103542857143 L 342.93223140496 384.574171428571 L 344.06776859504 391.135085714286 L 345.20330578512 390.968685714286 L 346.33884297521 389.019428571429 L 347.47438016529 390.136685714286 L 348.60991735537 379.77234285714303 L 349.74545454545 376.610742857143 L 350.88099173554 380.580571428571 L 352.01652892562 374.376228571429 L 353.1520661157 369.954742857143 L 354.28760330579 365.295542857143 L 355.42314049587 359.946971428571 L 356.55867768595 364.439771428571 L 357.69421487603 359.804342857143 L 358.82975206612 354.836114285714 L 359.9652892562 354.2656 L 361.10082644628 349.22605714285703 L 362.23636363636 357.11817142857103 L 363.37190082645 359.210057142857 L 364.50743801653 348.703085714286 L 365.64297520661 343.330742857143 L 366.77851239669 351.983542857143 L 367.91404958678 340.597028571429 L 369.04958677686 345.066057142857 L 370.18512396694 342.879085714286 L 371.32066115702 340.216685714286 L 372.45619834711 359.2576 L 373.59173553719 352.625371428571 L 374.72727272727 355.216457142857 L 375.86280991736 357.189485714286 L 376.99834710744 349.701485714286 L 378.13388429752 346.254628571429 L 379.2694214876 354.004114285714 L 380.40495867769 357.308342857143 L 381.54049586777 353.219657142857 L 382.67603305785 360.707657142857 L 383.81157024793 367.5776 L 384.94710743802 370.501485714286 L 386.0826446281 368.694857142857 L 387.21818181818 370.4064 L 388.35371900826 365.295542857143 L 389.48925619835 355.264 L 390.62479338843 353.07702857142897 L 391.76033057851 357.878857142857 L 392.8958677686 355.192685714286 L 394.03140495868 355.525485714286 L 395.16694214876 350.699885714286 L 396.30247933884 347.657142857143 L 397.43801652893 354.859885714286 L 398.57355371901 356.191085714286 L 399.70909090909 347.871085714286 L 400.84462809917 342.070857142857 L 401.98016528926 338.053485714286 L 403.11570247934 351.389257142857 L 404.25123966942 359.709257142857 L 405.3867768595 353.4336 L 406.52231404959 348.655542857143 L 407.65785123967 348.560457142857 L 408.79338842975 345.898057142857 L 409.92892561983 350.367085714286 L 411.06446280992 350.153142857143 L 412.2 348.370285714286 L 413.33553719008 344.2816 L 414.47107438017 346.634971428571 L 415.60661157025 339.384685714286 L 416.74214876033 341.096228571429 L 417.87768595041 334.036114285714 L 419.0132231405 327.855542857143 L 420.14876033058 333.988571428571 L 421.28429752066 320.842971428571 L 422.41983471074 321.841371428571 L 423.55537190083 305.74811428571 L 424.69090909091 299.56754285714 L 425.82644628099 307.81622857143 L 426.96198347107 319.8208 L 428.09752066116 306.84159999999997 L 429.23305785124 297.00022857143 L 430.36859504132 286.94491428571 L 431.5041322314 294.55177142857 L 432.63966942149 295.40754285714 L 433.77520661157 283.8784 L 434.91074380165 274.86902857143 L 436.04628099174 256.68388571429 L 437.18181818182 265.09897142857 L 438.3173553719 277.88800000000003 L 439.45289256198 285.13828571428996 L 440.58842975207 275.79611428571 L 441.72396694215 259.13234285714 L 442.85950413223 269.18765714285996 L 443.99504132231 259.32251428571 L 445.1305785124 244.79817142857 L 446.26611570248 248.62537142857 L 447.40165289256 241.25622857143 L 448.53719008264 237.35771428571 L 449.67272727273 249.00571428571 L 450.80826446281 267.47611428570997 L 451.94380165289 275.67725714285996 L 453.07933884298 263.2448 L 454.21487603306 271.32708571429 L 455.35041322314 279.552 L 456.48595041322 268.87862857143 L 457.62148760331 254.11657142857 L 458.75702479339 255.18628571429 L 459.89256198347 254.2592 L 461.02809917355 246.24822857143 L 462.16363636364 232.84114285714 L 463.29917355372 243.20548571429 L 464.4347107438 227.8016 L 465.57024793388 200.55954285714 L 466.70578512397 206.19337142857 L 467.84132231405 192.90514285714 L 468.97685950413 196.80365714286 L 470.11239669421 178.048 L 471.2479338843 177.57257142857 L 472.38347107438 151.28137142857003 L 473.51900826446 112.24868571428999 L 474.65454545455 83.60411428571001 L 475.79008264463 121.28182857143003 L 476.92561983471 144.88685714285998 L 478.06115702479 182.63588571429 L 479.19669421488 260.72502857143 L 480.33223140496 288.84662857143 L 481.46776859504 307.62605714286 L 482.60330578512 306.93668571429 L 483.73884297521 305.81942857142997 L 484.87438016529 298.97325714286 L 486.00991735537 295.24114285714 L 487.14545454545 260.2496 L 488.28099173554 251.264 L 489.41652892562 245.55885714286 L 490.5520661157 250.432 L 491.68760330579 251.81074285714 L 492.82314049587 237.23885714286 L 493.95867768595 229.4656 L 495.09421487603 230.74925714286 L 496.22975206612 246.12937142857 L 497.3652892562 231.55748571429 L 498.50082644628 219.41028571429 L 499.63636363636 208.14262857143 L 500.77190082645 238.54628571429 L 501.90743801653 237.69051428571 L 503.04297520661 230.15497142857 L 504.17851239669 238.57005714286 L 505.31404958678 220.33737142857 L 506.44958677686 218.34057142857 L 507.58512396694 211.75588571429 L 508.72066115702 190.76571428571 L 509.85619834711 175.8848 L 510.99173553719 150.23542857143002 L 512.12727272727 137.01851428571 L 513.26280991736 116.74148571428998 L 514.39834710744 138.51611428571 L 515.53388429752 148.61897142856998 L 516.6694214876 138.49234285714 L 517.80495867769 142.98514285713998 L 518.94049586777 171.7248 L 520.07603305785 155.56022857143 L 521.21157024793 153.27817142856998 L 522.34710743802 160.7424 L 523.4826446281 152.18468571429003 L 524.61818181818 124.41965714285999 L 525.75371900826 123.89668571429002 L 526.88925619835 132.00274285714 L 528.02479338843 173.84045714286 L 529.16033057851 183.51542857143 L 530.2958677686 166.59017142857 L 531.43140495868 143.65074285714002 L 532.56694214876 148.83291428571 L 533.70247933884 157.60457142857 L 534.83801652893 151.5904 L 535.97355371901 151.87565714286 L 537.10909090909 141.32114285714 L 538.24462809917 151.23382857143002 L 539.38016528926 155.53645714286 L 540.51570247934 172.65188571429 L 541.65123966942 177.35862857143 L 542.7867768595 173.15108571429 L 543.92231404959 159.98171428570998 L 545.05785123967 144.98194285713998 L 546.19338842975 158.38902857143 L 547.32892561983 157.27177142857 L 548.46446280992 155.25119999999998 L 549.6 152.61257142857 L 550.73553719008 163.072 L 551.87107438017 156.72502857143002 L 553.00661157025 159.83908571428998 L 554.14214876033 159.10217142857 L 555.27768595041 155.91680000000002 L 556.4132231405 148.90422857143 L 557.54876033058 163.97531428571 L 558.68429752066 170.70262857143 L 559.81983471074 190.95588571429 L 560.95537190083 211.89851428571 L 562.09090909091 249.24342857143 L 563.22644628099 279.7184 L 564.36198347107 290.03520000000003 L 565.49752066116 267.2384 L 566.63305785124 284.99565714286 L 567.76859504132 257.25440000000003 L 568.9041322314 260.15451428571 L 570.03966942149 264.83748571429 L 571.17520661157 291.88937142857003 L 572.31074380165 287.27771428571 L 573.44628099174 301.0176 L 574.58181818182 298.1888 L 575.7173553719 309.95565714286 L 576.85289256198 327.380114285714 L 577.98842975207 333.418057142857 L 579.12396694215 330.494171428571 L 580.25950413223 321.865142857143 L 581.39504132231 301.58811428571 L 582.5305785124 297.87977142857 L 583.66611570248 297.90354285714 L 584.80165289256 315.06651428571 L 585.93719008264 304.1792 L 587.07272727273 299.37737142857 L 588.20826446281 301.18399999999997 L 589.34380165289 296.0256 L 590.47933884298 280.93074285714 L 591.61487603306 283.59314285714004 L 592.75041322314 283.85462857143 L 593.88595041322 290.41554285714 L 595.02148760331 293.0304 L 596.15702479339 296.40594285714 L 597.29256198347 302.08731428571 L 598.42809917355 290.84342857142997 L 599.56363636364 291.48525714286 L 600.69917355372 279.2192 L 601.8347107438 270.11474285713996 L 602.97024793388 264.88502857143 L 604.10578512397 257.04045714285996 L 605.24132231405 251.85828571429 L 606.37685950413 259.63154285714 L 607.51239669421 251.16891428571 L 608.6479338843 237.31017142857 L 609.78347107438 231.55748571429 L 610.91900826446 227.15977142857 L 612.05454545455 239.49714285714 L 613.19008264463 232.17649371429 L 614.32561983471 219.36274285714 L 615.46115702479 236.59702857143 L 616.59669421488 276.43794285714 L 617.73223140496 288.10971428570997 L 618.86776859504 268.87862857143 L 620.00330578512 259.03725714285997 L 621.13884297521 253.4272 L 622.27438016529 242.944 L 623.40991735537 268.64091428571 L 624.54545454545 257.80114285714 L 625.68099173554 261.0816 L 626.81652892562 272.34925714286 L 627.9520661157 271.51725714286 L 629.08760330579 272.82468571429 L 630.22314049587 272.03832685713996 L 631.35867768595 258.56682057142996 L 632.49421487603 281.40617142857 L 633.62975206612 295.90674285714 L 634.7652892562 361.943771428571 L 635.90082644628 355.9296 L 637.03636363636 326.048914285714 L 638.17190082645 318.180571428571 L 639.30743801653 313.06971428571 L 640.44297520661 308.36297142857 L 641.57851239669 318.656 L 642.71404958678 326.95222857142903 L 643.84958677686 302.87177142857 L 644.98512396694 292.86400000000003 L 646.12066115702 285.16205714286 L 647.25619834711 262.86445714286003 L 648.39173553719 266.85805714286 L 649.52727272727 257.30194285714003 L 650.66280991736 251.21645714286 L 651.79834710744 238.6176 L 652.93388429752 236.73965714286 L 654.0694214876 245.72525714286 L 655.20495867769 229.84594285714 L 656.34049586777 216.9856 L 657.47603305785 252.2624 L 658.61157024793 232.128 L 659.74710743802 203.81622857143 L 660.8826446281 189.93371428571 L 662.01818181818 171.79611428571 L 663.15371900826 165.33028571429 L 664.28925619835 148.38125714286002 L 665.42479338843 164.99748571429 L 666.56033057851 174.86262857143 L 667.6958677686 192.04937142857 L 668.83140495868 217.46102857143 L 669.96694214876 199.63245714286 L 671.10247933884 209.21234285714 L 672.23801652893 212.39771428571 L 673.37355371901 213.53874285714 L 674.50909090909 219.10125714286 L 675.64462809917 226.09005714286 L 676.78016528926 225.04411428571 L 677.91570247934 243.68091428571 L 679.05123966942 237.00114285714 L 680.1867768595 214.06171428571 L 681.32231404959 210.00607085714 L 681.32231404959 416 L 680.1867768595 416 L 679.05123966942 416 L 677.91570247934 416 L 676.78016528926 416 L 675.64462809917 416 L 674.50909090909 416 L 673.37355371901 416 L 672.23801652893 416 L 671.10247933884 416 L 669.96694214876 416 L 668.83140495868 416 L 667.6958677686 416 L 666.56033057851 416 L 665.42479338843 416 L 664.28925619835 416 L 663.15371900826 416 L 662.01818181818 416 L 660.8826446281 416 L 659.74710743802 416 L 658.61157024793 416 L 657.47603305785 416 L 656.34049586777 416 L 655.20495867769 416 L 654.0694214876 416 L 652.93388429752 416 L 651.79834710744 416 L 650.66280991736 416 L 649.52727272727 416 L 648.39173553719 416 L 647.25619834711 416 L 646.12066115702 416 L 644.98512396694 416 L 643.84958677686 416 L 642.71404958678 416 L 641.57851239669 416 L 640.44297520661 416 L 639.30743801653 416 L 638.17190082645 416 L 637.03636363636 416 L 635.90082644628 416 L 634.7652892562 416 L 633.62975206612 416 L 632.49421487603 416 L 631.35867768595 416 L 630.22314049587 416 L 629.08760330579 416 L 627.9520661157 416 L 626.81652892562 416 L 625.68099173554 416 L 624.54545454545 416 L 623.40991735537 416 L 622.27438016529 416 L 621.13884297521 416 L 620.00330578512 416 L 618.86776859504 416 L 617.73223140496 416 L 616.59669421488 416 L 615.46115702479 416 L 614.32561983471 416 L 613.19008264463 416 L 612.05454545455 416 L 610.91900826446 416 L 609.78347107438 416 L 608.6479338843 416 L 607.51239669421 416 L 606.37685950413 416 L 605.24132231405 416 L 604.10578512397 416 L 602.97024793388 416 L 601.8347107438 416 L 600.69917355372 416 L 599.56363636364 416 L 598.42809917355 416 L 597.29256198347 416 L 596.15702479339 416 L 595.02148760331 416 L 593.88595041322 416 L 592.75041322314 416 L 591.61487603306 416 L 590.47933884298 416 L 589.34380165289 416 L 588.20826446281 416 L 587.07272727273 416 L 585.93719008264 416 L 584.80165289256 416 L 583.66611570248 416 L 582.5305785124 416 L 581.39504132231 416 L 580.25950413223 416 L 579.12396694215 416 L 577.98842975207 416 L 576.85289256198 416 L 575.7173553719 416 L 574.58181818182 416 L 573.44628099174 416 L 572.31074380165 416 L 571.17520661157 416 L 570.03966942149 416 L 568.9041322314 416 L 567.76859504132 416 L 566.63305785124 416 L 565.49752066116 416 L 564.36198347107 416 L 563.22644628099 416 L 562.09090909091 416 L 560.95537190083 416 L 559.81983471074 416 L 558.68429752066 416 L 557.54876033058 416 L 556.4132231405 416 L 555.27768595041 416 L 554.14214876033 416 L 553.00661157025 416 L 551.87107438017 416 L 550.73553719008 416 L 549.6 416 L 548.46446280992 416 L 547.32892561983 416 L 546.19338842975 416 L 545.05785123967 416 L 543.92231404959 416 L 542.7867768595 416 L 541.65123966942 416 L 540.51570247934 416 L 539.38016528926 416 L 538.24462809917 416 L 537.10909090909 416 L 535.97355371901 416 L 534.83801652893 416 L 533.70247933884 416 L 532.56694214876 416 L 531.43140495868 416 L 530.2958677686 416 L 529.16033057851 416 L 528.02479338843 416 L 526.88925619835 416 L 525.75371900826 416 L 524.61818181818 416 L 523.4826446281 416 L 522.34710743802 416 L 521.21157024793 416 L 520.07603305785 416 L 518.94049586777 416 L 517.80495867769 416 L 516.6694214876 416 L 515.53388429752 416 L 514.39834710744 416 L 513.26280991736 416 L 512.12727272727 416 L 510.99173553719 416 L 509.85619834711 416 L 508.72066115702 416 L 507.58512396694 416 L 506.44958677686 416 L 505.31404958678 416 L 504.17851239669 416 L 503.04297520661 416 L 501.90743801653 416 L 500.77190082645 416 L 499.63636363636 416 L 498.50082644628 416 L 497.3652892562 416 L 496.22975206612 416 L 495.09421487603 416 L 493.95867768595 416 L 492.82314049587 416 L 491.68760330579 416 L 490.5520661157 416 L 489.41652892562 416 L 488.28099173554 416 L 487.14545454545 416 L 486.00991735537 416 L 484.87438016529 416 L 483.73884297521 416 L 482.60330578512 416 L 481.46776859504 416 L 480.33223140496 416 L 479.19669421488 416 L 478.06115702479 416 L 476.92561983471 416 L 475.79008264463 416 L 474.65454545455 416 L 473.51900826446 416 L 472.38347107438 416 L 471.2479338843 416 L 470.11239669421 416 L 468.97685950413 416 L 467.84132231405 416 L 466.70578512397 416 L 465.57024793388 416 L 464.4347107438 416 L 463.29917355372 416 L 462.16363636364 416 L 461.02809917355 416 L 459.89256198347 416 L 458.75702479339 416 L 457.62148760331 416 L 456.48595041322 416 L 455.35041322314 416 L 454.21487603306 416 L 453.07933884298 416 L 451.94380165289 416 L 450.80826446281 416 L 449.67272727273 416 L 448.53719008264 416 L 447.40165289256 416 L 446.26611570248 416 L 445.1305785124 416 L 443.99504132231 416 L 442.85950413223 416 L 441.72396694215 416 L 440.58842975207 416 L 439.45289256198 416 L 438.3173553719 416 L 437.18181818182 416 L 436.04628099174 416 L 434.91074380165 416 L 433.77520661157 416 L 432.63966942149 416 L 431.5041322314 416 L 430.36859504132 416 L 429.23305785124 416 L 428.09752066116 416 L 426.96198347107 416 L 425.82644628099 416 L 424.69090909091 416 L 423.55537190083 416 L 422.41983471074 416 L 421.28429752066 416 L 420.14876033058 416 L 419.0132231405 416 L 417.87768595041 416 L 416.74214876033 416 L 415.60661157025 416 L 414.47107438017 416 L 413.33553719008 416 L 412.2 416 L 411.06446280992 416 L 409.92892561983 416 L 408.79338842975 416 L 407.65785123967 416 L 406.52231404959 416 L 405.3867768595 416 L 404.25123966942 416 L 403.11570247934 416 L 401.98016528926 416 L 400.84462809917 416 L 399.70909090909 416 L 398.57355371901 416 L 397.43801652893 416 L 396.30247933884 416 L 395.16694214876 416 L 394.03140495868 416 L 392.8958677686 416 L 391.76033057851 416 L 390.62479338843 416 L 389.48925619835 416 L 388.35371900826 416 L 387.21818181818 416 L 386.0826446281 416 L 384.94710743802 416 L 383.81157024793 416 L 382.67603305785 416 L 381.54049586777 416 L 380.40495867769 416 L 379.2694214876 416 L 378.13388429752 416 L 376.99834710744 416 L 375.86280991736 416 L 374.72727272727 416 L 373.59173553719 416 L 372.45619834711 416 L 371.32066115702 416 L 370.18512396694 416 L 369.04958677686 416 L 367.91404958678 416 L 366.77851239669 416 L 365.64297520661 416 L 364.50743801653 416 L 363.37190082645 416 L 362.23636363636 416 L 361.10082644628 416 L 359.9652892562 416 L 358.82975206612 416 L 357.69421487603 416 L 356.55867768595 416 L 355.42314049587 416 L 354.28760330579 416 L 353.1520661157 416 L 352.01652892562 416 L 350.88099173554 416 L 349.74545454545 416 L 348.60991735537 416 L 347.47438016529 416 L 346.33884297521 416 L 345.20330578512 416 L 344.06776859504 416 L 342.93223140496 416 L 341.79669421488 416 L 340.66115702479 416 L 339.52561983471 416 L 338.39008264463 416 L 337.25454545455 416 L 336.11900826446 416 L 334.98347107438 416 L 333.8479338843 416 L 332.71239669421 416 L 331.57685950413 416 L 330.44132231405 416 L 329.30578512397 416 L 328.17024793388 416 L 327.0347107438 416 L 325.89917355372 416 L 324.76363636364 416 L 323.62809917355 416 L 322.49256198347 416 L 321.35702479339 416 L 320.22148760331 416 L 319.08595041322 416 L 317.95041322314 416 L 316.81487603306 416 L 315.67933884298 416 L 314.54380165289 416 L 313.40826446281 416 L 312.27272727273 416 L 311.13719008264 416 L 310.00165289256 416 L 308.86611570248 416 L 307.7305785124 416 L 306.59504132231 416 L 305.45950413223 416 L 304.32396694215 416 L 303.18842975207 416 L 302.05289256198 416 L 300.9173553719 416 L 299.78181818182 416 L 298.64628099174 416 L 297.51074380165 416 L 296.37520661157 416 L 295.23966942149 416 L 294.1041322314 416 L 292.96859504132 416 L 291.83305785124 416 L 290.69752066116 416 L 289.56198347107 416 L 288.42644628099 416 L 287.29090909091 416 L 286.15537190083 416 L 285.01983471074 416 L 283.88429752066 416 L 282.74876033058 416 L 281.6132231405 416 L 280.47768595041 416 L 279.34214876033 416 L 278.20661157025 416 L 277.07107438017 416 L 275.93553719008 416 L 274.8 416 L 273.66446280992 416 L 272.52892561983 416 L 271.39338842975 416 L 270.25785123967 416 L 269.12231404959 416 L 267.9867768595 416 L 266.85123966942 416 L 265.71570247934 416 L 264.58016528926 416 L 263.44462809917 416 L 262.30909090909 416 L 261.17355371901 416 L 260.03801652893 416 L 258.90247933884 416 L 257.76694214876 416 L 256.63140495868 416 L 255.4958677686 416 L 254.36033057851 416 L 253.22479338843 416 L 252.08925619835 416 L 250.95371900826 416 L 249.81818181818 416 L 248.6826446281 416 L 247.54710743802 416 L 246.41157024793 416 L 245.27603305785 416 L 244.14049586777 416 L 243.00495867769 416 L 241.8694214876 416 L 240.73388429752 416 L 239.59834710744 416 L 238.46280991736 416 L 237.32727272727 416 L 236.19173553719 416 L 235.05619834711 416 L 233.92066115702 416 L 232.78512396694 416 L 231.64958677686 416 L 230.51404958678 416 L 229.37851239669 416 L 228.24297520661 416 L 227.10743801653 416 L 225.97190082645 416 L 224.83636363636 416 L 223.70082644628 416 L 222.5652892562 416 L 221.42975206612 416 L 220.29421487603 416 L 219.15867768595 416 L 218.02314049587 416 L 216.88760330579 416 L 215.7520661157 416 L 214.61652892562 416 L 213.48099173554 416 L 212.34545454545 416 L 211.20991735537 416 L 210.07438016529 416 L 208.93884297521 416 L 207.80330578512 416 L 206.66776859504 416 L 205.53223140496 416 L 204.39669421488 416 L 203.26115702479 416 L 202.12561983471 416 L 200.99008264463 416 L 199.85454545455 416 L 198.71900826446 416 L 197.58347107438 416 L 196.4479338843 416 L 195.31239669421 416 L 194.17685950413 416 L 193.04132231405 416 L 191.90578512397 416 L 190.77024793388 416 L 189.6347107438 416 L 188.49917355372 416 L 187.36363636364 416 L 186.22809917355 416 L 185.09256198347 416 L 183.95702479339 416 L 182.82148760331 416 L 181.68595041322 416 L 180.55041322314 416 L 179.41487603306 416 L 178.27933884298 416 L 177.14380165289 416 L 176.00826446281 416 L 174.87272727273 416 L 173.73719008264 416 L 172.60165289256 416 L 171.46611570248 416 L 170.3305785124 416 L 169.19504132231 416 L 168.05950413223 416 L 166.92396694215 416 L 165.78842975207 416 L 164.65289256198 416 L 163.5173553719 416 L 162.38181818182 416 L 161.24628099174 416 L 160.11074380165 416 L 158.97520661157 416 L 157.83966942149 416 L 156.7041322314 416 L 155.56859504132 416 L 154.43305785124 416 L 153.29752066116 416 L 152.16198347107 416 L 151.02644628099 416 L 149.89090909091 416 L 148.75537190083 416 L 147.61983471074 416 L 146.48429752066 416 L 145.34876033058 416 L 144.2132231405 416 L 143.07768595041 416 L 141.94214876033 416 L 140.80661157025 416 L 139.67107438017 416 L 138.53553719008 416 L 137.4 416 L 136.26446280992 416 L 135.12892561983 416 L 133.99338842975 416 L 132.85785123967 416 L 131.72231404959 416 L 130.5867768595 416 L 129.45123966942 416 L 128.31570247934 416 L 127.18016528926 416 L 126.04462809917 416 L 124.90909090909 416 L 123.77355371901 416 L 122.63801652893 416 L 121.50247933884 416 L 120.36694214876 416 L 119.23140495868 416 L 118.0958677686 416 L 116.96033057851 416 L 115.82479338843 416 L 114.68925619835 416 L 113.55371900826 416 L 112.41818181818 416 L 111.2826446281 416 L 110.14710743802 416 L 109.01157024793 416 L 107.87603305785 416 L 106.74049586777 416 L 105.60495867769 416 L 104.4694214876 416 L 103.33388429752 416 L 102.19834710744 416 L 101.06280991736 416 L 99.927272727273 416 L 98.79173553719 416 L 97.656198347107 416 L 96.520661157025 416 L 95.385123966942 416 L 94.24958677686 416 L 93.114049586777 416 L 91.978512396694 416 L 90.842975206612 416 L 89.707438016529 416 L 88.571900826446 416 L 87.436363636364 416 L 86.300826446281 416 L 85.165289256198 416 L 84.029752066116 416 L 82.894214876033 416 L 81.75867768595 416 L 80.623140495868 416 L 79.487603305785 416 L 78.352066115702 416 L 77.21652892562 416 L 76.080991735537 416 L 74.945454545455 416 L 73.809917355372 416 L 72.674380165289 416 L 71.538842975207 416 L 70.403305785124 416 L 69.267768595041 416 L 68.132231404959 416 L 66.996694214876 416 L 65.861157024793 416 L 64.725619834711 416 L 63.590082644628 416 L 62.454545454545 416 L 61.319008264463 416 L 60.18347107438 416 L 59.047933884298 416 L 57.912396694215 416 L 56.776859504132 416 L 55.64132231405 416 L 54.505785123967 416 L 53.370247933884 416 L 52.234710743802 416 L 51.099173553719 416 L 49.963636363636 416 L 48.828099173554 416 L 47.692561983471 416 L 46.557024793388 416 L 45.421487603306 416 L 44.285950413223 416 L 43.15041322314 416 L 42.014876033058 416 L 40.879338842975 416 L 39.743801652893 416 L 38.60826446281 416 L 37.472727272727 416 L 36.337190082645 416 L 35.201652892562 416 L 34.066115702479 416 L 32.930578512397 416 L 31.795041322314 416 L 30.659504132231 416 L 29.523966942149 416 L 28.388429752066 416 L 27.252892561983 416 L 26.117355371901 416 L 24.981818181818 416 L 23.846280991736 416 L 22.710743801653 416 L 21.57520661157 416 L 20.439669421488 416 L 19.304132231405 416 L 18.168595041322 416 L 17.03305785124 416 L 15.897520661157 416 L 14.761983471074 416 L 13.626446280992 416 L 12.490909090909 416 L 11.355371900826 416 L 10.219834710744 416 L 9.0842975206612 416 L 7.9487603305785 416 L 6.8132231404959 416 L 5.6776859504132 416 L 4.5421487603306 416 L 3.4066115702479 416 L 2.2710743801653 416 L 1.1355371900826 416 L 0 416 Z" class="highcharts-area" data-z-index="0"></path><path fill="none" d="M 0 410.6989714285714 L 1.1355371900826 410.6989714285714 L 2.2710743801653 410.6989714285714 L 3.4066115702479 410.6989714285714 L 4.5421487603306 410.6989714285714 L 5.6776859504132 410.6989714285714 L 6.8132231404959 410.6989714285714 L 7.9487603305785 410.6989714285714 L 9.0842975206612 409.9382857142857 L 10.219834710744 409.9382857142857 L 11.355371900826 409.9382857142857 L 12.490909090909 407.7988571428571 L 13.626446280992 407.7988571428571 L 14.761983471074 407.8701714285714 L 15.897520661157 407.8701714285714 L 17.03305785124 407.9177142857143 L 18.168595041322 407.9177142857143 L 19.304132231405 407.9414857142857 L 20.439669421488 407.2758857142857 L 21.57520661157 407.3472 L 22.710743801653 407.3472 L 23.846280991736 407.3947428571429 L 24.981818181818 407.3947428571429 L 26.117355371901 407.3947428571429 L 27.252892561983 407.3947428571429 L 28.388429752066 407.3947428571429 L 29.523966942149 407.0144 L 30.659504132231 407.0144 L 31.795041322314 406.4438857142857 L 32.930578512397 406.4438857142857 L 34.066115702479 405.493028571429 L 35.201652892562 405.112685714286 L 36.337190082645 405.065142857143 L 37.472727272727 405.065142857143 L 38.60826446281 379.154285714286 L 39.743801652893 379.154285714286 L 40.879338842975 379.154285714286 L 42.014876033058 385.097142857143 L 43.15041322314 385.097142857143 L 44.285950413223 388.662857142857 L 45.421487603306 388.662857142857 L 46.557024793388 388.187428571429 L 47.692561983471 388.187428571429 L 48.828099173554 388.662857142857 L 49.963636363636 388.90057142857097 L 51.099173553719 388.90057142857097 L 52.234710743802 388.662857142857 L 53.370247933884 388.662857142857 L 54.505785123967 388.662857142857 L 55.64132231405 388.425142857143 L 56.776859504132 388.425142857143 L 57.912396694215 385.334857142857 L 59.047933884298 385.334857142857 L 60.18347107438 385.216 L 61.319008264463 385.216 L 62.454545454545 384.740571428571 L 63.590082644628 384.740571428571 L 64.725619834711 383.765942857143 L 65.861157024793 383.765942857143 L 66.996694214876 381.650285714286 L 68.132231404959 381.650285714286 L 69.267768595041 381.650285714286 L 70.403305785124 381.650285714286 L 71.538842975207 381.650285714286 L 72.674380165289 382.0544 L 73.809917355372 382.0544 L 74.945454545455 382.60114285714303 L 76.080991735537 382.60114285714303 L 77.21652892562 382.60114285714303 L 78.352066115702 382.72 L 79.487603305785 383.124114285714 L 80.623140495868 382.957714285714 L 81.75867768595 382.981485714286 L 82.894214876033 382.815085714286 L 84.029752066116 381.888 L 85.165289256198 380.580571428571 L 86.300826446281 377.371428571429 L 87.436363636364 370.953142857143 L 88.571900826446 363.702857142857 L 89.707438016529 359.780571428571 L 90.842975206612 338.148571428571 L 91.978512396694 332.8 L 93.114049586777 329.234285714286 L 94.24958677686 324.48 L 95.385123966942 319.725714285714 L 96.520661157025 320.914285714286 L 97.656198347107 325.074285714286 L 98.79173553719 325.312 L 99.927272727273 325.668571428571 L 101.06280991736 327.094857142857 L 102.19834710744 336.128 L 103.33388429752 336.603428571429 L 104.4694214876 318.893714285714 L 105.60495867769 320.557714285714 L 106.74049586777 324.836571428571 L 107.87603305785 327.59405714285697 L 109.01157024793 332.348342857143 L 110.14710743802 336.96 L 111.2826446281 330.898285714286 L 112.41818181818 330.6368 L 113.55371900826 327.76045714285704 L 114.68925619835 330.9696 L 115.82479338843 342.14217142857103 L 116.96033057851 346.373485714286 L 118.0958677686 341.4528 L 119.23140495868 334.773028571429 L 120.36694214876 333.893485714286 L 121.50247933884 337.031314285714 L 122.63801652893 339.1232 L 123.77355371901 335.509942857143 L 124.90909090909 334.083657142857 L 126.04462809917 336.104228571429 L 127.18016528926 340.92982857142897 L 128.31570247934 341.690514285714 L 129.45123966942 347.181714285714 L 130.5867768595 349.511314285714 L 131.72231404959 346.207085714286 L 132.85785123967 345.68411428571403 L 133.99338842975 344.495542857143 L 135.12892561983 342.926628571429 L 136.26446280992 341.738057142857 L 137.4 343.734857142857 L 138.53553719008 345.327542857143 L 139.67107438017 347.1104 L 140.80661157025 347.871085714286 L 141.94214876033 346.088228571429 L 143.07768595041 345.327542857143 L 144.2132231405 344.661942857143 L 145.34876033058 344.566857142857 L 146.48429752066 345.256228571429 L 147.61983471074 347.015314285714 L 148.75537190083 349.7728 L 149.89090909091 348.94079999999997 L 151.02644628099 348.893257142857 L 152.16198347107 349.582628571429 L 153.29752066116 350.343314285714 L 154.43305785124 351.983542857143 L 155.56859504132 351.959771428571 L 156.7041322314 348.608 L 157.83966942149 349.035885714286 L 158.97520661157 349.511314285714 L 160.11074380165 352.4352 L 161.24628099174 353.1008 L 162.38181818182 351.983542857143 L 163.5173553719 350.9376 L 164.65289256198 350.081828571429 L 165.78842975207 348.061257142857 L 166.92396694215 345.28 L 168.05950413223 352.958171428571 L 169.19504132231 362.823314285714 L 170.3305785124 374.8992 L 171.46611570248 383.31428571428603 L 172.60165289256 386.357028571429 L 173.73719008264 382.149485714286 L 174.87272727273 387.854628571429 L 176.00826446281 393.417142857143 L 177.14380165289 384.074971428571 L 178.27933884298 382.292114285714 L 179.41487603306 383.171657142857 L 180.55041322314 381.365028571429 L 181.68595041322 378.2272 L 182.82148760331 372.213028571429 L 183.95702479339 374.8992 L 185.09256198347 373.449142857143 L 186.22809917355 372.331885714286 L 187.36363636364 371.333485714286 L 188.49917355372 370.953142857143 L 189.6347107438 368.457142857143 L 190.77024793388 371.666285714286 L 191.90578512397 371.785142857143 L 193.04132231405 371.309714285714 L 194.17685950413 373.92457142857097 L 195.31239669421 373.330285714286 L 196.4479338843 377.371428571429 L 197.58347107438 381.056 L 198.71900826446 378.56 L 199.85454545455 375.94514285714297 L 200.99008264463 377.609142857143 L 202.12561983471 380.699428571429 L 203.26115702479 378.678857142857 L 204.39669421488 381.29371428571403 L 205.53223140496 386.903771428571 L 206.66776859504 385.7152 L 207.80330578512 382.60114285714303 L 208.93884297521 379.106742857143 L 210.07438016529 378.179657142857 L 211.20991735537 377.014857142857 L 212.34545454545 369.526857142857 L 213.48099173554 370.976914285714 L 214.61652892562 373.805714285714 L 215.7520661157 374.423771428571 L 216.88760330579 376.7296 L 218.02314049587 375.018057142857 L 219.15867768595 372.831085714286 L 220.29421487603 371.713828571429 L 221.42975206612 372.046628571429 L 222.5652892562 367.791542857143 L 223.70082644628 368.314514285714 L 224.83636363636 369.693257142857 L 225.97190082645 372.308114285714 L 227.10743801653 375.303314285714 L 228.24297520661 377.3952 L 229.37851239669 377.632914285714 L 230.51404958678 368.837485714286 L 231.64958677686 352.411428571429 L 232.78512396694 323.053714285714 L 233.92066115702 334.202514285714 L 235.05619834711 346.587428571429 L 236.19173553719 348.798171428571 L 237.32727272727 368.314514285714 L 238.46280991736 371.594971428571 L 239.59834710744 373.211428571429 L 240.73388429752 369.835885714286 L 241.8694214876 370.335085714286 L 243.00495867769 371.499885714286 L 244.14049586777 369.0752 L 245.27603305785 366.793142857143 L 246.41157024793 365.675885714286 L 247.54710743802 363.465142857143 L 248.6826446281 368.148114285714 L 249.81818181818 374.138514285714 L 250.95371900826 372.854857142857 L 252.08925619835 374.281142857143 L 253.22479338843 372.878628571429 L 254.36033057851 369.26537142857103 L 255.4958677686 366.5792 L 256.63140495868 367.482514285714 L 257.76694214876 367.33988571428597 L 258.90247933884 368.932571428571 L 260.03801652893 367.648914285714 L 261.17355371901 369.764571428571 L 262.30909090909 371.214628571429 L 263.44462809917 372.522057142857 L 264.58016528926 372.09417142857103 L 265.71570247934 371.024457142857 L 266.85123966942 371.072 L 267.9867768595 370.477714285714 L 269.12231404959 372.022857142857 L 270.25785123967 374.376228571429 L 271.39338842975 376.182857142857 L 272.52892561983 375.3984 L 273.66446280992 374.5664 L 274.8 378.441142857143 L 275.93553719008 381.483885714286 L 277.07107438017 384.621714285714 L 278.20661157025 382.197028571429 L 279.34214876033 384.265142857143 L 280.47768595041 384.502857142857 L 281.6132231405 378.702628571429 L 282.74876033058 376.896 L 283.88429752066 374.352457142857 L 285.01983471074 371.808914285714 L 286.15537190083 377.3952 L 287.29090909091 375.23199999999997 L 288.42644628099 375.778742857143 L 289.56198347107 375.327085714286 L 290.69752066116 376.777142857143 L 291.83305785124 376.064 L 292.96859504132 375.8976 L 294.1041322314 374.4 L 295.23966942149 370.691657142857 L 296.37520661157 373.92457142857097 L 297.51074380165 377.0624 L 298.64628099174 377.941942857143 L 299.78181818182 377.371428571429 L 300.9173553719 377.680457142857 L 302.05289256198 377.181257142857 L 303.18842975207 375.493485714286 L 304.32396694215 372.426971428571 L 305.45950413223 376.7296 L 306.59504132231 373.781942857143 L 307.7305785124 369.85965714285703 L 308.86611570248 370.786742857143 L 310.00165289256 373.686857142857 L 311.13719008264 371.048228571429 L 312.27272727273 371.072 L 313.40826446281 366.602971428571 L 314.54380165289 360.826514285714 L 315.67933884298 362.110171428571 L 316.81487603306 361.872457142857 L 317.95041322314 359.400228571429 L 319.08595041322 362.466742857143 L 320.22148760331 371.190857142857 L 321.35702479339 371.7376 L 322.49256198347 371.975314285714 L 323.62809917355 369.883428571429 L 324.76363636364 371.999085714286 L 325.89917355372 370.976914285714 L 327.0347107438 371.999085714286 L 328.17024793388 368.694857142857 L 329.30578512397 368.4096 L 330.44132231405 370.976914285714 L 331.57685950413 376.7296 L 332.71239669421 378.0608 L 333.8479338843 382.31588571428597 L 334.98347107438 382.101942857143 L 336.11900826446 381.626514285714 L 337.25454545455 381.840457142857 L 338.39008264463 384.193828571429 L 339.52561983471 384.8832 L 340.66115702479 387.284114285714 L 341.79669421488 381.103542857143 L 342.93223140496 384.574171428571 L 344.06776859504 391.135085714286 L 345.20330578512 390.968685714286 L 346.33884297521 389.019428571429 L 347.47438016529 390.136685714286 L 348.60991735537 379.77234285714303 L 349.74545454545 376.610742857143 L 350.88099173554 380.580571428571 L 352.01652892562 374.376228571429 L 353.1520661157 369.954742857143 L 354.28760330579 365.295542857143 L 355.42314049587 359.946971428571 L 356.55867768595 364.439771428571 L 357.69421487603 359.804342857143 L 358.82975206612 354.836114285714 L 359.9652892562 354.2656 L 361.10082644628 349.22605714285703 L 362.23636363636 357.11817142857103 L 363.37190082645 359.210057142857 L 364.50743801653 348.703085714286 L 365.64297520661 343.330742857143 L 366.77851239669 351.983542857143 L 367.91404958678 340.597028571429 L 369.04958677686 345.066057142857 L 370.18512396694 342.879085714286 L 371.32066115702 340.216685714286 L 372.45619834711 359.2576 L 373.59173553719 352.625371428571 L 374.72727272727 355.216457142857 L 375.86280991736 357.189485714286 L 376.99834710744 349.701485714286 L 378.13388429752 346.254628571429 L 379.2694214876 354.004114285714 L 380.40495867769 357.308342857143 L 381.54049586777 353.219657142857 L 382.67603305785 360.707657142857 L 383.81157024793 367.5776 L 384.94710743802 370.501485714286 L 386.0826446281 368.694857142857 L 387.21818181818 370.4064 L 388.35371900826 365.295542857143 L 389.48925619835 355.264 L 390.62479338843 353.07702857142897 L 391.76033057851 357.878857142857 L 392.8958677686 355.192685714286 L 394.03140495868 355.525485714286 L 395.16694214876 350.699885714286 L 396.30247933884 347.657142857143 L 397.43801652893 354.859885714286 L 398.57355371901 356.191085714286 L 399.70909090909 347.871085714286 L 400.84462809917 342.070857142857 L 401.98016528926 338.053485714286 L 403.11570247934 351.389257142857 L 404.25123966942 359.709257142857 L 405.3867768595 353.4336 L 406.52231404959 348.655542857143 L 407.65785123967 348.560457142857 L 408.79338842975 345.898057142857 L 409.92892561983 350.367085714286 L 411.06446280992 350.153142857143 L 412.2 348.370285714286 L 413.33553719008 344.2816 L 414.47107438017 346.634971428571 L 415.60661157025 339.384685714286 L 416.74214876033 341.096228571429 L 417.87768595041 334.036114285714 L 419.0132231405 327.855542857143 L 420.14876033058 333.988571428571 L 421.28429752066 320.842971428571 L 422.41983471074 321.841371428571 L 423.55537190083 305.74811428571 L 424.69090909091 299.56754285714 L 425.82644628099 307.81622857143 L 426.96198347107 319.8208 L 428.09752066116 306.84159999999997 L 429.23305785124 297.00022857143 L 430.36859504132 286.94491428571 L 431.5041322314 294.55177142857 L 432.63966942149 295.40754285714 L 433.77520661157 283.8784 L 434.91074380165 274.86902857143 L 436.04628099174 256.68388571429 L 437.18181818182 265.09897142857 L 438.3173553719 277.88800000000003 L 439.45289256198 285.13828571428996 L 440.58842975207 275.79611428571 L 441.72396694215 259.13234285714 L 442.85950413223 269.18765714285996 L 443.99504132231 259.32251428571 L 445.1305785124 244.79817142857 L 446.26611570248 248.62537142857 L 447.40165289256 241.25622857143 L 448.53719008264 237.35771428571 L 449.67272727273 249.00571428571 L 450.80826446281 267.47611428570997 L 451.94380165289 275.67725714285996 L 453.07933884298 263.2448 L 454.21487603306 271.32708571429 L 455.35041322314 279.552 L 456.48595041322 268.87862857143 L 457.62148760331 254.11657142857 L 458.75702479339 255.18628571429 L 459.89256198347 254.2592 L 461.02809917355 246.24822857143 L 462.16363636364 232.84114285714 L 463.29917355372 243.20548571429 L 464.4347107438 227.8016 L 465.57024793388 200.55954285714 L 466.70578512397 206.19337142857 L 467.84132231405 192.90514285714 L 468.97685950413 196.80365714286 L 470.11239669421 178.048 L 471.2479338843 177.57257142857 L 472.38347107438 151.28137142857003 L 473.51900826446 112.24868571428999 L 474.65454545455 83.60411428571001 L 475.79008264463 121.28182857143003 L 476.92561983471 144.88685714285998 L 478.06115702479 182.63588571429 L 479.19669421488 260.72502857143 L 480.33223140496 288.84662857143 L 481.46776859504 307.62605714286 L 482.60330578512 306.93668571429 L 483.73884297521 305.81942857142997 L 484.87438016529 298.97325714286 L 486.00991735537 295.24114285714 L 487.14545454545 260.2496 L 488.28099173554 251.264 L 489.41652892562 245.55885714286 L 490.5520661157 250.432 L 491.68760330579 251.81074285714 L 492.82314049587 237.23885714286 L 493.95867768595 229.4656 L 495.09421487603 230.74925714286 L 496.22975206612 246.12937142857 L 497.3652892562 231.55748571429 L 498.50082644628 219.41028571429 L 499.63636363636 208.14262857143 L 500.77190082645 238.54628571429 L 501.90743801653 237.69051428571 L 503.04297520661 230.15497142857 L 504.17851239669 238.57005714286 L 505.31404958678 220.33737142857 L 506.44958677686 218.34057142857 L 507.58512396694 211.75588571429 L 508.72066115702 190.76571428571 L 509.85619834711 175.8848 L 510.99173553719 150.23542857143002 L 512.12727272727 137.01851428571 L 513.26280991736 116.74148571428998 L 514.39834710744 138.51611428571 L 515.53388429752 148.61897142856998 L 516.6694214876 138.49234285714 L 517.80495867769 142.98514285713998 L 518.94049586777 171.7248 L 520.07603305785 155.56022857143 L 521.21157024793 153.27817142856998 L 522.34710743802 160.7424 L 523.4826446281 152.18468571429003 L 524.61818181818 124.41965714285999 L 525.75371900826 123.89668571429002 L 526.88925619835 132.00274285714 L 528.02479338843 173.84045714286 L 529.16033057851 183.51542857143 L 530.2958677686 166.59017142857 L 531.43140495868 143.65074285714002 L 532.56694214876 148.83291428571 L 533.70247933884 157.60457142857 L 534.83801652893 151.5904 L 535.97355371901 151.87565714286 L 537.10909090909 141.32114285714 L 538.24462809917 151.23382857143002 L 539.38016528926 155.53645714286 L 540.51570247934 172.65188571429 L 541.65123966942 177.35862857143 L 542.7867768595 173.15108571429 L 543.92231404959 159.98171428570998 L 545.05785123967 144.98194285713998 L 546.19338842975 158.38902857143 L 547.32892561983 157.27177142857 L 548.46446280992 155.25119999999998 L 549.6 152.61257142857 L 550.73553719008 163.072 L 551.87107438017 156.72502857143002 L 553.00661157025 159.83908571428998 L 554.14214876033 159.10217142857 L 555.27768595041 155.91680000000002 L 556.4132231405 148.90422857143 L 557.54876033058 163.97531428571 L 558.68429752066 170.70262857143 L 559.81983471074 190.95588571429 L 560.95537190083 211.89851428571 L 562.09090909091 249.24342857143 L 563.22644628099 279.7184 L 564.36198347107 290.03520000000003 L 565.49752066116 267.2384 L 566.63305785124 284.99565714286 L 567.76859504132 257.25440000000003 L 568.9041322314 260.15451428571 L 570.03966942149 264.83748571429 L 571.17520661157 291.88937142857003 L 572.31074380165 287.27771428571 L 573.44628099174 301.0176 L 574.58181818182 298.1888 L 575.7173553719 309.95565714286 L 576.85289256198 327.380114285714 L 577.98842975207 333.418057142857 L 579.12396694215 330.494171428571 L 580.25950413223 321.865142857143 L 581.39504132231 301.58811428571 L 582.5305785124 297.87977142857 L 583.66611570248 297.90354285714 L 584.80165289256 315.06651428571 L 585.93719008264 304.1792 L 587.07272727273 299.37737142857 L 588.20826446281 301.18399999999997 L 589.34380165289 296.0256 L 590.47933884298 280.93074285714 L 591.61487603306 283.59314285714004 L 592.75041322314 283.85462857143 L 593.88595041322 290.41554285714 L 595.02148760331 293.0304 L 596.15702479339 296.40594285714 L 597.29256198347 302.08731428571 L 598.42809917355 290.84342857142997 L 599.56363636364 291.48525714286 L 600.69917355372 279.2192 L 601.8347107438 270.11474285713996 L 602.97024793388 264.88502857143 L 604.10578512397 257.04045714285996 L 605.24132231405 251.85828571429 L 606.37685950413 259.63154285714 L 607.51239669421 251.16891428571 L 608.6479338843 237.31017142857 L 609.78347107438 231.55748571429 L 610.91900826446 227.15977142857 L 612.05454545455 239.49714285714 L 613.19008264463 232.17649371429 L 614.32561983471 219.36274285714 L 615.46115702479 236.59702857143 L 616.59669421488 276.43794285714 L 617.73223140496 288.10971428570997 L 618.86776859504 268.87862857143 L 620.00330578512 259.03725714285997 L 621.13884297521 253.4272 L 622.27438016529 242.944 L 623.40991735537 268.64091428571 L 624.54545454545 257.80114285714 L 625.68099173554 261.0816 L 626.81652892562 272.34925714286 L 627.9520661157 271.51725714286 L 629.08760330579 272.82468571429 L 630.22314049587 272.03832685713996 L 631.35867768595 258.56682057142996 L 632.49421487603 281.40617142857 L 633.62975206612 295.90674285714 L 634.7652892562 361.943771428571 L 635.90082644628 355.9296 L 637.03636363636 326.048914285714 L 638.17190082645 318.180571428571 L 639.30743801653 313.06971428571 L 640.44297520661 308.36297142857 L 641.57851239669 318.656 L 642.71404958678 326.95222857142903 L 643.84958677686 302.87177142857 L 644.98512396694 292.86400000000003 L 646.12066115702 285.16205714286 L 647.25619834711 262.86445714286003 L 648.39173553719 266.85805714286 L 649.52727272727 257.30194285714003 L 650.66280991736 251.21645714286 L 651.79834710744 238.6176 L 652.93388429752 236.73965714286 L 654.0694214876 245.72525714286 L 655.20495867769 229.84594285714 L 656.34049586777 216.9856 L 657.47603305785 252.2624 L 658.61157024793 232.128 L 659.74710743802 203.81622857143 L 660.8826446281 189.93371428571 L 662.01818181818 171.79611428571 L 663.15371900826 165.33028571429 L 664.28925619835 148.38125714286002 L 665.42479338843 164.99748571429 L 666.56033057851 174.86262857143 L 667.6958677686 192.04937142857 L 668.83140495868 217.46102857143 L 669.96694214876 199.63245714286 L 671.10247933884 209.21234285714 L 672.23801652893 212.39771428571 L 673.37355371901 213.53874285714 L 674.50909090909 219.10125714286 L 675.64462809917 226.09005714286 L 676.78016528926 225.04411428571 L 677.91570247934 243.68091428571 L 679.05123966942 237.00114285714 L 680.1867768595 214.06171428571 L 681.32231404959 210.00607085714" class="highcharts-graph" data-z-index="1" stroke="#2962FF" stroke-width="2" stroke-linejoin="round" stroke-linecap="round"></path></g><g class="highcharts-markers highcharts-series-0 highcharts-area-series" data-z-index="90" opacity="1" transform="translate(0,40) scale(1 1)" clip-path="none"></g></g><text x="740" text-anchor="end" class="highcharts-title" data-z-index="4" style="color: rgb(211, 211, 211); font-size: 15px; fill: rgb(211, 211, 211);" y="512"></text><text x="14" text-anchor="start" class="highcharts-subtitle" data-z-index="4" style="color: rgb(51, 51, 51); fill: rgb(51, 51, 51); font-size: 15px;" y="25"><tspan style="color: rgb(211, 211, 211); fill: rgb(211, 211, 211);">Crude Oil Brent</tspan></text><text x="0" text-anchor="start" class="highcharts-caption" data-z-index="4" style="color: rgb(102, 102, 102); fill: rgb(102, 102, 102);" y="527"></text><g class="highcharts-axis-labels highcharts-xaxis-labels" data-z-index="7"><text x="95.124508874136" text-anchor="middle" transform="translate(0,0)" style="color: rgb(227, 225, 225); cursor: default; font-size: 15px; font-weight: 400; fill: rgb(227, 225, 225);" y="476" opacity="1">1980</text><text x="223.70082644628" text-anchor="middle" transform="translate(0,0)" style="color: rgb(227, 225, 225); cursor: default; font-size: 15px; font-weight: 400; fill: rgb(227, 225, 225);" y="476" opacity="1">1990</text><text x="359.89646882044" text-anchor="middle" transform="translate(0,0)" style="color: rgb(227, 225, 225); cursor: default; font-size: 15px; font-weight: 400; fill: rgb(227, 225, 225);" y="476" opacity="1">2000</text><text x="496.22975206612" text-anchor="middle" transform="translate(0,0)" style="color: rgb(227, 225, 225); cursor: default; font-size: 15px; font-weight: 400; fill: rgb(227, 225, 225);" y="476" opacity="1">2010</text><text x="632.49421487603" text-anchor="middle" transform="translate(0,0)" style="color: rgb(227, 225, 225); cursor: default; font-size: 15px; font-weight: 400; fill: rgb(227, 225, 225);" y="476" opacity="1">2020</text></g><g class="highcharts-axis-labels highcharts-yaxis-labels" data-z-index="7"><text x="0" text-anchor="start" transform="translate(0,0)" style="color: rgb(227, 225, 225); cursor: default; font-size: 15px; fill: rgb(227, 225, 225);" visibility="hidden"><tspan>0</tspan></text><text x="695" text-anchor="start" transform="translate(0,0)" style="color: rgb(227, 225, 225); cursor: default; font-size: 15px; fill: rgb(227, 225, 225);" y="401" opacity="1">25</text><text x="695" text-anchor="start" transform="translate(0,0)" style="color: rgb(227, 225, 225); cursor: default; font-size: 15px; fill: rgb(227, 225, 225);" y="342" opacity="1">50</text><text x="695" text-anchor="start" transform="translate(0,0)" style="color: rgb(227, 225, 225); cursor: default; font-size: 15px; fill: rgb(227, 225, 225);" y="282" opacity="1">75</text><text x="695" text-anchor="start" transform="translate(0,0)" style="color: rgb(227, 225, 225); cursor: default; font-size: 15px; fill: rgb(227, 225, 225);" y="223" opacity="1">100</text><text x="695" text-anchor="start" transform="translate(0,0)" style="color: rgb(227, 225, 225); cursor: default; font-size: 15px; fill: rgb(227, 225, 225);" y="163" opacity="1">125</text><text x="695" text-anchor="start" transform="translate(0,0)" style="color: rgb(227, 225, 225); cursor: default; font-size: 15px; fill: rgb(227, 225, 225);" y="104" opacity="1">150</text><text x="0" text-anchor="start" transform="translate(0,0)" style="color: rgb(227, 225, 225); cursor: default; font-size: 15px; fill: rgb(227, 225, 225);" visibility="hidden">175</text></g><g class="highcharts-axis-labels highcharts-yaxis-labels" data-z-index="7"></g><g class="highcharts-axis-labels highcharts-yaxis-labels" data-z-index="7"></g><g class="highcharts-control-points" data-z-index="99" clip-path="url(#highcharts-hpe1zjx-3994-)"></g><g class="highcharts-axis highcharts-yaxis" data-z-index="9999"><path fill="none" class="highcharts-tick" stroke="#333333" stroke-width="1" d="M 688 456.5 L 693 456.5" opacity="1"></path><path fill="none" class="highcharts-tick" stroke="#333333" stroke-width="1" d="M 688 397.5 L 693 397.5" opacity="1"></path><path fill="none" class="highcharts-tick" stroke="#333333" stroke-width="1" d="M 688 337.5 L 693 337.5" opacity="1"></path><path fill="none" class="highcharts-tick" stroke="#333333" stroke-width="1" d="M 688 278.5 L 693 278.5" opacity="1"></path><path fill="none" class="highcharts-tick" stroke="#333333" stroke-width="1" d="M 688 218.5 L 693 218.5" opacity="1"></path><path fill="none" class="highcharts-tick" stroke="#333333" stroke-width="1" d="M 688 159.5 L 693 159.5" opacity="1"></path><path fill="none" class="highcharts-tick" stroke="#333333" stroke-width="1" d="M 688 99.5 L 693 99.5" opacity="1"></path><path fill="none" class="highcharts-tick" stroke="#333333" stroke-width="1" d="M 688 39.5 L 693 39.5" opacity="1"></path><path fill="none" class="highcharts-axis-line" stroke="#616161" stroke-width="1" data-z-index="7" d="M 688.5 40 L 688.5 456"></path></g><path fill="none" d="M 0 0 L 1792 0" stroke="#757575" stroke-width="1" stroke-dasharray="8,3" data-z-index="6" visibility="hidden" class="crosshair-fix-horizontal"></path><path fill="none" d="M 0 40 L 0 1160" stroke="#757575" stroke-width="1" stroke-dasharray="8,3" data-z-index="6" visibility="hidden" class="crosshair-fix-vertical"></path></svg>