<?xml version="1.0" standalone="no"?><!DOCTYPE svg PUBLIC "-//W3C//DTD SVG 1.1//EN" "http://www.w3.org/Graphics/SVG/1.1/DTD/svg11.dtd"><svg xmlns:xlink="http://www.w3.org/1999/xlink" version="1.1" class="highcharts-root" style="font-family: &quot;Helvetica Neue&quot;, Helvetica, Arial, sans-serif; font-size: 12px;" xmlns="http://www.w3.org/2000/svg" width="750" height="520" viewBox="0 0 750 520"><desc>Created with Highcharts 10.1.0</desc><defs><linearGradient x1="0" y1="0" x2="500" y2="500" gradientUnits="userSpaceOnUse" id="highcharts-e1yzqei-1872"><stop offset="0" stop-color="rgb(35, 35, 35)" stop-opacity="1"></stop></linearGradient><clipPath id="highcharts-e1yzqei-1873-"><rect x="0" y="0" width="687" height="416" fill="none"></rect></clipPath><clipPath id="highcharts-e1yzqei-2041-"><rect x="0" y="0" width="687" height="416" fill="none"></rect></clipPath><linearGradient x1="0" y1="0" x2="0" y2="1" id="highcharts-e1yzqei-2042"><stop offset="0" stop-color="#2962FF" stop-opacity="1"></stop><stop offset="1" stop-color="rgb(41,98,255)" stop-opacity="0"></stop></linearGradient><linearGradient x1="0" y1="0" x2="0" y2="1" id="highcharts-e1yzqei-2215"><stop offset="0" stop-color="#459a63" stop-opacity="1"></stop><stop offset="1" stop-color="rgb(69,154,99)" stop-opacity="0"></stop></linearGradient><clipPath id="highcharts-e1yzqei-2216-"><rect x="0" y="40" width="687" height="416" fill="none"></rect></clipPath></defs><rect fill="url(#highcharts-e1yzqei-1872)" class="highcharts-background" x="0" y="0" width="750" height="520" rx="0" ry="0"></rect><rect fill="none" class="highcharts-plot-background" x="0" y="40" width="687" height="416"></rect><g class="highcharts-grid highcharts-xaxis-grid" data-z-index="1"><path fill="none" stroke="#333333" stroke-width="1" stroke-dasharray="none" data-z-index="1" class="highcharts-grid-line" d="M 59.5 40 L 59.5 456" opacity="1"></path><path fill="none" stroke="#333333" stroke-width="1" stroke-dasharray="none" data-z-index="1" class="highcharts-grid-line" d="M 180.5 40 L 180.5 456" opacity="1"></path><path fill="none" stroke="#333333" stroke-width="1" stroke-dasharray="none" data-z-index="1" class="highcharts-grid-line" d="M 300.5 40 L 300.5 456" opacity="1"></path><path fill="none" stroke="#333333" stroke-width="1" stroke-dasharray="none" data-z-index="1" class="highcharts-grid-line" d="M 421.5 40 L 421.5 456" opacity="1"></path><path fill="none" stroke="#333333" stroke-width="1" stroke-dasharray="none" data-z-index="1" class="highcharts-grid-line" d="M 541.5 40 L 541.5 456" opacity="1"></path><path fill="none" stroke="#333333" stroke-width="1" stroke-dasharray="none" data-z-index="1" class="highcharts-grid-line" d="M 662.5 40 L 662.5 456" opacity="1"></path></g><g class="highcharts-grid highcharts-yaxis-grid" data-z-index="1"><path fill="none" stroke="#333333" stroke-width="1" stroke-dasharray="none" data-z-index="1" class="highcharts-grid-line" d="M 0 456.5 L 687 456.5" opacity="1"></path><path fill="none" stroke="#333333" stroke-width="1" stroke-dasharray="none" data-z-index="1" class="highcharts-grid-line" d="M 0 404.5 L 687 404.5" opacity="1"></path><path fill="none" stroke="#333333" stroke-width="1" stroke-dasharray="none" data-z-index="1" class="highcharts-grid-line" d="M 0 352.5 L 687 352.5" opacity="1"></path><path fill="none" stroke="#333333" stroke-width="1" stroke-dasharray="none" data-z-index="1" class="highcharts-grid-line" d="M 0 300.5 L 687 300.5" opacity="1"></path><path fill="none" stroke="#333333" stroke-width="1" stroke-dasharray="none" data-z-index="1" class="highcharts-grid-line" d="M 0 248.5 L 687 248.5" opacity="1"></path><path fill="none" stroke="#333333" stroke-width="1" stroke-dasharray="none" data-z-index="1" class="highcharts-grid-line" d="M 0 196.5 L 687 196.5" opacity="1"></path><path fill="none" stroke="#333333" stroke-width="1" stroke-dasharray="none" data-z-index="1" class="highcharts-grid-line" d="M 0 144.5 L 687 144.5" opacity="1"></path><path fill="none" stroke="#333333" stroke-width="1" stroke-dasharray="none" data-z-index="1" class="highcharts-grid-line" d="M 0 92.5 L 687 92.5" opacity="1"></path><path fill="none" stroke="#333333" stroke-width="1" stroke-dasharray="none" data-z-index="1" class="highcharts-grid-line" d="M 0 39.5 L 687 39.5" opacity="1"></path></g><g class="highcharts-grid highcharts-yaxis-grid" data-z-index="1"></g><g class="highcharts-grid highcharts-yaxis-grid" data-z-index="1"></g><rect fill="none" class="highcharts-plot-border" data-z-index="1" x="0" y="40" width="687" height="416"></rect><g class="highcharts-axis highcharts-xaxis" data-z-index="2"><path fill="none" class="highcharts-axis-line" stroke="#616161" stroke-width="1" data-z-index="7" d="M 0 456.5 L 687 456.5"></path></g><g class="highcharts-axis highcharts-yaxis" data-z-index="2"><path fill="none" class="highcharts-axis-line" data-z-index="7" d="M 733 40 L 733 456"></path></g><g class="highcharts-axis highcharts-yaxis" data-z-index="2"><path fill="none" class="highcharts-axis-line" stroke="#616161" stroke-width="1" data-z-index="7" d="M -1.5 40 L -1.5 456"></path></g><g class="highcharts-series-group" data-z-index="3"><g class="highcharts-series highcharts-series-0 highcharts-area-series" data-z-index="90" opacity="1" transform="translate(0,40) scale(1 1)" clip-path="url(#highcharts-e1yzqei-2041-)"><path fill="url(#highcharts-e1yzqei-2042)" d="M 0 194.012 L 4.0175438596492 171.6 L 8.0350877192983 157.92399999999998 L 12.052631578947 124.358 L 16.070175438597 133.094 L 20.087719298245 172.614 L 24.105263157895 172.406 L 28.122807017544 188.552 L 32.140350877193 198.094 L 36.157894736842 205.92 L 40.175438596491 190.008 L 44.19298245614 174.096 L 48.21052631579 147.70600000000002 L 52.228070175439 142.558 L 56.245614035088 131.50799999999998 L 60.263157894737 113.95800000000003 L 64.280701754386 99.81400000000002 L 68.298245614035 103.76600000000002 L 72.315789473684 91.33800000000002 L 76.333333333333 72.12400000000002 L 80.350877192982 72.54000000000002 L 84.368421052632 71.44799999999998 L 88.385964912281 70.40800000000002 L 92.40350877193 61.95800000000003 L 96.421052631579 85.332 L 100.43859649123 89.36200000000002 L 104.45614035088 105.22199999999998 L 108.47368421053 130.64999999999998 L 112.49122807018 150.488 L 116.50877192982 140.55599999999998 L 120.52631578947 157.404 L 124.54385964912 221.312 L 128.56140350877 264.472 L 132.57894736842 240.552 L 136.59649122807 234.78 L 140.61403508772 231.296 L 144.63157894737 217.568 L 148.64912280702 235.638 L 152.66666666667 259.324 L 156.68421052632 250.276 L 160.70175438596 244.036 L 164.71929824561 236.964 L 168.73684210526 224.38 L 172.75438596491 225.238 L 176.77192982456 243.75 L 180.78947368421 228.982 L 184.80701754386 192.894 L 188.82456140351 179.868 L 192.84210526316 173.368 L 196.85964912281 162.006 L 200.87719298246 136.70800000000003 L 204.89473684211 104.988 L 208.91228070175 89.36200000000002 L 212.9298245614 192.114 L 216.94736842105 182.312 L 220.9649122807 197.132 L 224.98245614035 196.118 L 229 198.614 L 233.01754385965 203.554 L 237.0350877193 191.49 L 241.05263157895 223.574 L 245.0701754386 258.908 L 249.08771929825 324.168 L 253.10526315789 343.59000000000003 L 257.12280701754 319.488 L 261.14035087719 326.794 L 265.15789473684 325.624 L 269.17543859649 345.358 L 273.19298245614 367.406 L 277.21052631579 361.244 L 281.22807017544 370.942 L 285.24561403509 349.778 L 289.26315789474 350.922 L 293.28070175439 356.252 L 297.29824561404 367.224 L 301.31578947368 380.588 L 305.33333333333 370.578 L 309.35087719298 350.61 L 313.36842105263 349.648 L 317.38596491228 333.84000000000003 L 321.40350877193 337.142 L 325.42105263158 343.85 L 329.43859649123 351.286 L 333.45614035088 338.598 L 337.47368421053 317.122 L 341.49122807018 328.25 L 345.50877192982 301.31399999999996 L 349.52631578947 270.504 L 353.54385964912 268.58000000000004 L 357.56140350877 307.19 L 361.57894736842 298.22 L 365.59649122807 301.652 L 369.61403508772 313.76800000000003 L 373.63157894737 297.856 L 377.64912280702 270.946 L 381.66666666667 237.432 L 385.68421052632 223.99 L 389.70175438596 212.576 L 393.71929824561 218.582 L 397.73684210526 233.636 L 401.75438596491 249.782 L 405.77192982456 262.262 L 409.78947368421 253.968 L 413.80701754386 229.84 L 417.82456140351 239.174 L 421.84210526316 224.042 L 425.85964912281 214.526 L 429.87719298246 192.53 L 433.8947368421 218.556 L 437.91228070175 273.754 L 441.9298245614 291.252 L 445.94736842105 294.944 L 449.9649122807 293.306 L 453.98245614035 294.554 L 458 301.08 L 462.01754385965 318.11 L 466.0350877193 352.248 L 470.05263157895 341.718 L 474.0701754386 363.298 L 478.08771929825 351.13 L 482.10526315789 346.892 L 486.12280701754 330.226 L 490.14035087719 339.222 L 494.15789473684 356.538 L 498.17543859649 365.456 L 502.19298245614 391.6016 L 506.21052631579 383.1438 L 510.22807017544 360.88 L 514.24561403509 338.7098 L 518.26315789474 340.0462 L 522.28070175439 336.51800000000003 L 526.29824561403 339.664 L 530.31578947368 332.54 L 534.33333333333 325.962 L 538.35087719298 300.17 L 542.36842105263 247.156 L 546.38596491228 230.516 L 550.40350877193 227.838 L 554.42105263158 255.502 L 558.43859649123 253.604 L 562.45614035088 215.644 L 566.47368421053 183.508 L 570.49122807018 178.516 L 574.50877192982 132.288 L 578.52631578947 91.988 L 582.54385964912 140.608 L 586.56140350877 198.354 L 590.57894736842 164.814 L 594.59649122807 126.28199999999998 L 598.61403508772 93.99000000000001 L 602.63157894737 128.05 L 606.64912280702 147.47199999999998 L 610.66666666667 152.10000000000002 L 614.68421052632 170.222 L 618.70175438596 183.95 L 622.71929824561 209.82 L 626.73684210526 245.622 L 630.75438596491 246.61 L 634.77192982456 287.56 L 638.78947368421 249.444 L 642.80701754386 255.606 L 646.82456140351 261.326 L 650.84210526316 257.426 L 654.85964912281 298.844 L 658.87719298246 319.15 L 662.8947368421 302.302 L 666.91228070175 290.602 L 666.91228070175 416 L 662.8947368421 416 L 658.87719298246 416 L 654.85964912281 416 L 650.84210526316 416 L 646.82456140351 416 L 642.80701754386 416 L 638.78947368421 416 L 634.77192982456 416 L 630.75438596491 416 L 626.73684210526 416 L 622.71929824561 416 L 618.70175438596 416 L 614.68421052632 416 L 610.66666666667 416 L 606.64912280702 416 L 602.63157894737 416 L 598.61403508772 416 L 594.59649122807 416 L 590.57894736842 416 L 586.56140350877 416 L 582.54385964912 416 L 578.52631578947 416 L 574.50877192982 416 L 570.49122807018 416 L 566.47368421053 416 L 562.45614035088 416 L 558.43859649123 416 L 554.42105263158 416 L 550.40350877193 416 L 546.38596491228 416 L 542.36842105263 416 L 538.35087719298 416 L 534.33333333333 416 L 530.31578947368 416 L 526.29824561403 416 L 522.28070175439 416 L 518.26315789474 416 L 514.24561403509 416 L 510.22807017544 416 L 506.21052631579 416 L 502.19298245614 416 L 498.17543859649 416 L 494.15789473684 416 L 490.14035087719 416 L 486.12280701754 416 L 482.10526315789 416 L 478.08771929825 416 L 474.0701754386 416 L 470.05263157895 416 L 466.0350877193 416 L 462.01754385965 416 L 458 416 L 453.98245614035 416 L 449.9649122807 416 L 445.94736842105 416 L 441.9298245614 416 L 437.91228070175 416 L 433.8947368421 416 L 429.87719298246 416 L 425.85964912281 416 L 421.84210526316 416 L 417.82456140351 416 L 413.80701754386 416 L 409.78947368421 416 L 405.77192982456 416 L 401.75438596491 416 L 397.73684210526 416 L 393.71929824561 416 L 389.70175438596 416 L 385.68421052632 416 L 381.66666666667 416 L 377.64912280702 416 L 373.63157894737 416 L 369.61403508772 416 L 365.59649122807 416 L 361.57894736842 416 L 357.56140350877 416 L 353.54385964912 416 L 349.52631578947 416 L 345.50877192982 416 L 341.49122807018 416 L 337.47368421053 416 L 333.45614035088 416 L 329.43859649123 416 L 325.42105263158 416 L 321.40350877193 416 L 317.38596491228 416 L 313.36842105263 416 L 309.35087719298 416 L 305.33333333333 416 L 301.31578947368 416 L 297.29824561404 416 L 293.28070175439 416 L 289.26315789474 416 L 285.24561403509 416 L 281.22807017544 416 L 277.21052631579 416 L 273.19298245614 416 L 269.17543859649 416 L 265.15789473684 416 L 261.14035087719 416 L 257.12280701754 416 L 253.10526315789 416 L 249.08771929825 416 L 245.0701754386 416 L 241.05263157895 416 L 237.0350877193 416 L 233.01754385965 416 L 229 416 L 224.98245614035 416 L 220.9649122807 416 L 216.94736842105 416 L 212.9298245614 416 L 208.91228070175 416 L 204.89473684211 416 L 200.87719298246 416 L 196.85964912281 416 L 192.84210526316 416 L 188.82456140351 416 L 184.80701754386 416 L 180.78947368421 416 L 176.77192982456 416 L 172.75438596491 416 L 168.73684210526 416 L 164.71929824561 416 L 160.70175438596 416 L 156.68421052632 416 L 152.66666666667 416 L 148.64912280702 416 L 144.63157894737 416 L 140.61403508772 416 L 136.59649122807 416 L 132.57894736842 416 L 128.56140350877 416 L 124.54385964912 416 L 120.52631578947 416 L 116.50877192982 416 L 112.49122807018 416 L 108.47368421053 416 L 104.45614035088 416 L 100.43859649123 416 L 96.421052631579 416 L 92.40350877193 416 L 88.385964912281 416 L 84.368421052632 416 L 80.350877192982 416 L 76.333333333333 416 L 72.315789473684 416 L 68.298245614035 416 L 64.280701754386 416 L 60.263157894737 416 L 56.245614035088 416 L 52.228070175439 416 L 48.21052631579 416 L 44.19298245614 416 L 40.175438596491 416 L 36.157894736842 416 L 32.140350877193 416 L 28.122807017544 416 L 24.105263157895 416 L 20.087719298245 416 L 16.070175438597 416 L 12.052631578947 416 L 8.0350877192983 416 L 4.0175438596492 416 L 0 416 Z" class="highcharts-area" data-z-index="0"></path><path fill="none" d="M 0 194.012 L 4.0175438596492 171.6 L 8.0350877192983 157.92399999999998 L 12.052631578947 124.358 L 16.070175438597 133.094 L 20.087719298245 172.614 L 24.105263157895 172.406 L 28.122807017544 188.552 L 32.140350877193 198.094 L 36.157894736842 205.92 L 40.175438596491 190.008 L 44.19298245614 174.096 L 48.21052631579 147.70600000000002 L 52.228070175439 142.558 L 56.245614035088 131.50799999999998 L 60.263157894737 113.95800000000003 L 64.280701754386 99.81400000000002 L 68.298245614035 103.76600000000002 L 72.315789473684 91.33800000000002 L 76.333333333333 72.12400000000002 L 80.350877192982 72.54000000000002 L 84.368421052632 71.44799999999998 L 88.385964912281 70.40800000000002 L 92.40350877193 61.95800000000003 L 96.421052631579 85.332 L 100.43859649123 89.36200000000002 L 104.45614035088 105.22199999999998 L 108.47368421053 130.64999999999998 L 112.49122807018 150.488 L 116.50877192982 140.55599999999998 L 120.52631578947 157.404 L 124.54385964912 221.312 L 128.56140350877 264.472 L 132.57894736842 240.552 L 136.59649122807 234.78 L 140.61403508772 231.296 L 144.63157894737 217.568 L 148.64912280702 235.638 L 152.66666666667 259.324 L 156.68421052632 250.276 L 160.70175438596 244.036 L 164.71929824561 236.964 L 168.73684210526 224.38 L 172.75438596491 225.238 L 176.77192982456 243.75 L 180.78947368421 228.982 L 184.80701754386 192.894 L 188.82456140351 179.868 L 192.84210526316 173.368 L 196.85964912281 162.006 L 200.87719298246 136.70800000000003 L 204.89473684211 104.988 L 208.91228070175 89.36200000000002 L 212.9298245614 192.114 L 216.94736842105 182.312 L 220.9649122807 197.132 L 224.98245614035 196.118 L 229 198.614 L 233.01754385965 203.554 L 237.0350877193 191.49 L 241.05263157895 223.574 L 245.0701754386 258.908 L 249.08771929825 324.168 L 253.10526315789 343.59000000000003 L 257.12280701754 319.488 L 261.14035087719 326.794 L 265.15789473684 325.624 L 269.17543859649 345.358 L 273.19298245614 367.406 L 277.21052631579 361.244 L 281.22807017544 370.942 L 285.24561403509 349.778 L 289.26315789474 350.922 L 293.28070175439 356.252 L 297.29824561404 367.224 L 301.31578947368 380.588 L 305.33333333333 370.578 L 309.35087719298 350.61 L 313.36842105263 349.648 L 317.38596491228 333.84000000000003 L 321.40350877193 337.142 L 325.42105263158 343.85 L 329.43859649123 351.286 L 333.45614035088 338.598 L 337.47368421053 317.122 L 341.49122807018 328.25 L 345.50877192982 301.31399999999996 L 349.52631578947 270.504 L 353.54385964912 268.58000000000004 L 357.56140350877 307.19 L 361.57894736842 298.22 L 365.59649122807 301.652 L 369.61403508772 313.76800000000003 L 373.63157894737 297.856 L 377.64912280702 270.946 L 381.66666666667 237.432 L 385.68421052632 223.99 L 389.70175438596 212.576 L 393.71929824561 218.582 L 397.73684210526 233.636 L 401.75438596491 249.782 L 405.77192982456 262.262 L 409.78947368421 253.968 L 413.80701754386 229.84 L 417.82456140351 239.174 L 421.84210526316 224.042 L 425.85964912281 214.526 L 429.87719298246 192.53 L 433.8947368421 218.556 L 437.91228070175 273.754 L 441.9298245614 291.252 L 445.94736842105 294.944 L 449.9649122807 293.306 L 453.98245614035 294.554 L 458 301.08 L 462.01754385965 318.11 L 466.0350877193 352.248 L 470.05263157895 341.718 L 474.0701754386 363.298 L 478.08771929825 351.13 L 482.10526315789 346.892 L 486.12280701754 330.226 L 490.14035087719 339.222 L 494.15789473684 356.538 L 498.17543859649 365.456 L 502.19298245614 391.6016 L 506.21052631579 383.1438 L 510.22807017544 360.88 L 514.24561403509 338.7098 L 518.26315789474 340.0462 L 522.28070175439 336.51800000000003 L 526.29824561403 339.664 L 530.31578947368 332.54 L 534.33333333333 325.962 L 538.35087719298 300.17 L 542.36842105263 247.156 L 546.38596491228 230.516 L 550.40350877193 227.838 L 554.42105263158 255.502 L 558.43859649123 253.604 L 562.45614035088 215.644 L 566.47368421053 183.508 L 570.49122807018 178.516 L 574.50877192982 132.288 L 578.52631578947 91.988 L 582.54385964912 140.608 L 586.56140350877 198.354 L 590.57894736842 164.814 L 594.59649122807 126.28199999999998 L 598.61403508772 93.99000000000001 L 602.63157894737 128.05 L 606.64912280702 147.47199999999998 L 610.66666666667 152.10000000000002 L 614.68421052632 170.222 L 618.70175438596 183.95 L 622.71929824561 209.82 L 626.73684210526 245.622 L 630.75438596491 246.61 L 634.77192982456 287.56 L 638.78947368421 249.444 L 642.80701754386 255.606 L 646.82456140351 261.326 L 650.84210526316 257.426 L 654.85964912281 298.844 L 658.87719298246 319.15 L 662.8947368421 302.302 L 666.91228070175 290.602" class="highcharts-graph" data-z-index="1" stroke="#2962FF" stroke-width="2" stroke-linejoin="round" stroke-linecap="round"></path></g><g class="highcharts-markers highcharts-series-0 highcharts-area-series" data-z-index="90" opacity="1" transform="translate(0,40) scale(1 1)" clip-path="none"></g></g><text x="740" text-anchor="end" class="highcharts-title" data-z-index="4" style="color: rgb(211, 211, 211); font-size: 15px; fill: rgb(211, 211, 211);" y="512"></text><text x="14" text-anchor="start" class="highcharts-subtitle" data-z-index="4" style="color: rgb(51, 51, 51); fill: rgb(51, 51, 51); font-size: 15px;" y="25"><tspan style="color: rgb(211, 211, 211); fill: rgb(211, 211, 211);">Propane</tspan></text><text x="0" text-anchor="start" class="highcharts-caption" data-z-index="4" style="color: rgb(102, 102, 102); fill: rgb(102, 102, 102);" y="527"></text><g class="highcharts-axis-labels highcharts-xaxis-labels" data-z-index="7"><text x="60.019670388091" text-anchor="middle" transform="translate(0,0)" style="color: rgb(227, 225, 225); cursor: default; font-size: 15px; font-weight: 400; fill: rgb(227, 225, 225);" y="476" opacity="1">2011</text><text x="180.78947368421" text-anchor="middle" transform="translate(0,0)" style="color: rgb(227, 225, 225); cursor: default; font-size: 15px; font-weight: 400; fill: rgb(227, 225, 225);" y="476" opacity="1">2013</text><text x="300.9613003096" text-anchor="middle" transform="translate(0,0)" style="color: rgb(227, 225, 225); cursor: default; font-size: 15px; font-weight: 400; fill: rgb(227, 225, 225);" y="476" opacity="1">2016</text><text x="421.71250707414" text-anchor="middle" transform="translate(0,0)" style="color: rgb(227, 225, 225); cursor: default; font-size: 15px; font-weight: 400; fill: rgb(227, 225, 225);" y="476" opacity="1">2018</text><text x="542.01393188855" text-anchor="middle" transform="translate(0,0)" style="color: rgb(227, 225, 225); cursor: default; font-size: 15px; font-weight: 400; fill: rgb(227, 225, 225);" y="476" opacity="1">2021</text><text x="662.64364035088" text-anchor="middle" transform="translate(0,0)" style="color: rgb(227, 225, 225); cursor: default; font-size: 15px; font-weight: 400; fill: rgb(227, 225, 225);" y="476" opacity="1">2023</text></g><g class="highcharts-axis-labels highcharts-yaxis-labels" data-z-index="7"><text x="0" text-anchor="start" transform="translate(0,0)" style="color: rgb(227, 225, 225); cursor: default; font-size: 15px; fill: rgb(227, 225, 225);" visibility="hidden">0.200</text><text x="695" text-anchor="start" transform="translate(0,0)" style="color: rgb(227, 225, 225); cursor: default; font-size: 15px; fill: rgb(227, 225, 225);" y="409" opacity="1">0.400</text><text x="695" text-anchor="start" transform="translate(0,0)" style="color: rgb(227, 225, 225); cursor: default; font-size: 15px; fill: rgb(227, 225, 225);" y="357" opacity="1">0.600</text><text x="695" text-anchor="start" transform="translate(0,0)" style="color: rgb(227, 225, 225); cursor: default; font-size: 15px; fill: rgb(227, 225, 225);" y="305" opacity="1">0.800</text><text x="695" text-anchor="start" transform="translate(0,0)" style="color: rgb(227, 225, 225); cursor: default; font-size: 15px; fill: rgb(227, 225, 225);" y="253" opacity="1">1</text><text x="695" text-anchor="start" transform="translate(0,0)" style="color: rgb(227, 225, 225); cursor: default; font-size: 15px; fill: rgb(227, 225, 225);" y="201" opacity="1">1.200</text><text x="695" text-anchor="start" transform="translate(0,0)" style="color: rgb(227, 225, 225); cursor: default; font-size: 15px; fill: rgb(227, 225, 225);" y="149" opacity="1">1.400</text><text x="695" text-anchor="start" transform="translate(0,0)" style="color: rgb(227, 225, 225); cursor: default; font-size: 15px; fill: rgb(227, 225, 225);" y="97" opacity="1">1.600</text><text x="0" text-anchor="start" transform="translate(0,0)" style="color: rgb(227, 225, 225); cursor: default; font-size: 15px; fill: rgb(227, 225, 225);" visibility="hidden">1.800</text></g><g class="highcharts-axis-labels highcharts-yaxis-labels" data-z-index="7"></g><g class="highcharts-axis-labels highcharts-yaxis-labels" data-z-index="7"></g><g class="highcharts-control-points" data-z-index="99" clip-path="url(#highcharts-e1yzqei-2216-)"></g><g class="highcharts-axis highcharts-yaxis" data-z-index="9999"><path fill="none" class="highcharts-tick" stroke="#333333" stroke-width="1" d="M 688 456.5 L 693 456.5" opacity="1"></path><path fill="none" class="highcharts-tick" stroke="#333333" stroke-width="1" d="M 688 404.5 L 693 404.5" opacity="1"></path><path fill="none" class="highcharts-tick" stroke="#333333" stroke-width="1" d="M 688 352.5 L 693 352.5" opacity="1"></path><path fill="none" class="highcharts-tick" stroke="#333333" stroke-width="1" d="M 688 300.5 L 693 300.5" opacity="1"></path><path fill="none" class="highcharts-tick" stroke="#333333" stroke-width="1" d="M 688 248.5 L 693 248.5" opacity="1"></path><path fill="none" class="highcharts-tick" stroke="#333333" stroke-width="1" d="M 688 196.5 L 693 196.5" opacity="1"></path><path fill="none" class="highcharts-tick" stroke="#333333" stroke-width="1" d="M 688 144.5 L 693 144.5" opacity="1"></path><path fill="none" class="highcharts-tick" stroke="#333333" stroke-width="1" d="M 688 92.5 L 693 92.5" opacity="1"></path><path fill="none" class="highcharts-tick" stroke="#333333" stroke-width="1" d="M 688 39.5 L 693 39.5" opacity="1"></path><path fill="none" class="highcharts-axis-line" stroke="#616161" stroke-width="1" data-z-index="7" d="M 688.5 40 L 688.5 456"></path></g><path fill="none" d="M 0 0 L 1792 0" stroke="#757575" stroke-width="1" stroke-dasharray="8,3" data-z-index="6" visibility="hidden" class="crosshair-fix-horizontal"></path><path fill="none" d="M 0 40 L 0 1160" stroke="#757575" stroke-width="1" stroke-dasharray="8,3" data-z-index="6" visibility="hidden" class="crosshair-fix-vertical"></path></svg>