<?xml version="1.0" standalone="no"?><!DOCTYPE svg PUBLIC "-//W3C//DTD SVG 1.1//EN" "http://www.w3.org/Graphics/SVG/1.1/DTD/svg11.dtd"><svg xmlns:xlink="http://www.w3.org/1999/xlink" version="1.1" class="highcharts-root" style="font-family: &quot;Helvetica Neue&quot;, Helvetica, Arial, sans-serif; font-size: 12px;" xmlns="http://www.w3.org/2000/svg" width="750" height="520" viewBox="0 0 750 520"><desc>Created with Highcharts 10.1.0</desc><defs><linearGradient x1="0" y1="0" x2="500" y2="500" gradientUnits="userSpaceOnUse" id="highcharts-bd4tkxb-1900"><stop offset="0" stop-color="rgb(35, 35, 35)" stop-opacity="1"></stop></linearGradient><clipPath id="highcharts-bd4tkxb-1901-"><rect x="0" y="0" width="687" height="416" fill="none"></rect></clipPath><clipPath id="highcharts-bd4tkxb-2326-"><rect x="0" y="0" width="687" height="416" fill="none"></rect></clipPath><linearGradient x1="0" y1="0" x2="0" y2="1" id="highcharts-bd4tkxb-2327"><stop offset="0" stop-color="#2962FF" stop-opacity="1"></stop><stop offset="1" stop-color="rgb(41,98,255)" stop-opacity="0"></stop></linearGradient><linearGradient x1="0" y1="0" x2="0" y2="1" id="highcharts-bd4tkxb-2757"><stop offset="0" stop-color="#459a63" stop-opacity="1"></stop><stop offset="1" stop-color="rgb(69,154,99)" stop-opacity="0"></stop></linearGradient><clipPath id="highcharts-bd4tkxb-2758-"><rect x="0" y="40" width="687" height="416" fill="none"></rect></clipPath></defs><rect fill="url(#highcharts-bd4tkxb-1900)" class="highcharts-background" x="0" y="0" width="750" height="520" rx="0" ry="0"></rect><rect fill="none" class="highcharts-plot-background" x="0" y="40" width="687" height="416"></rect><g class="highcharts-grid highcharts-xaxis-grid" data-z-index="1"><path fill="none" stroke="#333333" stroke-width="1" stroke-dasharray="none" data-z-index="1" class="highcharts-grid-line" d="M 38.5 40 L 38.5 456" opacity="1"></path><path fill="none" stroke="#333333" stroke-width="1" stroke-dasharray="none" data-z-index="1" class="highcharts-grid-line" d="M 134.5 40 L 134.5 456" opacity="1"></path><path fill="none" stroke="#333333" stroke-width="1" stroke-dasharray="none" data-z-index="1" class="highcharts-grid-line" d="M 230.5 40 L 230.5 456" opacity="1"></path><path fill="none" stroke="#333333" stroke-width="1" stroke-dasharray="none" data-z-index="1" class="highcharts-grid-line" d="M 326.5 40 L 326.5 456" opacity="1"></path><path fill="none" stroke="#333333" stroke-width="1" stroke-dasharray="none" data-z-index="1" class="highcharts-grid-line" d="M 416.5 40 L 416.5 456" opacity="1"></path><path fill="none" stroke="#333333" stroke-width="1" stroke-dasharray="none" data-z-index="1" class="highcharts-grid-line" d="M 513.5 40 L 513.5 456" opacity="1"></path><path fill="none" stroke="#333333" stroke-width="1" stroke-dasharray="none" data-z-index="1" class="highcharts-grid-line" d="M 609.5 40 L 609.5 456" opacity="1"></path></g><g class="highcharts-grid highcharts-yaxis-grid" data-z-index="1"><path fill="none" stroke="#333333" stroke-width="1" stroke-dasharray="none" data-z-index="1" class="highcharts-grid-line" d="M 0 456.5 L 687 456.5" opacity="1"></path><path fill="none" stroke="#333333" stroke-width="1" stroke-dasharray="none" data-z-index="1" class="highcharts-grid-line" d="M 0 397.5 L 687 397.5" opacity="1"></path><path fill="none" stroke="#333333" stroke-width="1" stroke-dasharray="none" data-z-index="1" class="highcharts-grid-line" d="M 0 337.5 L 687 337.5" opacity="1"></path><path fill="none" stroke="#333333" stroke-width="1" stroke-dasharray="none" data-z-index="1" class="highcharts-grid-line" d="M 0 278.5 L 687 278.5" opacity="1"></path><path fill="none" stroke="#333333" stroke-width="1" stroke-dasharray="none" data-z-index="1" class="highcharts-grid-line" d="M 0 218.5 L 687 218.5" opacity="1"></path><path fill="none" stroke="#333333" stroke-width="1" stroke-dasharray="none" data-z-index="1" class="highcharts-grid-line" d="M 0 159.5 L 687 159.5" opacity="1"></path><path fill="none" stroke="#333333" stroke-width="1" stroke-dasharray="none" data-z-index="1" class="highcharts-grid-line" d="M 0 99.5 L 687 99.5" opacity="1"></path><path fill="none" stroke="#333333" stroke-width="1" stroke-dasharray="none" data-z-index="1" class="highcharts-grid-line" d="M 0 39.5 L 687 39.5" opacity="1"></path></g><g class="highcharts-grid highcharts-yaxis-grid" data-z-index="1"></g><g class="highcharts-grid highcharts-yaxis-grid" data-z-index="1"></g><rect fill="none" class="highcharts-plot-border" data-z-index="1" x="0" y="40" width="687" height="416"></rect><g class="highcharts-axis highcharts-xaxis" data-z-index="2"><path fill="none" class="highcharts-axis-line" stroke="#616161" stroke-width="1" data-z-index="7" d="M 0 456.5 L 687 456.5"></path></g><g class="highcharts-axis highcharts-yaxis" data-z-index="2"><path fill="none" class="highcharts-axis-line" data-z-index="7" d="M 720 40 L 720 456"></path></g><g class="highcharts-axis highcharts-yaxis" data-z-index="2"><path fill="none" class="highcharts-axis-line" stroke="#616161" stroke-width="1" data-z-index="7" d="M -1.5 40 L -1.5 456"></path></g><g class="highcharts-series-group" data-z-index="3"><g class="highcharts-series highcharts-series-0 highcharts-area-series" data-z-index="90" opacity="1" transform="translate(0,40) scale(1 1)" clip-path="url(#highcharts-bd4tkxb-2326-)"><path fill="url(#highcharts-bd4tkxb-2327)" d="M 0 377.014857142857 L 1.6051401869159 377.490285714286 L 3.2102803738317 378.084571428571 L 4.8154205607477 378.250971428571 L 6.4205607476636 379.273142857143 L 8.0257009345794 379.914971428571 L 9.6308411214953 381.174857142857 L 11.235981308411 382.410971428571 L 12.841121495327 383.195428571429 L 14.446261682243 384.669257142857 L 16.051401869159 385.453714285714 L 17.656542056075 387.759542857143 L 19.261682242991 388.544 L 20.866822429907 389.304685714286 L 22.471962616822 390.493257142857 L 24.077102803738 391.872 L 25.682242990654 392.704 L 27.28738317757 392.8704 L 28.892523364486 392.8704 L 30.497663551402 393.060571428571 L 32.102803738318 393.179428571429 L 33.707943925234 393.654857142857 L 35.31308411215 394.011428571429 L 36.918224299065 394.605714285714 L 38.523364485981 394.890971428571 L 40.128504672897 395.2 L 41.733644859813 395.081142857143 L 43.338785046729 394.962285714286 L 44.943925233645 393.892571428571 L 46.549065420561 389.138285714286 L 48.154205607477 388.116114285714 L 49.759345794392 388.7104 L 51.364485981308 391.51542857142897 L 52.969626168224 395.960685714286 L 54.57476635514 393.060571428571 L 56.179906542056 392.822857142857 L 57.785046728972 394.249142857143 L 59.390186915888 393.536 L 60.995327102804 393.773714285714 L 62.60046728972 394.486857142857 L 64.205607476635 394.058971428571 L 65.810747663551 394.415542857143 L 67.415887850467 395.437714285714 L 69.021028037383 394.890971428571 L 70.626168224299 396.1984 L 72.231308411215 398.456685714286 L 73.836448598131 398.409142857143 L 75.441588785047 395.2 L 77.046728971963 397.101714285714 L 78.651869158878 396.98285714285703 L 80.257009345794 397.268114285714 L 81.86214953271 397.386971428571 L 83.467289719626 397.624685714286 L 85.072429906542 397.386971428571 L 86.677570093458 397.386971428571 L 88.282710280374 396.792685714286 L 89.88785046729 395.3664 L 91.492990654206 391.325257142857 L 93.098130841122 391.277714285714 L 94.703271028037 392.276114285714 L 96.308411214953 392.822857142857 L 97.913551401869 392.109714285714 L 99.518691588785 391.990857142857 L 101.1238317757 391.753142857143 L 102.72897196262 392.0384 L 104.33411214953 391.872 L 105.93925233645 392.466285714286 L 107.54439252336 392.109714285714 L 109.14953271028 391.634285714286 L 110.7546728972 391.681828571429 L 112.35981308411 392.347428571429 L 113.96495327103 392.513828571429 L 115.57009345794 393.417142857143 L 117.17523364486 393.464685714286 L 118.78037383178 393.464685714286 L 120.38551401869 393.773714285714 L 121.99065420561 394.011428571429 L 123.59579439252 394.011428571429 L 125.20093457944 393.821257142857 L 126.80607476636 394.249142857143 L 128.41121495327 394.415542857143 L 130.01635514019 394.415542857143 L 131.6214953271 393.464685714286 L 133.22663551402 393.179428571429 L 134.83177570093 392.989257142857 L 136.43691588785 391.325257142857 L 138.04205607477 389.661257142857 L 139.64719626168 388.544 L 141.2523364486 387.997257142857 L 142.85747663551 387.8784 L 144.46261682243 387.759542857143 L 146.06775700935 387.949714285714 L 147.67289719626 388.068571428571 L 149.27803738318 388.068571428571 L 150.88317757009 387.8784 L 152.48831775701 386.927542857143 L 154.09345794393 385.216 L 155.69859813084 379.5584 L 157.30373831776 378.369828571429 L 158.90887850467 377.656685714286 L 160.51401869159 376.777142857143 L 162.1191588785 376.658285714286 L 163.72429906542 376.777142857143 L 165.32943925234 377.133714285714 L 166.93457943925 378.203428571429 L 168.53971962617 379.273142857143 L 170.14485981308 380.461714285714 L 171.75 381.056 L 173.35514018692 382.125714285714 L 174.96028037383 383.433142857143 L 176.56542056075 385.097142857143 L 178.17056074766 387.0464 L 179.77570093458 388.781714285714 L 181.3808411215 390.802285714286 L 182.98598130841 391.04 L 184.59112149533 391.634285714286 L 186.19626168224 390.017828571429 L 187.80140186916 385.976685714286 L 189.40654205607 385.691428571429 L 191.01168224299 387.236571428571 L 192.61682242991 387.712 L 194.22196261682 390.136685714286 L 195.82710280374 390.493257142857 L 197.43224299065 390.3744 L 199.03738317757 390.255542857143 L 200.64252336449 390.255542857143 L 202.2476635514 391.04 L 203.85280373832 391.681828571429 L 205.45794392523 392.632685714286 L 207.06308411215 394.130285714286 L 208.66822429907 395.2 L 210.27336448598 395.2 L 211.8785046729 391.04 L 213.48364485981 391.04 L 215.08878504673 390.20799999999997 L 216.69392523364 390.20799999999997 L 218.29906542056 390.730971428571 L 219.90420560748 391.396571428571 L 221.50934579439 391.634285714286 L 223.11448598131 392.109714285714 L 224.71962616822 392.632685714286 L 226.32476635514 392.8704 L 227.92990654206 392.989257142857 L 229.53504672897 393.179428571429 L 231.14018691589 393.536 L 232.7453271028 393.7024 L 234.35046728972 394.130285714286 L 235.95560747664 394.962285714286 L 237.56074766355 395.960685714286 L 239.16588785047 396.673828571429 L 240.77102803738 396.792685714286 L 242.3761682243 397.577142857143 L 243.98130841122 398.337828571429 L 245.58644859813 398.884571428571 L 247.19158878505 399.050971428571 L 248.79672897196 399.122285714286 L 250.40186915888 398.813257142857 L 252.00700934579 397.101714285714 L 253.61214953271 396.507428571429 L 255.21728971963 394.962285714286 L 256.82242990654 394.962285714286 L 258.42757009346 395.009828571429 L 260.03271028037 394.772114285714 L 261.63785046729 394.368 L 263.24299065421 393.654857142857 L 264.84813084112 393.464685714286 L 266.45327102804 393.417142857143 L 268.05841121495 393.298285714286 L 269.66355140187 392.941714285714 L 271.26869158879 392.394971428571 L 272.8738317757 392.632685714286 L 274.47897196262 392.466285714286 L 276.08411214953 392.466285714286 L 277.68925233645 392.466285714286 L 279.29439252336 392.585142857143 L 280.89953271028 392.585142857143 L 282.5046728972 392.822857142857 L 284.10981308411 392.466285714286 L 285.71495327103 392.513828571429 L 287.32009345794 391.753142857143 L 288.92523364486 391.872 L 290.53037383178 391.872 L 292.13551401869 391.990857142857 L 293.74065420561 390.136685714286 L 295.34579439252 389.970285714286 L 296.95093457944 390.089142857143 L 298.55607476636 389.732571428571 L 300.16121495327 389.138285714286 L 301.76635514019 386.927542857143 L 303.3714953271 385.738971428571 L 304.97663551402 383.31428571428603 L 306.58177570093 381.650285714286 L 308.18691588785 379.035428571429 L 309.79205607477 376.468114285714 L 311.39719626168 374.090971428571 L 313.0023364486 373.972114285714 L 314.60747663551 373.686857142857 L 316.21261682243 372.022857142857 L 317.81775700935 372.022857142857 L 319.42289719626 369.336685714286 L 321.02803738318 368.457142857143 L 322.63317757009 367.9104 L 324.23831775701 367.268571428571 L 325.84345794393 367.03085714285703 L 327.44859813084 365.842285714286 L 329.05373831776 364.297142857143 L 330.65887850467 362.395428571429 L 332.26401869159 356.571428571429 L 333.8691588785 347.062857142857 L 335.47429906542 347.062857142857 L 337.07943925234 345.874285714286 L 338.68457943925 344.448 L 340.28971962617 340.810971428571 L 341.89485981308 336.96 L 343.5 333.394285714286 L 345.10514018692 329.519542857143 L 346.71028037383 326.857142857143 L 348.31542056075 324.17097142857097 L 349.92056074766 319.131428571429 L 351.52570093458 317.348571428571 L 353.1308411215 313.78285714286 L 354.73598130841 307.24571428571 L 356.34112149533 303.37097142857 L 357.94626168224 296.54857142856997 L 359.55140186916 285.5424 L 361.15654205607 273.0624 L 362.76168224299 265.05142857143 L 364.36682242991 244.84571428571 L 365.97196261682 83.19999999999999 L 367.57710280374 83.19999999999999 L 369.18224299065 130.74285714285998 L 370.78738317757 130.74285714285998 L 372.39252336449 130.74285714285998 L 373.9976635514 130.74285714285998 L 375.60280373832 206.81142857143 L 377.20794392523 206.81142857143 L 378.81308411215 230.58285714286 L 380.41822429907 225.82857142857 L 382.02336448598 225.82857142857 L 383.6285046729 254.35428571429 L 385.23364485981 269.80571428571 L 386.83878504673 280.50285714285997 L 388.44392523364 259.10857142857003 L 390.04906542056 261.48571428571 L 391.65420560748 285.25714285714 L 393.25934579439 309.02857142857 L 394.86448598131 285.25714285714 L 396.46962616822 282.88 L 398.07476635514 297.14285714286 L 399.67990654206 309.02857142857 L 401.28504672897 297.14285714286 L 402.89018691589 311.40571428571 L 404.4953271028 299.52 L 406.10046728972 287.63428571429 L 407.70560747664 287.63428571429 L 409.31074766355 287.63428571429 L 410.91588785047 314.37714285714003 L 412.52102803738 298.33142857143 L 414.1261682243 313.78285714286 L 415.73130841122 313.78285714286 L 417.33644859813 315.56571428571 L 418.94158878505 319.131428571429 L 420.54672897196 316.15999999999997 L 422.15186915888 316.75428571428597 L 423.75700934579 319.131428571429 L 425.36214953271 316.75428571428597 L 426.96728971963 308.43428571429 L 428.57242990654 307.008 L 430.17757009346 305.46285714286 L 431.78271028037 292.38857142857 L 433.38785046729 270.99428571428996 L 434.99299065421 268.37942857143 L 436.59813084112 243.65714285714 L 438.20327102804 255.54285714286 L 439.80841121495 275.74857142857 L 441.41355140187 284.66285714286 L 443.01869158878 279.31428571429 L 444.6238317757 293.22057142857 L 446.22897196262 292.74514285713997 L 447.83411214953 299.16342857143 L 449.43925233645 292.26971428571 L 451.04439252336 292.38857142857 L 452.64953271028 292.98285714286 L 454.2546728972 291.79428571429 L 455.85981308411 291.79428571429 L 457.46495327103 292.38857142857 L 459.07009345794 295.36 L 460.67523364486 292.98285714286 L 462.28037383178 294.76571428571003 L 463.88551401869 295.36 L 465.49065420561 298.33142857143 L 467.09579439252 301.89714285714 L 468.70093457944 307.48342857143 L 470.30607476636 317.348571428571 L 471.91121495327 315.56571428571 L 473.51635514019 312.59428571429 L 475.1214953271 312 L 476.72663551402 316.15999999999997 L 478.33177570093 315.20914285714 L 479.93691588785 319.725714285714 L 481.54205607477 319.963428571429 L 483.14719626168 321.746285714286 L 484.7523364486 332.8 L 486.35747663551 335.177142857143 L 487.96261682243 332.205714285714 L 489.56775700935 334.345142857143 L 491.17289719626 329.82857142857097 L 492.77803738318 333.988571428571 L 494.38317757009 331.13599999999997 L 495.98831775701 331.84914285714297 L 497.59345794393 334.582857142857 L 499.19859813084 343.497142857143 L 500.80373831776 348.845714285714 L 502.40887850467 348.845714285714 L 504.01401869159 347.657142857143 L 505.6191588785 338.742857142857 L 507.22429906542 332.086857142857 L 508.82943925234 329.472 L 510.43457943925 320.914285714286 L 512.03971962617 332.205714285714 L 513.64485981308 327.451428571429 L 515.25 323.885714285714 L 516.85514018692 322.10285714285703 L 518.46028037383 328.045714285714 L 520.06542056075 332.562285714286 L 521.67056074766 331.01714285714297 L 523.27570093458 332.205714285714 L 524.8808411215 328.64 L 526.48598130841 329.234285714286 L 528.09112149533 331.84914285714297 L 529.69626168224 330.185142857143 L 531.30140186916 334.226285714286 L 532.90654205607 333.632 L 534.51168224299 339.931428571429 L 536.11682242991 349.321142857143 L 537.72196261682 350.272 L 539.32710280374 351.222857142857 L 540.93224299065 353.243428571429 L 542.53738317757 354.194285714286 L 544.14252336449 355.977142857143 L 545.7476635514 362.752 L 547.35280373832 371.428571428571 L 548.95794392523 373.805714285714 L 550.56308411215 367.506285714286 L 552.16822429907 357.403428571429 L 553.77336448598 361.325714285714 L 555.3785046729 360.731428571429 L 556.98364485981 361.92 L 558.58878504673 369.051428571429 L 560.19392523364 367.268571428571 L 561.79906542056 368.33828571428603 L 563.40420560748 368.100571428571 L 565.00934579439 367.862857142857 L 566.61448598131 368.33828571428603 L 568.21962616822 360.731428571429 L 569.82476635514 359.186285714286 L 571.42990654206 363.108571428571 L 573.03504672897 363.702857142857 L 574.64018691589 366.08 L 576.2453271028 366.317714285714 L 577.85046728972 362.395428571429 L 579.45560747664 362.038857142857 L 581.06074766355 354.550857142857 L 582.66588785047 353.124571428571 L 584.27102803738 350.628571428571 L 585.8761682243 349.202285714286 L 587.48130841121 347.300571428571 L 589.08644859813 348.251428571429 L 590.69158878505 347.181714285714 L 592.29672897196 350.034285714286 L 593.90186915888 356.690285714286 L 595.50700934579 356.096 L 597.11214953271 359.186285714286 L 598.71728971963 357.522285714286 L 600.32242990654 355.858285714286 L 601.92757009346 355.858285714286 L 603.53271028037 355.026285714286 L 605.13785046729 359.305142857143 L 606.74299065421 354.313142857143 L 608.34813084112 356.809142857143 L 609.95327102804 357.284571428571 L 611.55841121495 356.809142857143 L 613.16355140187 351.698285714286 L 614.76869158879 339.09942857142903 L 616.3738317757 335.296 L 617.97897196262 341.357714285714 L 619.58411214953 341.476571428571 L 621.18925233645 342.427428571429 L 622.79439252336 344.923428571429 L 624.39953271028 346.11199999999997 L 626.0046728972 346.70628571428597 L 627.60981308411 343.021714285714 L 629.21495327103 344.566857142857 L 630.82009345794 348.608 L 632.42523364486 341.714285714286 L 634.03037383178 346.70628571428597 L 635.63551401869 341.357714285714 L 637.24065420561 338.980571428571 L 638.84579439252 339.218285714286 L 640.45093457944 333.750857142857 L 642.05607476636 311.52457142856997 L 643.66121495327 306.41371428571 L 645.26635514019 303.91771428571 L 646.8714953271 312.23771428571 L 648.47663551402 311.40571428571 L 650.08177570093 299.63885714286 L 651.68691588785 276.69942857142996 L 653.29205607477 289.77371428571 L 654.89719626168 300.82742857143 L 656.5023364486 295.12228571429 L 658.10747663551 298.33142857143 L 659.71261682243 289.536 L 661.31775700935 299.52 L 662.92289719626 290.48685714286 L 664.52803738318 297.26171428571 L 666.13317757009 299.87657142857 L 667.73831775701 295.24114285714 L 669.34345794393 294.88457142857 L 670.94859813084 296.31085714286 L 672.55373831776 292.15085714286 L 674.15887850467 286.20799999999997 L 675.76401869159 282.40457142856997 L 677.3691588785 282.28571428571 L 678.97429906542 276.93714285714 L 678.97429906542 416 L 677.3691588785 416 L 675.76401869159 416 L 674.15887850467 416 L 672.55373831776 416 L 670.94859813084 416 L 669.34345794393 416 L 667.73831775701 416 L 666.13317757009 416 L 664.52803738318 416 L 662.92289719626 416 L 661.31775700935 416 L 659.71261682243 416 L 658.10747663551 416 L 656.5023364486 416 L 654.89719626168 416 L 653.29205607477 416 L 651.68691588785 416 L 650.08177570093 416 L 648.47663551402 416 L 646.8714953271 416 L 645.26635514019 416 L 643.66121495327 416 L 642.05607476636 416 L 640.45093457944 416 L 638.84579439252 416 L 637.24065420561 416 L 635.63551401869 416 L 634.03037383178 416 L 632.42523364486 416 L 630.82009345794 416 L 629.21495327103 416 L 627.60981308411 416 L 626.0046728972 416 L 624.39953271028 416 L 622.79439252336 416 L 621.18925233645 416 L 619.58411214953 416 L 617.97897196262 416 L 616.3738317757 416 L 614.76869158879 416 L 613.16355140187 416 L 611.55841121495 416 L 609.95327102804 416 L 608.34813084112 416 L 606.74299065421 416 L 605.13785046729 416 L 603.53271028037 416 L 601.92757009346 416 L 600.32242990654 416 L 598.71728971963 416 L 597.11214953271 416 L 595.50700934579 416 L 593.90186915888 416 L 592.29672897196 416 L 590.69158878505 416 L 589.08644859813 416 L 587.48130841121 416 L 585.8761682243 416 L 584.27102803738 416 L 582.66588785047 416 L 581.06074766355 416 L 579.45560747664 416 L 577.85046728972 416 L 576.2453271028 416 L 574.64018691589 416 L 573.03504672897 416 L 571.42990654206 416 L 569.82476635514 416 L 568.21962616822 416 L 566.61448598131 416 L 565.00934579439 416 L 563.40420560748 416 L 561.79906542056 416 L 560.19392523364 416 L 558.58878504673 416 L 556.98364485981 416 L 555.3785046729 416 L 553.77336448598 416 L 552.16822429907 416 L 550.56308411215 416 L 548.95794392523 416 L 547.35280373832 416 L 545.7476635514 416 L 544.14252336449 416 L 542.53738317757 416 L 540.93224299065 416 L 539.32710280374 416 L 537.72196261682 416 L 536.11682242991 416 L 534.51168224299 416 L 532.90654205607 416 L 531.30140186916 416 L 529.69626168224 416 L 528.09112149533 416 L 526.48598130841 416 L 524.8808411215 416 L 523.27570093458 416 L 521.67056074766 416 L 520.06542056075 416 L 518.46028037383 416 L 516.85514018692 416 L 515.25 416 L 513.64485981308 416 L 512.03971962617 416 L 510.43457943925 416 L 508.82943925234 416 L 507.22429906542 416 L 505.6191588785 416 L 504.01401869159 416 L 502.40887850467 416 L 500.80373831776 416 L 499.19859813084 416 L 497.59345794393 416 L 495.98831775701 416 L 494.38317757009 416 L 492.77803738318 416 L 491.17289719626 416 L 489.56775700935 416 L 487.96261682243 416 L 486.35747663551 416 L 484.7523364486 416 L 483.14719626168 416 L 481.54205607477 416 L 479.93691588785 416 L 478.33177570093 416 L 476.72663551402 416 L 475.1214953271 416 L 473.51635514019 416 L 471.91121495327 416 L 470.30607476636 416 L 468.70093457944 416 L 467.09579439252 416 L 465.49065420561 416 L 463.88551401869 416 L 462.28037383178 416 L 460.67523364486 416 L 459.07009345794 416 L 457.46495327103 416 L 455.85981308411 416 L 454.2546728972 416 L 452.64953271028 416 L 451.04439252336 416 L 449.43925233645 416 L 447.83411214953 416 L 446.22897196262 416 L 444.6238317757 416 L 443.01869158878 416 L 441.41355140187 416 L 439.80841121495 416 L 438.20327102804 416 L 436.59813084112 416 L 434.99299065421 416 L 433.38785046729 416 L 431.78271028037 416 L 430.17757009346 416 L 428.57242990654 416 L 426.96728971963 416 L 425.36214953271 416 L 423.75700934579 416 L 422.15186915888 416 L 420.54672897196 416 L 418.94158878505 416 L 417.33644859813 416 L 415.73130841122 416 L 414.1261682243 416 L 412.52102803738 416 L 410.91588785047 416 L 409.31074766355 416 L 407.70560747664 416 L 406.10046728972 416 L 404.4953271028 416 L 402.89018691589 416 L 401.28504672897 416 L 399.67990654206 416 L 398.07476635514 416 L 396.46962616822 416 L 394.86448598131 416 L 393.25934579439 416 L 391.65420560748 416 L 390.04906542056 416 L 388.44392523364 416 L 386.83878504673 416 L 385.23364485981 416 L 383.6285046729 416 L 382.02336448598 416 L 380.41822429907 416 L 378.81308411215 416 L 377.20794392523 416 L 375.60280373832 416 L 373.9976635514 416 L 372.39252336449 416 L 370.78738317757 416 L 369.18224299065 416 L 367.57710280374 416 L 365.97196261682 416 L 364.36682242991 416 L 362.76168224299 416 L 361.15654205607 416 L 359.55140186916 416 L 357.94626168224 416 L 356.34112149533 416 L 354.73598130841 416 L 353.1308411215 416 L 351.52570093458 416 L 349.92056074766 416 L 348.31542056075 416 L 346.71028037383 416 L 345.10514018692 416 L 343.5 416 L 341.89485981308 416 L 340.28971962617 416 L 338.68457943925 416 L 337.07943925234 416 L 335.47429906542 416 L 333.8691588785 416 L 332.26401869159 416 L 330.65887850467 416 L 329.05373831776 416 L 327.44859813084 416 L 325.84345794393 416 L 324.23831775701 416 L 322.63317757009 416 L 321.02803738318 416 L 319.42289719626 416 L 317.81775700935 416 L 316.21261682243 416 L 314.60747663551 416 L 313.0023364486 416 L 311.39719626168 416 L 309.79205607477 416 L 308.18691588785 416 L 306.58177570093 416 L 304.97663551402 416 L 303.3714953271 416 L 301.76635514019 416 L 300.16121495327 416 L 298.55607476636 416 L 296.95093457944 416 L 295.34579439252 416 L 293.74065420561 416 L 292.13551401869 416 L 290.53037383178 416 L 288.92523364486 416 L 287.32009345794 416 L 285.71495327103 416 L 284.10981308411 416 L 282.5046728972 416 L 280.89953271028 416 L 279.29439252336 416 L 277.68925233645 416 L 276.08411214953 416 L 274.47897196262 416 L 272.8738317757 416 L 271.26869158879 416 L 269.66355140187 416 L 268.05841121495 416 L 266.45327102804 416 L 264.84813084112 416 L 263.24299065421 416 L 261.63785046729 416 L 260.03271028037 416 L 258.42757009346 416 L 256.82242990654 416 L 255.21728971963 416 L 253.61214953271 416 L 252.00700934579 416 L 250.40186915888 416 L 248.79672897196 416 L 247.19158878505 416 L 245.58644859813 416 L 243.98130841122 416 L 242.3761682243 416 L 240.77102803738 416 L 239.16588785047 416 L 237.56074766355 416 L 235.95560747664 416 L 234.35046728972 416 L 232.7453271028 416 L 231.14018691589 416 L 229.53504672897 416 L 227.92990654206 416 L 226.32476635514 416 L 224.71962616822 416 L 223.11448598131 416 L 221.50934579439 416 L 219.90420560748 416 L 218.29906542056 416 L 216.69392523364 416 L 215.08878504673 416 L 213.48364485981 416 L 211.8785046729 416 L 210.27336448598 416 L 208.66822429907 416 L 207.06308411215 416 L 205.45794392523 416 L 203.85280373832 416 L 202.2476635514 416 L 200.64252336449 416 L 199.03738317757 416 L 197.43224299065 416 L 195.82710280374 416 L 194.22196261682 416 L 192.61682242991 416 L 191.01168224299 416 L 189.40654205607 416 L 187.80140186916 416 L 186.19626168224 416 L 184.59112149533 416 L 182.98598130841 416 L 181.3808411215 416 L 179.77570093458 416 L 178.17056074766 416 L 176.56542056075 416 L 174.96028037383 416 L 173.35514018692 416 L 171.75 416 L 170.14485981308 416 L 168.53971962617 416 L 166.93457943925 416 L 165.32943925234 416 L 163.72429906542 416 L 162.1191588785 416 L 160.51401869159 416 L 158.90887850467 416 L 157.30373831776 416 L 155.69859813084 416 L 154.09345794393 416 L 152.48831775701 416 L 150.88317757009 416 L 149.27803738318 416 L 147.67289719626 416 L 146.06775700935 416 L 144.46261682243 416 L 142.85747663551 416 L 141.2523364486 416 L 139.64719626168 416 L 138.04205607477 416 L 136.43691588785 416 L 134.83177570093 416 L 133.22663551402 416 L 131.6214953271 416 L 130.01635514019 416 L 128.41121495327 416 L 126.80607476636 416 L 125.20093457944 416 L 123.59579439252 416 L 121.99065420561 416 L 120.38551401869 416 L 118.78037383178 416 L 117.17523364486 416 L 115.57009345794 416 L 113.96495327103 416 L 112.35981308411 416 L 110.7546728972 416 L 109.14953271028 416 L 107.54439252336 416 L 105.93925233645 416 L 104.33411214953 416 L 102.72897196262 416 L 101.1238317757 416 L 99.518691588785 416 L 97.913551401869 416 L 96.308411214953 416 L 94.703271028037 416 L 93.098130841122 416 L 91.492990654206 416 L 89.88785046729 416 L 88.282710280374 416 L 86.677570093458 416 L 85.072429906542 416 L 83.467289719626 416 L 81.86214953271 416 L 80.257009345794 416 L 78.651869158878 416 L 77.046728971963 416 L 75.441588785047 416 L 73.836448598131 416 L 72.231308411215 416 L 70.626168224299 416 L 69.021028037383 416 L 67.415887850467 416 L 65.810747663551 416 L 64.205607476635 416 L 62.60046728972 416 L 60.995327102804 416 L 59.390186915888 416 L 57.785046728972 416 L 56.179906542056 416 L 54.57476635514 416 L 52.969626168224 416 L 51.364485981308 416 L 49.759345794392 416 L 48.154205607477 416 L 46.549065420561 416 L 44.943925233645 416 L 43.338785046729 416 L 41.733644859813 416 L 40.128504672897 416 L 38.523364485981 416 L 36.918224299065 416 L 35.31308411215 416 L 33.707943925234 416 L 32.102803738318 416 L 30.497663551402 416 L 28.892523364486 416 L 27.28738317757 416 L 25.682242990654 416 L 24.077102803738 416 L 22.471962616822 416 L 20.866822429907 416 L 19.261682242991 416 L 17.656542056075 416 L 16.051401869159 416 L 14.446261682243 416 L 12.841121495327 416 L 11.235981308411 416 L 9.6308411214953 416 L 8.0257009345794 416 L 6.4205607476636 416 L 4.8154205607477 416 L 3.2102803738317 416 L 1.6051401869159 416 L 0 416 Z" class="highcharts-area" data-z-index="0"></path><path fill="none" d="M 0 377.014857142857 L 1.6051401869159 377.490285714286 L 3.2102803738317 378.084571428571 L 4.8154205607477 378.250971428571 L 6.4205607476636 379.273142857143 L 8.0257009345794 379.914971428571 L 9.6308411214953 381.174857142857 L 11.235981308411 382.410971428571 L 12.841121495327 383.195428571429 L 14.446261682243 384.669257142857 L 16.051401869159 385.453714285714 L 17.656542056075 387.759542857143 L 19.261682242991 388.544 L 20.866822429907 389.304685714286 L 22.471962616822 390.493257142857 L 24.077102803738 391.872 L 25.682242990654 392.704 L 27.28738317757 392.8704 L 28.892523364486 392.8704 L 30.497663551402 393.060571428571 L 32.102803738318 393.179428571429 L 33.707943925234 393.654857142857 L 35.31308411215 394.011428571429 L 36.918224299065 394.605714285714 L 38.523364485981 394.890971428571 L 40.128504672897 395.2 L 41.733644859813 395.081142857143 L 43.338785046729 394.962285714286 L 44.943925233645 393.892571428571 L 46.549065420561 389.138285714286 L 48.154205607477 388.116114285714 L 49.759345794392 388.7104 L 51.364485981308 391.51542857142897 L 52.969626168224 395.960685714286 L 54.57476635514 393.060571428571 L 56.179906542056 392.822857142857 L 57.785046728972 394.249142857143 L 59.390186915888 393.536 L 60.995327102804 393.773714285714 L 62.60046728972 394.486857142857 L 64.205607476635 394.058971428571 L 65.810747663551 394.415542857143 L 67.415887850467 395.437714285714 L 69.021028037383 394.890971428571 L 70.626168224299 396.1984 L 72.231308411215 398.456685714286 L 73.836448598131 398.409142857143 L 75.441588785047 395.2 L 77.046728971963 397.101714285714 L 78.651869158878 396.98285714285703 L 80.257009345794 397.268114285714 L 81.86214953271 397.386971428571 L 83.467289719626 397.624685714286 L 85.072429906542 397.386971428571 L 86.677570093458 397.386971428571 L 88.282710280374 396.792685714286 L 89.88785046729 395.3664 L 91.492990654206 391.325257142857 L 93.098130841122 391.277714285714 L 94.703271028037 392.276114285714 L 96.308411214953 392.822857142857 L 97.913551401869 392.109714285714 L 99.518691588785 391.990857142857 L 101.1238317757 391.753142857143 L 102.72897196262 392.0384 L 104.33411214953 391.872 L 105.93925233645 392.466285714286 L 107.54439252336 392.109714285714 L 109.14953271028 391.634285714286 L 110.7546728972 391.681828571429 L 112.35981308411 392.347428571429 L 113.96495327103 392.513828571429 L 115.57009345794 393.417142857143 L 117.17523364486 393.464685714286 L 118.78037383178 393.464685714286 L 120.38551401869 393.773714285714 L 121.99065420561 394.011428571429 L 123.59579439252 394.011428571429 L 125.20093457944 393.821257142857 L 126.80607476636 394.249142857143 L 128.41121495327 394.415542857143 L 130.01635514019 394.415542857143 L 131.6214953271 393.464685714286 L 133.22663551402 393.179428571429 L 134.83177570093 392.989257142857 L 136.43691588785 391.325257142857 L 138.04205607477 389.661257142857 L 139.64719626168 388.544 L 141.2523364486 387.997257142857 L 142.85747663551 387.8784 L 144.46261682243 387.759542857143 L 146.06775700935 387.949714285714 L 147.67289719626 388.068571428571 L 149.27803738318 388.068571428571 L 150.88317757009 387.8784 L 152.48831775701 386.927542857143 L 154.09345794393 385.216 L 155.69859813084 379.5584 L 157.30373831776 378.369828571429 L 158.90887850467 377.656685714286 L 160.51401869159 376.777142857143 L 162.1191588785 376.658285714286 L 163.72429906542 376.777142857143 L 165.32943925234 377.133714285714 L 166.93457943925 378.203428571429 L 168.53971962617 379.273142857143 L 170.14485981308 380.461714285714 L 171.75 381.056 L 173.35514018692 382.125714285714 L 174.96028037383 383.433142857143 L 176.56542056075 385.097142857143 L 178.17056074766 387.0464 L 179.77570093458 388.781714285714 L 181.3808411215 390.802285714286 L 182.98598130841 391.04 L 184.59112149533 391.634285714286 L 186.19626168224 390.017828571429 L 187.80140186916 385.976685714286 L 189.40654205607 385.691428571429 L 191.01168224299 387.236571428571 L 192.61682242991 387.712 L 194.22196261682 390.136685714286 L 195.82710280374 390.493257142857 L 197.43224299065 390.3744 L 199.03738317757 390.255542857143 L 200.64252336449 390.255542857143 L 202.2476635514 391.04 L 203.85280373832 391.681828571429 L 205.45794392523 392.632685714286 L 207.06308411215 394.130285714286 L 208.66822429907 395.2 L 210.27336448598 395.2 L 211.8785046729 391.04 L 213.48364485981 391.04 L 215.08878504673 390.20799999999997 L 216.69392523364 390.20799999999997 L 218.29906542056 390.730971428571 L 219.90420560748 391.396571428571 L 221.50934579439 391.634285714286 L 223.11448598131 392.109714285714 L 224.71962616822 392.632685714286 L 226.32476635514 392.8704 L 227.92990654206 392.989257142857 L 229.53504672897 393.179428571429 L 231.14018691589 393.536 L 232.7453271028 393.7024 L 234.35046728972 394.130285714286 L 235.95560747664 394.962285714286 L 237.56074766355 395.960685714286 L 239.16588785047 396.673828571429 L 240.77102803738 396.792685714286 L 242.3761682243 397.577142857143 L 243.98130841122 398.337828571429 L 245.58644859813 398.884571428571 L 247.19158878505 399.050971428571 L 248.79672897196 399.122285714286 L 250.40186915888 398.813257142857 L 252.00700934579 397.101714285714 L 253.61214953271 396.507428571429 L 255.21728971963 394.962285714286 L 256.82242990654 394.962285714286 L 258.42757009346 395.009828571429 L 260.03271028037 394.772114285714 L 261.63785046729 394.368 L 263.24299065421 393.654857142857 L 264.84813084112 393.464685714286 L 266.45327102804 393.417142857143 L 268.05841121495 393.298285714286 L 269.66355140187 392.941714285714 L 271.26869158879 392.394971428571 L 272.8738317757 392.632685714286 L 274.47897196262 392.466285714286 L 276.08411214953 392.466285714286 L 277.68925233645 392.466285714286 L 279.29439252336 392.585142857143 L 280.89953271028 392.585142857143 L 282.5046728972 392.822857142857 L 284.10981308411 392.466285714286 L 285.71495327103 392.513828571429 L 287.32009345794 391.753142857143 L 288.92523364486 391.872 L 290.53037383178 391.872 L 292.13551401869 391.990857142857 L 293.74065420561 390.136685714286 L 295.34579439252 389.970285714286 L 296.95093457944 390.089142857143 L 298.55607476636 389.732571428571 L 300.16121495327 389.138285714286 L 301.76635514019 386.927542857143 L 303.3714953271 385.738971428571 L 304.97663551402 383.31428571428603 L 306.58177570093 381.650285714286 L 308.18691588785 379.035428571429 L 309.79205607477 376.468114285714 L 311.39719626168 374.090971428571 L 313.0023364486 373.972114285714 L 314.60747663551 373.686857142857 L 316.21261682243 372.022857142857 L 317.81775700935 372.022857142857 L 319.42289719626 369.336685714286 L 321.02803738318 368.457142857143 L 322.63317757009 367.9104 L 324.23831775701 367.268571428571 L 325.84345794393 367.03085714285703 L 327.44859813084 365.842285714286 L 329.05373831776 364.297142857143 L 330.65887850467 362.395428571429 L 332.26401869159 356.571428571429 L 333.8691588785 347.062857142857 L 335.47429906542 347.062857142857 L 337.07943925234 345.874285714286 L 338.68457943925 344.448 L 340.28971962617 340.810971428571 L 341.89485981308 336.96 L 343.5 333.394285714286 L 345.10514018692 329.519542857143 L 346.71028037383 326.857142857143 L 348.31542056075 324.17097142857097 L 349.92056074766 319.131428571429 L 351.52570093458 317.348571428571 L 353.1308411215 313.78285714286 L 354.73598130841 307.24571428571 L 356.34112149533 303.37097142857 L 357.94626168224 296.54857142856997 L 359.55140186916 285.5424 L 361.15654205607 273.0624 L 362.76168224299 265.05142857143 L 364.36682242991 244.84571428571 L 365.97196261682 83.19999999999999 L 367.57710280374 83.19999999999999 L 369.18224299065 130.74285714285998 L 370.78738317757 130.74285714285998 L 372.39252336449 130.74285714285998 L 373.9976635514 130.74285714285998 L 375.60280373832 206.81142857143 L 377.20794392523 206.81142857143 L 378.81308411215 230.58285714286 L 380.41822429907 225.82857142857 L 382.02336448598 225.82857142857 L 383.6285046729 254.35428571429 L 385.23364485981 269.80571428571 L 386.83878504673 280.50285714285997 L 388.44392523364 259.10857142857003 L 390.04906542056 261.48571428571 L 391.65420560748 285.25714285714 L 393.25934579439 309.02857142857 L 394.86448598131 285.25714285714 L 396.46962616822 282.88 L 398.07476635514 297.14285714286 L 399.67990654206 309.02857142857 L 401.28504672897 297.14285714286 L 402.89018691589 311.40571428571 L 404.4953271028 299.52 L 406.10046728972 287.63428571429 L 407.70560747664 287.63428571429 L 409.31074766355 287.63428571429 L 410.91588785047 314.37714285714003 L 412.52102803738 298.33142857143 L 414.1261682243 313.78285714286 L 415.73130841122 313.78285714286 L 417.33644859813 315.56571428571 L 418.94158878505 319.131428571429 L 420.54672897196 316.15999999999997 L 422.15186915888 316.75428571428597 L 423.75700934579 319.131428571429 L 425.36214953271 316.75428571428597 L 426.96728971963 308.43428571429 L 428.57242990654 307.008 L 430.17757009346 305.46285714286 L 431.78271028037 292.38857142857 L 433.38785046729 270.99428571428996 L 434.99299065421 268.37942857143 L 436.59813084112 243.65714285714 L 438.20327102804 255.54285714286 L 439.80841121495 275.74857142857 L 441.41355140187 284.66285714286 L 443.01869158878 279.31428571429 L 444.6238317757 293.22057142857 L 446.22897196262 292.74514285713997 L 447.83411214953 299.16342857143 L 449.43925233645 292.26971428571 L 451.04439252336 292.38857142857 L 452.64953271028 292.98285714286 L 454.2546728972 291.79428571429 L 455.85981308411 291.79428571429 L 457.46495327103 292.38857142857 L 459.07009345794 295.36 L 460.67523364486 292.98285714286 L 462.28037383178 294.76571428571003 L 463.88551401869 295.36 L 465.49065420561 298.33142857143 L 467.09579439252 301.89714285714 L 468.70093457944 307.48342857143 L 470.30607476636 317.348571428571 L 471.91121495327 315.56571428571 L 473.51635514019 312.59428571429 L 475.1214953271 312 L 476.72663551402 316.15999999999997 L 478.33177570093 315.20914285714 L 479.93691588785 319.725714285714 L 481.54205607477 319.963428571429 L 483.14719626168 321.746285714286 L 484.7523364486 332.8 L 486.35747663551 335.177142857143 L 487.96261682243 332.205714285714 L 489.56775700935 334.345142857143 L 491.17289719626 329.82857142857097 L 492.77803738318 333.988571428571 L 494.38317757009 331.13599999999997 L 495.98831775701 331.84914285714297 L 497.59345794393 334.582857142857 L 499.19859813084 343.497142857143 L 500.80373831776 348.845714285714 L 502.40887850467 348.845714285714 L 504.01401869159 347.657142857143 L 505.6191588785 338.742857142857 L 507.22429906542 332.086857142857 L 508.82943925234 329.472 L 510.43457943925 320.914285714286 L 512.03971962617 332.205714285714 L 513.64485981308 327.451428571429 L 515.25 323.885714285714 L 516.85514018692 322.10285714285703 L 518.46028037383 328.045714285714 L 520.06542056075 332.562285714286 L 521.67056074766 331.01714285714297 L 523.27570093458 332.205714285714 L 524.8808411215 328.64 L 526.48598130841 329.234285714286 L 528.09112149533 331.84914285714297 L 529.69626168224 330.185142857143 L 531.30140186916 334.226285714286 L 532.90654205607 333.632 L 534.51168224299 339.931428571429 L 536.11682242991 349.321142857143 L 537.72196261682 350.272 L 539.32710280374 351.222857142857 L 540.93224299065 353.243428571429 L 542.53738317757 354.194285714286 L 544.14252336449 355.977142857143 L 545.7476635514 362.752 L 547.35280373832 371.428571428571 L 548.95794392523 373.805714285714 L 550.56308411215 367.506285714286 L 552.16822429907 357.403428571429 L 553.77336448598 361.325714285714 L 555.3785046729 360.731428571429 L 556.98364485981 361.92 L 558.58878504673 369.051428571429 L 560.19392523364 367.268571428571 L 561.79906542056 368.33828571428603 L 563.40420560748 368.100571428571 L 565.00934579439 367.862857142857 L 566.61448598131 368.33828571428603 L 568.21962616822 360.731428571429 L 569.82476635514 359.186285714286 L 571.42990654206 363.108571428571 L 573.03504672897 363.702857142857 L 574.64018691589 366.08 L 576.2453271028 366.317714285714 L 577.85046728972 362.395428571429 L 579.45560747664 362.038857142857 L 581.06074766355 354.550857142857 L 582.66588785047 353.124571428571 L 584.27102803738 350.628571428571 L 585.8761682243 349.202285714286 L 587.48130841121 347.300571428571 L 589.08644859813 348.251428571429 L 590.69158878505 347.181714285714 L 592.29672897196 350.034285714286 L 593.90186915888 356.690285714286 L 595.50700934579 356.096 L 597.11214953271 359.186285714286 L 598.71728971963 357.522285714286 L 600.32242990654 355.858285714286 L 601.92757009346 355.858285714286 L 603.53271028037 355.026285714286 L 605.13785046729 359.305142857143 L 606.74299065421 354.313142857143 L 608.34813084112 356.809142857143 L 609.95327102804 357.284571428571 L 611.55841121495 356.809142857143 L 613.16355140187 351.698285714286 L 614.76869158879 339.09942857142903 L 616.3738317757 335.296 L 617.97897196262 341.357714285714 L 619.58411214953 341.476571428571 L 621.18925233645 342.427428571429 L 622.79439252336 344.923428571429 L 624.39953271028 346.11199999999997 L 626.0046728972 346.70628571428597 L 627.60981308411 343.021714285714 L 629.21495327103 344.566857142857 L 630.82009345794 348.608 L 632.42523364486 341.714285714286 L 634.03037383178 346.70628571428597 L 635.63551401869 341.357714285714 L 637.24065420561 338.980571428571 L 638.84579439252 339.218285714286 L 640.45093457944 333.750857142857 L 642.05607476636 311.52457142856997 L 643.66121495327 306.41371428571 L 645.26635514019 303.91771428571 L 646.8714953271 312.23771428571 L 648.47663551402 311.40571428571 L 650.08177570093 299.63885714286 L 651.68691588785 276.69942857142996 L 653.29205607477 289.77371428571 L 654.89719626168 300.82742857143 L 656.5023364486 295.12228571429 L 658.10747663551 298.33142857143 L 659.71261682243 289.536 L 661.31775700935 299.52 L 662.92289719626 290.48685714286 L 664.52803738318 297.26171428571 L 666.13317757009 299.87657142857 L 667.73831775701 295.24114285714 L 669.34345794393 294.88457142857 L 670.94859813084 296.31085714286 L 672.55373831776 292.15085714286 L 674.15887850467 286.20799999999997 L 675.76401869159 282.40457142856997 L 677.3691588785 282.28571428571 L 678.97429906542 276.93714285714" class="highcharts-graph" data-z-index="1" stroke="#2962FF" stroke-width="2" stroke-linejoin="round" stroke-linecap="round"></path></g><g class="highcharts-markers highcharts-series-0 highcharts-area-series" data-z-index="90" opacity="1" transform="translate(0,40) scale(1 1)" clip-path="none"></g></g><text x="740" text-anchor="end" class="highcharts-title" data-z-index="4" style="color: rgb(211, 211, 211); font-size: 15px; fill: rgb(211, 211, 211);" y="512"></text><text x="14" text-anchor="start" class="highcharts-subtitle" data-z-index="4" style="color: rgb(51, 51, 51); fill: rgb(51, 51, 51); font-size: 15px;" y="25"><tspan style="color: rgb(211, 211, 211); fill: rgb(211, 211, 211);">Uranium</tspan></text><text x="0" text-anchor="start" class="highcharts-caption" data-z-index="4" style="color: rgb(102, 102, 102); fill: rgb(102, 102, 102);" y="527"></text><g class="highcharts-axis-labels highcharts-xaxis-labels" data-z-index="7"><text x="38.523364485981" text-anchor="middle" transform="translate(0,0)" style="color: rgb(227, 225, 225); cursor: default; font-size: 15px; font-weight: 400; fill: rgb(227, 225, 225);" y="476" opacity="1">1990</text><text x="134.83177570093" text-anchor="middle" transform="translate(0,0)" style="color: rgb(227, 225, 225); cursor: default; font-size: 15px; font-weight: 400; fill: rgb(227, 225, 225);" y="476" opacity="1">1995</text><text x="231.14018691589" text-anchor="middle" transform="translate(0,0)" style="color: rgb(227, 225, 225); cursor: default; font-size: 15px; font-weight: 400; fill: rgb(227, 225, 225);" y="476" opacity="1">2000</text><text x="327.44859813084" text-anchor="middle" transform="translate(0,0)" style="color: rgb(227, 225, 225); cursor: default; font-size: 15px; font-weight: 400; fill: rgb(227, 225, 225);" y="476" opacity="1">2005</text><text x="417.33644859813" text-anchor="middle" transform="translate(0,0)" style="color: rgb(227, 225, 225); cursor: default; font-size: 15px; font-weight: 400; fill: rgb(227, 225, 225);" y="476" opacity="1">2010</text><text x="513.64485981308" text-anchor="middle" transform="translate(0,0)" style="color: rgb(227, 225, 225); cursor: default; font-size: 15px; font-weight: 400; fill: rgb(227, 225, 225);" y="476" opacity="1">2015</text><text x="609.95327102804" text-anchor="middle" transform="translate(0,0)" style="color: rgb(227, 225, 225); cursor: default; font-size: 15px; font-weight: 400; fill: rgb(227, 225, 225);" y="476" opacity="1">2020</text></g><g class="highcharts-axis-labels highcharts-yaxis-labels" data-z-index="7"><text x="0" text-anchor="start" transform="translate(0,0)" style="color: rgb(227, 225, 225); cursor: default; font-size: 15px; fill: rgb(227, 225, 225);" visibility="hidden"><tspan>0</tspan></text><text x="695" text-anchor="start" transform="translate(0,0)" style="color: rgb(227, 225, 225); cursor: default; font-size: 15px; fill: rgb(227, 225, 225);" y="401" opacity="1">25</text><text x="695" text-anchor="start" transform="translate(0,0)" style="color: rgb(227, 225, 225); cursor: default; font-size: 15px; fill: rgb(227, 225, 225);" y="342" opacity="1">50</text><text x="695" text-anchor="start" transform="translate(0,0)" style="color: rgb(227, 225, 225); cursor: default; font-size: 15px; fill: rgb(227, 225, 225);" y="282" opacity="1">75</text><text x="695" text-anchor="start" transform="translate(0,0)" style="color: rgb(227, 225, 225); cursor: default; font-size: 15px; fill: rgb(227, 225, 225);" y="223" opacity="1">100</text><text x="695" text-anchor="start" transform="translate(0,0)" style="color: rgb(227, 225, 225); cursor: default; font-size: 15px; fill: rgb(227, 225, 225);" y="163" opacity="1">125</text><text x="695" text-anchor="start" transform="translate(0,0)" style="color: rgb(227, 225, 225); cursor: default; font-size: 15px; fill: rgb(227, 225, 225);" y="104" opacity="1">150</text><text x="0" text-anchor="start" transform="translate(0,0)" style="color: rgb(227, 225, 225); cursor: default; font-size: 15px; fill: rgb(227, 225, 225);" visibility="hidden">175</text></g><g class="highcharts-axis-labels highcharts-yaxis-labels" data-z-index="7"></g><g class="highcharts-axis-labels highcharts-yaxis-labels" data-z-index="7"></g><g class="highcharts-control-points" data-z-index="99" clip-path="url(#highcharts-bd4tkxb-2758-)"></g><g class="highcharts-axis highcharts-yaxis" data-z-index="9999"><path fill="none" class="highcharts-tick" stroke="#333333" stroke-width="1" d="M 688 456.5 L 693 456.5" opacity="1"></path><path fill="none" class="highcharts-tick" stroke="#333333" stroke-width="1" d="M 688 397.5 L 693 397.5" opacity="1"></path><path fill="none" class="highcharts-tick" stroke="#333333" stroke-width="1" d="M 688 337.5 L 693 337.5" opacity="1"></path><path fill="none" class="highcharts-tick" stroke="#333333" stroke-width="1" d="M 688 278.5 L 693 278.5" opacity="1"></path><path fill="none" class="highcharts-tick" stroke="#333333" stroke-width="1" d="M 688 218.5 L 693 218.5" opacity="1"></path><path fill="none" class="highcharts-tick" stroke="#333333" stroke-width="1" d="M 688 159.5 L 693 159.5" opacity="1"></path><path fill="none" class="highcharts-tick" stroke="#333333" stroke-width="1" d="M 688 99.5 L 693 99.5" opacity="1"></path><path fill="none" class="highcharts-tick" stroke="#333333" stroke-width="1" d="M 688 39.5 L 693 39.5" opacity="1"></path><path fill="none" class="highcharts-axis-line" stroke="#616161" stroke-width="1" data-z-index="7" d="M 688.5 40 L 688.5 456"></path></g><path fill="none" d="M 0 0 L 1792 0" stroke="#757575" stroke-width="1" stroke-dasharray="8,3" data-z-index="6" visibility="hidden" class="crosshair-fix-horizontal"></path><path fill="none" d="M 0 40 L 0 1160" stroke="#757575" stroke-width="1" stroke-dasharray="8,3" data-z-index="6" visibility="hidden" class="crosshair-fix-vertical"></path></svg>